<mxfile host="app.diagrams.net" agent="Mozilla/5.0 (Windows NT 10.0; Win64; x64) AppleWebKit/537.36 (KHTML, like Gecko) Chrome/137.0.0.0 Safari/537.36" version="27.1.4">
  <diagram id="Ht1M8jgEwFfnCIfOTk4-" name="Page-1">
    <mxGraphModel dx="2246" dy="1311" grid="1" gridSize="10" guides="1" tooltips="1" connect="1" arrows="1" fold="1" page="1" pageScale="1" pageWidth="1169" pageHeight="827" math="0" shadow="0">
      <root>
        <mxCell id="0" />
        <mxCell id="1" parent="0" />
        <mxCell id="RchtXjUBD6mUK6er0duv-1" value="&lt;font style=&quot;font-size: 13px;&quot;&gt;AWS Cloud&lt;/font&gt;" style="points=[[0,0],[0.25,0],[0.5,0],[0.75,0],[1,0],[1,0.25],[1,0.5],[1,0.75],[1,1],[0.75,1],[0.5,1],[0.25,1],[0,1],[0,0.75],[0,0.5],[0,0.25]];outlineConnect=0;gradientColor=none;html=1;whiteSpace=wrap;fontSize=13;fontStyle=0;container=1;pointerEvents=0;collapsible=0;recursiveResize=0;shape=mxgraph.aws4.group;grIcon=mxgraph.aws4.group_aws_cloud;strokeColor=#232F3E;fillColor=none;verticalAlign=top;align=left;spacingLeft=30;fontColor=#232F3E;dashed=0;strokeWidth=3;" parent="1" vertex="1">
          <mxGeometry x="2490" y="40" width="1460" height="1110" as="geometry" />
        </mxCell>
        <mxCell id="RchtXjUBD6mUK6er0duv-4" value="&lt;font style=&quot;font-size: 19px;&quot;&gt;&lt;b&gt;REPOSITORIO DE DATOS&lt;/b&gt;&lt;br&gt;&lt;/font&gt;" style="fillColor=#EFF0F3;strokeColor=none;dashed=0;verticalAlign=top;fontStyle=0;fontColor=#232F3D;whiteSpace=wrap;html=1;" parent="RchtXjUBD6mUK6er0duv-1" vertex="1">
          <mxGeometry x="560" y="275" width="890" height="363.75" as="geometry" />
        </mxCell>
        <mxCell id="YntPkXyulkXuXodMfOfy-39" style="edgeStyle=orthogonalEdgeStyle;rounded=0;orthogonalLoop=1;jettySize=auto;html=1;entryX=0;entryY=0.5;entryDx=0;entryDy=0;entryPerimeter=0;" parent="RchtXjUBD6mUK6er0duv-1" source="RchtXjUBD6mUK6er0duv-6" target="YntPkXyulkXuXodMfOfy-38" edge="1">
          <mxGeometry relative="1" as="geometry" />
        </mxCell>
        <mxCell id="RchtXjUBD6mUK6er0duv-6" value="&lt;span style=&quot;font-size: 17px;&quot;&gt;CRUDA&lt;/span&gt;" style="fillColor=#d5e8d4;strokeColor=#82b366;dashed=1;verticalAlign=top;fontStyle=0;whiteSpace=wrap;html=1;" parent="RchtXjUBD6mUK6er0duv-1" vertex="1">
          <mxGeometry x="590" y="320" width="150" height="300" as="geometry" />
        </mxCell>
        <mxCell id="RchtXjUBD6mUK6er0duv-7" value="Bucket" style="sketch=0;outlineConnect=0;fontColor=#232F3E;gradientColor=none;strokeColor=#232F3E;fillColor=#ffffff;dashed=0;verticalLabelPosition=bottom;verticalAlign=top;align=center;html=1;fontSize=12;fontStyle=0;aspect=fixed;shape=mxgraph.aws4.resourceIcon;resIcon=mxgraph.aws4.bucket;" parent="RchtXjUBD6mUK6er0duv-1" vertex="1">
          <mxGeometry x="635" y="350" width="60" height="60" as="geometry" />
        </mxCell>
        <mxCell id="RchtXjUBD6mUK6er0duv-8" value="Bucket" style="sketch=0;outlineConnect=0;fontColor=#232F3E;gradientColor=none;strokeColor=#232F3E;fillColor=#ffffff;dashed=0;verticalLabelPosition=bottom;verticalAlign=top;align=center;html=1;fontSize=12;fontStyle=0;aspect=fixed;shape=mxgraph.aws4.resourceIcon;resIcon=mxgraph.aws4.bucket;" parent="RchtXjUBD6mUK6er0duv-1" vertex="1">
          <mxGeometry x="635" y="440" width="60" height="60" as="geometry" />
        </mxCell>
        <mxCell id="RchtXjUBD6mUK6er0duv-9" value="Bucket" style="sketch=0;outlineConnect=0;fontColor=#232F3E;gradientColor=none;strokeColor=#232F3E;fillColor=#ffffff;dashed=0;verticalLabelPosition=bottom;verticalAlign=top;align=center;html=1;fontSize=12;fontStyle=0;aspect=fixed;shape=mxgraph.aws4.resourceIcon;resIcon=mxgraph.aws4.bucket;" parent="RchtXjUBD6mUK6er0duv-1" vertex="1">
          <mxGeometry x="635" y="530" width="60" height="60" as="geometry" />
        </mxCell>
        <mxCell id="YntPkXyulkXuXodMfOfy-42" style="edgeStyle=orthogonalEdgeStyle;rounded=0;orthogonalLoop=1;jettySize=auto;html=1;" parent="RchtXjUBD6mUK6er0duv-1" source="RchtXjUBD6mUK6er0duv-23" target="YntPkXyulkXuXodMfOfy-41" edge="1">
          <mxGeometry relative="1" as="geometry" />
        </mxCell>
        <mxCell id="RchtXjUBD6mUK6er0duv-23" value="&lt;span style=&quot;font-size: 17px;&quot;&gt;HOMOLOGADA&lt;/span&gt;" style="fillColor=#d5e8d4;strokeColor=#82b366;dashed=1;verticalAlign=top;fontStyle=0;whiteSpace=wrap;html=1;" parent="RchtXjUBD6mUK6er0duv-1" vertex="1">
          <mxGeometry x="940" y="320" width="150" height="300" as="geometry" />
        </mxCell>
        <mxCell id="RchtXjUBD6mUK6er0duv-24" value="Bucket" style="sketch=0;outlineConnect=0;fontColor=#232F3E;gradientColor=none;strokeColor=#232F3E;fillColor=#ffffff;dashed=0;verticalLabelPosition=bottom;verticalAlign=top;align=center;html=1;fontSize=12;fontStyle=0;aspect=fixed;shape=mxgraph.aws4.resourceIcon;resIcon=mxgraph.aws4.bucket;" parent="RchtXjUBD6mUK6er0duv-1" vertex="1">
          <mxGeometry x="985" y="350" width="60" height="60" as="geometry" />
        </mxCell>
        <mxCell id="RchtXjUBD6mUK6er0duv-25" value="Bucket" style="sketch=0;outlineConnect=0;fontColor=#232F3E;gradientColor=none;strokeColor=#232F3E;fillColor=#ffffff;dashed=0;verticalLabelPosition=bottom;verticalAlign=top;align=center;html=1;fontSize=12;fontStyle=0;aspect=fixed;shape=mxgraph.aws4.resourceIcon;resIcon=mxgraph.aws4.bucket;" parent="RchtXjUBD6mUK6er0duv-1" vertex="1">
          <mxGeometry x="985" y="440" width="60" height="60" as="geometry" />
        </mxCell>
        <mxCell id="RchtXjUBD6mUK6er0duv-26" value="Bucket" style="sketch=0;outlineConnect=0;fontColor=#232F3E;gradientColor=none;strokeColor=#232F3E;fillColor=#ffffff;dashed=0;verticalLabelPosition=bottom;verticalAlign=top;align=center;html=1;fontSize=12;fontStyle=0;aspect=fixed;shape=mxgraph.aws4.resourceIcon;resIcon=mxgraph.aws4.bucket;" parent="RchtXjUBD6mUK6er0duv-1" vertex="1">
          <mxGeometry x="985" y="530" width="60" height="60" as="geometry" />
        </mxCell>
        <mxCell id="RchtXjUBD6mUK6er0duv-32" value="&lt;span style=&quot;font-size: 17px;&quot;&gt;ANALYTICS&lt;/span&gt;" style="fillColor=#d5e8d4;strokeColor=#82b366;dashed=1;verticalAlign=top;fontStyle=0;whiteSpace=wrap;html=1;" parent="RchtXjUBD6mUK6er0duv-1" vertex="1">
          <mxGeometry x="1270" y="320" width="150" height="300" as="geometry" />
        </mxCell>
        <mxCell id="RchtXjUBD6mUK6er0duv-33" value="Bucket" style="sketch=0;outlineConnect=0;fontColor=#232F3E;gradientColor=none;strokeColor=#232F3E;fillColor=#ffffff;dashed=0;verticalLabelPosition=bottom;verticalAlign=top;align=center;html=1;fontSize=12;fontStyle=0;aspect=fixed;shape=mxgraph.aws4.resourceIcon;resIcon=mxgraph.aws4.bucket;" parent="RchtXjUBD6mUK6er0duv-1" vertex="1">
          <mxGeometry x="1315" y="345" width="60" height="60" as="geometry" />
        </mxCell>
        <mxCell id="RchtXjUBD6mUK6er0duv-34" value="Bucket" style="sketch=0;outlineConnect=0;fontColor=#232F3E;gradientColor=none;strokeColor=#232F3E;fillColor=#ffffff;dashed=0;verticalLabelPosition=bottom;verticalAlign=top;align=center;html=1;fontSize=12;fontStyle=0;aspect=fixed;shape=mxgraph.aws4.resourceIcon;resIcon=mxgraph.aws4.bucket;" parent="RchtXjUBD6mUK6er0duv-1" vertex="1">
          <mxGeometry x="1315" y="435" width="60" height="60" as="geometry" />
        </mxCell>
        <mxCell id="RchtXjUBD6mUK6er0duv-35" value="Bucket" style="sketch=0;outlineConnect=0;fontColor=#232F3E;gradientColor=none;strokeColor=#232F3E;fillColor=#ffffff;dashed=0;verticalLabelPosition=bottom;verticalAlign=top;align=center;html=1;fontSize=12;fontStyle=0;aspect=fixed;shape=mxgraph.aws4.resourceIcon;resIcon=mxgraph.aws4.bucket;" parent="RchtXjUBD6mUK6er0duv-1" vertex="1">
          <mxGeometry x="1315" y="525" width="60" height="60" as="geometry" />
        </mxCell>
        <mxCell id="YntPkXyulkXuXodMfOfy-19" style="edgeStyle=orthogonalEdgeStyle;rounded=0;orthogonalLoop=1;jettySize=auto;html=1;entryX=-0.002;entryY=0.972;entryDx=0;entryDy=0;entryPerimeter=0;strokeWidth=2;" parent="RchtXjUBD6mUK6er0duv-1" source="RchtXjUBD6mUK6er0duv-54" target="YntPkXyulkXuXodMfOfy-5" edge="1">
          <mxGeometry relative="1" as="geometry">
            <Array as="points">
              <mxPoint x="296" y="589" />
              <mxPoint x="333" y="589" />
            </Array>
          </mxGeometry>
        </mxCell>
        <mxCell id="u7efa2sKCdxbeHwGryJF-27" style="edgeStyle=orthogonalEdgeStyle;rounded=0;orthogonalLoop=1;jettySize=auto;html=1;entryX=0;entryY=0.5;entryDx=0;entryDy=0;strokeWidth=2;" edge="1" parent="RchtXjUBD6mUK6er0duv-1" source="RchtXjUBD6mUK6er0duv-54" target="RchtXjUBD6mUK6er0duv-4">
          <mxGeometry relative="1" as="geometry">
            <mxPoint x="560" y="450" as="targetPoint" />
            <Array as="points">
              <mxPoint x="230" y="457" />
            </Array>
          </mxGeometry>
        </mxCell>
        <mxCell id="RchtXjUBD6mUK6er0duv-54" value="" style="sketch=0;points=[[0,0,0],[0.25,0,0],[0.5,0,0],[0.75,0,0],[1,0,0],[0,1,0],[0.25,1,0],[0.5,1,0],[0.75,1,0],[1,1,0],[0,0.25,0],[0,0.5,0],[0,0.75,0],[1,0.25,0],[1,0.5,0],[1,0.75,0]];outlineConnect=0;fontColor=#232F3E;gradientColor=#4AB29A;gradientDirection=north;fillColor=#116D5B;strokeColor=#ffffff;dashed=0;verticalLabelPosition=bottom;verticalAlign=top;align=center;html=1;fontSize=12;fontStyle=0;aspect=fixed;shape=mxgraph.aws4.resourceIcon;resIcon=mxgraph.aws4.database_migration_service;" parent="RchtXjUBD6mUK6er0duv-1" vertex="1">
          <mxGeometry x="180" y="549.5" width="78" height="78" as="geometry" />
        </mxCell>
        <mxCell id="RchtXjUBD6mUK6er0duv-55" value="&lt;div style=&quot;text-align: center; font-size: 16px;&quot;&gt;DMS&lt;/div&gt;" style="text;whiteSpace=wrap;html=1;strokeWidth=2;fontSize=16;fontStyle=1" parent="RchtXjUBD6mUK6er0duv-1" vertex="1">
          <mxGeometry x="202.25" y="627.5" width="70" height="40" as="geometry" />
        </mxCell>
        <mxCell id="YntPkXyulkXuXodMfOfy-4" value="CDC Tabla" style="shape=table;startSize=30;container=1;collapsible=0;childLayout=tableLayout;strokeColor=default;fontSize=16;" parent="RchtXjUBD6mUK6er0duv-1" vertex="1">
          <mxGeometry x="333" y="540" width="120" height="97" as="geometry" />
        </mxCell>
        <mxCell id="YntPkXyulkXuXodMfOfy-5" value="" style="shape=tableRow;horizontal=0;startSize=0;swimlaneHead=0;swimlaneBody=0;strokeColor=inherit;top=0;left=0;bottom=0;right=0;collapsible=0;dropTarget=0;fillColor=none;points=[[0,0.5],[1,0.5]];portConstraint=eastwest;fontSize=16;" parent="YntPkXyulkXuXodMfOfy-4" vertex="1">
          <mxGeometry y="30" width="120" height="20" as="geometry" />
        </mxCell>
        <mxCell id="YntPkXyulkXuXodMfOfy-6" value="" style="shape=partialRectangle;html=1;whiteSpace=wrap;connectable=0;strokeColor=inherit;overflow=hidden;fillColor=none;top=0;left=0;bottom=0;right=0;pointerEvents=1;fontSize=16;" parent="YntPkXyulkXuXodMfOfy-5" vertex="1">
          <mxGeometry width="40" height="20" as="geometry">
            <mxRectangle width="40" height="20" as="alternateBounds" />
          </mxGeometry>
        </mxCell>
        <mxCell id="YntPkXyulkXuXodMfOfy-7" value="" style="shape=partialRectangle;html=1;whiteSpace=wrap;connectable=0;strokeColor=inherit;overflow=hidden;fillColor=none;top=0;left=0;bottom=0;right=0;pointerEvents=1;fontSize=16;" parent="YntPkXyulkXuXodMfOfy-5" vertex="1">
          <mxGeometry x="40" width="40" height="20" as="geometry">
            <mxRectangle width="40" height="20" as="alternateBounds" />
          </mxGeometry>
        </mxCell>
        <mxCell id="YntPkXyulkXuXodMfOfy-8" value="" style="shape=partialRectangle;html=1;whiteSpace=wrap;connectable=0;strokeColor=inherit;overflow=hidden;fillColor=none;top=0;left=0;bottom=0;right=0;pointerEvents=1;fontSize=16;" parent="YntPkXyulkXuXodMfOfy-5" vertex="1">
          <mxGeometry x="80" width="40" height="20" as="geometry">
            <mxRectangle width="40" height="20" as="alternateBounds" />
          </mxGeometry>
        </mxCell>
        <mxCell id="YntPkXyulkXuXodMfOfy-9" value="" style="shape=tableRow;horizontal=0;startSize=0;swimlaneHead=0;swimlaneBody=0;strokeColor=inherit;top=0;left=0;bottom=0;right=0;collapsible=0;dropTarget=0;fillColor=none;points=[[0,0.5],[1,0.5]];portConstraint=eastwest;fontSize=16;" parent="YntPkXyulkXuXodMfOfy-4" vertex="1">
          <mxGeometry y="50" width="120" height="24" as="geometry" />
        </mxCell>
        <mxCell id="YntPkXyulkXuXodMfOfy-10" value="" style="shape=partialRectangle;html=1;whiteSpace=wrap;connectable=0;strokeColor=inherit;overflow=hidden;fillColor=none;top=0;left=0;bottom=0;right=0;pointerEvents=1;fontSize=16;" parent="YntPkXyulkXuXodMfOfy-9" vertex="1">
          <mxGeometry width="40" height="24" as="geometry">
            <mxRectangle width="40" height="24" as="alternateBounds" />
          </mxGeometry>
        </mxCell>
        <mxCell id="YntPkXyulkXuXodMfOfy-11" value="" style="shape=partialRectangle;html=1;whiteSpace=wrap;connectable=0;strokeColor=inherit;overflow=hidden;fillColor=none;top=0;left=0;bottom=0;right=0;pointerEvents=1;fontSize=16;" parent="YntPkXyulkXuXodMfOfy-9" vertex="1">
          <mxGeometry x="40" width="40" height="24" as="geometry">
            <mxRectangle width="40" height="24" as="alternateBounds" />
          </mxGeometry>
        </mxCell>
        <mxCell id="YntPkXyulkXuXodMfOfy-12" value="" style="shape=partialRectangle;html=1;whiteSpace=wrap;connectable=0;strokeColor=inherit;overflow=hidden;fillColor=none;top=0;left=0;bottom=0;right=0;pointerEvents=1;fontSize=16;" parent="YntPkXyulkXuXodMfOfy-9" vertex="1">
          <mxGeometry x="80" width="40" height="24" as="geometry">
            <mxRectangle width="40" height="24" as="alternateBounds" />
          </mxGeometry>
        </mxCell>
        <mxCell id="YntPkXyulkXuXodMfOfy-13" value="" style="shape=tableRow;horizontal=0;startSize=0;swimlaneHead=0;swimlaneBody=0;strokeColor=inherit;top=0;left=0;bottom=0;right=0;collapsible=0;dropTarget=0;fillColor=none;points=[[0,0.5],[1,0.5]];portConstraint=eastwest;fontSize=16;" parent="YntPkXyulkXuXodMfOfy-4" vertex="1">
          <mxGeometry y="74" width="120" height="23" as="geometry" />
        </mxCell>
        <mxCell id="YntPkXyulkXuXodMfOfy-14" value="" style="shape=partialRectangle;html=1;whiteSpace=wrap;connectable=0;strokeColor=inherit;overflow=hidden;fillColor=none;top=0;left=0;bottom=0;right=0;pointerEvents=1;fontSize=16;" parent="YntPkXyulkXuXodMfOfy-13" vertex="1">
          <mxGeometry width="40" height="23" as="geometry">
            <mxRectangle width="40" height="23" as="alternateBounds" />
          </mxGeometry>
        </mxCell>
        <mxCell id="YntPkXyulkXuXodMfOfy-15" value="" style="shape=partialRectangle;html=1;whiteSpace=wrap;connectable=0;strokeColor=inherit;overflow=hidden;fillColor=none;top=0;left=0;bottom=0;right=0;pointerEvents=1;fontSize=16;" parent="YntPkXyulkXuXodMfOfy-13" vertex="1">
          <mxGeometry x="40" width="40" height="23" as="geometry">
            <mxRectangle width="40" height="23" as="alternateBounds" />
          </mxGeometry>
        </mxCell>
        <mxCell id="YntPkXyulkXuXodMfOfy-16" value="" style="shape=partialRectangle;html=1;whiteSpace=wrap;connectable=0;strokeColor=inherit;overflow=hidden;fillColor=none;top=0;left=0;bottom=0;right=0;pointerEvents=1;fontSize=16;" parent="YntPkXyulkXuXodMfOfy-13" vertex="1">
          <mxGeometry x="80" width="40" height="23" as="geometry">
            <mxRectangle width="40" height="23" as="alternateBounds" />
          </mxGeometry>
        </mxCell>
        <mxCell id="YntPkXyulkXuXodMfOfy-40" style="edgeStyle=orthogonalEdgeStyle;rounded=0;orthogonalLoop=1;jettySize=auto;html=1;entryX=0;entryY=0.5;entryDx=0;entryDy=0;" parent="RchtXjUBD6mUK6er0duv-1" source="YntPkXyulkXuXodMfOfy-38" target="RchtXjUBD6mUK6er0duv-23" edge="1">
          <mxGeometry relative="1" as="geometry" />
        </mxCell>
        <mxCell id="YntPkXyulkXuXodMfOfy-38" value="" style="sketch=0;points=[[0,0,0],[0.25,0,0],[0.5,0,0],[0.75,0,0],[1,0,0],[0,1,0],[0.25,1,0],[0.5,1,0],[0.75,1,0],[1,1,0],[0,0.25,0],[0,0.5,0],[0,0.75,0],[1,0.25,0],[1,0.5,0],[1,0.75,0]];outlineConnect=0;fontColor=#232F3E;gradientColor=#F78E04;gradientDirection=north;fillColor=#D05C17;strokeColor=#ffffff;dashed=0;verticalLabelPosition=bottom;verticalAlign=top;align=center;html=1;fontSize=12;fontStyle=0;aspect=fixed;shape=mxgraph.aws4.resourceIcon;resIcon=mxgraph.aws4.lambda;" parent="RchtXjUBD6mUK6er0duv-1" vertex="1">
          <mxGeometry x="810" y="431" width="78" height="78" as="geometry" />
        </mxCell>
        <mxCell id="YntPkXyulkXuXodMfOfy-43" style="edgeStyle=orthogonalEdgeStyle;rounded=0;orthogonalLoop=1;jettySize=auto;html=1;entryX=0;entryY=0.5;entryDx=0;entryDy=0;" parent="RchtXjUBD6mUK6er0duv-1" source="YntPkXyulkXuXodMfOfy-41" target="RchtXjUBD6mUK6er0duv-32" edge="1">
          <mxGeometry relative="1" as="geometry" />
        </mxCell>
        <mxCell id="YntPkXyulkXuXodMfOfy-41" value="" style="sketch=0;points=[[0,0,0],[0.25,0,0],[0.5,0,0],[0.75,0,0],[1,0,0],[0,1,0],[0.25,1,0],[0.5,1,0],[0.75,1,0],[1,1,0],[0,0.25,0],[0,0.5,0],[0,0.75,0],[1,0.25,0],[1,0.5,0],[1,0.75,0]];outlineConnect=0;fontColor=#232F3E;gradientColor=#F78E04;gradientDirection=north;fillColor=#D05C17;strokeColor=#ffffff;dashed=0;verticalLabelPosition=bottom;verticalAlign=top;align=center;html=1;fontSize=12;fontStyle=0;aspect=fixed;shape=mxgraph.aws4.resourceIcon;resIcon=mxgraph.aws4.lambda;" parent="RchtXjUBD6mUK6er0duv-1" vertex="1">
          <mxGeometry x="1138.5" y="431" width="78" height="78" as="geometry" />
        </mxCell>
        <mxCell id="YntPkXyulkXuXodMfOfy-74" value="Amazon&lt;br style=&quot;font-size: 15px;&quot;&gt;CloudWatch Logs&lt;br style=&quot;font-size: 15px;&quot;&gt;" style="outlineConnect=0;fontColor=#232F3E;gradientColor=none;gradientDirection=north;fillColor=#ff0059;strokeColor=default;dashed=0;verticalLabelPosition=bottom;verticalAlign=top;align=center;html=1;fontSize=15;fontStyle=1;aspect=fixed;shape=mxgraph.aws4.cloudwatch;labelBackgroundColor=#ffffff;" parent="RchtXjUBD6mUK6er0duv-1" vertex="1">
          <mxGeometry x="670" y="947.75" width="78" height="78" as="geometry" />
        </mxCell>
        <mxCell id="u7efa2sKCdxbeHwGryJF-13" style="edgeStyle=orthogonalEdgeStyle;rounded=0;orthogonalLoop=1;jettySize=auto;html=1;entryX=0;entryY=0.5;entryDx=0;entryDy=0;strokeWidth=2;" edge="1" parent="RchtXjUBD6mUK6er0duv-1" source="YntPkXyulkXuXodMfOfy-108" target="RchtXjUBD6mUK6er0duv-4">
          <mxGeometry relative="1" as="geometry" />
        </mxCell>
        <mxCell id="YntPkXyulkXuXodMfOfy-108" value="" style="sketch=0;points=[[0,0,0],[0.25,0,0],[0.5,0,0],[0.75,0,0],[1,0,0],[0,1,0],[0.25,1,0],[0.5,1,0],[0.75,1,0],[1,1,0],[0,0.25,0],[0,0.5,0],[0,0.75,0],[1,0.25,0],[1,0.5,0],[1,0.75,0]];outlineConnect=0;fontColor=#232F3E;gradientColor=#F78E04;gradientDirection=north;fillColor=#D05C17;strokeColor=#ffffff;dashed=0;verticalLabelPosition=bottom;verticalAlign=top;align=center;html=1;fontSize=12;fontStyle=0;aspect=fixed;shape=mxgraph.aws4.resourceIcon;resIcon=mxgraph.aws4.lambda;" parent="RchtXjUBD6mUK6er0duv-1" vertex="1">
          <mxGeometry x="363.25" y="724.13" width="78" height="78" as="geometry" />
        </mxCell>
        <mxCell id="u7efa2sKCdxbeHwGryJF-8" style="edgeStyle=orthogonalEdgeStyle;rounded=0;orthogonalLoop=1;jettySize=auto;html=1;entryX=0;entryY=0.5;entryDx=0;entryDy=0;strokeWidth=2;" edge="1" parent="RchtXjUBD6mUK6er0duv-1" source="YntPkXyulkXuXodMfOfy-48" target="RchtXjUBD6mUK6er0duv-4">
          <mxGeometry relative="1" as="geometry" />
        </mxCell>
        <mxCell id="YntPkXyulkXuXodMfOfy-48" value="" style="sketch=0;points=[[0,0,0],[0.25,0,0],[0.5,0,0],[0.75,0,0],[1,0,0],[0,1,0],[0.25,1,0],[0.5,1,0],[0.75,1,0],[1,1,0],[0,0.25,0],[0,0.5,0],[0,0.75,0],[1,0.25,0],[1,0.5,0],[1,0.75,0]];outlineConnect=0;fontColor=#232F3E;gradientColor=#945DF2;gradientDirection=north;fillColor=#5A30B5;strokeColor=#ffffff;dashed=0;verticalLabelPosition=bottom;verticalAlign=top;align=center;html=1;fontSize=12;fontStyle=0;aspect=fixed;shape=mxgraph.aws4.resourceIcon;resIcon=mxgraph.aws4.glue;" parent="RchtXjUBD6mUK6er0duv-1" vertex="1">
          <mxGeometry x="194.25" y="221" width="78" height="78" as="geometry" />
        </mxCell>
        <mxCell id="YntPkXyulkXuXodMfOfy-49" value="&lt;font style=&quot;font-size: 15px;&quot;&gt;&lt;b&gt;Amazon Glue&lt;/b&gt;&lt;/font&gt;" style="text;html=1;strokeColor=none;fillColor=none;align=center;verticalAlign=middle;whiteSpace=wrap;rounded=0;" parent="RchtXjUBD6mUK6er0duv-1" vertex="1">
          <mxGeometry x="188.25" y="310" width="90" height="29" as="geometry" />
        </mxCell>
        <mxCell id="YntPkXyulkXuXodMfOfy-52" style="edgeStyle=orthogonalEdgeStyle;rounded=0;orthogonalLoop=1;jettySize=auto;html=1;entryX=0.5;entryY=0;entryDx=0;entryDy=0;entryPerimeter=0;strokeWidth=2;" parent="RchtXjUBD6mUK6er0duv-1" source="YntPkXyulkXuXodMfOfy-50" target="YntPkXyulkXuXodMfOfy-48" edge="1">
          <mxGeometry relative="1" as="geometry" />
        </mxCell>
        <mxCell id="YntPkXyulkXuXodMfOfy-50" value="&lt;font style=&quot;font-size: 15px;&quot;&gt;&lt;b&gt;Amazon Athena&lt;/b&gt;&lt;/font&gt;" style="outlineConnect=0;fontColor=#232F3E;gradientColor=#945DF2;gradientDirection=north;fillColor=#5A30B5;strokeColor=#ffffff;dashed=0;verticalLabelPosition=bottom;verticalAlign=top;align=center;html=1;fontSize=12;fontStyle=0;aspect=fixed;shape=mxgraph.aws4.resourceIcon;resIcon=mxgraph.aws4.athena;labelBackgroundColor=#ffffff;" parent="RchtXjUBD6mUK6er0duv-1" vertex="1">
          <mxGeometry x="60" y="60" width="78" height="78" as="geometry" />
        </mxCell>
        <mxCell id="YntPkXyulkXuXodMfOfy-125" style="edgeStyle=orthogonalEdgeStyle;rounded=0;orthogonalLoop=1;jettySize=auto;html=1;strokeWidth=2;startArrow=classic;startFill=1;" parent="RchtXjUBD6mUK6er0duv-1" source="YntPkXyulkXuXodMfOfy-123" target="YntPkXyulkXuXodMfOfy-48" edge="1">
          <mxGeometry relative="1" as="geometry" />
        </mxCell>
        <mxCell id="u7efa2sKCdxbeHwGryJF-29" style="edgeStyle=orthogonalEdgeStyle;rounded=0;orthogonalLoop=1;jettySize=auto;html=1;strokeWidth=2;" edge="1" parent="RchtXjUBD6mUK6er0duv-1" source="YntPkXyulkXuXodMfOfy-123" target="RchtXjUBD6mUK6er0duv-4">
          <mxGeometry relative="1" as="geometry" />
        </mxCell>
        <mxCell id="YntPkXyulkXuXodMfOfy-123" value="" style="sketch=0;points=[[0,0,0],[0.25,0,0],[0.5,0,0],[0.75,0,0],[1,0,0],[0,1,0],[0.25,1,0],[0.5,1,0],[0.75,1,0],[1,1,0],[0,0.25,0],[0,0.5,0],[0,0.75,0],[1,0.25,0],[1,0.5,0],[1,0.75,0]];outlineConnect=0;fontColor=#232F3E;gradientColor=#945DF2;gradientDirection=north;fillColor=#5A30B5;strokeColor=#ffffff;dashed=0;verticalLabelPosition=bottom;verticalAlign=top;align=center;html=1;fontSize=12;fontStyle=0;aspect=fixed;shape=mxgraph.aws4.resourceIcon;resIcon=mxgraph.aws4.lake_formation;" parent="RchtXjUBD6mUK6er0duv-1" vertex="1">
          <mxGeometry x="339" y="60" width="78" height="78" as="geometry" />
        </mxCell>
        <mxCell id="YntPkXyulkXuXodMfOfy-124" value="&lt;span style=&quot;font-size: 15px;&quot;&gt;&lt;b&gt;Lake Formation&lt;/b&gt;&lt;/span&gt;" style="text;html=1;strokeColor=none;fillColor=none;align=center;verticalAlign=middle;whiteSpace=wrap;rounded=0;" parent="RchtXjUBD6mUK6er0duv-1" vertex="1">
          <mxGeometry x="333" y="150" width="90" height="30" as="geometry" />
        </mxCell>
        <mxCell id="u7efa2sKCdxbeHwGryJF-9" value="" style="sketch=0;points=[[0,0,0],[0.25,0,0],[0.5,0,0],[0.75,0,0],[1,0,0],[0,1,0],[0.25,1,0],[0.5,1,0],[0.75,1,0],[1,1,0],[0,0.25,0],[0,0.5,0],[0,0.75,0],[1,0.25,0],[1,0.5,0],[1,0.75,0]];outlineConnect=0;fontColor=#232F3E;fillColor=#01A88D;strokeColor=#ffffff;dashed=0;verticalLabelPosition=bottom;verticalAlign=top;align=center;html=1;fontSize=12;fontStyle=0;aspect=fixed;shape=mxgraph.aws4.resourceIcon;resIcon=mxgraph.aws4.transfer_for_sftp;" vertex="1" parent="RchtXjUBD6mUK6er0duv-1">
          <mxGeometry x="188.25" y="720" width="86.25" height="86.25" as="geometry" />
        </mxCell>
        <mxCell id="u7efa2sKCdxbeHwGryJF-10" value="&lt;font style=&quot;font-size: 15px;&quot;&gt;&lt;b&gt;&amp;nbsp;SFTP&lt;/b&gt;&lt;/font&gt;" style="text;html=1;strokeColor=none;fillColor=none;align=center;verticalAlign=middle;whiteSpace=wrap;rounded=0;" vertex="1" parent="RchtXjUBD6mUK6er0duv-1">
          <mxGeometry x="186.37" y="806.25" width="90" height="30" as="geometry" />
        </mxCell>
        <mxCell id="u7efa2sKCdxbeHwGryJF-11" style="edgeStyle=orthogonalEdgeStyle;rounded=0;orthogonalLoop=1;jettySize=auto;html=1;entryX=0;entryY=0.5;entryDx=0;entryDy=0;entryPerimeter=0;strokeWidth=2;" edge="1" parent="RchtXjUBD6mUK6er0duv-1" source="u7efa2sKCdxbeHwGryJF-9" target="YntPkXyulkXuXodMfOfy-108">
          <mxGeometry relative="1" as="geometry" />
        </mxCell>
        <mxCell id="YntPkXyulkXuXodMfOfy-59" value="&lt;font style=&quot;font-size: 16px;&quot;&gt;&lt;b&gt;Amazon SQS&lt;/b&gt;&lt;/font&gt;" style="text;html=1;strokeColor=none;fillColor=none;align=center;verticalAlign=middle;whiteSpace=wrap;rounded=0;" parent="RchtXjUBD6mUK6er0duv-1" vertex="1">
          <mxGeometry x="790" y="1032.25" width="90" height="30" as="geometry" />
        </mxCell>
        <mxCell id="-Rxvcumc74NUgiXMwm1E-3" value="" style="sketch=0;points=[[0,0,0],[0.25,0,0],[0.5,0,0],[0.75,0,0],[1,0,0],[0,1,0],[0.25,1,0],[0.5,1,0],[0.75,1,0],[1,1,0],[0,0.25,0],[0,0.5,0],[0,0.75,0],[1,0.25,0],[1,0.5,0],[1,0.75,0]];outlineConnect=0;fontColor=#232F3E;gradientColor=#FF4F8B;gradientDirection=north;fillColor=#BC1356;strokeColor=#ffffff;dashed=0;verticalLabelPosition=bottom;verticalAlign=top;align=center;html=1;fontSize=12;fontStyle=0;aspect=fixed;shape=mxgraph.aws4.resourceIcon;resIcon=mxgraph.aws4.sqs;" parent="RchtXjUBD6mUK6er0duv-1" vertex="1">
          <mxGeometry x="796" y="947.75" width="78" height="78" as="geometry" />
        </mxCell>
        <mxCell id="YntPkXyulkXuXodMfOfy-54" value="IAM Roles" style="outlineConnect=0;fontColor=#232F3E;gradientColor=none;fillColor=#C7131F;strokeColor=none;dashed=0;verticalLabelPosition=bottom;verticalAlign=top;align=center;html=1;fontSize=16;fontStyle=1;aspect=fixed;pointerEvents=1;shape=mxgraph.aws4.role;labelBackgroundColor=#ffffff;" parent="RchtXjUBD6mUK6er0duv-1" vertex="1">
          <mxGeometry x="920" y="964.75" width="78" height="44" as="geometry" />
        </mxCell>
        <mxCell id="u7efa2sKCdxbeHwGryJF-15" value="" style="sketch=0;points=[[0,0,0],[0.25,0,0],[0.5,0,0],[0.75,0,0],[1,0,0],[0,1,0],[0.25,1,0],[0.5,1,0],[0.75,1,0],[1,1,0],[0,0.25,0],[0,0.5,0],[0,0.75,0],[1,0.25,0],[1,0.5,0],[1,0.75,0]];outlineConnect=0;fontColor=#232F3E;fillColor=#8C4FFF;strokeColor=#ffffff;dashed=0;verticalLabelPosition=bottom;verticalAlign=top;align=center;html=1;fontSize=12;fontStyle=0;aspect=fixed;shape=mxgraph.aws4.resourceIcon;resIcon=mxgraph.aws4.redshift;" vertex="1" parent="RchtXjUBD6mUK6er0duv-1">
          <mxGeometry x="944" y="700" width="122" height="122" as="geometry" />
        </mxCell>
        <mxCell id="u7efa2sKCdxbeHwGryJF-16" value="&lt;font style=&quot;font-size: 16px;&quot;&gt;&lt;b&gt;Amazon Redshift&lt;/b&gt;&lt;/font&gt;" style="text;html=1;strokeColor=none;fillColor=none;align=center;verticalAlign=middle;whiteSpace=wrap;rounded=0;" vertex="1" parent="RchtXjUBD6mUK6er0duv-1">
          <mxGeometry x="960" y="830" width="90" height="30" as="geometry" />
        </mxCell>
        <mxCell id="u7efa2sKCdxbeHwGryJF-17" style="edgeStyle=orthogonalEdgeStyle;rounded=0;orthogonalLoop=1;jettySize=auto;html=1;exitX=0.5;exitY=1;exitDx=0;exitDy=0;entryX=0.5;entryY=0;entryDx=0;entryDy=0;entryPerimeter=0;strokeWidth=2;" edge="1" parent="RchtXjUBD6mUK6er0duv-1" source="RchtXjUBD6mUK6er0duv-4" target="u7efa2sKCdxbeHwGryJF-15">
          <mxGeometry relative="1" as="geometry" />
        </mxCell>
        <mxCell id="u7efa2sKCdxbeHwGryJF-18" value="" style="sketch=0;points=[[0,0,0],[0.25,0,0],[0.5,0,0],[0.75,0,0],[1,0,0],[0,1,0],[0.25,1,0],[0.5,1,0],[0.75,1,0],[1,1,0],[0,0.25,0],[0,0.5,0],[0,0.75,0],[1,0.25,0],[1,0.5,0],[1,0.75,0]];outlineConnect=0;fontColor=#232F3E;fillColor=#E7157B;strokeColor=#ffffff;dashed=0;verticalLabelPosition=bottom;verticalAlign=top;align=center;html=1;fontSize=12;fontStyle=0;aspect=fixed;shape=mxgraph.aws4.resourceIcon;resIcon=mxgraph.aws4.eventbridge;" vertex="1" parent="RchtXjUBD6mUK6er0duv-1">
          <mxGeometry x="1052.13" y="947.75" width="85.75" height="85.75" as="geometry" />
        </mxCell>
        <mxCell id="u7efa2sKCdxbeHwGryJF-19" value="&lt;font style=&quot;font-size: 16px;&quot;&gt;&lt;b&gt;Eventbridge&lt;/b&gt;&lt;/font&gt;" style="text;html=1;strokeColor=none;fillColor=none;align=center;verticalAlign=middle;whiteSpace=wrap;rounded=0;" vertex="1" parent="RchtXjUBD6mUK6er0duv-1">
          <mxGeometry x="1050" y="1059.62" width="90" height="12.25" as="geometry" />
        </mxCell>
        <mxCell id="u7efa2sKCdxbeHwGryJF-28" style="edgeStyle=orthogonalEdgeStyle;rounded=0;orthogonalLoop=1;jettySize=auto;html=1;entryX=0;entryY=0.5;entryDx=0;entryDy=0;strokeWidth=2;" edge="1" parent="RchtXjUBD6mUK6er0duv-1" source="u7efa2sKCdxbeHwGryJF-23" target="RchtXjUBD6mUK6er0duv-4">
          <mxGeometry relative="1" as="geometry">
            <Array as="points">
              <mxPoint x="530" y="1015" />
              <mxPoint x="530" y="457" />
            </Array>
          </mxGeometry>
        </mxCell>
        <mxCell id="u7efa2sKCdxbeHwGryJF-23" value="" style="sketch=0;points=[[0,0,0],[0.25,0,0],[0.5,0,0],[0.75,0,0],[1,0,0],[0,1,0],[0.25,1,0],[0.5,1,0],[0.75,1,0],[1,1,0],[0,0.25,0],[0,0.5,0],[0,0.75,0],[1,0.25,0],[1,0.5,0],[1,0.75,0]];outlineConnect=0;fontColor=#232F3E;gradientColor=#F78E04;gradientDirection=north;fillColor=#D05C17;strokeColor=#ffffff;dashed=0;verticalLabelPosition=bottom;verticalAlign=top;align=center;html=1;fontSize=12;fontStyle=0;aspect=fixed;shape=mxgraph.aws4.resourceIcon;resIcon=mxgraph.aws4.lambda;" vertex="1" parent="RchtXjUBD6mUK6er0duv-1">
          <mxGeometry x="200.25" y="976" width="78" height="78" as="geometry" />
        </mxCell>
        <mxCell id="u7efa2sKCdxbeHwGryJF-2" value="" style="shape=image;verticalLabelPosition=bottom;labelBackgroundColor=default;verticalAlign=top;aspect=fixed;imageAspect=0;image=data:image/png,iVBORw0KGgoAAAANSUhEUgAAArAAAAHTCAYAAADfzCvfAAAAAXNSR0IArs4c6QAAAARnQU1BAACxjwv8YQUAAAAJcEhZcwAAFiUAABYlAUlSJPAAAP+lSURBVHhe7J0HfFRV2safmcxk0jvpIQQIJPTem/QmKgK6lrX3ta2uW9z66a67uuvaV9fuigo2OkiXXlNIoaT33pNJpuZ733NnYDKEIiaQ4Pn/uCS59dxTn/Pe95yjaiUgkUgkEolEIpF0E9S2nxKJRCKRSCQSSbdACliJRCKRSCQSSbdCCliJRCKRSCQSSbfip+MDy6/Jm9V65nc16Xf75ozZDJhMyvmOqFSAVgtoNMrvjvA9LRbAaFR+d8R+HW/O8DP4WfzM9nB3bz+MfF1Ly9nPYlxcAFfXH/ZuDF9zrnfj63hzvo6fwdec7zqOE2f4OntcOsPP4Gs4Pp3hZ3CcOD+L4fM5TtqDn8PPay9OOD54ay/dOE44Ptt7N3u6OV93vnezX8ebM3yd/XnO2PNWe+nG13GctAeHz2Cw/eGEPU+2F5f8rPbejc/V6doPI4eNr2nvOj7fnk+c4evscekIP8seJ87pxvc/V3lj+HlubrY/nOBntZcnmfOVAXuedH4eh43jxDmMzjQ12X6xYY+Pc8Wl/XmO2OOEn9deGPn89tKbj3Fa83XtwddwvDjfk7Gnd3vP4+s4rM5xwue3l24Mh9GeT5zh+DhXObWnt3MZ4HDZn9deGPk550tvfl57cF3iHP8MP8Oe3s7Ps6dbe3Fyvnezx0d76W3PJ87X8f35OZwGzs+yX8fv5wyfe646iOF342vbo7n57PhnOGz8rPby8rnSjeH44M05HhmODw6j83V8Ll/DYXS+jt/N/rz24sT+PGf4Gfys9vIkw3VJe+/Gz+A4cX4Wc74ycK53Y/ia9t6N4evs1/Bx+9ZeXrzK+ekI2IYGJZPxz8ZGJeP4+AA9egD+/raTbHDmyMgATp4EKirOZFouFN7eQL9+QP/+ZwsGrkQKCoD9+5X72zMtR7GXFxAXBwwerOyzw8dqa4GEBCA7u23B4nDwPRYuBIKCbDsdqK8H1qxRnutYsPjZUVHA6NHKuzkXnhMngNRUJR7s2J81diwQE3N2w8+VwalTSpxweB3jJCBAiY/Y2LMrBo7zrCzg8GHlb8cCxvHP8cHXOcJhqaoCDh0Ciovb3pMLr6cncN11gIeHbacDpaXAxo1KvDq+N8cJP2fYMMDX9+yCnpiopDkLDPsxfjeOh/HjgcjIsxsCvV6JD974Osc4CQlR4qRv37OfxfF+/Dhw7NiZa+zh9fMDRo5UnucIv3d5uZK3amraNi78bpyPr722bT6ww/G/ffvZacP35PgfOFDJn45weA4cAHJzlUbc/g58DcffhAnKOzo3cnV1SnxwXuE8Y08DjhN+Jy4D0dHKPkf4uuRk5Vp7ODkMfH/OX+PGAYGByn47fH/OHxwnnBaO787HevUCZs+27XAiKUnJX45pys/jbdQoJd2c8xffc98+oKhI+d0eJxz/oaFK2QkOVvadiw8/PHMdP4vDyPkkPFzZZ4ePcTofOQLk5bWNE/6dnzNxolIWHOG04vM57TjOHcsA1xOc3px27bFnD5CW1lbgclnkNOD453RzFr9cn3KccD3J8eAYJ/xunJe5DnIuA5xuXA9xWB3jg8PLcc9x4lzn8ftUVgIHDwJlZW3jhMPFcchx4pzPOW9w2T56VHmWY1g4Hfndhgyx7XDiu++UMDrmEw4H5w2OR36m8/PsYayuVsqLY5xw/h86VKn7nOGyxvm/sPBMXub453fjuovjhMueI3xPjgtOA24P7OWR44TbJ04Dfj9nON04rbkdcCzDfB2/3/TpQO/etp0O8PusXau8o+N7834up1xXcl3kXC9wu8jxz+Wc38keJ/wsjo/4+LPzMp+XmanECdd9jvUr11f2dri9cmpvhx3bRn43fgZfw890hI9x2Lgd4Gc6vps9vAsWtF++ue5fvVrJZ47vzWkTEQGMGaPEjWNZZLiOTElR0sIOh4OfxW03x7+zxuB7cj7h+GC4veBzeGNt4lyPX+U4xehVCCf07t3Azp3KTxZS3FByxuGKyVHEOeJYyTlzvmOXAt+vo+95IZyfd7mffyEuNTznu46P2TdnLnTdpXCu6y4lDMylhoO51Gt/zDMd4fuc714XOt4el3KNnXNdZ99/vvte6jPPRUfe72LC35Hwc873rEs9di46+n6XCj/rhz7vQtdc6Fh7xy90z3Nxrmsu5V4Xy6U888ceO985P4SLuU9HPctOe/dj8c66hTtk6emK4OaOOGsbu8GBOxM/Ebq/BZZ7JJxg3Et17uEw+flKIrPVkHtHdtM898q4d8RWBeeePkcJWwC5l8m9K/t97b1hPp83514mZy7uxfEz+Xf7dXw/fi73TNlq5QxbTdgiwT12RysSP4/v0V4vk+HeJVsx+P0d352fzT11fj/umTkXBH4v7rVzT9WOvefHVjK2mLT3bhwnbGnh8DrGCT+D340tZI7hYDhs/F5sVWD4GfZncVxyfDhb1vg4W265F829U+c44d4x99idLR8Md0i4Z8s4vjeHn58TFtb+Z+WSEuX9HC1r/CyOh549FYuJYzgYznscl7zxdY5xwj1hziPc83YMB8Pncjyytdh+jT1OOGycbs4WGr4n50XOWxw3jmHhd7NbFpzjn+H4Z+s+H3MMC9+T45+tCs7WZYbjn62AnIaOccLpxnHC7+j8PM4bHB8clxwux+s4T3KcsNXAGc7LHB+OXzw4Tvj+nPc5XzqXAb4/5w+OE04Lx7BwmDkfszWvPfhZ/H6O+Zyfx3D8c7o55y9+Hj+LLV2O78a/c1zwVw9nK5Iz/KWFr7M/i8PIccLWE0f4OMclW3sdv3jwfv6dn8Np4Jxu/N58Pr8bn+uY3nyM05uvaw9uGLnD7xwnHK/8bpx+zvUC52WOE86bznHC78YWSs7TjuFgON04rTmsjD1O+CeXU44T5/Tm42zl4nfjcu4YJxwujkN+N8eywXDe4PzIdSzjHCf8bmxBbw8WCva2ww7nZc4b3HZwujs/zx5GLqd8rmOccD3Jz+Iy5Aw/h+OE85c9L/O78f05Pnhzvo7vz3HBacBlyPE6DiOXNX4/ZzjduA3g9HYsN3wd37NPHyX9nOFj3OY4f/Hgd+P04vjnn473ZLhd5PjnPM3PsKc3b1wnc7w4lzc+xnUX1yf8jvZ7chg439vjpL1yynHIccLp6xgn9uvaS28Om70dcHw3vo5hi297Fk6OS44T5zqIw8H1ONdd7bXD/Byuh/h6foY9Thi+huug9sobW805r3D+4jTn+ODfOf9zG8B1nnOc8HX8fhwmrjvaq++7Id1PwHJwOcF44wzDBZATjzNkeyKDMzJnSq4wOfNxInOFyoWsvYpVIpFIJBKJpCvD4pwFPotSFrSsfVgHtWdYYJ1k72iyOOYOA2sg1j98bjfVQd1PwHICcK+FLRPco2NhygnBPUb2Y+LfHbGLXd7sCeW4SSQSiUQikXQ3WNewhLPLONY4zuKVYQsxf4lmvcRWXTbesSWax7uwmGXR62zt7QZ0HwHLCcWfZdjHgy2qdt9V/kTCn6nsn4GcTecSiUQikUgkP1XsLhzsNsJWW7bY8hds1k88sJCFbHsDC7s43UfAspmcfRu5J8GJwf4h7CvFPl3cg3AenSmRSCQSiUQiUWDxavcrZh9cdrHkWWh4xoP2/Hu7OF1PwNqD097nfXZYzslRHJLZoZrN4BKJRCKRSCSSi4ctsPxV2z7Qsj3YcNiFfWS7noBl0zbT3khlDio7LvPPq2QUnUQikUgkEsllh/UUD/5qT6DyTBM8XznPytLerA1dgK4jYNktgKdx4emWWLzygCye7kEOtJJIJBKJRCK5PPDXbp61gOeY5YHxPD0ab+yu2YVoZ7jaZYbnJmPnYlb69lVneKScfW40iUQikUgkEsnlgV0HeOA8z1/Lsz7xqpG8chsPomd9xse7AFfWAss+GLyaBA/OYqdi9rVgZ2KejJfN1s5zukokEolEIpFIOhcWsDzgizUaGxZ5vn1eSIMHffEYpC4wa8GVE7BsouaIYcsrT4nFpmlen5h/survhnOSSSQSiUQikVwVsIhlQyNbYU+eVAbRs4BlF8+ftIDlSOHFCLKyFLHKllceDSetrhKJRCKRSCRdA3YZ4NW8WMjyAgg8fWkXGEh/5Qdx8drPHBFyHleJRCKRSCQSyUVw5QWsRCKRSCQSiUTyA+h8Acu+rva5xuTCAxKJRCKRSCRXDzwzQWYm4O+vzBl7mbRe506jxX6u7PjLc4nxgC0WshKJRCKRSCSSqwMWsDybVHLymeX+LwOdJ2DZ8srLlKWkKPOHlZQoI9okEolEIpFIJFcHPAUqT7HFOo/1HhsueSWvTqZzXAjY0soT3u7dqyjzmBhliiye21WurCWRSCQSiURy9cCCdfduZQUvHpjPM0uNGKGsqNpJdLyA5ZW1WH2zywCbkQcMAGJjlfld5dyuEolEIpFIJFcfNTWKGwG7E7DeGzkS6NMH8PKyndCxdKwLAWth9nstK1Msr/HxioANC7t48SonRZBIJBKJRCLpXvAgLtZ9cXGAt7cymKsT5/bveAssm5HZ75VX1xo37pLMx60tLbDU1KKVxbAUtJIugIoKoYp6kS5+cr5iiUQikUjOSVOT4krAbgTsG9tJdLyA5dvxYC3+ycr7Enxemw8dQfVLr8B0KoPErIHEQ+dOliCRnI9WqwUuwSHwWnwdAp54xLZXIpFIJBLJWbD+440Hd3UinT8P7CXQvO8AKv/8VxgSktHa3ExCmCPBWQjbgi1+OP7ugLiE/jt96Q8X05KfMrYMRR0yTc8o+Nx+CwJ/+7Syr9MxwmI4gZ2Pv4L1mYVI83DDefuxrUqnsbHvYly7aDZ+MT0KWtuhqwpDMXavz0PYyFhERQedP066Cy0FqEzchEdf2YSy0gpEjJ6LMTf/EncPdYPnFU9EI6zmU/j+CcqHKaeQGNYfniNux5/uGIWRIR62czoISz1a0tdjr2YuIkP90d/ftl8ikUjaoWsK2AOHUPX8izAcPQqrvll8vj0NBVcE2RZsFSt8sbFQpZ+sUekQvZhyHomPVrtFmM9ni7B9k0guglaLBdpeveBz280I+NUTtr2djR4m/W58ELME/ypvRIZt7wXp8yAW//oRLL9vkBB3V00ut5SjIm0Pdu1IwIq0PrjtgVmYOzISV3417g6gIQV5619Dr5+9J/7UxM3E0r9/izfneMH/iq/90gyLcR8+7LMELxfW4jgCgPn/wqrXrsd1ffxs5/xYzGgpz0bq7nXYvHktWua/i7nj+2JCsO2wRCK5OmAtxhvTAYP6L92+y4KQp8syGqlxsdh2djSqtoKTN3pptU4HtZcnXPz84BLcA5rICGhjYuAa2weu/WJp6wtt397QRveEJiIMLj2CoPbxgdrDQ5newS6Ine8tN7mdc1OyzOWD8j600Pn54wd53Xq7w8NVLYJ72YPcaVjRkrIBG175I3776xfwZX4Lilpdrw7xyqhcoHb1gL+3olb9fb3gqeW6T/zZBdDA1dcPPvyrjx9UXjq4ssGgI+AvB82ZOLb+dbzy3O/x7H93Ir9KLxdtlEiuRiorgaIioLr6tFHxx3DpApYHa/FUCYcPA8XFtp0didPL8cuq1HDx94e2fyzcxo2Fx+wZ8Lp+EXxuuQm+d90Gn7t+Dt9774Lv/XfD5+6fw+fnt8B72RJ4XbsAHjOnwW3MSGh794KKB5bZrLMSycXy44vbZaDFBJOltXuE9aIw0ZaKHc99iG8+TEOGiuQ8iSfSd5KrAasJxsMf4eOv1mN5Mn9t08JVo+6Itk0ikXQleFB+QgKwYwdV6anK3z+SSxewFRXAsWNAVhbEjAOdhL0iU3l7kWgdDa8l18P3njvh/8j98Hv4fvr95/D+2VJ4XXct3IYOgdvokfCaPxdeC+fDa/H18Ln1Zvjdx+c/CL8H7yOhezu8r78WroMGKELW0XpMD2s1m9FqNKLVcI6Nj3HEC7cE23XO0DE+R5zL9z9Xbczn8TlsyT5PjW2/V5uwimdcRFiNFFbHMNjf0WA4+3z7xtfxO9qvsb9Pe+c6b/Q8+ztfMC554+c4pYESt+eOj8sNa6UrHhqPUKgnPIbfvf4BVnzzJb74/HN83mb7DJ9/9hk+fuVuPHHa//VcoT6zv1Oj+Ufd3C7C+U3coGnUwyD+dgFcveDlGyD+Ok0Xyi8/GE1XVuNauFDwOjqEp5PLRQdXrRFGg7Jqj5o6J25efnCe7OPypm43zksSSVeFXQYCqN7mL+CFhcp6AbxuwI/g0nxg2QzMk9XyYgXR0cDw4UBUlO3gj0fxgf0HDEcTYW1sgtrbE9rYWPjeeRt0I4dBGx4GF3+OiLb6u2nzNmjCwqAbPMC2py0s2izVNTDn5aP54GHUf74SxpR0qNx0okZVubpC5e4Otbsb16QUO+1U2ySurCy8mpraijwH2GdX7e9H93AR51nZWs2izOl+/CwXH29Ym/S0NSkuGY7+vgxd4xJI70rhaaX7cHyIsLIbhYe7mKJC+AG3B53HIpLvz1OTibBy2OiZanp2e2EX8HX0jhZeiILEpYriQ+3lBZX2wiNKWs0WMfCutaVZdBA4boUP87keRXFo5fMpjOK9+BlazRnh3QVQfGCjRWfo8vnANsOs349Ph9+JN08V4Ih/HFyu/Sf2vr4AY8W33IujpXgvMrKykVLoToW9B2JHD0TfvkHwO50VDdCX5iJ7ZyIyW62o941BeK9+mDwg8OwBUoZqVBfnIiuvGGUVeuhd3ODm2wMhYZHo1TsKwVRsnEuMpbEQFdm7cYj6ubUNfgjt1RdDJsXCqywDRXlZyC6rRoNBA11gT0T2iUXvqED424uAqR6NZSew5ehO7PnDO9iako1jWi9g0M14YMkITBs1AB6B/TB1SAh8tfYyYEB9fjZyC3JRWFmDRoMWbn4hCAjpiYiIMMQEnWvYF5W9plLkZOahsKwC1Y0taDFxQDzgHRSA4J7RiIgMRxgVm0vGVI6CjAzk5ZahorEVRq8QhMcOxUjfAtQfeg8DbvkPahpa0GPs9bjuj5/ipRme8GsT3GYKYgFyc/JQUFGDhmYtNJ7+CAyLQER0DKKDNLh0r7JWNJdnIT+H0qS0Dg0tbvAK6o0+g3ugZ2AOvhl2K95MzcZ+n95QzX0e6/8+H/Ni2qpMS0MZSvNzkVdaifK6ZrQYzXDRaOHuF4oePfshOrIHQh3GfRnrC1GYuAOJOz/DaysPYld6DVWZGlzz4N8xfVhvjIj2QfSIGYjxpy6MQxVnrM5FSUEh8spqUEbPMVM+9PQJQrDIhz0Rep40aqVnFhUUIL+oElW1FEbK8xadJ9y8eyCsRzj69ItCoBu770gkkg6HXQd4mlX+es9zxo4d+6O046UJ2AMHFBMw+5POnKksVNCBDlttBGx9g/Bz9Zg6CYF/ehbaGBLM7WCuqUHNv9+A29DB8L7xetvec2PMyETlr/+Apg3fkdCiWpUEpiY0RPjQsv8si9k2pjfxeiohuHiOWmP6cZgLihThaX93FmB0nSYsRLg4sEA1njwFY2o6Cc9GcfzMuRR9/WPhPnkCTDm5dL8TMJeUnjnO8Pl0P69F84XgNNB9DMkpUFFPhgUV+/q6UJhVJPiUADomJf1NwoufaziZAVNmNsVlPb2rF9zHj4Yuvr8iEh0ex9Ab0HVUqZdXoOVoAsyFRWIEvvvYUXAJoAzHYpnDJR7F/9H5p++hhrW2TsStMTMTuiGDRDhZ/Apft3YwV1TBeCpDxBHHrUtQINR+fuL5QnSziO3AvPWDoXflQYBXXMD69YPL3Oew6cX5mBl18auaFK+ah5df24R/7eC/JuL2l/6Ox385CSNPC4IK5G14D/9Z8Du8Sn+1hC/CkHufwZa/TITjGJpWUxMqjq7GprVf4vM127EvtR71cIeu7yhMnjYf1y+7EfNH9SKx0baT05T5Jb5/cxlufgNoMEciZtTP8YePbkPwtnexYdXnWLmnFJWUDbV9p2LOTffj9iULsWiwD9xYO9YfxfFv38SAOz9Ubsb5gPOeHc/BcF/2PPa+PAfDWemZatGQm4CtX67El+u+xeYj5aiie7tHDMOgiQsxd+F83HrdKPTy0Z4lzi0Vacg4sA6ffr4G3+05gGMFVhjFEV8E9h2CsQtvxNxrb8Gt4wMR4H6ODuN5sDSWoCR5DZZ/+Am+WbUPh6voVQJGY+RND+GJOT0wSL8Z0+5/F3UknNsVsJZmWEr2Y/u33+KLL9dhw5FclDaT0PIeiKHTZmH24iVYOncIBoV64Qe7j1oNsFafxN5vP8aKFSvw5Z4ilBt0COh7PRY/eD1+tjgAx+c/gE9P5OJAuwKWynZ9NtJ3f4d1X6/C6l2HcTCrDvbup2+fCRg5/w4sXjwXSyf3RBClLcdgecJ7+PqZ+/D0Nh6yyMlL9atD+vpED8YTy4/hoVFAKMdDawsM9QVIXPcZNq3bgLV7U5FQwFe6QddnFCZOmYvrb6J0GhmDvtRRaVtrWGFqLMbJ7Z9j3ar1WLflCBIKm6iUEWpPqPuMxvQxs7Ds/lsxc3Q0Yn5MR0UikZwbtr4eOkQVQDkwcKCysWX2EnD5M2H7/cKwmCBhIky/bFHkFRd69aLW58KWuR8Ci6bmXfuowi4RokZMIu/mBtf4OGgjI0jA2U00CmxhbEk8hubtO8SALrdhQ2xH2octfk1bdqD5+z2wlJWJ+wuR0jsGHjOmwfuGRXAbNYIE2BDoBg+CjkSxbghtw4bCffQIuI0YJhpTS2UVNXwVpwUWW+rYWup1/UJ437wE7iRi2cJqLi4mYVcrPqcLa6mtknYbPwYBTz0BXVw/YRm1kAi3VFWfrng5TDxgLfBXT4rwWCoqYUhJFYPTvBbMpWcshcc1U0iQjoP7mFFntrGj6fyR0I0cLq5Tu+korNUirCpfH/hQ2Hxvu4XebSCFkc6la9j1Qmx0nTtdw+KaraHGEyfh2rcPfO+7C55zZ4tnuY2g+w4fKuLHfQxdM24M/Rwj3kfbM1KIelNeATznz6FwzqMwTlXu6/gc26ahzom1rg6GtOOAwQhNjyAS5cGwNjSKOYCFewXF6+nGiOJEuCjQT2En4QMsMs32fRS3jkLH/jtvba61HWN4P21iP+/jjc5TzlXu4+LvJwS5+8Rx4u/OxwyrqRDH3llFYqcexe5BUMfPw32LBqPnhRpXDrLt1RozvsSRhJPYk8WdnN4YNX8GdXqjEGY7zkK5PvsYEj/dgkT6qyVoEKJGTsStU6NwegmSlgpU7XoOT/32P3jt8/1ILTfYPuebYanOR3ZKEr7/NhENYQMRHBeBCIfRVeaaEyhIWIk1SSRSjAFwMZKoTP0I73yyCd+fbIDe1q+x1ubj1J6TOJmmR8jMKYj0o/JhLEFF+kG8tTpZOYnShYN9OujqIKgGzMC98/ohzM2EssOf4qOn78Vfvz6E3RkNaLbd29xQiuK03Ug4lo4dFb0wbFg4ejrOT1W3C9+9/ip+9fibWHcqHzlV1IGzHWKLbjO9Y8bhVCTvzYZm9FREh7nDt20VdH6ajyNvy3/x1J0v4cv9p3DS7nHVXIySI+uQeOQoEnOakJGVT1nQCs/IOMRNXYzZvV3hJkyq9Wgt3Ix/Pfg0/v3RBmzMqEUjFQsBxWfpqSNI3r0Wh1v6IzAiBgODf0h9bKA0OoJvfn0nXqR7f51cZ7u3hd47DQkJ+7E6KRc16adQYjCgRucPVd/puHVmLGLFFAkcU/nY9sIv8Mq/3sBb32cjt6pF6d/aMNSWIvfIehzLKEaW5zhM7OMtBqk1FR9B2nfrsDFXuYsoew64eAVh3NJHMCYc8NLo0Zi/E1/86hH85YN1WLkvB8V11DsRUD6soXRLS8DuVVtw0iUCnjEUh2c+M8BUfgypKx/HXX/5Ciu3p6Og3mTroBCtJrRW5yI/6yjWJ1pg8Y3AiCHBIv+3DZFEIvnR8GB63goKFFdUHrEZToX8EvjhAjYnR1HOrJhHUdf4ElbauhCKgCVxWVKqCBiCxQwLMHNurhB57A7AYlBNz2dx2PTdFhiOpUA3aCAJ2KHiGkcsVTViYYTm3XvR+O0a6DdthSk7W1ghRcVJDQdb2dxJhLHYMmZkkcDdBf2O79GSkISWwwnCmsrWSde4/mjVN8Ocnw9TQZG4VogfEqGusX3h99C9wpKrDvCH2ttbWBPNxfQudfXU6NqqRBJUbqOGw+e2nwnLL1tS+V1YFLOgY7HLsHD3e+AeuISFwpieTuE4KiyvLCbdRgwVwq9l735htW5JPoaWpBQKb6KwavKnfA4HP8tcVARTbh5UlHG8r50vhK2ltAINq9ZCv3M3DInJaDmaBFNWtrCYclwwLQcPizBxOrBlteVIAsylpVD7+Yp4MJ7Kout3iecbko7BkEDxdPyESB+PaVNFfFhraqHfuFk8p2X/QbrHURjoWSJej1JY6XxLaZmIQ+4AsFhkVw8WLCzWWTiqXLUivV1CgoWVXRvTizoy1BmgPMnuJG7DhwhLMVusrc16incfcT3fk39nNwju3LgOHADXPjFC5HH8sDWb97NFmq2/bPXl/ZroaNF50UZFiPzFFnDuxFwxAWulclCXh+Kk7fh+60asXbUaa9asUbZvv8KqLXuwKscL4ZEBiPA5oyAbM1bi0JET2JPJSqgXRs67BqPbCFg96rKSkUAC9gj91UwCNnL4eNw6xS5ga1GT/B3ef/ZVLN+bh9rQMZj4syfw+IM34dYlczAuUgXXomSkVxTieH4AXH2iMXx4APhLMT/CZBOwq48CTYZGGGmn3mcoZt18L35+xy24YXI/xLvkIL2oAS0kxhqNFupALcDoKE/4e3lC5xeO+FHRCD2Ri+aKWpRrKVQDb8Yd996Gh39xK5ZNG44xff2BrE+x4X+v4MUvC5HdOgRDb7wbDzz6EH5+3WwsHOYFFFH4sjJRXEhlIGYkIqLCEW4zVeoP/g0rv/wM/ztuhME0EFPvfhR3P/og7rluJq6bHY+gqnQUFpBQrD6Fg0VRiI6LwqBIz4ucZ9eAin2fYd0bb+DdhEpUWn0QMuY63PjI43jkpmuxcFI4/FtKkb47GWUGElJ0hbOA1Rfswv53/4R/rUhBojUW0bNuxy8fvR+33nQDvZsfQs35OHCyAkUnCqDzD0evIf0R2o47R7vUnsCpra/i/97ehh351JHz7o/4RY/isYdvwR2Lp2NsL7rRqZ1IKapHkZk6is4CtqUSDQfexO//8RG+PNEKi/tELPnNb3HP7ZRGi6fgmmHBUCWnoFRvRmVZK2oM/TBzXm9Eemjg6h4A/16xGB7RgtLKGhRWtggXgsl3/wm33n4HHrrlWkwa1h9RPG6vaCv2f/kPPP/hfiSUWODRczbmP/AkHrnjRtyyaCpGUz7UlKbheHkZTlE6umiCMGBCb+GOoiapWpG8GRt+9xpWnqJ85jsU0Qvuwh+fuQfLblyKxROiEaurRGJaCQzF+3DC6AuX3qMwOVxH1fVFxaJEIrlY2IjHq3OxngwJASIiAJ8f4BfnwA8TsAx/1uWHR0Zesmq+EIqA3XtGwJIIaW1ogDknlwRjoRAU4uUtdIwqGFN2Dhq/+pZEWgl0JKpYxJryC4UYMxxLI9FE4m7/ASFG9d9tFT/5GrHKF0cmQ8/Q0Du5DR8mBCJ/Pm/evhMthw6T8MuHMTNbCDkWpLphQ0hgVZPwOiXCJMJH92Kx5Tl3FrxoM9L9zSVlcPH1gZpEqJnCbS4poZdTwswNFQszHnDGIopFm4bEGU/1ZSXxZiWx29rcIgSsz89vFaKShWnLoSPQ9u0Dj6mTxRRhjavWkSAnEbqDwppAItR2jokEOMcRW0pZwJqyKe5IgKu0rmL2BvGOScmoefFlNK3bKMSk4dBRGOl9WFDrBsZT3JtIxO8W7g0cB3x+MwlQ7gxoIsOFoGvasg0Nn34OPccVPdtwLBWWsnKx5KqwQNM7mQsL0bR2oxDJxlOZ1JHIEvHLYtyQfpzOp14YxSFHCl/nQpmZ49qVRKomivIZwT653CLzlGgaFtcUNvYvZl9gLQlXtbeXiEe22LM/rbiO8wenS89IuFCHS0OdAO5UcHzwc1QaliCtQmSzIGeRLKZoo44ExwG7MnBamakDIgQsCdorJmAtBqAmF5lpJDYp7hISE5Fo36jjkHQ4EUktwzFpSj8Mc5hgvvHUChw6zAKWTYbRGDG3PQGbJATsYfqrOWAgIoaNxy12AVtzBGmbP8Jf3jqAHERg2LUkbl54HPdPHYGhQ0djEonVYH069h4tQnlxCVpceyB+3hj0oqjlsUmmmuPIP7oS35I6bjJY4RYch0GLf4ffP3ULlk4chlET+mGAOhsH9ucjt84As7cGTf0XYmF8AMK8PEjARmPoEAoLdTiPnypEho7UzKhH8Jtf34c7JvXH4CgfuKkacfyTf2Llhzuxtcod7rN+iV8+8yR+e90IDB8xEiOnxSO4JgvFh08iuzIfOe6j0ad3LMZG8ndpE7I2/hnrvi9Ccim/8TDMf+wJ3HXXVMwYPgrDRo9CvLcVPq7Uueo5EP6+/Sj+eqM/P5fj57xwKT+OvZ9/ivf+ewTp/GfPOZh3x8P4zdNLMH80hW3iaMS4VKIseTeSq6wgjXhGwPYhAUvH8vZ+gw9f+BzrqZh4TLkLtz/xF/zt1nEYMWwYvVsc+uvqcHLPUeRUFqJYHQZN/HRM7+lyuq98PmrSt2HX2y/izSMmmK3BiB63FLc++yyeunEcxowYh0mDghBefRS7kstRpqc611nAGhvRnJeIQ1W+sPiNw8zrb8Wjv7sTy8YNweBhfA9fGHd8g/RiEvJGf5gbYzH37uGI9KZ3c/dHUN8xGOabTvn5JI5k1UNNZfja336Eh+6egknUqQylJKEcgVMbPsDKNz/H1zkUaI8pmP3zh/HL39yBmyYNx5AR4zGxnxu8DRk4crQUNfV5qNR7w3X0NRgZrIGbuhgF+7fgq7d34gRdbuw5Ef0X3oXnf3EtpgwdgmETRmBkuDcMNS7oEeKHyAFDEdF7CKb08pQCViLpDHhcDLsWso5kX9hLLGc29XaR8ENjY4EJE4D+/W07Oxd+Lf6UzQKORYaLLzVg/Lm9qhqmnDwhmvR79gkLKX8mZ9HIYowtsrX//QCVf/kryn/9LKqe/zvqP/lMWBBZHCo3PzvSxGdjQksCiD+tu0+/Bu7XTBWuBe5TJkI3IE4MTOJP3FYS1TwTAMOfoN1Gj4D30htgofs3fPkt6j/9Qgg24Y4wYpjw5VVOFp6mpzFTw8/WUX5H37t+Du+blojP+2JwGYdRrLLEG7eABP0UvmIsnJubhW8r+5620k+28vL7se8wCzkRPn4e3aeVN77e9lmcxbsYtEaCjTf2BRaDu1xICFro3iwG6TzuRLQ2Nop7t/Jz2J+3hQQli062WNKzxPNps3/6F9BxNYlCLfWw3CdNEFZjr0UL4T5tMglRigt6BgtM0RlxwP5uLPDVFCbucAj/YA43nSs6OLv3wUzClwUtb8ICbUtbHjymiQgXnQ3OKyyi2aLM/snsC6ynzpFLSKhwBeFjbJ01kvA25RZAS2LWbdJ4MZDMkJoq8hc4Duk+FOu2EHZBPEhse+ug4yHjHUhjdipSE7cjTdx2HPqExmJ4mBWN+iY0t1C6eccgbsb1GKRxhxaZqC7fhQSeIUUpFk74ISJqAm69YzoG2N0nW0kwTFyAiT5+6MV/WlQ41ViLptN5gj8T16Gebig+GHM5INHUWFfNfxGUD00JOLanBMnUl4S7C0ZOGoL4QEorcwuaqJNjxEDEjuuJWTP5fBVqD5zAyYwikkVMLVr07jCJwbD8hCIc37cN33+fhZxaAxqbPRGz7P/w2+W78d261dj7xf24e3zkxc/Nm5+ElIxibKVgM2Fzrse0GRMwRLgGMCGImzgHt901Hjrd6Z0KXDs3pKIwJRUb8rhLAwztH4XhsSS2mpso3M20Lwreg6/BksHUFtD5lcVF2JB8Cs32uuK8VKI89xSOrGuChm/uPxm9JizEzyd6Cgu6IHQQpt5+P2b5B1L3pR08QuA3/c9448PVOLrjI3zy4k2Y4EV1B5dtWFBP8efXWwXud/ALaZq1sLTa6iGG0sjQQJvJFkFEC6U/VSVnqNuD5L2pWG/zJAm5cRlmLJmJaYHK34w6djJm3ELhpDq0B5pRUnkYn21IRFULP8kEi8GABvpNPIU6gpUp32PN98eRW16PZoM/vCY/ghdXr8Gq7w9i3Su/xZ+nB0PTUXPdSiSStrDhkL/is964RPHK/DABe5kRQobEq27QAPg9+QuEfvhf2t5Bjxf+D36PPADvW26C64B4egsS1nyu2SQGUHmQ0OS5YYOe+yNC33sTIa+9BO9li5XP4tTDPy8knNgVwG3kcDGPbMBTjyPgl48h4OnH4f/QffAg8cWzAZgys4SoajUpQs6VhK375InCj5atkPxp3EBCmj+PQ6MV/p4sYmETpVytqnjlMII/zdd9vBw177wvXA3YR9Wf3petuSqdK70bncRbGxx20P0U70AbnCHEn+fIGGyZJHQkuEM/eBuRW9cjcuMqRGz4FmEf/Vc8n/1muTMgBlJxZrNnsrMyGz/rzCaO8n8izCScPTyE7zLHv9+9d8D/Fw/A52dLhdWT3034njohHkH/sb8v38OHBD27S/AgMraMeowfKwb1uU8YK6ykxhOnoKaOjduY0cIfl10BhJ8031s05CQ9SRCpSei6TRwHrxuvp3C5w0rCnDsNJupkmMvK6V25M9AgLOss6D2mTYHXwnniuSKGz0qDLoSemme9UcwB++MRqSioKslB4Um7WNyMTR/djfnx8Rg+dBiGDI5H/+HzMO2e17Fd3yLkn9lgRGUNdaBsnaS2BFBx7oEAEjP2Dx8iUtUkeOhX5QqR+OK3i4KFbl4GdjfW4RD/3aJHwr/vwn1zhiFuwGAMGzYMg+LicM19n+Kl7eIKIKsSzfl1JF2ZQPSOG4bAcOrsCK/I4zi48i/44y3XYOa4kZh+w4N4/IVP8MX+HOQIkWvjYqKZzykrREV9lfI3MSI2Gn0jnJyYfYIQEkUdVq7HTkP5jaOhLAcFpVnIVnYi4bO/4ZnZ8Rg8ZBgGDx2CAf2HY/J1T+FPB4BSLkrcoa2sQ9XFhA9VaKyoRh71IUWNMKgXvIf0Rm/69UzDQGGN6IV4rStCbXsuhKU6D9nHvsf6L17Bq3/7M15Zq0dWhe3gpVCYi5PVFUi3/TmoT0+KQ+dPjoHQhsdj/DgXZcBXST2qDp9CDn+5IZEf0CscwwaJE0m3p6Fg7T/xx9vmY+qoqZi08F7c/9cPsIIEbZEY1SWRSLoDXVPAsuig2ps/p3stWkBi7lEhYtwnjRcLEbAlk30l2TrX2tAoRvELK6GJmlC2EhPikzx/Ch80UFj+/B64Fz533KoMwDpfz5paVhZVPOKfP8/XffgJ6j/6H+o+oJ+frUDz3v3iWeyzKoSSmPZJK57BMwpwmNmn0mfJDSSil4kBYGpPdyGIPSZOgEuPYPEMIa5swWB/UZ7VoGnVWtQv/1x8rtcNHwrfe+4QMyrwlFzi3RwRrRthpQac391x43P5pxCqtpaszSsrf7B1VsyOQH9qwsPgZps1gN0jmrZuR9PqdeJT/unps+zP5J9t7mf7U+zn32zH6XeeQowHgjV8vQq1FIc1/3kXDV98BeOpU2KZYBEPdmubuAmj3IfFJFunefAauwCwOwUPEONP+hwuS3mlsECrfRV/V+E3TPGhdlMEAotnttqTMhCina3EYnaD5hZlwBy9J1+jDvBTRCr1BoWgpn3Cbzm/UPjismsI5ydnS/Flxb0HVCPuwEN/+jtefet1vPrKK3jFvr38T7z8xiv412OTMTbi4mcouDBWmI2UNymZlKRpQENNIXKpw5CZmUlbBk5l5iC7oBKNNsFaUlqF7/LLYRAWOGc0dB+NMvvd6bTm4t5KT7pE+zbXFYZm1LOPsPjbCn1FAQpzMnGSOoYczoxTJ5FdWIMKMXiKn3IcxdRRLBJ/qeEz/k4svPFWLBroDR0P2qqrQEVxAbJPpuHwltX46sNX8fIfnsFvnngOL6/NQFYNPcsh/OfDbGiCyWT7IkH4e+jgxQLLERKuWlcPysJtbyr+pGuNRrtyVqG5thwlOSeQIeKf3y0D2bnFKG1S7MfIKUb1jkKUUrywdDsvVup0GFqEZVLEvbcOLj7OjhFUDrU6uFMZchib50Qzyo9twtq3nsezD9yD+x56DI89/Vv84S//whsfbMKuChMcDaoXGXVnqC9HY8uZOwT5eoL+OaGhHrkvAkPVcOO+SIsZ5pR6NBjNFDotQuOnYNEvb8cNw/3gSWlsbKhCOQnj/IIkJGxdhVWfvI5/P/dbPPr483jpmwQk8Ue6S8qQEonkctF1BSyJPP407HXtfCFiWUSI+USdMGXlCN9OsaqDfXNC+K2SIPS68TqxGtdpv1d+jhPCCsKVPzV+wr9z5ddo+PIb8ZMFrfikTOHg8AifVW8vMWLfc/YMEoHhwirLVj22xvLoe97HYolFlm7UcDFDAAslx2ezLyZ/dudBYo3frCIRu0L4rLoOHgifW28SI/WFKHVo4FS2OGLLI4tp/mTOzxI/IyLEoC8W+ewjyi0GCzO+RtzBNn8uf4pvWPGVEOhNm7fClJcvwsozCPDneHbLYBHZXryLm3J4zgTJCTrAnQES5+weoSdB3EgCveGLL4U4ZuHMHQAWzjwvrcAeJw73ZPcIU36B4ppAYpXdRPh+YlBeAQlMErfC9cFVpwhein924bCQWGV3CE1wsHIdCVF+P0NKGozJx2ApKhIilUUsLzOsiYqgn16KqwSFmcWuuagYFoojCtjpOLtiuAVCPWgp7vjlr/HYQ7/AY48/jsft25NP4clH7sUvrx2AfoEkQNpka8c/6B0ozdomGVv6qLNo+8sZIapOXxCG4J4jMG7WdEydNg3TnLfxozFqyhj0DXIBj687Gxa1JFX5R5sw/khIXCmL5/KvLvDvOwrDxl+DGdc4h3GK+Dl21FAMj/OD1q4rA8Zg6qI78ZuHb8fPpk/CxEHx6B8TiZAAT7i1VqM8MwGHt32Fle/8E/949X/YmJBvs95eDG3dhc714uJrkxNiD6eX7UsN7wmI6ofBE2Y5vZd9G4+xw8dgZi9fEpwOn+nPCXcaHM6iMLSKxHGC97c98wxmEokZa7Bm+ev453PP42///QAffr0be9LK0eASgrB+QxAfqoH3udXvBbG2UsfRIVxsf2gbpzYogK18wH6whd+nVViX1UFDMfTmX+O+u36OO66bguFDByCubzgierC7RJ3wAz+4bTW+ffcfeOn1r7B8axlq20kTiUTSCXBZY43DBjVqry+WC7fKbJHi7XIWZnqWimopYeH0OqurrUDnsNgyFhQon38pjGJlKp5O6Ryw/6w6IIAquXO9NlV4bNEkxICuMaPgMeMauE+fpvycPIHEaj/hSyn8Q9l65+8Pz3mzoY3tIwRh4/qNaN65C/pde8TWzAPHtn4vPnOzRdjrhmvhQqJKsfRyjcsbiUt2baBfeSAaC+ba9z5Cy4HDiu8mi1AzVcP2NGDrqp6tMipo4/oLH13PBXPhxdNWzaNt4Tx4zpwhBqSpKf7Eilf6ZvEZXWmGlBreUloO/eZtqP94ufAPbqTfLSws+VN9CInisBDl2bbHKtC1/DeH5Xz5wnacrbcsqt0nToDnrBnwnDNLbF5zbVNskajQ8kwJLJTs97L/oDhm/1SXoABhZTeXlgkxyvd1EWFzhZkELM/Hq/bzEX+zZdaUkwNzZrawurK4ZVErBtUJ0Vou7sXvbq2qViytFOdi3l96NyN1HDgdRbipE6CizgjP7MDPvqD7SWfCjbixEfW1bC+7APYGnGgrVyn9KY7bphg38o7TRjmiiCd7fw+Yiek3v4nPKZ/s3LEDO5y3fYdw+ON/Yt2NMfAXE7leBvj1KIAunH8IF50HBj/8Nl7+eju2bncO4/fi54HD/8ULj07FcKVvJ9BFjMX4h9/Eh1vW4MuPXsWLT9+P26+fgkmDPdDD1r/i6azKt72I9VuPYHeJbdcFUGncoHaxfcEg9EYrDDZj8Wko/q1U75xVkngHxf/pDjcxYskTeO6bzU7vZd/24UDCW1j+8RwMdVGdvRCFM2odZWlXdhJQ4oHCJrY2UCCovHH+aHtEiTlDVSaOfvgkXvl4A3aVmuHmOwjT7nwWf3jpYyxfuwlr1r2HF6/1QryfOP2SUHsGwVV3xmWgrsmARkd3DgHV/xY99LWtMPHUsNTpVg/0gLtWbZstgsqu+0BMffRVvLniW3z3+Wt44ff34N5l12ByfCR1zex91EZU7NyKr17dhBSzFWc9RiKRdDysJaqqlMWxcnkww8VxfgFrMADbtgFbtypLxl4uWNyR2GKhod+xCy2JycLvtA3UYLH1lVfVEosJECw+eeR8e7AAadqyHS2Hjp75FGxr9AT8OwkmK39arqiANjJMCC62gPr8bJn46bX4OrgOGiisfsa0dCGW2DqqGxAvZg5oWLMONf9+HTWvv43aN5Sthn++/hYavl0jLIaa8FBhsWUxzdY+9jNl6yD70rJoZxHH02g103vXvvch6knM8id4HrRmbVTigD+hG+j5HD88RysLVg4f+wTz5nPbzSKs7HPLK3eJkf+5ecrgKhL4ltoaIfotNdUUZ9R4NreImQYaV34tprtikeg+YZyYx1XLU04JP1xb88pRRgKaLaMcp2z1FAPfHOOSRRKdwx0MThvuiHjOmi4Gp3HY2LXCmzYOs+e188VgLaGSOBPz5fwf3U/EMwl/Q4ryriw42SpqSEyC8ViKmKWC44pneODZDNj32JybL9LRQoXBQPFmTEkTc/2yRVWElfMRhY/DzvdndwIzxY0hOVVMs8bpz/MEs9VXTAtG14tV1yhQthjoVrjAUywFSpFCWyrq9HUkAPhvO00wUbywj+XZn5xV8A/yR1i0/d2z0KivQLn4/UpBL8OizvaXcBkKicBQrQd44jczJVRacRmqmp1VYju0l6Bqet8RUzDrlgfx9HNv491vE7H74+fwOx4lJTAgr6IU2RcTCRRIl9BoRHkHwe7YkZRXhNxyp+5CUw1qi49RWWwbZlHkAsMQGBDBC+gKCinx8uwuyT8af/hE+KF3EOcTIr0ITWkFoK6aAya4VJYgnerVYtseBb7CiOaqkzj2fgXq+aLAMQi8kcTrH+/EXUsmYExMCML8XOFB2pGrtouFR/47VieIiEJfn0D0tP2Znl9CaXDGLUOhnhrALBw+aEE55+9Ib3hPjEd/nebs2SJ0AegRPxmzb3gUjzz7Jt7fuB2rN/wHL9xAlwmdTB3ekhMoKG2VAlYiuRywhmDhyit05eUBDQ22CvD8nF/A8lKivGoCz/vqLCA7E669rCTkSHTot+0QFsKGr1ejec9+EmMZiv8jHROrV+UVCBEiLqONLY0sQPgzsqmwSKxc1bRxCxpWfI2Gr76lv4+dHTGiwlQLkcifznlaqqbvtok5S3kgloGnh+Ipqg4dESPiG7/+Fvrv9wj/TLGIAp3T8NUq6Ekg88wIPD+smQSQ2EhgsztC80667tvV4hwxip8EG4uy+hVfKfcqrwQP9lLe3So+bfOz+ZM7+942kbAU89ASPE1V8559aCRxq99C4dx3QExJ1XL4iG2j3w8cFGHl2RA4DtkqKazGPHp8735xX14sggdp8Upe/Ime45Of07h2gzL/Kwlrpo0LgYtGxG3LkUQRp9y5EMvb2qHwC1FMApfD0bR+k9j4mRx/SjiVjZfz5fRhi6dIE+64UD7j9GU/VBbcfG+eQk3Mz8qWZ+pUCReBOtrHHSzex8fYxcB2HiPOpWstvI8HcnABERuJZA4jXav4zFpt19N5/B50ndgn8hCL3noh0DlZHNvU7oKXT0+4efFwbc7z5ThFee4ke0XYMB3bhj07NmAX/X6mhJ8pH35RJAIGjkCw2JWApPTd+Hpz7ZmGvSkLpza/hv/78+/w2EN/w6vvf48kqnt4OqiOgW9EnS4j+8na/jZZofa0S0IqM/6DMWJoCEbxSPcWI6pWf419u4/jjJG0AlnbluP93z+BZ3/7DJ7+ZDe2ZlFaiwQtwrEv/ol3fvcIfvnHv+E37+zEvlJe/rQHQsJ7olfvfug/IBThPnZxqYKnzhs+5/gwdBY9B6BvnxCMtP2ZvX03Dh9IBZV2G00oSNyL1V8foSzvKGzpPfmFg2IR2b8vrqHncSk8secgdq3Zj7zT8VuL2sQ1eO/ZZ/H7Jx7GX979Ct+coHJzUfEfisDIvhgywR0WvnnJfpQc3o6NOa0k023UZCJ51efYVVcLagkc4MgzUXHRo6aSOrS8y6SGi8ET/j17INCdb1iLxtTvsf1AM4rFODZqblQuoq9qL0scTDY8WBxcBFpU7nB1HOcWNAIDh/bF9BDlz9wNG7Bn4z6kOjZJxUdwaM3n2FbRKIS2b+BALJwxGEHu1Pk2ZSF756d44Ylf4XdPP4W/fbQBm7PU8PDpgR5hPRERHYvRo6PFLA5aEW9usPj5wceDPbYlEkmnw5UCz0zEDW0Z9YZZzHJ7fQHOPQ8siyxWwrxaAt84OppqhYuePOZHIaZJ4nlgi4qFpYw/EbNQZR9GFo382dhSXAz97j1iIn+2mokXJ+EhfCo9PMR0SSwAWfSKifZJ8LHVVJzL1ae9BrVDf7PAE9NzZWWLpU3ZondmSxGbkQQXj45nS59Yv99oEBZAtvSJT88UBv78zC4BpzcKGwtEDj9b+djyx5ZJ4d9JgpcFLlsXRYIJpWTze+PBRMWlwuoorM30k8W68NEkgWvKIXF8/IQQgezXaUikja2GtLXwTw4rhZ3fx1JdqwgzeoaVP7OL5WXpudQRUJ5JccDvz/fNpTDxLAvsA1pZqYhCW9iElZitq3weXc/xwNOJne4U8L0YE51TRc/huEyhuLSFy3ETYUxLEz63LBjp7qfFo7AW0z3F51PR4nEYlU1M/+W0T5xj38fY9p11nuNxx83xett2+jkUDhdq0K7oSlzsA9t3Om6bFYs+vhf8OHwaraUMmSdysOlAgfgMXKvyhit1QsLc61CRdQQbVy3HN5t3I6HC5lrgPA+slwe0zRZk79iP7IYWVNWQQGhQI4I0cUtDOY7v+ALf/PdveP797Th0pBhVHnEYM3cEepEAYctv23lgA9AjegSuWTYJfenmrnSc7kId5VPY/tl2pJTXoc6Tbjz6Otw9Mhw9vVk+cKgakLdhFY6mFSODlZZ7KGLCVXDRqcB9nR49IhCgyURVdQp2pjdS3sxHk8kTRp0vPJvyUHb8O3z+6j/x7/c3YAPVB4m+EzBsyECMDed4LEH6x3/Hh69/i/9t2469h2rR5KaC2sWIlrJCFBdl4+B3X2HjjgNILSYR63kNFv5sGRZS/ISd8Qw4B5yPvKFtyoQ+bz8OFFhhKq+FnjvnpIBdakpQkroGm6jDvGpDBgpNimY9PQ9sDC9k4EMSvQruud/jcFYL6qnuqKrWQxscBFVTLepTNmHTp//B/73yGdYfPIJUS0/0HDMdUyM1F2X11LlQ58yai90Hs1DeVE3Vvh711gB4aephrMpAwo71WPHVl9ib2UBxyhfY54Hth1h/L5gaCpGzfx32lBpR30L3MqjgExEAa0s1yo+uw/ervsBXW6qQTZ1IM3yhcx+CBfeMQm8/V+HioGq1QF26D5u/T8eRHOosksj17jUM3iYDvAzlaHQLg4+bL/zdqf4ypOBASjXqq3JQUWlFk7sf3I0VaCxKwf71n2PlckqnQiqvmqmYuegmPPbzEYjifGjIRebWlXj5j29ixf792J5QhHKzDj3cDagqL0d1URISd2zChlUHQVkYhpDJGH79Utx1bTRCqB6gO0okks6E21nWl7wyF29sSGLNaR9Afg5Ure2NHmBYuB48CJCAwaRJwIABykMuAzynZ9XzL8JwNEGIGfGZkJ6tdncTPok8SIonnWdLnZjwny1xLDpI/IgZCtjHlAQXXyvma9U3Qaz7f45XlUjOB4t+9kX2ufVmBPzqCdvezqYZZv1+fDr8Trx5qgBH/GLhMvc5bPzHfMzqedop8yI4hYQP3sC/Hnsd3zQJudiW2H7w1+nQPzUFx+hPfd+lGHPnk1j37HjYZi2GoTwVSe8+iHvfOkoi7qw7EKyUfBC99Dk89PCt+PW0M+ta67O+wZ7/3oifv00d6/q+GDD5HvzfV7/BXLq5pxBYtWjNX4dnFzyL5an5yA+OBR76ALvvH4VJ9qWyKC5OvLsQ//7vdvyXlwuzEzIWQTf8CdtenI0h3qeQ/OEb+OOTb2EL9cnaHQbgEgBV7xvx/H/+gNuuiUJPe3VW+BWWv/Am/vzWTrCj1LlqCRcPP/S//2P844HpWBj3A2Z7qDuCtG/exoP3fYgjlrP9KsPCwhAZGYXExASqt83oMfZ6XPfHT/HSDE/4scrT56B637t48Odv4buSOv5Y3i6u/R/AQ8/cj6fvHiHmbL0I/Uo0obl4Jz5+8A68saMKaWKmBgeo46aKi8eIY8dQQfVovk9vqOY+j/V/n495Mb7UWchC+vK7cOfLh5GQe3becHV1xfBhw5Gdc5LaJRW8/BfjufUvYdk4f1AfhOpsqpeLVuJfT7+Kf6w8DMfZtsLix+KRDw7g3hGU1K51qEr5Fu89fC/ePGJBQXvZUNhL4zHxid/i4Yeuwy39zizooacOwL53nsAdb6ehuJaV+LmIxthbf4NHnnsQt/RSOmESieQykZoKUF3DxjvMmwewlmNtdw7ObYFlE25mJhAYCPTrd8lLfV0KigVWWUpWKHEhThW/SiFK6+vF8qT8+f70cYZ+is/OfIw2C3/+ZQHMs6o7WwjPxcWKXPt92pxP+853e8dzna8/X7jOd93F4nj/9u7niPO9L3TOucL+Q8J4rnt0Beg9Lr8F1gSLKQdH/vEJdjQZUd2iQWuvGbh5Xn/EClVzsQQgkDp1ffvpoK8pQll+A4RG8eqFQdPvwMPP3IZl/bxg3rgPB3i/OhreQyfijunRp/02NbxiUtxkTBgQiZ7ezWiqyEfRaRUVgrBJi3DTw3/AM3fPwXXDe8Dd4bursSoZWXu+xse72RHABa7+wzHjtmnod9oCS2W4JhXr316N/fUGGEzUWR1FgndsJHr52G+kRRAJPA9XKxqz05FbaVXmLW0OR0zcMMyaG4dIt1CE9OyPkZOGoU+ABqa6bBRWWoTVmaQy/IcvwJI7HsVvfnUnFo2MQITOwY/WOxq9qYM+fngE/MwtaKkrEtNSncatL+KmLcGyh57BL38+BRN6+4Auv3jcguEfEYsxIwPhZipHeU4lqjlg7jGInfUwHrxtHm4a2oJPNySJ043ekYidfhPm93FV4lLrQ7eIx/jJcYjtoUVrXSkKy5uVabNItHn1uQYzbn0Cv/3Vbbh5BseFyw+wGrpC6xGK2JHD0TNATfVmHnJLDcrI/YjJmHvLz/HEozMQ/u0mnNQbUGWgWIuegaUU53EBblC7ecGv7zD09tTCsyEP5QWNNoEdiZhpt+Pmhx7Hr+7oA/XhRKQXl6KxJQdNAxZgeK8IRHM/jL80+UQhxFuNQDNPf1aOSpu+1PUci34Tr8e4SA18XN3gHhCF/hOmYuiAKISqm6EvKkGZ3XE7YCCGzrwdD/z+GTy8bCKmxHjZ8peC1jsUwfGTMTk+GCGeJjRWlKOi0WHgnEdP9JlwPeXjJ/HgHXMwp78n3LpwlSSRXJWwsZLHNPGqpTxomnUnz9p0Dtq3wLL7QEICkJYGDB0KDBp0WQWsYoH9h/CTZAF6ZoJvHjFNwbUHmUSPMs3PmZpGzOPpcJz+sx3m8/inRPIDoLzEeUob0ws+t/8MAU9fLgusCVZTPhJf+xIH8ouRGRgNj36zcNfc/uj7gwQsY0Br7Sns37kPKakkEppJDIfGYPCAsZgwIRw+FaeQ+MZK7LGaURY6CvEjJ+GOa3oqLgRcluzlS1+IwvQEHEw6jsycOtQZtNAGhSMifiCGjxqPEREupwcb2TFVpyH30IdYeVCFsspQ9B48CjNvnaoIWHFGM4XtBDZ/tBlJ2YUoD+kF7bgb8eBoRwHLmFCfm4DE3Ttx+GQdqlp0cAuIofsNx5RZcQh3o7CI8xpRlnwEiSkJSMstRkWTKyw+IejVZyhGUl02vL+/bXQ+1xHKeym/Ub3Rkoe03QlIzz6BnPJaVDVpab8nfEJIuMcPwcChgzEsjOeyPX3RReBwojELqXv242hCBvKrrHAJ7YvowVMwqZ8bQozH8NL/9qKqqgY94sYifsYyIWDdHKOApGHNqWQkHDmGlNwCVDRYoXIPRnD0QPQfOhIThgVDsc1fdOAcsKI++yCSDh/CkaxSVFj9ERg+CMNHD8CIQe7If/1THMzMxfHAnnDvNxt3UD7sz0vJ2jAUJOF4wgEcSs9Cbr0auoD+iBk0BsOGx2JIcBESvtiM3ftSUBoYgNApd2P+iGjE+p+R2a31uchP3Y9d+5ORUUUdD10gQijN4sbOxLhoLQlY24kEuzZkJSchOTUDqaUNaNF6wT+kN/r2H4rREwegt/OoLcc8XJ+FzPQ0HD2WhYLsctS2WmHUecIjIILyyEAMGz0McaFuF7FMsEQi6XBYv/GEAcePA336KG4EXuf+2tW+gK2tBTIyFGfaYcOAkJAL+iJ0JLzefuVzL8B4LE3xv7xMrgsSSbuwa0oECb1bbkLgr39p29nJnE+DXIo+uUy0CZqjcLgEHC+/4Cv/yGd1VS743leSHxm4H3J5l44HiUTScbABlf1gIyMvqDvP7QPLu+2NwmVuGHjEetUL/xQDhXjap6uxYZJ0I7gcuLqKeXYDf/cr206JRCKRSCQdzkUaJM4tYK8gPDDLlJ8PZVECe/CkiJVcbmx5j39QYeIFHngFNolEIpFIJFeWridgL1J5SyQSiUQikUh+mnQ951IpXiUSiUQikUgk50GOjpJIJBKJRCKRdCvauhCYTBAjwDx5jhuHeUskEolEIpFIJJLOhmWpXq+sR8DzwvJMWBERytywDpyxwPKCAFVVytyv+fnKxRKJRCKRSCQSyeWExWpxMZCeDhQWKhrViTMCludb5dUPUlIU1cvr20skEolEIpFIJJcLHgul0ynzwPJqqjU1yiIHTpwRsAaD4j7Aiwb4+ipuBBKJRCKRSCQSyeXGz09ZSray8gICllUuLxzAJ/n7n3f5LolEIpFIJBKJpNPw8FCMqew+wAZWJ84IWPZ55SVkefAWXySRSCQSiUQikVwJWIvyxgKW3QjY1dWBMwLWaFQ2dh9wGuklkUgkEolEIpFcNtj6yh4B7EbA+tRpINcZAcvOsj4+QECA8rtEIpFIJBKJRHIlYFfWgQOBuXOBuLizxmadmQe2vl5xIXBzUxxn5TywEolEIpFIJJIrBUvUc6zQ2nYhA4lEIpFIJBKJpItzxoVAIpFIJBKJRCLpBkgBK5FIJBKJRCLpVkgBK5FIJBKJRCLpVig+sHY32HM4ykokEolEIpFIJJcVnjqrqUn5ybMQ8EQDNhQLLC9iUFcHNDQoI74kEolEIpFIJJIrCevS5GRg1y6guNi2U0ERsIWFwO7dygntrDcrkUgkEolEIpFcViwWZRnZigqgudm2U0ERsGx9LSsDqqulBVYikUgkEolEcuVxcVFW4mIhy5sDioC1L88lV+CSSCQSiUQikXQFNBrF95WFrBOKgOXBW3IAl0QikUgkEomkq8BeAedwbVUErEQikUgkEolE0tVg1wGj8Swhe8aFgA+aTOJPiUQikUgkEonkisKurcHBQFwc4O9v26mgzAPLUxRkZSmOsrNnt+tr0JHwI5ubm0kzG8XGf6vV0hgskUgkEolEcrlQqVQk+Vzg6uoKNzc38XuXgq2uBoOysUbV6WwH7AKWfQx4Yy6DkKysrERKSgry8/NRXFwMk8lE4XIXQlYikUgkEolE0vloNBr4+fkhKioK/fv3R3h4uNjX5WB96DRWSxGwlwGLxYKtW7dix44dQrSyYA0NDRWWV7vylwJWIpFIJBKJ5PLAuqupqQllZWUoLCxEv379MHXqVEyYMAEBAQGnz2FLbVej0wWs1WrFqVOncPjwYRw/fly4DrDaj4yMFErfw8MDWq22ayp+iUQikUgkkqsUNi42NDSgpKQE2dnZQqOxbgsKCsLcuXMxcOBAodG6Ip0qYM1mM9LT07F27VokJSVhwIABuOGGGzBs2DDbGRKJRCKRSCSSrgAbGj///HPs3bsXEydOxI033oghQ4b8tCywLF5zc3Pxpz/9SbgILF26FNOnTxeuAhKJRCKRSCSSrgVLQh5cf+LECbz44ovC1fO6667DlClTbGd0HTptxBYP1Prggw+EGfraa68VPhVSvEokEolEIpF0TdjSqtPphOvA008/jZaWFqxevRoZGRnC3eCyw7MPFBYCR48CZWW2nQqKgC0vB06dAnJyzsxG8CNgH4rk5GSh4KdNm4ZZs2bBk5cCk0gkEolEIpF0aXhc0vDhwzF+/Hg0NjZi1apVYsaoyw4/kzXq8eNAdbVtp4IiYFm8btsG7NmjrHjwI0lISBD+EzwlA49k8/b2th2RSCQSiUQikXQHFi5cKITs9u3bUVVVZdt7GeF5YHmhLRLR4qcDioDluV95lFkHzQTAc7xmZWVh2bJlYsYBiUQikUgkEkn3gjUcuxOEhYVh165dYraCKwLrVKeBZIqA5Z327UfAzr81NTVinlceuBUfHy98KSQSiUQikUgk3Q+e9pStsKmpqSgtLbXtvfIoAraDYAHLlleegYBfWA7akkgkEolEIum+9OjRA0OHDhUzS10RNwIem8WuBE5jtM4I2A4YvMUClldyYKtrdHS0ba9EIpFIJBKJpDvi5eUlNB2v1sWLHlxW2DPAxUVxc2U3AgeUv3jgFo/0+pEjzFjAsvsAj1hjF4KuSqdMfHuZOe87OBw853m2DsuF4+LCZ1zonA7oG0kkEolEIrlC8Bf16upqMcvUZYWFa48eQFwcYFva1o6ykAFPUVBTowzi6t37kn1h2XXgww8/FFZYdvrlQVxXDiuK1v0Jq7Ycxvpsd+jUreh3y2+xcNZYTPanBMjZhC9K+sElIBZL488lti1CmhnqXKDzomihTkBXgMOkQhka077DI8+vR3VjHaytgxHacxH+8Nok9NI4pF/d9/jgnbX4YnsqvDx80dI8D7f+bj5unBwMt1YrUHUIX325Acs3JkKt5Xgw0TmRiOo/Fff+300Y7A3oatORuX81XlieiKpGI9QcD1Y3mE3xmP/IzzBvXj9Ewwz9rsfwn7X52JyigpevFwzzn8Hjs4ZgVngXiTiJRCKRSCQ/mIqKCsyePVvMDXvrrbfa9l4G2HWgpUXZPDxYSdsO2C2wwcFA//5Anz6XLF4ZngDX3d1dbFd07VyrHsaS7diXlIKDxwtRWlKI4pJMJG45itSEShj4Hc0taDGSWDPbrmmPppOoKUnE8TqSdRSH7XP5zYsqNKPhUBK2vbcXR/MLkFNWhorMdGQc3YM3E4pxUhjSjbBUHsfOLQnYkZyJgrJSFBdRXOQcw75Vifg+qR6NnNQ1SUhMTsCqQ7koKipCcXEJSvOOI+N4MjYlVqKKZ1Wry0RFyhpsTspHWg4dLy4S5xYWVqFWTyKf4sZUkoxPDiZhz/EsVNKzCgsKkLRnE1Iys0DZTiKRSCQSSTdGrVYLnXdZYbcBFq5sfXUaV9XWoaADsJJa5o0Nu1eK1roS1O18E9+FP4mx/0pFwpHDOHjoAP4UqUVI6h6kww2WfjfjzmlDcdtgtjpaYTHq0axvRGOjHk16E+0B9EnrkLr+Q3ybY0a5mH7MAoupGU1NTcJNotlghLnVlpgWI6xmg1iCTRw3mGEwmWh3I/3dCD39bRYiuBVWkx4tzfwsPkbnGm3HWvn+TdDbwqFv5vu3I5ENu7DpsyQsXzEK732/D0mHEnEo4R/46l9qvPPdKezPNNA5mag6shyLvvFH/L1v4XhiEg4c3IuE9LkYmnMYK+76Bsc4+S0W9J37IB7/LBEHDhzA/v2HcTTtbXzyz0E4uv0Eyoo5ABb4R8bh0Q/3Y/Ohg9hH5xw8tBsJSa/hNzfGo1f9MdSdWI+nmv6K6c/T9Yl0fN8ebB+Wg971KdhVbwu3RCKRSCQSSQfQ4QK2K6By1aFHWF98X1aPY1V6214vTHzmNiy8dy4GmJvgkvY+3th4FO+mWQBjLg7/dSxuHucLn4DpiB/4HjbXJmPP5sP44L4P8PLSR/B5UiPKi3bh4FuLEdOrFwL9fLH0169hvW1hCOPR13Hsqz/jn8//Df16xyDgV6vx9IqPcOiFHhjQJxKz//QVviqkE011yPlsLO6a0wOBgRHo1W8wwv/2Hb7gY/UJSP5PDKaODIO39yRMWfBvrC4FnF2mDYd3QTdCh2Hv3onBGkDM3usRhx4j7kHCDb0xM0aHopxKZKfk4o8PX4N5I8PFdQL1LCy+3wM33ZuBg8kk0hvpep0WWnfHOYDd4KZTw2xm66pNPqvU0Lqp4NHerGjuHtAEBGHCiWL41ZN4ttHvvr9jwYw5mCAXYZNIJBKJRNKBuPyZsP3+o2GrKy9iUF9fj6CgIDEP7BXBxRXwDkM4ilGy92v87533sOrbb5HqNRy+vUMQpSNRm7cVXxdFwOTigokeKXhruxbhg2dg6eJrMXXaKEwYHwHPoiQ0NQMtE2/HkkV+MKblI/OYBnGL5mHevPGIcw2Ca4kLvIeFwi3jK3ydWotPGgfj9kk9EVa7E7rGCrj0mo8B4a6oqIuAVtsD44do0FDjDr/oqRh/zXhMntATzScCMCZWi0BtObZ8Uoles5dg5rWLMGfaaIwaEkb76ZVsr8a0pK1CvqYH9APGY4Ifu260opXOUGk9EBDoBR9XNWoLMlCRehCuk5ahb7Ab/Ogcdj7gzV1/GA3mKqRo52Ci+3F8v3kj3nvnEyTvWo9V6zZg44rvcSDJivDp0zFlkC/8DDnIS9qOF//7HbZ8swrb1n2Jr9ZtxcoMdwSEBSMmKIBEsDf6elagZNtKrHzvXXyyaQtWWkeiZ1Qo+kgBK5FIJBJJt0Wv1+PTTz8Vq6sOHjzYtvfKchVaYEmoubgBPYZjycRIXONZjj0HjiAxKREHtn+GQwkZqG4ggavWwd1VAx0P1DIDptD+6D10HCZPGoDRo73gbgpE9JB+uObRazD/sRswNaIalceykZTqgVHjxmLarKnwrKxEypdrkEZ6uEXtigaPSGiHL8Cf//AC/hBVj8GtnnBZ8Bf89p/PYEGwJ9QnM6CHGyIG34HhY6/DhImjMGb0IAxsMUHXVIF6lTtU7jMxYOgUTJzSC0MHuYIX4VU7+RCo2CfESm9K4RZeCSRKWZryaS0WZak1H/ZTofMsFnbp4D1n/FZ40gmLRS1cS9Qk4A215SjNSEZiYiLSdn6Od789gncSvDF3QiTC3OkCqwoWowFlmclIS05AwtGjSEw+hoSsSlQ2soerKzT+AzFpcSx1DqqRte+QspzwnjXYeSwDlZd50KJEIpFIJJKrABYwvIRsUxMJtbYzZSkClv1V7Vu3h4QavUer1QSL52Rc9/S7yMvJQGpaOt4cvgFeyX/Exyc80GpRQQMjzB4x0IZNxIN+f8ZXz83HsBHTMXnyH/FhUiPyDSQASaA111P81TSiJe877NzwDOaNGYsRcVNw17/exqf5RlRXAs0tVoyPCsI9Q4JJElehrHkpAoJmY0Qoh8kDgVo3RGl9KMJ1cKv8FC88cwNGj5yNiVMfwSul5UjVDUa/iHAsumYTfnf/AkwdMQ5zl92Ld5JaUXXmq7xA5aKh8LfCQsJZEbAKxpZmHDmchMp6PdSuWuFw3WI0w8QDsRwwGVphMqrF1Grm5gZEzLwXD32WjmPHjuHI1jfwu7ceRvDPp2O8TytJUzpf3wTvkJ64//0j2JKQgqS0k0g9shen/nMTlg0OssW3BRbrSMx7/gN8VZiHtMSDyJyVitaM7/HXvU4vIJFIJBKJRHIhWLSWlQHp6YDTIgqKgM3JAfbtA44eVdRuN6elgkTWG/3x0f5jSHB4nZieIxAaEIsmUnSs1dkmaTGZAU0AYu87gE+2FyD3yOc4+mFPHM+vRdKpOuhc1XD3AbT+PnDvcx3mLHkHB7KykJGbg+ysXdiz+WlcFwb4gIRim6jjuyuWUfG72hU6Qw7qSzbj6Z0DMf9X36AyezfS1v0ec8MC4V9bj1ZNb0Tc+hG2HTyFwmNf4uO/34xjuxJRU9XWhOkxcjyaDjTh0F1fIeu0Db0Q5qP/xW2Lt+GtLRVQ9QtEn/gw/ObVnfguxXEU1UGsfacey1+PxsihgKcnCWERblvnJeZO3BKWjWdq78bHeSqQNodWZRVWX3cfLfy8lNPaULIXuasex9ObKnC00baPuge6PrHw9PJD43mnepBIJBKJRCJpB7a+8lSvx48D1bZBRzYUH9jMTIiNJ6jl6bT42/Il0FV8YFWqZliMaUj85Ci2/m87Nu5ejw3r1+OL0h4w9pmLa+ODEVq3CxuroqH29MA09yR89a9vsWnHHuw/movUdC/4TR6HaRGlqEk9iRc+qET4yAGIdGuEqioBG46l4NiRgzi8vxp5ZQHoM64HdFmrkd3oi7Kg8Rgf0oScDYmoZZ/UKQMQjgIkfFcBo0qH3hPdkbjiQ2QlH0RiWQOSW/yhTalF/AQfaLzKcPTZt7Ex4TB2H85HVokP/IaOwOT+fvB1c0gT9yB46RthzN+F/9K7bdq8Hjs+34uN2wHfSeMwa24/DArxh4cHKe+qk0jdvQ6r1n6LrRu+w/ovilCqjceQG6di2khfeJbtwb5iT+SpYnBdf2WEVrBfPbyry7HtJTf4DuuLQP8clB7YiH98chC7N27Cvu0bsHbdeqxbsxrFrn3gGRoBf2seEjZ9gV1r1+K7jZuxYdMmrDvlA9foEZg9qif6eCtSXiKRSCQSSffiivnAGgxAaSlQUABERACh4rO2QFFFbKJl8cpbd3cjoOC7ePRE1PSXMdxUi+bdK7CKxOvG9euwoaEfjOFjMCScTvLrhV4hgejrb4apLhfHNn6DtcvfxwffHMHq5N6YEe+LQSOGkaiMgSk9EUUV/ogYQOf3zcfGzz/HF8v/h//9bzPWbcxEmZUe2yMOwSFR6MkLHkAL/76RCI3uIXxYQf+HxgQhpH8svPwHYnHPHFQmf4O3VnyPVSfcERfrj5ieatSVZeLU6i+x6vNP8O4XiTh6Sof506MR6Os4QwC/YjB6XT8KNz0dhrzvt2Hb11/iy635SKwfiT+9Ohc3DPCBC7ygjZ6KZ26JRnTzSaz58mts3LQVX2/WInT+WCy7IwY9OKndIxEe0gNxQQ7PCJqLsLFPY0BGLix1NWj26wk3/xi0ntqGw9vXYe36Tdi0cSN1Ctbh6IlcVPuEImjM7bjR/yT0KRvw1ao12LiZnpUXhtCIXpgdfmkdIolEIpFIJD9xeEwP+zw6zUGrrMS1f7/iX+DpCSxZoqzIdQlYLBYsX75crMQVFxeHxYsX245cIdg30/arAr288k/Ax07/3ka4qxziie4hTrS5A7RzT+Vcx7sRTn+2oc09lJPsz2sbDt5/rpswtrCdxjHcZ3C+5+l3caDd4LbZ6fwsOw7PbPNeTPvhkUgkEolE0n3glbjmzp2Lp556Crfccott72Wgvl7Rp8eOAePGAUOG2A7YLbBXKyzU2mxtRVqb353OO4Ntn+0vPtj+uW0uOuvPNjhdf+Ye/LvjsfPdhGl77rlOb3sObbzTWdPafrahzU6ne5ze+JjtZu0ek0gkEolEIrlE2HrG47OcrGiKgOV5ldiNwCwH2/xk6FBxKZWqRCKRSCSSDoYtYa6ugLv7Wd4BioDldWb9/QFfX+VkiUQikUgkEonkSqLVKvo0JkbRqA4oArZPH2DSJGD0aNojB9xIJBKJRCKRSK4wbm6KeGWNyrMQOKCoVW9vICQECAqSFliJRCKRSCQSSdeAdSkbV530qSJg+QD7Flzi7AMSiUQikUgkEsnlQvoLSCQSiUQikUi6FVLASiQSiUQikUi6FVLASiQSiUQikUi6Hjz/Ky8n29ioTPfqgCJgeQnZ2lqgru6siWIlEolEIpEonLWyoUQi6TyMRqC0FEhNBSorbTsVlKVkc3KUE3iy2OHDlUFdl0BnLyVrpRex0GaVCy5cELWLC9Q6HVw4TS8DrZT2lpYWkTaygj8/KipfnC6cPrxiWWfTSj1Yi9EAq8Eo0+YCiMGuWle4cNrw2tuXEXNzM6wmE6WXhf6Ss8GcCy4zaq1WlCHV5Rh4TGXGSvWb1WSEsbZOpJHaVUPl+PLmjy4NZ1drq6hrNB4eFD9Uv1HacFmSXB1c0aVkWbwmJQETJgDDhtkOULYTAvbgQeD4ccDTE6Q6gUusuDtbwJYe2I+y/fvQmJertDSS9qFKxDMyCsHjxiNs4iQhmDoTFq+NRYUo3LIZ9VmZMDU2UeMvvVPOQmjHVugCAhA0YiTCJk2Gzs9fHOpMWqqqULJnNyoOH6S0aaQ9VHZk8WkX7vgFDBmGUCo3vjw/9mWCO395G9ejKikRhppqKj9yRphzwcLVf8BASqOJ8O3bz7a38zA361GfnYXKhES0VJQpHXWq80xNVJZItMmyxBq/VQhWracXNNT50wUHwy9+AEJGj7WdIenuXFEBm54OJCcD48cDQ4bYDtgF7L59isL18gKWLbvk6bQ6S8AaampIuO5FQ24OXKmB0Xl4UkMjBdK54F6wQa+HwWiEZ89eCCEh604VSmfA1ojKxAQU7dgGT29v6KgCc3HVco1mO0PSFhVMLc3Q19XC6qpD7+sXwyMsvNM6GdVUrquOJcFYWUHp4yPS5nJYfbsjnGWtFjP09XVQUR3j1z9eCNnOpj4nG0XU+VMZDXCjOlhLAoCrZUn7WIwmSqN6WKidCp0wAX794oTVrzMwUT1anZqCKqrjYGiBF3U+uY6ztlpF3Sc6pbI4icLDXyxYxDaWl1P9VgeNry/CJ0+BT59Y8bVJ0r254gL22DFg3Lh2BOz+/coJbIFdsqRLCVgWYyyQCtavg09IMAL79oV3aNiZBl/W822hypTjrIkyW1VmBmqLixE+Y5YQsZ3xSZQFUtne3WjOz0XkmLHw7dkTWmr8Wy1W2xmS04iGTgVDXQ3K01JRmZ2NgJGjhSXWPThEnNJhULHmxjfn26/RnJeLgJgYBMX2gyuXcRawsty0hdOG4sxCoqSaBGVVVhYsahfE3nKb0vnrJNFvbGhAyc7tKNu9C+HDhiGQ0sjNx1dY+CRO2JKAXS1qKU9X5eQIERu9cBF8eneOtbw6PQ0Vhw6ipaiIyk9f+EX1hBt11FspP8iOoDMqKkJWNJaWoo40AHfShYidPgueUVG2cyTdlS5hgWUBO3So7QDluNMCNi1NscB2MQFbn5tDFcgh6LMz0XvaNdB5eVMjY7QdlZwL9hEzt7Qga8d26MIjEDxmHHxjY21HO44TH76PloI89GIR5h8gOhYsoCXnhjsSFoMB9UWFyNmzB71v+hmCR4+xHe0Y+P5Vx5JRvn8vPKlcR40dp/hXUnGXnB+NmxsqT55E6YkTCBo7FkHDRkDHa3F3AgWbN6Hh1El4+fkheMBAuFDdK8XrBSDhqHF1hb6yAskrvkDM0psQNnmqcP/oaHK+/QpN1NH0DQlB8MBBouyyy5Tk3HAccV1TT6I/7/AhRM2Zh6CRo6Bxd7edIemOXDEBS538NhbYwYNtB0jniP9ZcNi3Lga7DZioogrq01dUUPyJT3JhuJJlC0FQ7z6wUg+mLivTdqSDICFk1jeRUGqB1s0dHoFB4nlSvF4YThsWSRxn7Apjamro8HjjAY81aanwIPHqSx0YFkVSvF4c3Pi6k2D1j4xEHQlZQ22N7UjHU5eZAWtTE4L69RflxyrLz4WhfMz5WaXRCou1sboajQX5toMdBD3DVFcHQ1UV3Dy9xNcLsVumzwXh+o39lN38fIVLDI+LaOBxKxLJpcBf29lFiI0ITq4oioDlAz17AuHhonfblTA1NAqR5Obrq7gNyEb44uB4oqTkeLOaTTCyGb4DYTFk1utFo8tirDOsH1c3ykhqjrtWkxmWlmbb/o6BR7Kz8HKhZ2jZbUA2vBcN520eiOLq5QljXa2wZncW/Dmc00a4djCyfrsoOI24PXDz8YGV0kcZnNjBUN1mobLJA1JFGWJk+lwcFHc8SwO3D8bGBpipkyaRXBIsWtkFZexYICzMtlNBEbChoUB8PNC3r6J2uxDcEIvKSiMF0g9BqWapEuF4o/hTpubpWHjKLFFJ8Wc1aoRl1f5DoNiidFFrlAFvreaOTR9uZ4WVisqzHPD4A+GMrKYOBsWb+JzPkdlpsMHAbjSQPpU/FDXlb1H3dLTPPQkvtatWfPGzkojlvyU/AFuZYcMGdwZVWjmrhuQSYZdWPz9FxHp723YqKC1bQAAQHQ1ERna9gso9OQ5SpzYiVzH2eOuEdKWUUX6RSfPj6Yxix2lO6S+Lzg9E1DdK0WEL0uVDJtQPRYkxSqPOqN+o4eSvfxZji22P5KKhwsNlh78suAUEium1JJKORppmJBKJRCKRdArUhbb9JpF0LFLASiQSiUTSLmzZvZxWeIlEcrFIAeuA2kUDF40WLpelvmLXCDU0GnVnfP26KuHViTRaHXSursqm08CV4892XIEHD9B++zm2TUuJ2jazs48jnadzOE+rgY7Ok8lxEVDe5QFibeJP4wKtur3Y46VzqWy5qM9KA/ah1tqvd9iU9LJZblR0Dj1L5/gssdG+s9K/e8PxoebtYl7KVnFc2fdXypsL+wxfTQlxBWjlMkV10un8TfWb1il/s0+7C5UzLkfcfri4UBlop0ycSQv6hcqPqyuVoausrEgkZ9oTdvj6iTvLWcxGmIwGmC7LgO1WWK0WGI0WsRqh5MJYKX2MLXo0NTcrm96IZo4/23GFVrRaaL/9HNtmMFvRdpgU/W2i8/QO57UY0WSWH7wuilYLTIaWtvFnNMFgaS/26NxmKlsmi1Ma8HRIJrTYr3fYlPSyNbdWM1paWii9nc+jfWelfzeGBCnHh4W3i8mEtvr6yuZXpbyZLJResuD8KFRcpqhOOp2/m4xoccrfPEWV2WgW5aiVzjebqAy0UybOpAX9QuWnuZnKGe2XSSTplnBdxzPpOGlURcBWVACZmUBu7lkn/CSgdtLFvRVZ65/H6g//iP+VeKLRQr3WtuaiDkQNnVs5cjOS8NHrB5BX0wIz9ZBl77h9VGoVtB4q5G35B154fDpi5l2LfgvmIvya53HbX5NQ6qWF1UUFF1cf6IxVMOz/B667+yZEzJyP2Lnz0X/h9fjD7mKctAZBp+U7Uvxr8nHkm9dw14zZGLjwWsTOmo6ej/0N07fWoplqf51WJSv79lBp4KIyQWdIxMfPPo7518xCnwUL0X8upcc/1uH3aUbodHZrnBoadwM1uBn4+o5XsfKLRKSoPUWlo6L76FCKggOf49c3XI/R8xeiD6fDvAWUXjfgT9sykW4KhK61Cdq8DXj01w+i16y5dGwR4nibOwvRt/8K4986gpNNJqip/HRacb0M8IAX/iJQtPcb7Nm+CtvqtTC0Up5ut1LgnS7QieWiDai5Qp9wVBodrI2lqNr1dyxPyMGOCjfounMiXClULrx6BnRNCVj10Z8RMWMO5fP5CJ/2Eh7+zwmUhVCZUXObYUTJ8ePY9OY6JOotqC/fi00fPYMBVP76LbgW/efMQu+fPYJBrxxFQo0Brp50T3MtlZ91uPG+r/H4+3QvH62o12RbI+k28BRsKSnAN98AGRm2nQpKdVNaClDBECL2pzZfJFUeKuqhaiqO4euaBryZbUbhjlNobDHC4vjJxUUHnbsXdD4kknjNf/68o6KqgD/juNLfXrTxMS86R+dCx9jGp4aaKnlxPh/z9ICOG1pucNRGNDfVoSC3Bs1m6hlTiy8rlbPhz5OtpmY0pq3FvhoP1PSaj9vmz8FN8xbi/knu8HE9hSe3F6KshcRS7VEcPfodfrHLBRFDJuK26xbiZwtmYtmceBi+fhfff7kOCXovEgtNyNmZgKxSC4JnLsLi2XNwy6IlWNTLiN6Z/8KmvCYU6bWd2IHprpCg0pjRXF+Oo+sPozawDwbNW4RbSLzeRA3obNV2WE6uwPYiVxgsKmg0rkB9GRoytmGfSznWFFbh8Mlq4WagZoVrrkeDxYST3oMwaeJ03L5gAW6eMxXLJkYhPyUHCSmFMKqpPmoqQa1Pb4QPm4Vb583G0jm0Ucfk5mljcd2AHvCjctpKnY7u3uFgEdtcXYLqylJUmtWwqFyh8fA8U+f4kCDRaqBxMVL9UY6DuwtQlNsELw/qlam0VL/YzvWin1QHabgOovqJhabOzZ3uwT+10KjpXK6n+Fwf+ulF9xWuMxSDVN40Or4HH6P6yoM6LBy4VqrndHSePSx0H1cVpY3WE+5R4zAgxBc93S30PLr36fqOnqlV6lArdVi0Ovrbh46J4/S7u/3evI4+16+2e/NzqX6lkk8HKR/p6H08OTwUVn4Hdi+5Wgwt1P64WPRwLT+ENzfn4rv6MCyjemvpnHm4Z74v/CpO4dP/O4KsFjPM7ioYGxpRnluGOsrv+oZitFqNCBg2DwtmUh127XVYNrYfZmv2I720HhlNHmJBk5L0o9BY9qPKWIzUClcRq0oHUyLpBvBUhrwaF+tUp/mEXf5MCOGanQ2YTMDAgZS7L63l5vlaU0gp19fXIygoCPE8t+yPpPbkCZhqquETEkqdVHfhA9ShuGihIoHUmroWH6EXTpr7YkZ2JvxG9oEnVaRuVm4YqeFuKUJWbhYS07OQX1iIanhQhe4Jz1Y9GiuSkJqRi+O05ZWWIceogwdV9v5aIwwNJTh07CQys7KQXdmAEqsnQtxJ4OoaUF5Yh6wTVsRP6Al/qpg1lg6cS5VFMqUHTwPTUF4ONTVYgYPOLMH2o6F78+TUtadOQk0ZzD86WqR/R6Oi9IGhHsbkz/Bfw2R4jr8XL98/F3NmzMbs8VoE+zTjwyxPLI0NgG/mdmw6kIr31Avw8kPLcN+N8zFn2gTMmdIf+PZTHCsyIC9qNEaHtuDYt5+h2Csagx/7K55cMBmzFyzC9eGNGFCzBane89GDGtIwN3OnfRblfGyhxqWayp1HZCS8oqIoP7VdZeTHYGlpQWViAtxJ1PCqUrwyzo+Hl/BUoaEiH/tXfoHWeffj2rsexl0LpmAONaALW3fA3VSPk14zMMDXDA93LZryMpC/bxfSxg5Dhd4D/nVmjBwWQl07arhbiqmjABzwmYt/PrQEi5csxJzJIzFnhA8Sjxop7d0xPM4DmvLjSApeiFkLbsFvb59NaTqNnjcL8ycMx/Q+3uCZAa2cUB3UKLOQ5DmOjU2N9K4V8IuLh3uPHrajHUvp/n2i/PSIi+MihdqMo1S3UFr1Gok4VTkKc7Nx7EQGcvILkZ1rgkXrBm+vRjSXHsTr7x5BuskVfn1DEKGqR376SZw8QVtZFfLMnvAlkemDZtHhyC0pRdqpetQ2GajuaUTuseM4RXkvI68MRaXNUHPnmuostbEGDWVJSDrJ9VkDahrU8Alyg6vWjKaCPOSmpCGV6r/MFiqX1EEJctMAOj94kcAM8CQRbKxDcVIKjlObcry6GeXwQijVd+7WBmp/8pGUdgo5ebnIzKG6o0kNr0Cq90hQtzbkoaQwFQknCpGVXYMmqwY6X0+KCROaio8jM/skjmWUIa/ABJWnK9xoUxnpWGUlrC4auIWEwIO2joTnly07eIDCp0ZAnz7i831Ho+JOnr4STWmr8UxyIIKHzsZ7T96EuZOnUh73gX9BDrZ/dgLuc4YgNJDiidIrP6Ma/pMGw7c2hcqIH4IWPIe/LJ2OOdcuwPwB/pjetBbbLWMojnwRos/D1h0p6D/MBF1UL5Q1x2BCSCt1IqnMdFLdxtjrt8byMspbVAeFhsGNp+uUdFv0ej0+/fRTTJgwAYMdlnPtdHghmaoqgMq6WHDLoZwrapBFIU8W+xNcTYlf3USN1dG0IszrEY//mxqHQTFJSK9vRhFVsBqOE6sZhrQVePmfT2PWffdh+t334IGvkrGrikRscyHS19yHe355L2bysV88jRlfH8fBGqodzCUoPbgc1z78IGbc9wBm/u4lXLclH+XNVBHy5PKyF3xBuBFRk4j1jxyIAkMzkgqzKDNXw1xRCiPiMXLwPCQs7Yu+fo04eNwbWuNIrHhyJPp5WWEur4ChugWGujDMf+EJDJrQH5kbD6LS6ouwvkUk7jKQS41lQ2UVrMW5MAZORp/rPsX9g3wR50XXdXx71c1hv20SFSR0evdPR2NjEfLyaqhiqYCxvBiaEb/H5Lm/wz29m+FBxaZVVYeyylYknxiARVOn4c5goE9ZFpJbVSSrCBKKKl5gQ1+HauqkgtLBXFkNU3Ujwgf1RZ/YnvCyLfBgamlEXS1VYlSRGSn9jfyzpg4GvRlmboivprKk0lC8GOFRvB1//efvcc09XOdQ/XHP//DGzlKUmJpQdWAzNqV8hL/v2IFff59NcbcXH/3pGdx8/4OY+dhvMP2b40iso3sZ8lGdvAJ/eedNTL9nBX7/3h6k0X1f+MXDWHzP/XTPxzH/kQ+wMkePGq0vLBUJOLjiHtz4yH2Yc/8/cf+LCUjnuPUqQ/qX7+Cv9z6Aa+6+F7Pe3Y73c0xQGypQvftFfJaYj70NFsoHe7HigQdx630PYvbvX8bSbYWoNdMNGlOx7dvXMOWue+j6+zDr3pfxyCtJOKVxQaurO+pPLMfKt+6n96Rj9/0Nv1+RhBSzjkR9LY6t+jOe/dUDdM0TdHw1vj5Rg3pPrWK97ebwl4imZiOOpZXgwRn9cPfEaFjLK8UqeiY9tUXjo/Dk48XILLWitIoHbdkuJLijZTGb0FBXhQpbA99c24BK6tTw1w9PQwbKy05iZdk49Bs0HVFe7sg5forKsDJHq0TS3VEE7E8V/qxlKqOGMAVfFY2Eh3tfLB3XE+Nmj0Py8QoUFNRTDNWTWDqAV16iOjzkXry74i1s/u8vMW1jFipXr8NeawO+P3kPnv31f7Bv1VdI+PA/OPKzIZjeqwInN+diy7theOnN97Fj7Woc/cMSfOS3Hv9NqEBiiQUe/I1Pcn6o89CqcYc5ZhHeG+eG2TnvInr2AsRduwA9Z/4dd/4jDZUBblBrqSG1qFHXGozeWjXYlikMDMIqTPEcHIIQbx/0NhrpnlZEz3oZU2Ij4bVuMsYvuwG9Z85G7yf/gdk7GsSgCZ3r6THwEgespmbofHti4A0fY7p5Nfa8MgFRc6/DwAULEPXPjfi/ExboSL26UEurKknDscYyvNBnPPr5xeLGa/wRP7wVKw+RGG2iWHZ3h2t1HqzLf42ldyxDn/kLMOD6WzDwzn/gySOZSOAU0PK9NDi55mX84RfXC3/mQdfdgH5zZmHyr1/EXxIMaDBRerXvLNp9oXyrMrWgPG4Wou98HrvefQ2rHmhEH68CHK4IQtC4ubh+1N34w/x5+MMAHdL3JqLXg8/i35+uRcLrv8fmmO3ILynDsRLqLKh1WOM/Db/5v2vx6h1jEK8bhQff/ghrv16Fg68/hi/uNKDFqEJdRSqyCmqxqugOPPf8m9j296l4bEY53tpRjZwta5DWozdcHnmd6rR38Fb4SUQW78OWGg0VJzPUGg+Up2xC+sH3UPuLf+Fvb3yBr+/siyeqfofV2c2orjbBENIXuPY3WP7Wu9j6m1jcMyYT+09aYSrfhx11g1A7/CUkfvU5UlY9iJt7uSBn+TbUVibjW9efYdxdryP12w9wdOVNuHVQIPybTE4DArsxlM2tVCfxLB0u6jNuazwrgZrytUZDHUfKD84fuNw8vFF46iheenIhxi9ZhP6zpyPuoRcxfd9wRIf5YzCyUVOZB5eJ4xA1dCau0RoxqnA7dte1otyiuJhIJN0ZRcByyWDfV+cScrWjdgUM1Wgo3I11R/bg1fffwh9ffhW//3wvPl+eipScBqolSEAZq5Du2wuRQybg7ukzMXPaQtyyZDjGDgpDoMoNfUKBEyePYd227dh4KAFbygzQN1ajpjQNO07swsF9e7F97z5s3r4dWzZtxptJBUivN1Kj+9PuP1wcVqrIXdDq2we9+sTh+uGDMHX0aEwdMw7zR3oiQJWHL9aeRHEjf0BQQwszrOy7fLpy5l/Y2t0KU6sFDRae9UEF754j0Dd+GsbFjcLUUaNwzYTJmBbhgl5l32HFiVrkUSWvk45iZ8EzZ7DPt1//aRgUNwETB43ENWPGYNq48Ziqy0Rzzj6szzChpdUNKDuE3OTlOLV7Jf7ywkt48f3/4Z/bD+Obg6WoNpL8UFPDrHWHKiIeI4eNxAxKV3GfSdMwUZ8BFBxHXpMGFqqXfEJ6o/+gUZg+htJ+NKXX2HGYEN8H/XzVoOS+Kmfy4PeO6jUAUybOxeRpk3DtCMBfp0e1QQf3kCj0Ch6AadFhGO7XgMzUA9hJddimg/vw3fffY/uGjdiQUojjdWbodO4IjhyIGRP6oveIaPhRR86n8TBSEndi3YGj2JdXiIaWVrjUFKDBYEZxn0WYNXE6pl87DYumD8WMYFfUZxbTw0MwYtECzJw6FXdcMwXX9I1CkIaXK9ZAq6VwFVpRlBWJfnOnYOaCmVg8bhgWRfrgULEeebUt6BEUhsFjZmLBtBmYMTYAA8P0qKJypqrJQ0racXz9fSI27dmDzfu2YuXafVi9swxFrqGI8cmHvnQvVu3Yi437knGyXI9Gq+aqMrqzVVRD9Y2mTUeMBCzv01AdSPnbuXm2WMzCTaDPgDGYOJLKDpWL6WPHYvbY8RgZ4QGXykyc2L8RB3d8gD+++i7+8dHn2JiwDxvzm1FjUD4CSiTdAnbfYeOTkxuPkoUdXQh+Qp8WXLQmNJbWInd/If2ejaS0Hfjw621YviMTrVknUFBVhcQmlbAAuY4PgV+kFuoaI6zNfui/NBIxI3sjTB2GOVMbkZy0FW9/+AleX/kl/rLmAA7n1MCgqUcVjmH9qm/w3icf4z9bErG6OAje7tQguyqVkuQCsHi1GNFUtB+FTX4In3QPPnnt33j/5dfwwX8W4YHpFuxdkYriWl+E+Jrhpc7H5tx61FpUYu5QrZZEraYFTUeSUVBciZoQf2jVTSg5korypljEL30Tb/7jJXz49jv49MFZ+FtAIlYcr0VyFTXM0kThBI+Ut8DYVIWCfSfQEn4rbnzkbUqPf+HdV1/DyrlemGhKwVupTWgx1uNUcRmqcjLQq+IQ1m1eg1e2nMDm5EJoinYhv1EPi8GCVr8wqOY9ir//5QX899WX8d9XXsK7//o9nvPVo2dRBhJauM6yoNfUW/HQM//Cf/7Nxym9Xn8D/378Dtw5QAdPqrpMV6GCZatbbzctotkCV1+PGr2KRC0PEKW/TUYYaNObDWg269GsL0firo344vOP8Naa7fgsx5fiRAVfFyPcqH4f7esBVxPl5yaqk2pP4fiub7Dy6+X499eb8NHeTBjMFrhSPKsoLjWhXtRpb6Z2IQSeQX0xM4RS3uICd7pPqKuJ6r9mePQdisioGISpbJOdqfQwmoJgMg5AiLuBrq+l633hETgITUYzhdGEIK0Lhnho0dzYCGMjdXLM9C4urVCbrWgpO4Hjh9bhPyu+wquf7MZ+qj9bQiJg9huGxdH5UBeuw0sffoG3P/gWnx8rxXE9leurQYBRtnUh0erj7UbtTRMKa5qhcqV6i9pjV3UjGmpakJvrBg+dCjrXtlZYnlIwuGccbn2CysTfXsQ7L7+MD//0JP6zpC/6ulYhobgBu/Ib4Z6xFZvWrceajGycoEjLSatAUwOJAe75SSRdHdal3t6K76unp22ngpKDvbyAoCDgJ+VkrYbGLR+nEiqx6/OReOHfHyNh+yZkbfwOJ1b9D4l/MyPILQdfHtTTma1wyS1HA1UwBh4L01qNXW+9hRVfrsP3rWFwH/lLfPH2Fyg/sA3H/vMnvFu3E5WN1Ug0jMJkj4fx4RdfI3HrRrr3epxY8RFO3TUG10a4oZatUJLz4qJxg7mlGifX3IkVe7diQxFl5sZ6tNbXUTrooHEPwFAeEW31RVx8M1q903DfK/uQVNbEfgBQa6iiVmVi5R/eQUZSIYZfNxrB1FnZ9Ot1WPnaIRx3aYapsQGoraGnucE1KBae1IBoeIYJ2cNwQg1XjzrUFiTjo1tWY9vBHOSpSeiQuLLWUXp4hsLdPxqeKgO0Nbuw9uRgNPd7DbvWr8GJDWuRvW0Xjv3zdrwd+SaO5VcisVIHVxJAMOjR2NAINNSLe7XS73XWKHh6h6FngFX0qc0kqPQkvlDfQMcbhKCzNjWDXWiv5mRiK6z5nOKcfZKpDLiEIKrXBDzx13fx3ZotyN20DidXf4UvbhuHueGtJHJbScxSPLq6oi79CFK3bkLL0g/x9heHkfvRM3hvsRl+biQivQOhIpHbeuAYqtkB3JSBtNTv8fiXGVB7mGhfC3Zn8ijgVjQfeRtb9m3GZ/luwvqtau0B/4BMBISswKEMM4ltTzRVHsfx1JWIDfRAIDU8HAYjbaffhhOOEtfs5Y2ocTfhkd+8j0zKJ5kbNyJ3y3P45rlRGGI1IWT03/HsP/ai4rv3kP3GYOg0BhzObhAWy+7exbRQfHh46DB0aAyW7zqFj74/iRZXjfjqBGMyjuwpwlsf9EZ8uAvCA1vpfNuFhBhsaKHOAZWLWlvZMTQ2U3EyAZk78GVjT2yb8S6OfLsaOZs2IG/b59j013sxIiUDzZU1aGQ3H9u9JJIuC4tWHjR2441AbKxtp4IiYGNigAkTgJEjac9PoVdGxZbfM+cEElor8Mr0OMQG+CDa3QNutPn4+CBsxjXoebQa1vfTkdZjDO4bm4vjm/+CftMWYsSye/EvUzzcRg7B4Oqt+PjWO7H4Z7dh9E23Y/bvXsavPEdD5zcG986JxKzbK/Dbp3+B6UtuxYTbbsXMB3+Bp7cWIo3qGx0saKbKxiJaAFvQJG3gxQs0br6Infcc+lfuws7nr8GgG5Zh2I03IH7GX/HU/3IR8bNx6OGlgUfUDEyfOhfvxmzF87+9n65ZhKGLbsLwJc9gx+g7Mfquu7AknJLe2gvzn4yCv9sW/N/0hRi7ZBmGXDsX8U++jxv3hOPmoX4YGaalZ59LOPxUscJk8INfWAxu+osPTqz8G+6ZNh+Db1yC4Tdch34vpuPL6hg8MUoH06ldKHSnOOw3EFEeVKaoEnJzc0V4VCxGjFuKkztP4viJfOhr81D/0W9w0923YMh1N2LI9UswbPHdWO0bCb/R4zGIFKqGykniN//Gbx5dihGLl1F6LsOIpddjwLVPYeo9m7GrzoBmN9uUTN0YlmMWk0EspmLkrMcLcpjYeqkcbzWxldOIFqsHnemHSMsHeGvPF3jkiAGDJg1D0Qcv49nblmL0bXdgyh134m/bTyG9yQ0aK/sJt9K1rfAN8UOwXyue/91jmHrDPDz29kYc1yxEQkkzilpjMKxvFO7quRG/eOI2RM98AU+/l4Ph4/oiYsZdGEkdQfOH8zF86c3o97EZu5pjMKeXCa3mJjQ06eE/6BrEj14E05/uxv3zx6Lfvw/g15pf4vo+HujvRZ0UgxGNFAae1YXfzWTUo9nqAqP/JMwKTEeP1Ecx8fa7MPGWWzDqt2/jwbXHUFu1F+/87hksXbwYY+/+Ayb+vpnyki+mDnCH6SqYOg0k0K2uvmjtey0+mueBvpkfIH72tRix5AbEzf8W7+WEYulb8zHKTwdfygtGnh1DT3mEL6U45IUMOH/YO3G8kht1a5CVuBxBpnzMjx8qyp7Ogzrnnn0R7O2P4QH/xKGSTOwvcbs6rNiSqx+2YrBmc/IQUKbR4il2qJHhQRXOJ/wQus80Wso7avRNqHH3Q2v/PlgU4gYPaiwNVEFwr1jtFQCXchcxnVLQ+FgM9G5EPdUUlXpqhEPCMGz6dbhmSBR6WypReLIE1V5e0Hr7IDi0J3pPnY8b+kSiZ5gaXkFmHM+tg4fOA4G+PggM6IHo+JEYFOKJQF621tUHvfsFwZPnh+3Iz6CcjpQe3X0aLRZNPAuBZ3A8PPQVVHk3okYTjJBAP/h7RWPAwMGYNXcgIjTsm+kPP29fSqsGZFe3Qq31RGhAIIIDIzFtye2YMqwvojRNMJMA8O3jRoKnBdXFTVD1CEKgnw8CIvojJn4M7hgehGA3tWggO4vuOY0WJbtVCy2Vwx5xOjSU1EJvUEMXHIQQPz/4xIzGpCGDcEM/d5gb6mEN7o8+PcMR626GyWyB2WyiOsgVrt5RaGpwRe9Ib4T6e8C1sRmqAH94UTiD/fzRg8rIuFlzMSo2EiFophygQnWDAd4UP0GBgehB5/Xw96XyFInIsD4YNy6c0ksDbQcJmisxjVZQ/ziKW4vosOkCwhEQHIlQytNmjzBEBvgh1odKQqsF8OuNYIqfCMoqOmsZ6nyj4R/WD/P79UBtfgWaKQLU/n4I8vVF3KAxiCXB6k8diVavcAwOckWQtxYaVzfklVCd5KpB396DMGTEHARSvA4M8UeEnwbBHk3IqKTyo+uJ4UOGYfGMOEQGhcDHWAdtcw3K1SEIiJuB2cPjMS3ShYQU1cl+fRETGYUo3yAgtwCNnjq49h+PYWMX4uYYVxJKJhhcAuDtG4yhQRq4tlLH3SMYXoG90IvSsoeqFDBRuW3kMuxFQrs3+kRHYXykGmX89ctKjRWV48DQMbhxZgyGR3mgtcnQ7afRYlpVGrTqAiiOW+FmaEZOlQnhPQLh6zMYE6YOxw03xCDQYKZ80gqTiRd1oXqtXwT8XKxwdQuGZ1A0YrxaxbzV3DlobbWisbEUQaGDMKxXPIK1zRR2M+UtjbDYeruXwRI0GoHewQinstkZ3jdyGq2rjys2jdZ5UJHo6LDsy75qy5cvR2FhIeLi4rCYes0/lpw1q6DPykDEkKFwo8ZN7UI9zA4KcqtaIwbqqNS8hJ+yFOJp+d7Kqwi5wEVNQk1PhdyFKmSq8IXfED/f2AwLXWOmykfnQa2JXfhT5QHqFVuMFhj5HiRStW480bjDcaqkqH0Uo0y1pCtMBh5Y1MG1CD2PK2BDXS2KqVOhoQ5A7E0/sx388fC9W0gY565dDReDATFTpoiRtCJuOgUVXLRu0GjZV5ue0UrxyZ+fKSKtLUYxlZKQLyrqCGh0FK8u1JLb45z2izjneV2Vfa0kX7Wu1IHgpbn4OKcPf48mASGWaqRdnYlao4GxsREZW7cgaOw4hIyfIDpAHYWhthbHP3iXhFAwAmJ6w5UakY4r6hz3LtC5UebVUDzb489ipMxsEpY+UBq4qiiT8xR0bdp9Ok9N19KldIjyPZURD5u45uCJckK/tCjpZabjKp54n8sQjzo5/Q4cBroxW7D0JuqU0CG+tAPgxtdMHYCGslIUp6Wh1/WL4R8/wHa0Y0n610vQUEMft2iRaPDVGldl9S3KhyaVK9VP9I4kXDkOVRrK/zBDRe9stFK8UafYheOA4t1gpo6EO9VDp0fm2OKQMjIvIuCqojii3zk+XRzrJBZl1LHgZ1goEqmLQcdt5YfLGR2z8jLAFL9qLe+ntKI6EVZKa146mNKQF0rQthpF+VfqQzfbvemgyUCnWZWFDOjFXCj8Rl6u2cVVjIJ3oeuMXNhceK5ZureW05cO0DtSr4cfAdfT70WBYNsjpzcltqG5GRUnjsNM4fIbPARBQ4bwi3cYVnr3Y6/+G27U5vSdNVukT2fCQlZHdZKK2xkRDRwHJpiaeYEI2sXRROXNRUttoIHiW0XnUl7VtFIcczZRbiPgzjvnFerJUl6hiwV0BpVbF60HNFZqoyxKPHYG3E4bGhpQmnIMLlwHDR0O3z59bUcl3ZEK6szPnTsXTz31FG655Rbb3iuLvbb7ScIrcBmpkjIaqYLlsm3bL1BRZdxCFTSJV6obqH43UIWpF6LD2NRE11io8NNFVNEa+G8xMIGP0TnU2rCgUlOFazVT5eJ8XIhlOsaNewv3gB2rHkn7tFKHgf27OB4pPpv4ZzP1I6hxpehTYpBreYpXOs+od4zzJhh4HX6HylpFqWo2UuVuOy5+Ug/TSC1yZ4vX7g9HOOVdx/Ig4o/KCOVt7ki0mlvod2fxytC1tnzP8y9bWHxxeoo0tafZmfQSq0ORWBJpY3+W2Pg82kdiRqR/57TDlx22wPJ6+PxO/N48uMoehxynHGeKICExaqD3J6HN9YlID3scOcYhiUoeBGmgConztcq5TiIRaCCVyPfgOkvlWH4aOH5tYaFH8nWi/PG1tJ/vyeHgcBktyvUibe331tN9RH7g+1JnhOpavob/ZtFtpnfldxNWQ65fW5RwK9fSPakj2drmvfgnX8Oi/CpJcAc4jozU0RbvKvI3xUGLIl7FcU4D6nCYbB12K7U9Fk4TJ/HKWIW7CaXzafHK0O+UvhYj5Q3RObz64lDy0+InLWDtOBf+c0OVL4lNsdn2COz72jtGtDnWznHJD+Hi4rLNObSdi7bn8d0lP4Q28Wfb94NxvIdtc4bv7nwOn8bbTxeKA/G/nbbxcz6cz3M++/Rx299nONd+BxyuPe95Z2G7TmyO17bdf7XTfhz8UM535U8gEiU/CRQBy5+R+PMILyUrkUgkEolEIpFcacxmgGe5KSoCGhttOxUUAVtbqxwsLeXun9glkUgkEolEIpFcMQwGID8fOHAAKCmx7VRQBGxWFrB7N3DoEDvWiF0SiUQikUgkEskVgzWpXg9UVwMtLbadCoqAZdeB5mblYBe0wEqjcEfQ8ZHYar+nHAvQNeGCI9NGctXD9VAnNRLCEbWT7i2RSC6MvQyykHUysCoCVk0/7EvJdjUo4EobLFviS8MWb51WB3Pm4p8yfboaIkV4pLFMmh9BpxUcBSGOqI7jIeZX4cj6y0FnxRrP+8rT3am1WiV9JD8AJb4s7L/YGRPNSn56tFNHKgK2CyMqDxLWFrYSy57wRSOSmeKL443nCnSheOxo1DwnJFVOPDm2FEk/HB5pbOV8Temj0nRs+nCDy4sX8NycVhOlj+QHwfMcW80WKjeuov7pLFQ8jy6lFU+PJOu3i8dev1mNRpE+nVG/tVqs0Hh4UD2nVdofycVDCcRlyNTcTH1oFaWRxnZAIrlE2qkfu7yAde8RDI2XDxpKikVjzEvlSS4Mi1amobQEKjd3uIeEib87Cr6/W0AgzNSA8KT5/LfUsBePPX30lZVwcXODhlfB60DYcuQZ2RPGlmY0V1fZRJhMoYuBJ2HnuTibqirhHhYBjaen7UjHw2VIReKrqbxMVNDS0ndxcH7mDiCvMqjx8hLx2NGweNW4e8BQX4/avBwlfWzlVnJ+RHtAm9lgEOVH24llSPITgF0HuJPPPx1QSiOb+XmkVyevNHIpiGUcIyJQlppClXw59ep4yVCd8mlHbu1ubHnjyp3FUdmxY3ANDEJAJy395h0TAxWJr9LkJKq1VNCQGGsvTHI7s2mpYWyurkZ5ehq8evWCW1DHL1PKorjHmLFoaWhExfHjMDY00LMVS1V7YZIbbRQ3XHZ4Fa6anBxU0xY0YoToRHcWgUOHQu3tjcLDh0RnUIRBptF5N65juINRm5cLQ5OeOuehtHXsMrJ23KlsWqytqMnNFdZEFmWcR2Qatb9xvGipPdBT56/seJpwIfAMC6c6LsgWo5LuCmsKA+lEXnH1ssJfekkDYtgwILhtXawsJUsNnJimgCoGTJp0yb6wjkvJxsfH44YbbrAd+XHUZmQge+Xn8PT2gXcoVVb+flSRSEvsuRDLvNbVoaG0FA01NYi+7noEDRlqO9qxNBbko/LoEdSfPIFAFmO+fp3yOe9qgYubxdCC+pJSNFEa8TKygdS5cKV46wyyvv4S9cfT4UuNvHdYKDX+7tTP4H6r/Fx9NorLTWNZOeqp7Ki8vBB/3wNCsHQWZhJFpfv3onTX9wiKjoYHNfRadw9piT0nnEZmscZ+E3UCtdS5iJw5u9MEbH1mJqqoc64vzId3QCDc/ah+0+nEMbbUi48asijZ4qEVVjaGUf1SS+1CfVkZvPv0RQSlj1tgx1vIJZeXqqoq3Hfffbj77ruxcOFC297LAFtd2YWHDaxc9hzqY0XAdhAsYD/77DMUFBQgLi4Oixcvth35cXChaMzPQ8YXn8HS2AAP/wDoPL3EMVl3nEE0edTw8TKE+toaQKNF7M23wIcqEbbsdBb60hIUbtlMFX0i3Hx84BnUg8KiNMAyfRTs7ZzVakEddRZdPDwQTOI1ctYcYbnoLMxNTSjZtweFm7+Du68P3KgTyF8wOrDYXxWwYGRfbkNDPZqqqhFAHb5eC6+FjuoaLlOdibGuFuVHjiB//VroSDR7UPnR2PKETCUFewq0tlopfapgpgbNu3cfxN5y22lB2Vm0VFVSJ/0wKg4dhorKL5dXdmHQeXsLi6wsS7byQ+20ieobE4sNErHevXqh1/WLO9UFR3L5aGhowAcffIApU6Zg+PDhtr1Xlg4XsCtWrEBOTg5iY2OxbNky25EfjygcFIH6kmI0l5XCxPOCSc6GkpN9t9yDg+ERHgFXEiydKV4Z4axPacMVvb6khBrkOtHQSNrCjbCKGj/+JM0WIxZHnFadCuUHi8EAQ001GqljaaCODQ986WxR1u2geGJR4sodsIhIuPUgEcmW0Mvg88jlh9PITJ3zBurctFRWUH3Hg4ZkGjnDQsnVzx8eVH7cg0OgJRHZ6VDeMLFRoLgENSfSqf0po7yiFu4Fdl9cCaPEg5baHG57vGgT9Zusa64Kqqurceutt+KBBx7A9ddfb9t7ZelwAbtlyxYcPHgQPagBePjhh21HOg4WsiyQ+DOs5Gw4MTWuOrj6+na6cG0PY329qOy50pecDbu+6Pz5M6Sbbc/lw9TYKCwkLI7kJ+q2cHZlUcKf77nsXCnYpcBYTx3Ay+1n1l2gfKv19BIdjcsNp4m+vJw66/Wi/PBXFFmObHB1T1Eh4sXNXaSPMnBUcjXAMvHUqVP4xS9+gUceeeTqFLA8S8DJkyfx8ccfC2fff//737YjEolEIpFIJJLuBvu/7t+/H6tXr8btt98u3Ai6Ah36fUytVgvXAfaBOXHihBC0EolEIpFIJJLuSVlZGZKSkoS+46/rlx22s9o3BzrcwYsHH7CDb8+ePbFx40Y0NTXZjkgkEolEIpFIuhM8MP+7777D4MGDEcFTWl1OWlqA3Fxgzx6guNi2U0ERsDyF1tGjQEoK+wGIXT+G0aNHC6X+/vvviwFdEolEIpFIJJLuRXZ2NpKTkxEeHi6mR/W53P7nPKtFdTVITAJ1dbadCoqAzcsDDh4EEhM7RMCyeGWlXlRUhL1795JobquaJRKJRCKRSCRdF546a82aNULLLV26VIjYyw67DfDMOTzzFItZBxQBy3MOOk0Q+2NgX9hRo0aJ0WobNmzA119/rcwNJ5FIJBKJRCLp0rD757fffoujR48KtwGe19+1Exd1OS882wdPaeg060eH+8DaCQwMFKs1zJ07F4cOHcKTTz6JFHZRkEgkEolEIpF0SXJzc/HGG28IA+TEiRPFnP5smOxquPyZQGEhUFGhWGAHDFCUbgfg7u6OkJAQMaVWfn4+8vLyxE9W9jxfHB93kXPFSSQSiUQikVwReA5/nmkgPT0dW7duxbZt21BXV4cRI0Zg1qxZ6N27t+3MKwDpR5SXAyUlQFQUEBpqO2CfB3bfPiAtDeAl33j1LNsyhh0F+1GwL+yqVatQX18vZigYNGiQ+OlJz5QiViKRSCQSiaTzYdnHM0Z5eXmhpaVFrLJVWFgo5vFnrRYQEIAlS5bghhtuuPKWV9KPFDBFo44aBQwcaDtwmQSsHVb57E5w+PBhMU8sW2PLSVmzhVaKWIlEIpFIJJLOhcckBQcH45prrhGajL+K9+nTB3FxcWIWKf55ReZ7bQ+7Bba09BwWWJ6agOdrZRFJL+XsKNuR6PV61NTUCEssRxqLV17wQC7JJ5FIJBKJRNK5sObS6XRirFJtba0wLrI1lqfIYusrfxnvMvDMWDwJAG882YDDEvmKgJVIJBKJRCKRSLoJXW9YmUQikUgkEolEch6kgJVIJBKJRCKRdCukgJVIJBKJRCKRdCukD6xEIpFIJBKJpOvBg7h4JoKWFl5cAHBzsx2wC1izmee4UmYfuFJLhV1meBSe1O4SiUQikUi6MjwX6092piYWrjyFVlEREBMDhIfbDtgFLE8Sy6txsbIdP77DVuLqqjQ3N4tpvHgCXzOJdylkJRKJRCKRdBVYsPKm1Wrh4eEBPz+/n+Z8+byQwfHjQGoqMGYMMGiQ7YBdwB46BJw4oSxkcP31ynyw3ZxSUuyZmZnIyclBQUEBiouLhXBlOEO4urqe7tXIOWglEolEIpF0NfhrMRvajEaj+MnwXK0RERFiNVNegCA+Pl7M63pVUl+vLLSVnKwYWIcOtR2wC9jLtBJXZ8JLoRUVFYn1fKuqqsTkvLyxpdW+aAInPotXnqSXJ+1lEcs9GilgJRKJRCKRdCVYnrFuYeMbL8nPOob1CotV1jG88ICvry/8/f3FxsI2PDxcCFvWN1cFLGDT04Fjx4Bx44AhQ2wH7AJ2/37lBBawS5Z0GwHLy6HxChIsWBMTE0mH78PBgwdRWVkpeiRDSakPHDgQ/fv3R+/evYV4lUgkEolEIumu1NXViS/MvCR/amoqDhw4IFY47du3L2m8cWKJWNY9bKCzG+q6LVergN26dStWrFiBtLQ09OrVS6zhy4nHichwwvHGwlXTDa3KEolEIpFIJI6wbGMDnn1jKy1/hT516hQOHz6MPXv2iH1z5szB0qVLERsba7uyG2IXsElJ53AhoJdFSgrg5QX87GddWsCWl5djx44dIoFYlLJjc1hYGKKjoxETEyOE7FVjOpdIJBKJRCK5CNgKm5ubi/z8fBQWFoqxQOxaGRUVhWnTpgnLrB2Wft3CfbKxEaTMFRE7YgQwYIDtgF3AsnjNzlbm2Joxo0sO4mI/1oyMDBLhSUhISBCJM2HCBMydO1e4CkgkEolEIpFIeGZUC7Zs2YI1a9YI/cR+sSNIALJbJRv73BzmU+3S8BywFRVASQlIiQOhobYDdgHLClevV6bPCgykvV1LlbNpnH083njjDdFjmD9/Pm6//XbhwCyRSCQSiUQiaR92s/zkk0+wevVqLFiwADfffLNwuew2VthzoAhY+idWO+AX6WJzwB46dAjLly9HcnIyli1bhsmTJ4veA88iIJFIJBKJRCI5N+wPy+4F/OX6iy++QFZWFgYPHoxf/epXYo7Z7ooiYLsgPPcZD9Bih2TuIbDpe9KkScLXVSKRSCQSiUTyw2AXzN27d4sZDHgcEVtjx44d2y0HundJAcvTYLHLAPcUeF6z66+/HtOnT7cdlUgkEolEIpFcCjxH/tq1a/HBBx9g+PDhwi1z/PjxYm7Z7kSXE7DsbPzpp5/i/fffxy233CKmgGDnY4lEIpFIJBLJj4cHefHA+GeeeUasSnrvvfeKabe603z5XUrAsnh99tlnkZ2djSVLlojI5FUlfhj8OudxSrbS5ujmy6/fzZyYz/mGF3j1i6aj7tOBOAap84PXBSNAIpFIJJIOhH1j8/Ly8Nlnn4mv3nfeeaeY2cnb29t2RheAx2fxTARGI8AzJzgsmasI2IYGoLn5is5CwPO7vvLKK8jJycGYMWPELANBQUG2oz8Uetn6Q3jzna1IPFEAV10wWlUzcOsT4zAh1huWxnKkfJUI14mDERobjnM+xWImLWNBo0YHdnPuMsPbLCewb9MOfPQtvYObC5pbJmD87Mm4aVkv8NC286eeBRaTGlajCtpzfi2woLmmEhnfHYfHjDEI0GTBnJmExICbMTxai2CNFcZGNVz5+suRVSyUnmWHsKMqAq3ePTG9V+f76lQf24EKQytMA6ajPyW+VupZiUQikVyFHD9+HKtWrUJKSgpuvPFGzJw5UyxR2yVgbVpUBOTnA7xIlcMXeUWTlZXxGwCZmSTY2Pp0eWGf182bN2Pbtm2YMmUK7r777h8hXukVaopRtnIb1q3diK82b8R36zdi42e0HSvBSTquMjejIi0PlbWNoKg5B0Y0ZJehNL0CLfQXG25/LB0Ts3qYth/EnpUb8cV39E6bNmHT5+uwYVsy9pDOM53vIZy2jUkoLi9DPvVZzg0J2KpiJH6yFSdKalFtrkFL2Qnk1qnQVJ2BhspsZNWcL6t0cB5iAVu4A5uTMvFdtsm2sz0u/bnOV9Yd24rj+zchieLJ2MGvI5FIJBJJV4GX3n/ggQfE7E48d+z27duFdbZLYKI2nzUqL2RQXW3bqaAIWJ4klsVrbq5irr3MsHh988038eijjwrXgR+n/EtRlpWO9+/X4v7fr0RqQQmyTmxF7ndBMJsqse6AARq/aMx56X5MG90PUbar2mKh7Th2bNyHb5afEOKmI6yvP96Ix3I7BZ8+VQ4vPIg9BQU4lZmDosT5uHtBLZZvqIXhPGqrlYRg/fY3sPvoXnxfZ9t5DlQuGrh6uUNjbYFrjynoufCveGCEBqHpH+LAzm+woQpoOWdW6WBzJX8R0LjB3VULj/O651z6c52vbKXnaXQecKWE7+C3kUgkEomkS8ED5vkruF6vFwPojxw50nVELC+uxSusOk3zqvzFpjQWrlfA+spzvPKUDvPmzcOsWbPQo0cP25FLxQ8aD3f4DUtAvZtWsZy60z3HPISn5g3D7UNVMNYXYudzy7E/tQh1qETTobcwY8JIRAQHYuzih/DM5hqU7fwS32/4LR754m+Y+l4qilCGgnf+gD+GhaB/XByCf/YO/rmbVByaqGfwCT7a8Cmeuvcu3DVwHOKf2oV1G17Hx3+ajcjBE9Hv3cPYXs4BqUHTqc/xl4mjMbFnBKJ6T8Swcc9heUoD9KhC0bY38GRcX4yICkOPW/+Am9YX80UO8BK5IfCNy0BrRDmFndKVd/e7GQvmL8KfJ/nAS6dCzZ4n8fpDIejVuz9ie/VGz1+8iaeSSqEyJ2DLC9vx2nV/xmu/+xCbqN9iTH8DLz82AyGhUejfPx5/XJeJTHqOp1rJCyqtO8xVR1C843l8kXEMX7y6Dx/c9Ar+fe/z+KYAyD/0B3z8ZAiiYwahZ8Rd+OOnScjiCy0mlG+8Fk/dFI7QsFEYMPBJvLW3FIXirnaycOSVNXh/1mqkt1rBRaV091ps/r8/YW2+AWXcj2hDK1Qad/ppQMXqGXj0BoqnkLEYMux3+N/xBopBQl+Aum1PYNGEAQi69U5c887XWPH7zSik+K/J+Qhr/xiGgQP6IyaiJ3ot+yUWbihBsyijuTi2/E+4t2d/DOj7EB55NwkH9Z7QUglhEVu28Vm8sjgIfeIGI/zOz/D+EaUn2Eppmv6f6/HYnGCERU1C/37/wedJlSJtJBKJRCLpLvCcsE888YRYnv8vf/kLytjy2YVx+TOBQpIVlZWKwuV1Zi/DYgY8Ao7nIfvyyy+FwzA7D3fMbAMauLhq4B1pQn3BTuzZvB6r1h7B1p0+6DMiCn38tTDWFuPQOzthGvn/7J0FgB3V2Yaf67ruWU12427EsOBaHFpqSFsoPzVokVLaIjVooS0UCkWKe5BAgAhxF6IbT9bd5br835l7N4IV2YUkzAOTvTNn5szMke97z5kzZ4ZjczXRNvt5FltGUDx4BMdPOooxo0cy1L2HTevbaAwXM+ns4znBOJ+yHa1siw5l8OShjMw14UhJJ2C00L95Dr+b3Ul5m5PJA2x0d8zFY0nEa08mkQC1bycwZkw+o/vbiDY0UN5pI3nQMIr7uciLlhMefzY53lV4ty9mTudYho4dwsjJkxk3fDBHZR34uTeVLzacWer3TrYunCX3Npc33vLRacjlmNFuDMh911XR7k/BnTuCkSPdeNoySTWkc8IEN61L57DXOpDEqcdx2rEuKmeup7rTSdro4Ywdmk9yezLJKS5MiUEq396G84SJpERL8W2czQLHGaTvWUnYJPc44hTOOdbGrq072F3vomTYJEaMyMItDQiHySEVoJEFjy2iIZJHwVHHS9xjmHzMEApS7SgJ2kP7+uXU7d5Aw/GnUpxYy65Fq3h7QQsDzjqewiRzbN9IABrWsLC1AJM7kWMTd/Dygl10y30MHzWaIYNSMbS7ycqxYQ9UsOLpddQm5FJU4sbp72TWKhPjT8wj09FFe0MUU8YYRoxMxmJII9yUwZnHF2Dd/RYb3t/ENgZSOGwAKf5m3Kk5ZE2YSv+m13lv9U5WtWYxYMBAsk2VGJIyMWdlUhhYy9Nvl9NiKmDcxKkMHTqOaRJfbpJVSqKOjo6Ojs7hgxKvgUBAGxerPn6g5t7/Sr96euCnZPPyDvqUbEzAVlbGdlDTJwwf/qUI2Lq6Oh5++GHUO2RqtgH14lZvoDqRzfYkMoeNIbrqfua88gyPv1vFFhExzmH9yBfhkuDvYM/cHTinjsZiaxdxtpaMk67hzJNP5pixg8nKdJCZm4S3voSRmUdz4w+GE11wBwsDhXSffB1XnzqKUyyLWV4T4s3adC7O2Mn97+cw8PQruOuGkxi/61qWuX/I4Auu5/YLB2K7ZR3OYwpwjM4ng1RyjxvF2GnHM7HQTIlzNWUZ55PWvhFXpJXmkT/lojMnc+roEoanuXHYTR8YvmAhuXAoKeFStj/7Bx54u5RF83x4ralkHZ9Hjq0Lh3siWQNOZtxRQ5l6TC6m7VESu5IZcuJYChPXYDvluww94xROTljBc/c2kFAymUuvO5cpIwdS8dhcWs1BwkPy6H5nC+7jx5Fil4JTtZftKZdxXOEOSk6eSOoZl3Oh/S2eXuym1nUav7nqBKYdF2Hb65WUb6yn+EwXG2elUjzxNM68bDrTxmZRmJmOy2zCtO+ZvIOM9HIc/ffwdtPxjIksZFdFFwt9U7n8nCIyTPE77xGwbUVYzQEmGpZz63vDmTD1bH5y2SgGD+pm3l/34EhrJJgR5a3X+vPzf/6Sy0/JY3h7OX/ZmsLp09MYUTSKlMzTGSUNl6OnF5LSace0LczIswdS9voMWqxFjPnz7fzs7KmUNK/H7zVhGHMUKfN/zwLrqSRf9Dv+cvlZXJgxm7XVdlY0pHFGdjmvlxcwaMLJ/OCS4xg7Pou89ATsFmOvDDvR0dHR0dH5MsnKytJE63PPPUdubq42RvYrQ80+0Nwc62RVAlaurYevxMf6fD42btzIG2+8oQ0dUAK2t9g/gYKF4Ve9xN/ne2mqXkzNxhEE1q7mpf+spdNuJio7hiVhsgsGMVxE2rJLjuW8IbnkH38R4x7bTl3IgxU/noCPdoK0dO9g0X9u5o4T0+g/YABpZ/yZ3/53CTu724hGohw9dQTjilOgI0B78EwmDS5iuKRz0JtA8ukWXHkGuSLRYs5G1t8yiW+NyqB46sWccPMyaho66XfiBWSlZuE9L59ThhaSe+w1fOP+92OPxT+C1AlXccVzLWzbVYWn4QouP7qWR385jypPOjbDMhY9/h2KCkvol30W17y8iHfSEuT8IULeIL4uH772INGaGlo33ssfbzydIal5DBhwFNe8Nps39gTobosXjZ701P6GCfrjx3dGoKWTyjl3858bjqFf3gByss7juvtfY2ZZEq2G0Vxy9jrefeqbjMjKp3jgCG55dQdburXY9pM1EEvOJHav20L1ktn4LJ3Yjx1D0kc1ogwiCkNyFdVlbH72R1xzoQjStBEMGnI5987dxuo9rTSEu9kzLIOo3CfSXHCXjOZ6+ZVnyMES2U3jwp+L4C0mO+MkLrjtSZ5KdhA2NtFRl0+gNTYjhRp2Yk+zkJofJRwyUFXrYHC6g6O0AdNhGDQdhy0ZS5us5pzBVal/YuldU8jKGUb//tdyz9xyytWuOjo6Ojo6hxnJycnaZ/vVF1DV9FrqPaWvDDX+VX1gQb3Y7zjw+W2PgFUBIsq06Qm+hN7XlStXMmPGDL71rW8xTA1Z6E1Cu6jaMJMbfrOYHe0WLBYTFkc6poKBFEUlY1q7CYl41UZ4RgIi6VJwj/8xt70zj/fWzOGFm37Ij1e/R4W3gzKjA6vRKXtYSLYXMvFbv+TaZ95n6dKlLF++nMWP3cazZ2YrXUVE/jFrA1IVFvltItaBaMBgMWCWhG+u38KGFx7D981nuPOdHbzz5K3ceW47mW4/3X476cf+iF8uX8bcNWt58SejudLwGsvqoU0byCtEOqHxHe756zs8/24zJosVm1VkccpgBuRm0K+2AUvD2zy2xEB5/xtYvXwh77/xGy47bhj9uqQVI3cdCYWw2Cw4ki0YsjJIHHQF19zwOPPeXyP3tZzlK57gHzedxFizV9Osos33oa2HQ5jMRhxJcnPJTrKnXcVFN77I6lUrWLZMjl/0dx67exoiS0k64WZ++9hclr03g4Uv/Izumjq2b2qNRdaDYwCJSYVMKX2Ome9sY0OrnWnjEjEb97VE9hOV6zdFMWb1o+Qbf+H2B2exfu0qOe8SViz+FddfNY48r4ncna2YHKq5INfp76RC/Wqbz7tr6njO823mLVjM5nf/zO++fwzFngjmSAqJadVYkmLjilW2BdtDtNcYMMr5sjM87G71s1EbDiSZXL5cGmGNdCdLvTFY6X/JM/zp2ZUsnf00yx7Mo6GjnaWlPZmmo6Ojo6NzeJGWlsZPf/pTqqqqePXVV7VhBV8Jat7X/v3h6KMhNze+MUZsCIEaOqDe/FdzwLrd4pQ/Qjz0Et3d3cyaNYstW7bws5/9TBtfob4C0WsYgvgaqyhdNIdl65exePUKVi5ezOJlVXgdxYw6dhD5aUF2qHlgp4zG3a+b7sWP8HZpM7uqK2lv9GI25zP8pP4E3p/D1i1rmJ8zgnG5UayNFpq3NNEZqKOmuoKgJZ10aalkdazk9cZiktLzmJzcTuWSGTTkH01qYT7Z3kY2z9iAefJo0lM6ia6eySPb7NTWNJMaqCA9KcqGpAspDDVjr1zAU+vLqautZW9LO56UfowaPZFcaXTE5iEVURRsZ/eKpby/dj7zN61lldzbkqWb2F7jpmicXOfoMOsWLGLX+g1EzVDrTKVrR4Bcu5MB00vIbFrBa7MbWbzNzLCJxSQ21+CJtrG3vYW2ujoqyxJwZyeTnCii7dWN2E+cSKqtgsjuDaxPPo/x1lLKNpfz1NwwwyYNwhIsx9G1i7Y2H3U1VSIWEzDlJDIwuYXS/77D++u3s7e5nYZqI22pgxk1KIuBGfsnIlZjes0hD67SV3iwJRfDkOO5+nhJSykS+0qhmkardhmzG/sRTurPSQMddNWtweBrprGxnbqGBirs6WQU5lJkEYFeOpu31yxn/vaVLN7eQllVCsefnExL1VbWzFkoDbowdc5EWmuMpDSFGHz2ePo5d9O0ayPvvCz7rNvJ6qWraUuQ/J06nTHpHqp3SONj7ntsXLOSWavqCeZP5pjJJQw1bmPJy+tYs6Gc6oZm6vdG8Q4czbCBGQx091090tHR0dHR6UvUMIIdO3ZQU1MjOtLGgAEDxH/u66n7clD6UGlUp5qQXXVM7ScmYJXCVV9e6GPxqnj33XfZsGGDJlzVhLm9nhgGN66kFCa43uX+R2fw3+ffZNWKzSxeYOOoq87npJMHkOHtoHp9LYlTJuAyrKP8xWu4+e8Lef7Zt9gVSST7hzdyYUkmGWXPsqJsNf8JTOeyb4wlaf7bzL/jNu5ZuoRZb77BFn8W5v4TODahgk2hErKzshiV5KVl1wZ8RZPJyMsmI9Cpncs5bjAlg9LICDXy5z/8kxnPPkF1S5TCqT+lzj2U0aGFNIiQvub2Z5gz81Xec04U8XgVN4527p9E3yCZZ89jVNoGtq18ndv+PoM1q5Yx561ObCVHce5vT2agM4+MXf9l06x/c9vz63jbO5Rio41jhqXhHj+IfqYO3np2PUvWdzH6nLOYnvoes2c9x2/vfpalixcx8zUjtv4FDJ+ahm9NDclHjyLV3oappYHqtBOZ3C/AjpXbeealnQz/9uVM5Tmq37uX6/6+hAVz3uaNnXZ8mXmcMrKNpdf8hkeefop/L9jGivczuOgn5zJ9XKpI3IMxRTzYu2bwqOM8+g8/nm8PsO8Xr4pICNp3s8WbiytrCJMK08gru4mnn3uFvzw8jyXLljKzNo/+g0dybDGYa16S7a/wQmkVZdE0cv25HH3+8QyMrqXr3T/x2/8u4sX6ftgMGZxeYCPh6BEMzk2mc+Ma3rjtfl5YCt40C/2PHs7AUeMYkj+GtPJX2fnqPdz1WikL3Jdy3tmnctkIE5H6JTxx45949InHeXZxBQs3H8sVP53MqSWSb/HL19HR0dHRORzJzMykpaWFuXPnctxxx2lzxR4qfOmfkv3e976nqfrrr7+eoqIi0ct9IJjllqJhH15/iFBY3Z46hxmbwyYC3ohRTdkkYUrNG41hIgEPvkDscbnRZNbm/7SpV8iDXgKhCAGTHZdV4vAHCMgSVEMQ5BxGi4rPKkIoiD9qkrhMIjajhIN+oiYLBjWMYN+5zCLWJY5QgG45WUROpsS7Oj5sMMtxanBnAI8/PneU2Sr/23CaPyJ9Iuo6gviCYa29EZVzm9V1OCzatFoRdd0B2SciLReJR64Es0nu2yrXEJHjfJIuURGqThvmiF/2lesPRrS8iEYtWG0WLHK/Ublug1WONsg1heUYg127zlAwpKWXzWXX5okNBQNyLeo6JQFNct2Srg6r3Gq3XEc4glylxCHp75TjJQ3231Esb4ItW9n68DBmFr/B0KPO5vzCWOh+ZD+57kBE7s5gwmqKymq3ZEcESYLYdZucJDqr2LtxG8/9sYnT7zyLsSXVlC5YwS3/tPDzP5zO1KFpGDydeOWYqLpOgxGL0YBR7lekqDYm2u8LyvWapRxI0lkk/yRdVRZEgj6CAT9+laYmG3Y5xqoldgi/1y/XEZEYjHItVuxONYTkwPvU0dHR0dE5PFHvK91zzz2o/k71wr2abutQ4EsTsH6/X5uW4a677mLChAlcd9118RCdrzOerU8wZ+Z93LxqHD+/7kYunFpMajzssxOlu3I1ax5/gPvWNlBZvYv0rAH0v+gRfnp2LoPSvkRJGdPmOjo6Ojo6hzVqylP1cQPVMfbNb36TUaNGxUO+Wnpx8Okn097ezsyZM7UxFErA6ugoogYTrrSBDD3mGkYX5X0B8aow4MooZMIZw+mXkYDdmU9WyTjOODmPfilfsprUxauOjo6OzhGAelp+2mmnsXr1anbu3Bnf+tUT64ENq2eq8Y5Yc99Mv15aWsq1117L1VdfrU2dpT5eoPN15yO6Kb9Qz6Xe7amjo6Ojo9PbdHZ2cs4552jL5Zdf/uV93EBp02AQ1Gdt1UtcB7zIFeuBbWiA7dth9260T8r2MkE5eXV1tTb/q3p5SxevOjE+Qmx+If2pi1cdHR0dHZ3eRr2zc9ZZZ2kvdC1ZsiS+9Uugqws2bYKXX4YP9P7GBKz63u3WrbBr1/6e2F5kl8SrxlBMnDiRjIyM+FYdHR0dHR0dHZ1DHTWNlhpG0NTUpM2F/6WhNKn6nGxnZ+yrXAcQE7Dd3bFPdbW19YmA3b59uzbv64knnkhq6hcb5aijo6Ojo6Ojo/PloXpg1Yen1KjTiooKIn3wtP5j6ZkL9gPfDIitqY1q7Gtvz8kap7y8nLKyMu3lrST1wQQdHR0dHR0dHZ3DiuzsbKxWK3v37iWkxqV+hRwsZ/sINfhXzdWphg/0ybyvOjo6Ojo6Ojo6fcrQoUM1EbtmzRrtvaavkpiAVcMGVHdwH3QJ79mzR+tyLi4uxtxHMxzo6Ojo6Ojo6Oj0LSUlJaSnp2tfVFXz+/c5Sp+qnl51LjVj1gHEBKwaOmC1xpZe7CFVwlW9vKV6XYcPHx7fqqOjo6Ojo6Ojc7ih5vJPS0vT3mtSHzboc9TYVxHMopwhOTm+MUZMwKr5vLKzoQ9mCNi9e7cmZJVq/8JEI/J/SJYg0XBAXz5uiahFWiySXjo6Ojo6vYDqCVKLzsH0pIueNl8L1HtMalFP178UAas+WztkCJx+OvTvH98YI/YhA3URqotW9b46HPGgL46K+sYbb9Tmfb344osZNGjQFxoD62ndQXfjWrztu4mEvPGtOh/EaLJjTyzCnTEeZ9qw+FYdHR0dnc9DNBLG39GJyWrFqHqEdLG2j5DXK+kTwWyzYT5EvpGvcwCqrPbyu0dvvvkmN9xwA7NmzdK+0vVVEROwfYSaZuG73/2uiOchXHfddbhcrnjIZyMc7Ka7eRPellKMUa82nYNBzZyg25API+U0Go0QDoWJYMORMgRn+kjM1r6d/SHobZY82iB/m8SYBeUyvpT3Aw8zolqRNZpsWgPDkToUk/nLMfjRaJiuhnX4uyqJBD1iz/pmxpHDnVgOgdWVgzNlqPzN1tb7CuX4O8r20rplC8HODlnvfWdzRKCeJpmMkh9uUoYPJ6GgUISkNR7Yd3RVVtAp+eNrbt4n1DQjq7MPo9GgpYvZ4SRBxEzS4CFYPqev/6wE2tto27Gdjj17xK6pN+L1+vNRRMMRreHlzMggbexY7Gnp8ZDPx9y5c7ntttu47777GDNmTHzrl0+fC9gzzzyTqVOncuutt8a3fnY8Ilxby2dhNptISCnEmZSP1JZ4qM7BSOUNefF2VtPZspdgIEBS3km4M8fFw3ubqIiiaroa38fftpVwoE3bajTqL+x9CKlqkWhI7KsZszNHGhcjcGeMxWTt2y/ThQOdeFq30t24hpCnTi4jKPmz/3N8OnEkf7T/IiFMtlTsycNIyJoopia9TwR/JBSidWspLRvW07V7F2ERSKphblDvJPSdWT78EEESDYclSSKSL3bcxcWkjh1HyuChsd7QPkHsWksLtYsX0il5QyCISc4VFnuq8k0XSfuxOBySN1JvpMiaExNIGTmaxIGDRCSlxTqa+gB1vmBnJ03r1tC6aSPemhqMqt6o+qPyRq8/+5H0UOVWYU1OImn4SNJGj8GdX6Bt+zwsW7aMe+65h2uuuYajjjoKt9sdD/ly6XMBe9JJJzF9+vTPLWAD3XV01a/E27ye7OITxIAlScTBeKjOxyICMhL0Urd7DtbEwSTkTMPmzo0H9h4BTz3tVQvoqltCesE0XMmqZ0QaF/r4248g5vSC/nba6zZIA6OctJKLcKWPFOfYdwagvWYRzbteJjlrBInpgzDbUyV/VG+FzodRYilIZ/NOrQFoTSwmKfc4rK5+8fDeQYmgrqpKdj71JAafl8Kjj8adnS3iVRp+Wi+fzoEoIRQOBvE0NVG2eDGmtFTyTj6V1GHD+0QkBdraqJz9Np6KCpzJyaSXlGBPSo4/+dPF0QdRKeJtbaVxyxY6JY+SR4yk3/HTNRHbF2Jfide6ZUtpWLGcBCkLuePGa8MXdPH60ahGcdDrobWsjPIli0kdN4EB512A9XPOy7927Vr+/e9/ax2U06ZN+8q+sHrIP+f1dewl5GsgIXWAtLDUIyPduH8qpBIbjCYt3SLBNrxtB39DuLfoqFkmxmQPGQVHaz3jRrMtbkCU0dKXg5cYFmsCiZnDSckeKeJ/Lv6O8nhI76N6xgMdu0lMKxZDL+LVmij50/MYVF8+vMi/0vhLSBtIar8xdDetFxvU+/kT7Oqk4q03cackkzfxKFyZWVp91eqOcsL6ctCi+lmMZjNOEUSFxxyNRdYrZr0Zf6Tfu/hFiLVs2kCXOPuMkoHkjBqNLSFRLkOuRfGBa9MXg/xvwCFiKHvMGGmQp9FdUU7jmtVavvUFvtYWqufNIbO4mNzxEzA7HNo1aBxwXfoSW1Q+mG12UgoKyZswkUhHOzXz531usW+xWLRe1+7u7i9nKq2PISZg1SMRNSFtH1yIKlT7CtbnIORvJRryYHPFW3J6z96nJJZOVqekW8QvjYBmbb03US82BL31ki1hXCKUTZb4eE6VR/ry8YvBiNWRjjO5gLCU76CvJZZufYCnZauco4nEjKFY7CJetToU/vA16cv+BWn8SVm2Sd2x2JxSdxoJeBpiCdpLhDweOvfuwSWCLKlQPbWwyKnVLCv68kmLSqfE3DxNLAXFCauxqb2Nr6mJjr17MZtMOJKTRbwmaI+nlQj4qGtSw5blwsTWOrGKU7fabViV/T1oPxEQVisWswmT1D/tuHBETIEcZ5djXK7YsQ45Vo1WUeEHHS8LJmn8OmS/+L52Odb40df0VSyql88u+ZKcny9pZ8RTWyNVqfcFrHoc7qsXvyNxuzIytDxSdu2jrklf4ouaP1WJWBH66YOHYJTfrdu3xVP0s6PeQ7Lb7dosBMFgHz8RV/FLnWTnTpDG5YHEBKwKlApLRUWfFLgvgjZtFmGpHKr39fML4a8dko3SdIj3WsfG9fUqUk7CgQ6tcWKyujConld10kOs/BySKJEkItZkdkjaOWXVTyTUN1800V6qC/vF4WVr2aOdW+d/E68vzoRcERoeScdGbb23CPv9khURLCJ6zOIINAej8z9RaWaUuqN6RG2JSZrYDPfy14CC3Z0E2lqxiahU9k0N9/jYnkS5FrOqv+3lLF+5grnz57Ny01Yq/GbltWIOVnNbIVqkwVJb10RLJPZ+gGgAfG0VlG1ezKKlS1mwcCHvrd/Gyga/dozlQHcn12Hw1lO9Zz0LFy2RZRFzt5SzsTUkIlZ1EsX3+wpReaPSypmapon5UB99pUnljV8Wd04ORquFcFyc6XwyPQ0wuwh+k9lMoKtLW/88aH5fCrBKe9XQ6lNUx2p1NaxbBw0HdyTEBKwSr8uWqYENH/rSwRdBJdgX7YGN1Uy16AX0c9FTsXvZwklVkILr1x57ai8Eab1X8UCdT4FKrKg2I4GWmn01rlvley/n/deDWGGOPdZXLxD1YgNQOZJgSBOuBhFAn9eJfF1RL3OpsajqpapoKNjr6afii7009ikMmtg+s7+etg0vceFPr+HkH17Ft+74O8/vNdEZMmIRcWkyia0Mt7D0iUd4ffZSVnpVnReBao9Qs/5lnvjDlZx4+RVMv/KHnPjb+/nWglo6gxE5Lj7CT+qv6qk1VMzjjf/ewvFXXCnLDzj5ry9w49oWrXqbDqE6ron+YFAErFcr672N6rlW+aPNRqS0QR+c40hGpZ16omBW4v9zPnX/Qprus6Lqt1fKUnv7h0YJxGqIKgBqJ92Q6nweDiHjefihp93XjZi7lca99lfnc9GHiaem57K43dhc7v8xI4QRm6mcrfVtvF5xNM/d9U+WPP0P7jrvJGwvvsAWcbh1NgdmbwumikUsctlY5nHQuLc7fvl+uk3DyBn9Q57+97+Z9ehjLPjFKdybuZ4/rGhhbUMIm7nnRqN4uh0UjziVG+4SIfzQIyy7rJhvmzfwyyUd1HaBze3CpoY8JCXJX/ltN2MW22xUw2FUj7UKS0zA5rRiVZ5fzYZik/0S42EuR+x8Jqt277G4JEyu22aWAz6lTlRz5RpEfEdC0giIb9M5FDnMLNBH1MOYgFUCRL1d2Qdvc+p8DdCt1BdAT7yvG/slic6hiOrdVS+MqUX1NH1iPonY87XupW7bLKqSRjDu2Au58JyTOW1KLv3sJqziYv0dfmpL68idNIZ+mUkYyysIaK42QsicRXLeNM4/6yxOv/AijhudxbTIFmq9RjrDIp73aYwooZCN9OzBnHj6OXzj/AuYkm2hxFNOxGHF5Gqncs4Mnrnlt/zqD3/hV396gWeXVVLu9dK1YyYP/PsefnGrhN19Pze/XsqGtiiWQBXVa5/jt3/5Mz+75Tfc9uTrvLzLi7FlIy+/8Khsu5Ub/nQ31724gUXVHhG7n04faDM1KE2h94we4hxm+fMRHWW6Yv0oDJIsZjEeFnPsr2p97ks7+dFTQQ9C1rWGwAe298T1we06Ojo6Oocg4thFfGlDCD5RhEVFgmaSZTcwzLmS2e+v5Jl3lrGlrJHg0JGy3UGywUuLJ8zGyjROGjuRs4oMpHVuYbfXgDdqxhZpobtxA/MWLWTF3LmsfX8PG7tcHFuQQD+3mlKt5/wGzOYg7c0VrF46n6UL3mPOkm2U1noZlm3HZemidtNals58jefeepG//udZnp29i53dXjq2vM0zb73Bfa+8yuNvvMk9b21iW5sPb0c1O1a8w5NvvckjM2bwyrINrKz10b1rNe8ueJv7X3udJ2e+xf1vLGDx3gbaDSLotSv5ZNTwMk0b6S5PpzdRIwQ+UB91Afsh4rWuR6Cqvx+qiD1hsT/7+LT76ejo6Ogc5kQJ+iJkDD+Pb/zsaf7abzGzH7ycEef/mEnffJ1ZIi69zga6jc2sNw0nPZDJ1IQashI38+auKE0+B0nhDZSvupdvfOc7TLlA4nl8PTNSfsglxWZKXCH8+15JMeBwdbPt/df4zdUXc/RFF3Djq4uY2WhnXmk7bbsdDP/eL7ltxbvseONu/p7Zn8nhAP6IiE7zUK699QEWznuPzY//hQeGORhqa2Rzo4MG6/m888LLVCxdzMq/3cAto6xs2xThwst/xdpVK9n+0lPMn1JLYaic1a2qRzp+OTo6hwAxAduH02gdTkRN6ute7bBrBueddTmDR57J8LHXctTxs1lS6yeakCDB1bQseJBX3q9lTZNNjZ6XY2TxlLJw2VrufrWSQEhaCWaLpG4rHTuWcMdJ9/HkKzvZY5T4dQPw+VGNL7MVEpJlSYr/dYFVElX+j0alOKuJ4N0q7dWG2GEaNkl7qxyrSryaMUHl5b541OIElxx7cANP55NQaWVRaXlgfkg6xl+f1vLD/DH5YVf5IdsNsY1R9SKgy31AXBKP84DxhyrPXCrPevJLLYmySDz7xgl+XZD7lfSy2czamMVP7CRUiOpQ00+ZjUYkRT8jKm3lPA6LZJepJ7t0tDyQdKlbwpoNYuN3ZpIy8Qf844//5Z0//5AnL95ERXOYjSu3Etk9my7PRs7/8RWc+8CbPNKQydpNVYQ9HUQcw+g36jIe/ts9vPD3v/HYT77LD4e5pcoYiByUsVG83S4GjT6LW//+JG8/+l9e+seN/PjUUeTurSCxbQ2PP/dXpn//T1z8yyZspxdRcmomUb96r8Uo1c0pJi+BJJdDqpVBqkwYv7j9QMRBbr9c0gpTcSTZsXpM+LojOBJTyC0sJKlfDvlWPyYRw56w9srUYYiko9QBkzURm9gXW3JSfJywA5vVpE0ppfLTaE3A5j4gPEn9dss2qTvaHiomFZdRzJGEHxSXS4vLdJCRk99G2WZ1YrNLfZV035+lUWlYyPntck02k2bCYkHqLCaJ2yZ1zozpwOg+DpMFi8l48KwVRxJ2OxQUwOTJkJMT3xjD9HtB65p1i/Po1y+29FIzSz2Cefrpp+nfvz/HHntsfOtnw9u2g0igBUdCpmiT2Fu7fYNUTnMbrau38dZ9G1gnziG5XxoDXC5Soz6WZ6aTlJlCSbiO1nWvMz86AVdqFoOSpYmsbIRnG0s2tTB/t4tzj0rD7BBh1bGTts1zefnlGnYVDiKxpB/D3GrKj9gZ+5ZYdYuE/WKQGuXe3LjShseCegWJO9SNT/LHSFib0/R/e9IviMtOsHYHO956mmfeWMk7sxaxYWcDbcnFFLjEqDi66KhrZNMCMeBpDuxieHocbsum1dS2eugUg5HUupXXXpnNK6++x9JFq1iyYBnzZrfR3GmncGQiFmmA9LktUG+fi1Poat2L1ZUnRjIvPiNB79JZv0rSwE9C+mDJH1VQexFxhv6KjZTOfJanZq5i9tuL2FTeQWdKf4qk+BvtXTRXNLJ1aTPOLCdWMcjKBaq3YFvWr6C2U+7flUmSWG9DuIzVcxfwyH9nsXzJaubO7sQnzrX/8GSMQcnEhi2sXjCfJ5+bx5KFK7U8Wzh3E2tWt2DJyyLRbZV2TC+WP7GBauo5v6dJqrc4GEcmVmd2PPCL429ppnn9+yTn5eNITdXS5FMh5cYY8RLuruS9HV58IRPZSZb9T5o/iCpnwSDB6kqapVEdsNlwfOp6Kk7dGBD30Mz6FfV0+qO40p2YPvZkXw7qDWpPcxPe9nYS+g/QvvbUm5+U9TY24KmuwiKNLzXHqEnS7MO2TVkIEYJhD3V1O1i1fjZrSmvZXd1EY3cb9VKmswaOwrp1Ox1764iMGYWvs53cAcMpzCvBXbaWtP7p1LfaifjTOPOSU5kwcgQl2alkWwOEparuq61SFpXfi9RuZHtVFYsbIpi7Wykr38KeBi+2xCEcU1DFO6+/zisr3mdnRYvkdRnGohLSxK4UNK5nb9JAafM5SOpuYuOGOjIGFZLllHJRs4mnFy9nwbx3mbu1gWW+FI5KqaNsWynvvD2PBStW83qbk8ziUUwukHpm+N+zcahZIjprawn4/WRPmSpFsHd9drCrC299HUEpAwlZ2dpUdB8/E4X6AIZTcipM19YneW3Oe7wwZwVLV61l7hIfpqQEEepJGLw+Ona/xuyFc3nhnZUsXrmCRSuWMndRFTsqrfQfmYpdstxosBMNtEtcT/HC7MW8PHc5S1euZf6yWoIJKSRnJOGMxF9eM9oweevFJ63koT1WSQc7RYkmLW8NYut9NYtZv2MZLzTlUZxoIdkmeUxIrrWZza/voaYhgHFAEvaw3IN2Lx9AlQtJa0tbNRV+Ay3YSfoUileN7W4rL8fn6SZ76tGfq+40NTWxadMmkqV+KH2XKjasz1Dlx+GAlJSYTj2gPMUErArIz+9V8ao4fASsKpkm6Hqf1TNLeeipHH714jX8+off4fzzB3HBuFr+uNZCoj2Z47J9dO9dzzb3UWRnZFCcJBVa1Z1ADduqwpR3JXPWhFTMbhPdmzZTuXQt4eOHs8eYiyNiZ1qJMoaxs/YtKh+PIAGrvkUfqmPvqlnM+M+j/OsNMbDzV7KpqoO2lOGML0qSStRM9eadPH9vBf2m5ZKe4xJnK+kglXzXS4+wsS1Cc04Jgytmcs2fXuWxF5awXvJo2cr1vDenmw5LOiWnFdFP7uOz91R9Rg5rAavKltTDYDU7Fr/Oi4/8l3/N3MrcBSvYLEa3K3UYE/snkJjUyO6VO3j1oRqKTiggJdWOKaoEVYAdz/+bDV477YUjGWRqI7pqEfc9NpM/PDmb99dtYf4cH+2J6WQfl0ehpJVh88s89fTL/PrfK1n7/iaWr3qfhYv2smmHkZJTxzJABLLb2IuNw0NVwBrN0sBqxt+8ltvn+bDY3EwYkKj1QRjlmtUcqUajEp49u5sIqc9uLlxOZXoaURF7mdrOaj9ZNHsvibbvuPh2+W2Q+zaaugmF9vDcQzvxWlwMGJOjOVTtwVPsSOHA42JLPFjDoMV1YHisBH3erDo0BKxCtiUPJDlSS8q2e/nDy+uZMXcR8yuCbM44l1+enIKr0kNNRzajvnkqV512KqdPncYEV5is2vnUZA+h3WslJeAlpSgDi9SLqD9I6IPVVAkVsX8W305Wvb+M+55+i8VrVjFr4Vqaoikce+FFjMoKECpvoWtPI770Lqoq60TcjWHs4OEU+StoSysmNclFcshDbU0XGeKTh2RHMXds4voHX2auNAqXdVqpKxzOL462s/2tOTz71Cu8VlbJ+8MvFR84jOnZRikL/zvXDikBa1DjiH10Nmxi3cK/88DMZTw7fzNrN5WyeGmYcG4GOcNzyAx7qZx3E/e/+h4PzNnJ+i0bWLlxLQul8b273kXm0fnkOK0kya10NG5j3uw/cN/rq5mxZAtrNpaKIG4ilF1IdkEOhc5YcTFZzQQqN7L57Re4otRGltS/43KTCIuCNVudtK77D6/Ne4oby4qY3j+HQclKnHnk2D3M+MkKdrcaSD2nhAx/GLOygfvqj6pPcgKxBdGgn8i2+awOuGlwZDHI/r9nfjjsBKyyUWo2EHWdHyhLvVuyDleUNRUB69+yFUOWh4lPn8vQBEkaaT0RToLi81h67kB+PNROQyBWUQ400AejQtRSxq7F3cz7x1CGnT+cyYFWMtaV02kWB645DZ1PjVRepPFS++adzF29lPWXvMGC5W/ha53LnDvPZ/qch1i8t4XKgJruxYTNaSE2haKqyrHqbLLaMFvMImiVUDAx9ke/5k9vvUXd9lmUlb6Ld/HR/PD0dh59qx2vX4752j2W/gyoxp7JTOUrN/NO6S7KrniH99e+iadlLq//9Fgmvf0Q88RxN4Ss2C0mredVbG5PVgjqcZ7kh9WOPdoODcu48QcNmNMuY3XrEvZukbxdOJrBgyr4zn92ExCPrkTvyJPP5s6357Fj45tUlb5Nze6n2bTkWi4b5iSTwAFdVkc22vMBccwOSVtLfAiTEnUmkwWzOKfYIutSb0ymAP5AO+s3tOPpDONQn3kSMWSWPNT2U8epGGRfs+TpvuMtcqzUoVgtMGK1qSEEKv7YOUxa/PE6In+VU1T1a9/xmpPVAjWna1Jx91yfXLdJhf8vT3sYEPa2Ys2azMTvz2b5y29RMX8u5c/+nfXXjmOQNYUhJ0zijO8dyxCfn2BnF4H2VkjMYvAFN3Bq0SDOHd+f486YQIakh0nNbxqP9yBEDanGbiT/VC66+h/sfncWO2e9ScWC+cy5+xYuzQuIeRzC8WLT/vvm66x9YQa73p3NEz8+hzMGWEmbdi7HFaRJQzGKIzGb086fxkBp8PkNOWRNupK1r7xK+cIFVP7rVhadKQ0C9zjOvvEvzFy0gD0zXqTqyvGcl2sl4PuUjaxDCLM1gY7dM1kz81r+7byDq2+fS9uiOex88wVan8ijtWE91zy0lnYpn/7wWL5x6W95/nUJf2smO99ZQPsb3+dv32zgyr8vY1G5B7o3UblrLd/jj/z0T6/TtWguu2c9S/Urp5LZVM6c19bTLuU7quqYo5Ky7d3MfaCYq7wLcIV2s6jdotlCAyHClrHkRDM4rfpW5uyuYkmrI+63xGaqqc5s+4c3qPmoe+qeVrdVeZFtIWn4btu2ke7OZpxSR+M18muDllw6MSLBkKRIBEuKA7HfskGNeJEiYXHgFAOQnuLEJUYmIiIo1ttxQHHpaRmolqDa3lDBhoQIT108jYn5R3PhgOWkOd7kvT12fCEJ11P+U6ISSuXLTjbuHkE0cDpXnZJHUV4auKTFOWEMZ/zkDEYnuEj0iVGQpI3lygF58yHEkKdlkjtgAOb0YhKyizEOcpGaEKKpI/zxj2N1BMkPg0+W3azbMQGn6SR+eHI/snJSMbizGHH0eM645hRGWK24/ZIfcoTKiQ/lhqo/4jSCHa20blmF8/vjGHnBRCY4EkjMkNb8mOP5wTHj+dcoO51yys5QGKc7kX4DisnIH4BD8iyxXz4JOUlYrcYjQgx9ZiQNzdYI/oZy5v/ncf7576u59KbzGX/RTzn6snm8WRbA07WdPYsf5ndLnuO7D8/nsdeW0LjrTR548iHOuPJyLrjzAV4qN9C18Uluv/NaRp5/EVMvvZyJl7zKAwsaaU+0anlndYepWPcED9z6DaZ++7uMvuNdHtjYLY3FIObOtTz5uxu46NyLmPitbzPp0u/x59ml7Ao7iXibWfrUCt565Tf8/l/nMvHiKxl30QweX96EJzkW9+GN2HujiA1nGmmpaWSkKT+RRJrbijTbMNuskkbSWFO7KiGqBIn4CrPDjU3Kv0NEv02Ex6dyByYbDlcy6eocsqhzpSa6cWoDNCUeVwIpsi0tNVULT3E5sEuY0eaQc8k5VRwiemwOuR7NXxnl0l3a/hnp6WQkJ5JmUwdYcEhdS81Il3hSyHBZcUgr5/BrH4rIM1dQ12pnR/k3uGjsQCYNzMCRlExaeia2YSfyq3OP5Y8nFuJUvj5ilsZ2AqkqDVXaSj5aB45gyKASruhYRWtTG9URaZSLgMzfEyRNGiLmQQNILR5E4qiT+PFFU7n02DzsQaUBJMFqy2h1eCm98FguHZsN3ggLKv2o/k6V+sFgmNTs/pxwzhVEH91K5czNtCXb41ce+9co+WayRymf8xf+fOM3GHvR5Uy48G/8Y1UjjdE2AqWv8tMZS/jRr97kPw+uZLuI55CI209Vno4Avi73+SmJe0HVO6D9UPI19qvb5yEc9OOSVpDTnUJrIEKnPyhlTMLVLtLCVo/KIkkJUnatsHMte8ve5v2a+Txw14s898Zsnt1Uyn83t+NXBVw1w3Q+JUoGNdPoGYDVNJxpebIeFBHVIUtiOv2mT2N4tpMkswgmcRCReK7FUjj2y2BUeakaJFLkxXjXLHmbF/75Dx7++9+5/557eeAPO1i4ycG0EdJ4Ub2vh5+1/pJQ6anyo4WG7iEkWIcwOVsaGH6VH1IH0vuRd/xUhqdbRdyGUU8cD86PGEZpKKqsCHkDeJsaSJ+eR/YQEa6eLjH0PiKWXAYWD+C8MWnapzKNFjs12zfzyj//yr13/ZMH7/4b9z7wAo/M2kOTV67na9ljrhy0EX9XJXvXvsiGeh+d1jzS7AH85S+wuaaWcq8Tq81JoogY9QJPoqGTrsad/GdHOzURB/3EYVoNHmrbRAzbUygqKCA/Kw1H81uUVZeyrcMmjYMopopKceBeWq0ZpCYlQtWbYt9Ws7HZTGdjqzQmE0nJLaB/VioDLA28u7eOd2u6MYbbqFz3HO+X1VFDP9ITHSS0r2Z9eTkrGqQ2SrYd3jknVx8NEw75pArEF7+kv4gT1Z8aCasw9fsAlI0KBcVWRQhFItoj5U/V/pLzhMQH7TuPWgI9Qw4knqCc98CwoNhDCYuGe+yiiiMaux75KysSFty/v7pu7QC5LhWX1EO/+DV1L6oeH175pK5WFm8VDQEbO10nc3w/GzkWuacuj3avPksRU0cM5oxRWdhUr4Xcd1jyxSdpEZAl6OkWS5eOK6mAC7MaMIU9VBv6kZk3hOuHtFM5+wX+88e/cM8/Huav979PvSOJAaPyRAyrr6gFadlcSXOnh/6XjmfccSdR4hExumM3jWKrlMhE+8R3BnkjL+aErFb2NOzkgW1ebdZOtajGRjQo11qxjGW1fsqN/SjJz2JAATQt2UPpe9U0O50kOO0kJ9hxOCyYtXz9+qALWEU8z002af2EjHgr29GelphVa1QqtK+dJYu3s2VnPbhdJGcXUNPgpaFZnK2aK1a1ZusqiYY82HLTMUb9lO3eSdfaZbjfe57f3/ZX7njVy4sb01i1eTudataHnh5bnU+BMkbqsWdQssqPJ6iEqNos/6rGQKc4WJes29Vb0iZp4YrTkD2UcNIy16CMu+RT1IxFm7HASO3Sd3jrwfu4/jf/5KZb7+X//lnPhrIsvjXZjUPto3fD/g8kP0wB8Yd+vOED8kO99dwVxZwg6zaj1AXV8yMOUCWpyg5tT3GQAfWCncShhjWZZA9PiJB6LVo1CAWjONaIxBeW+pUk626pmzXbNvPWP+/hN7fdx69uuZfr73qJO94so05VVs3if/3QZnqQOmFzNlM87Vfc8pvXmP3AL3jkO6sxemvYEx1BydTvcv3483jw+9O5cnqh5JyLnQUnccOt93DfTZdzVq6H7sxT+M4lP+fFO+/knzf9nDsv2EyWbSelVbHHkpEddbiyT+OMX77Imw/9m1mnVzM0tIY3dlpo9+Zw6g+u5La77+Dhm3/Jw1efRYsxwILyeixSZy12uZbCCzj7OzN4+9G/Mu93Nmls1jPn/c7YUIJYluvo9C6qYHV78RKkKUMMjdh0g9gqrUCr4GgQb7cHX5c0vtW69u/BRCPqU+lW7OnKd4gdM2aRkj+aqy5OpmPlTO77y9+46R//4tf3Psejb21lfaWfoEnsn6GVNWsr2LZyD4WRRnZGMjHt2kPKlhVsCJrwRqXxKfZN2cGgP52zfpGLr7iJ/777Pi0BdSVq2I2FiKeVllXPsMA4gcwz/8iTd1zHI3+YQs7K9Sx5rpKqod/gttPHc+/vT+L7V06gRPyhWe5Ta6wcKShRrjSTmiXrA+8K6Cqqh0gY64ih0Ohm3fdfZXN7gJAtTUp1G2ydwU+uWsFfXm6iLkVEbloKSOH07WkWPy6eWlpBDVvexNewnkEZDiyty3h+3WQcU//O+p1vsnvzG1SWz2D5jefz69JNVItzbo8NdtH5VMRET1gEj0HkkLXnDRL1mEZaqLSUsa0hQKsnBZchgZxIC23GEO1q7Kx6a9bQQX15NlFvOtlpQS2vh1x2A7fPmEnN1pns2fQWdbt+xSO/H05ed1DaLOp8Op+M5IcYd4NBDPuB+RHohOZyShvCdPnSSDQ4yI600mwI06nyQ2uEdFG3tx/mUArZ6WEiEWlqWEXsqnE7PUlvttLU0sauPXs1A+b3dDF0+mn8fuYctq2X+rRjNrUL7mbtrRMYkiDOKXCwYfv6oBoRWfL3UkbmJ5DpbpKGgIWUtGnYbSnSdvNrvX1+sTmeYAhvMCztPBMnZaWSphrnHvVySBJHFexm9v03cNykoyg841yOu8/H7D1ukm0RoiIyQ5MmUDSsH0PNbQS9XnIHX4AxcRQV3Z1kjsij5o3fcMOlk0g56Tyyr3qITdvqSXerSYXckr/fY1huASUZTUR8IcwDxDYanJibGmO38JHSQUfnC6KET2oqyQYbJWWteJQdEVvVU9qMJis1TfVU1FZq47k//H1/9QjfR1BsWn1ZBJ+4Gq1DS8ou7sn84M/38c6cOex5+3nKF3yXSct3sPZPi9lqlbi6yyjbtZGnX3+eH196JiNPvZCz/3MPf9u0jE1lZoKh2Bhz1auu5GZbv3P4flolt/r+yOPlZqp8VlyyQygSoLZlA5ufv5k7rj6F9OPOIOeY/+Mn2+bwprWNBrGzHn9YtF2IgNjAWCfBEYZPGhh7xQ8sWgRVVfGNMWIqaudOmD8fli8Xv3REafdPiRR09XKPaxhjjhvBj79TxR3X/pKpJ57HqSfdyWk/6eD4H0/mWxcWkhp0Q+YEzsmbRelLP2Xq9Es59cTvc/zCwWzJOYPvFLTT+f577ElMxThyHMU52WQV5pKUNZgJQ+wcNWATzy1vZmOlCKsjduK23kQpGhEo0RIGpy2gK/ga96+xYHAkiRFJFrFUytJ//46HF+1mfVMySU4PmZkvsqMlSGs4G23wVngPKzqsVPoTyDXHFJJV8icjN5eE/Fwyi3LJGpBCUroVk2qh63wCYh+i6q3sAQzLmEVd19s89L4dg1vlRxLhqtW89+/beHh5FdtaU0lxt5Ce8RKlTUa6EaFli2IK7WFJhzT6fHYKU92kDBzCrj+tYcubewk6M9Hmgg2tZc4Tc/jR9VtZH4iIzopI9CkUDhtB/sBhpBQNI6toIOk5GWifuBTn9PXMOXXXUsZJxCYNALNRHKJsMpkc4pA1D6ntEZE8c7pkcZq1sZBOcY7iQsUDdIh/KOeN13xkjruQ2/7xdx7//W/43UkwNstDMCJxKJ+91U+oQ/bPTMGSmICvZgl4y3FFQuyc+ypNRWdxxs/+wUt3/pqnfzCd7Pxk2oJqLJ4Xo2EeVa2tNHkyMbod0LBNBLUXnytRrkSh1zmd3kaVKSn7hmJyHE0MsN3Pvzd1s6s7CWtGGrZEJxbvEp56bAE3/Hs3O8wGAtIYt9udJCYlY01KwpKajjFQRXvNZm5pH4IpKZ0B7cvYtuS/3PG+BU/qQPqNGUHe8OHkDB9N/9wo9oRu2gN+dq++j+5hwznh6j/xyM2/4u833MyjN13K5ccNYvWsUpq7fETV2P3YxRKMWigZdxwTi8fT8Lu7mVG1h5V2G3aDiWRnLv2mfZfzr7mdZ//4Bx6/4y5euPdG7v7pMYy3BDFFTZjsDqnbNm12kCNOVaje1/b2mHjt6opvjBETsHV1UFoKO3Z8TQWsQgp7JJmEkSWcdu1QCl1i3js9dEfsRLJG8oOrRnPWuFSsfjH/rgKOObaQkQMTiHarFlqAhMFnMHjYJLJTJP2c+UyZks/4oS7wdEO3NN28AYzpyRSdOJgcq1SUD82VovPRKEMkxTScyuCJuRTkNFP66hM89ODTPPf4Yzz44iLernPhEhGTYDJhTXFSPMHM3jfe5tm7HuW5f7/Ek/etojIrk5TB/UhTL+qJ0/VKq66rS/LF59UeM9EViD3+1tsU/wPJDzGYRNMYPjWX7OQa1r/0OI8++EwsP15bxbzGBJLsBpxGM64sF0WjYNvzr/Pk3Y/x/IOv8PhD66iXRkNqYRop5gQcxVMY72ykfOlb3PHkkzzx8DO8dPcSFrzfhVkEqpq1w2w2UrttM689/CCPPPgIz/znER5/4GGeffwl1uz10hGSRs3XJO+0KXSiYQKhMOGI2C01NjLgJRiOENYKsBpjKetiy8MiUg2IswyvY+6sdcxeWEWzKUK32B+trWZSYyLb2bZ6uTQyGmmw23HarEwdXoLLnUBNh1fSVepFpJqdq97jlUckr595lts2eGm2ZXBKltSl3cuZv6eT0jYRyIkuLGNHMkganbmtXXSpTJHGR1vlIhbNfYTHnnmZexe0EnYlMWFgcnwspo5OXxAlFHRJIzePkeNT8O9+jdde+y9PPPE0jz39PE89upINNWEs6elSh9TUcDVs3zCP5599QsrpMzz21BM89fJCXt4dJnPyFIbkJJOlhK6vhdrNT/Pk8//hiX//h0cfeozH/jWDLVlu0o/LJ7WrjjUvN2LMHM+ZV1/JlZd9n6sv/z5X/OBqLp1SQkbFU2ysa6W8WwRsWI2FVi5JfFHWeHIGnslRUte20cFGfxCLLZHMoWczbWA/RqRFtOFWVmmoGsIJWA0JJLpCct3lrF2yjNnvbWaP30hQanxM2B0hKBsRDMaGECgxewCx+1RjPdXXDtR8d19jDGGfJFYi9D+b/77wAMuXv8ySJXcz+60TOCpZ0qhDEjCqHkEHcU/5Ndf+9XnZ52neW/AUK2+YwhXFIakySSQc8yMuP34oZxdJwvc82QxJ3KmDyJj6A246OYeJOeKG1ATtOv8bNX9p2EPC0T/juKNOYfrmu/jdzXdw6RV3cPsrldSfez83nj6ICVkiRFOKGHT8tdhmv8Zzv7mJS695kB/cXkn+lEEcd2IhBCTNLU6SHBbcaqyrzmdHBBMRP0nTf81Jo8dz1Jo/c/0v75T8uJO73vPSeeF93HpKPsNSlFEezsBpP8Q04wkevflmvnXNI/zkrjqGnzKMyZOzxSiJ3UkexffvH0C6exV3fP83/Ognd3Dx7U0Eh0zhmadPYKzNRII9jbpd23j9L7dyzc/u5Ipr/8AV/3cH/3fTvby4uZu6gCXWEXmkI8U3ahAHZrKT7LRqU2kZ1NvsSU5sakosJWgNJoy2JFyqoax+m6WBnbqWGU/N5+mXy6h3J0oDw4RdhCxRN2ZTGqPyl/LuG3/lsquu5ju33MZ77cdSZxyKp6sDg9FC8ilRmive4cVf/Zpr7vgDf26/AE/hNzi9OELRoH6smvkYd95yNef8/i7O2Rimf2uYs4NdNBvcRAwXk+5dy+b3buDKP97HdVuGk503hO8MMccm7NfN4Ee2m9W2g7fHHnPHlg+EqW3xnwfzcdu/HkSCHTjzT2T4iXdztf1llr10O5f95lauvvNvfO/hCENPPY4H/jCNweEwyUmtbF49k3+LjfmxlPEf3/pbvvfEBl7uGs2MK0YxNcNENHMqJRPO5yr+w+tP3sFlt97B1bfdyQ9uvZsljjTSpgyj2NdI9YZLyQwVMiCxjmBrO4HWFkL+fqSkJvLNYXPZ09JBhSdBGoluHKLC1CcMIl0WEjMGc9EdVzCxZABpxiBmu+iJcRcx3b+Iyudv4hs/+yUX//J6WR7njmd2UGk1YktpZtW7c3jx+UW87zGJi1Pja+MJcKSgNYQlodTfAzBIyyOqDR1QPbAuF1x4YUzQ9gJhKRSnnnoq06dP55Zbbolv/Ww0751JsHMXqTkjpDWSLMZU9f70scXTrINa4uvqfB+0str4SvU3tqrtoy3ye18ix9f30RPnB7f3BXIiEX5Bfzut9Vsw2LLJGHhxPOyLoyarDnobaC17U3SDn/TCaZJG4o368sakAEf8HrztrbRIeyAkTVeLzYEjJZVUaXtpya7EbiRAe0M7Xf4QQXHgBoONlAwxFiJaTRFpwQW9tIWt2ryXbptKp1j0XypGcd6BLur2vIcrczIJWZMxWdWbT71L9Yb7MEY6yBl8tlRI1XrtxZtV+eHrwtPeJvlhkOyPYnY4cSalSH7IeVSGSH5EQ37aJD88oTBBKS1Go52UzAScIkxNWl1W+3npaPPQ3OGTcBWXk8QUlxh8K0b1tCLooaPTQ2uXmvkjdnplulSPREJqOm4RZBb1EllvIfU7Io3OjqZthKJW7CkjcKePjgd+QeS623fuYPt/H6No8hRSi4ulLATigf8LJUjCRMIB2nxG7FYRosYo3i4/JrdDTLcZk3oBTsqWx+iSdQt2qZ/erlZaPTYsVnGSiQa6QzZcIn4dYurDUicCXS20ecN4pYioF6sSXG6iZrs2y0GiJYyn24ff4yMYDOKTfI04JY9dDlLMkqf+Tpok37yBMAaz2Gc51h02keRGztvIu3e9h/WM4eRNKCK9Ra7dlkhago0Eyf/o51CvJouFxu3bRFBXkHPCSSQNHITZ6YyHfnFatmyiaeUKHDYpp4WFWBMTpc3WV2OslRg1al9VDko5j2gvGUkBF/tgU+MtpbGo3lFURd5ksWtz7WovS4qNiwYk37TpAdR0XQ6xbZLvYT9BbSCkbJeGh5or1EyAoMSrRa2ds2+JiJ2pXruWzo4ORv/il9ocwb1Jd20tLRvep1vKQM6o0TjT06WuHtwzdxDKV4sdCnsaaOkO0a2GtkgaR6MuklPFzqgvNoptCnmbafcExW/IIVpCRYmYHNidbrIT1JRvkoAiNaOSziFPI83dUu/ktGpCAWXGXEmpUm/s2KRx39kYwpRoxeZSPkcdJ8h1RENeQr5WfJYMrZ6aokHC9gSpw6r9rU4awRD2UtcawWi1kpxs02YWCEr97JT61xmKNUgiETtO0WspyVJwvE20dko9NjlJTnFr9kCi+1hLb7bZKFu0kLbGBkZff+Pnqjtbt27lmWeeoaioSNN3xWLD+gwpR5o+3bgx9jnZUaPiASo3dD6MKo1KjKnugY/rItCE0gf26dlNHa8t8fV9fNx2nU+FpLPR7saVX0L+kGL6jxhI3oAc0qTdFXusqhJWirTZRdKAQnIlvGhYfwqHqk+Nqu9KK08gDtaRTLI4ULdDGbFY1DqfA5UfjiTcBQMpGFpMkcqPoixSnfFEjeeHwarGufYnd7jkx/D+FAzJJMHRI14VUaJGN4k5/bQ8LZS4+o/IJC1DxKuaZUJhS9LmfS0cXqKFq6VI4isYVEhKgohXMdpfDyStlKszi1NNdogINMtvK4mZyThFkJrVWH4R9SZ3JikO9SKIpJ/JTkJGf/oPyCIvR/azJpEj9UHNH6pMl8Eo+6UVUlBYwuCBJZQMGEBWWqrmtNNFZErik5ScRraaYmvgQAaKsxqc6SbdGkXcNCZnJvkF/Rk0SML692dgSjI5mYnSkJH8E+EX8HiJWtNJzxlMSbHs1y9RGjgiXpWi+lojwtPcQXvXXl6fV059k/qymoipsAdT9UJe2lDGG2UhbGaDCCETVcse5eHbv8tZ/3cdp/5jMbPKPdhE4ERCzax/+bfMXDSPZe0JmsAxSp4b6texe90M/r6+kyoRW/YjrlvuU6J8taSKJbGQPLFVqoyrKfoGDUwjU8SrMagaJwasCfn0yy2R7cVaGR9YIvsWZlOYEptKTpkrNVxHNQysyQPi9UXtVyzHlJCbLI135YdE9Kb1F3sl9cdyYBmXY9Vnbe1ybJq0HBMT3DgT00iUKqZqmarZSnpGLEnk56eQm+7Aqo6PGuSYfuTItQ+Scw0slvMOyiY/U8Sy7G9LkHpZWEBRbjIJJm3menUVRxZKa6lGivp7ADEB2xPYZ61MHZ1eQNVM1Yvo7QY1frVT/kqrVJukcB/yW/WyitPUwtV+qkmt7ROv2tLy1SZPVHpWO0bnc6Hlh6TlQfmhpjqJBceI54caB67CO+P58QHxYojKPupt054865R9DhyTHJHzqPHK+/I0Hp8av6zy9uDojnDU/YZi83NqDecIIX9QxKg4QK3XW/6G/LExseL8YuEe/JI3fm2/IH5JM61HTqWvCg948Us++rtl8ci+gYDsEyGgNd4jBLV5QWWfnnD11rOWPXKusMTrlW09YUGJX84jl4DJ5iJ/TDE5yeLMuzsIqnBfMBZvT95+bVFvonvEVNWxYkMDrR0BrbfSEA5gatrE4r31rGoyYJBGScfeteys2MnW+kaq62qprdvFsp3VbKzukmTsZu/mOcxdu4klFXKspKuanq69fitbNixh0R6vNvot7u2/psTGhR9UxrtjZbzny5hauE+FS5gWLr+9ah7cA+fpjdWniJqfVYtL7RffV+qjZvpEqAY8Uv5Vj/pBZVx1mMg+cmxAKl9INFc4FPiA+ZJfqn56Zdk3q4DU1aBv//k86q9cl1RAdWWx+1LXLufcH9GRgxo64HBASkpsqOsBxIq06uJX41+t1rhF09HR0dHR+bwop2vE5srk2CtPY9KgXHJE1B7cf/J1R6kN9Thbvf1uwhTvIdWmczLZcFrMuGwmQt4ONs18kfq8b3Dunxfw/vOPsvH6ApK7anl+UbU2X6hj4Al4Ak6ad+/S5lw20EaFJ0JFdxJjrAbUl9F1dA5LLNIay8qCoUMhLS2+MUasWI8eDeefD6edFlO7Ojo6Ojo6X5go0ciBPVg6H0S9lIfVicvlhoQEzG43BpcNi8mMIdpEgGpWcSpFCQVMdnURCRuIuiby3ekT+cn0bG3MayA6nmHSOhgS3cFWiS7QvlWErZ1o+lhJe1G02mN0HZ3DENWxmpkZE7CpqfGNMWJqVXXLJiZqlUfvgT3C0LNTR0fnK0S9qKVeuNNF7EdgtmLqbsE0+wFuv/0mvv1/P+G7v7yF7939Oqv3tpBgV9Pc+2g3Z+E0qzGP6oWsCH6SyM5KJSfbqb3TFQq7GZwZZkCmh9W1Fhq2e7CbIXmA+HRh33BzHZ3DDaVJe0YJmNRo4f0c+t2tWs3Ta98XRrdghyh6C+Prip7zhyhxU6k9yu/rDh1DbC5QQ1M5O3dsY9XmLazdup01e+pp9/rFX6sXiGy4OhrxRNTXIR3YrBbsdvU1uxoqtjXhl2uMREJk5LtIznGyt7SFnWUWzEYLRZkh7TRfifXXXY5OH3PIC1g1xYiaOEI9htL57MTSLTZVS9+hW6rPj552X0/U6086n5u+TLy4ZlW9xn3e8A/6CCdkELroNh7+z3PsnDWTLS89Sek9l3P8kEzafCJEwykUNOyiob2Brd4gPm83odAu5r+zmjdf30GHSb0cFCGcWUA0MQXbtkVsCloJmpIZpKaZEL6Ssqa30A5ZjhTbc8gLWJM9FYPZhd/TJKkulbFPhdgRhLTK1UM7Ld2MNsyO9HhA76BskyaK99UE3Vp9LnocZF/19Ghj3+Qcer35nMTyp3dzR2KT/3sa5R/+BrvOp0LLmt5PO6PZoi0hn5eI5FHf5Y6KOUokGsYXiMRMgdEYKw/RAL5giG4RsDZ3Kqd/P4fyGf/k6qlHU3zWheQe+x/e9rgYeME4UsNhwn4fvnABiZEwY/x/pinJTqMzB0PIL/FEvtSPRURDYYwWC1aXu0/L9pd4S0cWWvmSMiGNG8Nh/s7TIX/1jqQSzPZMOhpLCfo7ZIskvtEsf0z68nGLlj5GQsFuLd2MliScKYNjCdpbSPxmW7JUAj+hQKe23oeW/sgjbtiDvjZJOgsmi1tb7220jyMYLIR97bENulj6dKgPpkiB9ntaJH/sko7Jse29gWSByWYj6PUQDvhjPX06nxr1IQMlLr1tLdjT0jB9YGqdL4r6OIZy7N42qTOSN709Ef9+ItrY1QRXPqdMziYl0UTY6yUQNRPKmMjpQ3I5McdE1GAnceBIjjr2eL5x6qlccPJJXHjqMZwxpZhheeqTom5GTRxMQU46qRLXmKO/yfSh2eSmZ+FMG8TJw9ykOI19PkumSjOjyURnXR3+ri7Mrt77uMSBWN1u7UW37qYmrRHYd/lzZKI+mhKRRobKL8PhkHaq4HaKxqivB48nvjFG7Etcav5F9Z1ZpcalYPSWk+uNL3Epups20LjzRRLTinAm9BPhpCZrVteoFt347yeWHipFQoEuvJ21dDTtIqX/2SRmT9H26G3qtz1FqLuMzIKpWOwpsTKkv/H6yUgjQ83TqfKnoWIZ6QO/iTtjbDywd2mrmo+vrRS7zUlixhAx9g7ZqkqIXm8+nlgZ9nsaaShfQkK/E0jInoxJS7vewdfcxKb7/kFqXh4ZgwbjSE7eL2R1QfvRKL8kS1j8VdWa1bSLgBl7483SGOhdAetraKDp/XU0rV5F1rBhpBQUaF9F0vKll/NGTVxvFJtpkehDah7RcFRu0UDUaMVmFMcdDeNXw1gNZmxOG6gvcalrMMhGr5+wBIYN6nhlU+T4qFEaWy6MYTVbQVTCTFhMYUJq3t9IbJL7XqdHL8h1BaVhUbVqFT4R4skjRlBw+pkilFRjsHdp3VrK9v8+SsHEo0gbUKyJ2C9lyMfhSrzuKMHfWVVF466dovUSGHrlD/fn32fgS/0Sl5QlqquhshJKSiA/Px4gl64J2C1boLw8Nlnsscd+6E2vz0tvCVg1Ua+ntZTGHS/KpZlwJuVhtihn0ifV8bAnFPSKOKoh6O8mY+BF0gof2Wc9fN3Nm+mqX0U00EBG4TFiPOU8auJ6nY/HZMXTspvWhlJsyUOlcTEVqzMrHti7hPzttFXOo6NmATklJ2N3Z4tDUU5Qb2R8LJI+/q46Opt24PN7xUGeJwJzYDywd1A9iI1r11C/dDHuxCQKJk+JOWCdj6XncWfliuV4PR6Shg4n96ST+6QHzifieOfTTxDu7BIbOpDM4cPFrOl27eNQPa8BTzfNe3bTtHMnjtx8so8+huTBQzRB3tuo/Cl7fQahtlbSivqTPmiI5E8wHqrzISQPVC6E/H52zn4Hc0YmucefKPkz+NAXsOpTsnI+Nmz40KdkYwJ25crYDi5XbD7YQ0zAireVwukn6G0Ux1Ipf+uktSmqXNEHleOwJe4ADSY7Zkem9ok5qyMj3uvWN+mkvizibd0hAmkRga4yrPYkWVL0fPkotA6CML6uWiIYRRQNIylvOhZ7ep+ml7+zko665Xia1mKxurA50qSMWCVEF0wfJkrA2yKNQB8WRzbJhWdgdeXGRH9vInU15PNRv2IZTWtWE2hsJCEvD4vqTdTrzkcQ1b7i1VlbizU1lYxJk8k8avLn+o77pyESDNIqPrFu0QICLc3YExMx2ayYzBbJnpiQ1lFIfenqEgWrXiQTYdnViauwiPQx40geMrRPGhcK1ZPol3ypmjObjh3bMcrJ3VnSOO8l7XIkoayJGsvt72ynW+yMu/8AsqZOI3XEqM+dXl+6gC0thfXrYcqU2HcL4sQE7LJlaL2wSsBefHFszq1eoPcE7H7CIY+09Or3C1idg1CSRH0H2+rM7LNe1w8SCftExO7E07pNDItPbJlu4D+JSCSM2Z6BM3WIOMb+8a19hxLNge46uhrWEg52igNWjxJ1kfTRqJdq1Li6BMmbogOGdqia1ftppoYStG7fRueePVrseq58PMpVRWRJEAecOnQY9vTefTH1ICS7w34/bTu20VVRLmKphaCIM4vduX84wdcdVVglHTwN9ZpNs6WmkVA0QJZCXP1yMTv6pnFxIO27dtEm9cfX1IDJpJ4sqa163nwUmgWzWEgdPoJEEZxmp+i9z8lXImA3bvyYHtjly2M7KAF74YWHtIDVObQJ+poIepultvQ8otZdcgzNfGg9eTZ3brxX/MtHvXAX9DYQDQfiW/T8iRF3egYDFke6CBX1ycIvN206y8sJeT2qhaNdh06cWNXBLP7JnZe/byjBl0VE/Fh3dRVdlVUiyuwY1YTquoCNldFIFK+Ix2gwhDMnh7SR+8XFl0lARI6nvpaIXIfOB5CyahBxb0tJxpmVHd/4xfhKBKwaQqB6YHUBq9N3iGHXbfsn85WKEz1//ida9nwFeSSmWM+ajyeWLV9R3VF50yNatWvQc0rLkZ40ifNlNy72oded/0lv1p9DRcDGSpsITQIBCOqDoHW+KFJBVCXRl49fvlI+4nr05eAlZuq/fOTc6oUXffnoRf6JJ9RXgLoGEWfaol2P+vt1Xw5Ik/jylaHlib580iL/xBPrMEOVKzVVXmIiqOE7BxArcWoskZqeoLAwtrOOjo6Ojo6Ojo7OV4kSrTk5sZ7XjIz4xhgxtVpQABMmxHY4XFW6jo6Ojo6Ojo7OkYMSsFlZMHw4pKl3E/YTE7Bq/tfkZEhK0gWsjo6Ojo6Ojo7OIU1MwPaMj9DFq46Ojo6Ojo6OziGOPuBVR0dHR0dHR0fnsEIXsDo6Ojo6Ojo6Oocmaro2NT/2B6Zt0wWsjo6Ojo6Ojo7OoYea5tXjgZYW8PniG2PEBGxbG1RVQW3thxSujo6Ojo6Ojo6OzpeO3w/l5bBiRUyjHkBMwNbVqU8rwM6dsW5aHR0dHR0dHR0dna+SUAhaW6GsDNrb4xtjxASs6ppVgaoXVu+B1dHR0dHR0dHRORQwmWLzwaq/BxATsD1TaOlf4dLR0dHR0dHR0TnE2a9Y9TlgdXR0dHR0dHR0DiU+cRaCnkB9/KuOjo6Ojo6Ojs6hgOpcNZs/YQiBGjqgdlCLjo6Ojo6Ojo6OzleNEq2JiZCTAy5XfGOMmIDNzISBA6F//5iY1dHR0dHR0dHR0fkqcThi2vTYYyEvL74xRkytZmXB0KFQUqKPhdXR0dHR0dHR0fnqUZpUDR9Qva8WS3xjjJiAVQFpaZCSogtYHR0dHR0dHR2dQxp9vICOjo6Ojo6Ojs5hhS5gdXR0dHR0dHR0Dit0Aaujo6Ojo6Ojo3NYEROwwSB4veDzaas6Ojo6Ojo6Ojo6XynhMHR3Q2NjTKceQEzA1tfDtm2wa5f+MQMdHR0dHR0dHZ2vHiVeN2+GV1+FnTvjG2MYogJr18L27bHZCM4660NfO/i8hEU5n3rqqUyfPp1bbrklvvWzoT4c1jMvwo7GZhaVVbCpvoFOn1/bpk+asJ+ej6ylO52My83h+P6FZCe4tW0HpmNvcmC8G2rrWSz5s62xCU8gqAXo2ROjJ28M8l+W28Wkglwtf5Ls9nhI33Bg/qysrGJJWSW7WlrxB0N6/hxAT/4YDUZyExM4ujCfYyV/bObesYX/i5qOTt7avpPShibavD7Nrul5s5+IZJDJaNDqywSxbcdJ3vSTfPoy2NnUwoK9ZdR0dtEdCBAIhQnFO3r0PJK8kdpjN1tIcTjE37gYk53F0Mx0XGrqI50jkq1bt/LMM89QVFSk6bvi4uJ4SB/Q0QFbtsD69TB1KoweHQ+Q+qcJ2KVLYwrXLWLnkkt67YtcvSFgFV1iNFZWVbOsrIoajwe/XHKPw9H5MMrl2sQD5oiQPXNICUMyMnBY+u4ra8rhLimvZHV1DQ3yW8+fjyGeKCbJG7s443wRsucMG8yA1BSsvdRo/Ciauj3M31PG+roGmvx+AurT0Tofi1nyxyFCtn9SAucPH0JuUiLmPvrAiycYZGVFFXN27aVNhJFfhJESBDofjcoFh+RFf8mTSXn9OLqoIBbQRyyvqOY9qTvbmpowiF80SNlQ9Vc1dPRc6iEaSw+xK+FQiGyXk3H9srX8KUhOiu+jcyTxpQvY0lLYuBEmT4ZRo+IBPQJ2+fLYDqoH9sILDzkBu7KymgdXr6NdjP3g7GyG5mSRoL7OoEyIbkViHNAV0NzlYUNlFaUiKI/KyebS0SMYJWnWV7y3u4wHV63FKCJ5aL9+lGRm4LSp1reeP/uI54/Sjg2dnawuq2B7TR1nlPTnklHDKUlLje3QB8zctlPyZx0pCS6G5/ajKD0NuzYhtJ4/+4jnTyQSpaa9g+W791LW0MClI4dz/oihWq9sX7BobznPbtjMGmlcnDx8KIOzMkgS27avCajnj4YSjmER9+0+L5uqathd3ygNdAe3n3jcvqdMvU2b188fFy5hU2MT+ampFGWkkSh547JasJnj9UdHqo4BvwjXxq5u9jY1U9nSQorVyvGF+Xx37Egsfdg41/lq0AXsp0Q9vpm5bQfvlVdy4cRxpLvd2uMb/dHNJ6MMflNnF/96byFXjhvFlRPGitHt/V7YNeJM3tqxi9KWNs4eM5Jkp1PPn09BOBoRQ9/Ko4uW8etjp/JNaWT0BfN27+HdXXtp8AU4deQw3HabJtJ0Ph5Vdn3ikHeJSHpu1Rr+etqJnDqwbwz0D2bMpMrj5eIJ46TuODDpn/L+RFTJtZiMbKysobSqionZmZwnwj8/KTG2Qy+hniq9smUbi8Tv5KSncvTAEkLqZRKF2Fbdvh2MyheVJhGRE3sbm1knDXSxNNx58nRy+qiBofPVcagI2Ji1VN1CakyPWg4x1lTXsF3E0eiCPBLsdoza45t44IeQ+zBaMdsTSUhJITE1EadT1mX/3jA4RosFs82mPaL/qPgMJrOc3o5FLvDjr7HvUeJVGflEh52huTnUdntYW10bD+1dlldUsbutg3FFBbgkbdS5dRf8yag0ckhZykhIoCQrk8qOTm3ccF+wuKyS8o4ujhpQhNNqlXKrO9//hcoft5Tl3JRk8lOT2dPapo1R7U0CIober60To2LUesQzExO0nip1bp2PR9l/9V9/SbOB2dla46y380ahhq0tqagkKSGR4pxcHO4EXGpx2bFZjFodOqwXsxWTWfyZGOuPDP+MS8wvK79jon9GGvlpqXhCYWlA76VR/I+OzudG6dNQKDZLVk8jMk5Ma6ieOfUyiRhtsaDapkOFstZ2muXCSzIztQqievfU/XwkFhfmrl00Ln+EJ/5wO/+++WFmv7OVBqNTC/4iwsogFbNr1y7q1qyhUdaDmiHdjxKv4cYKOkpXsKc9THfI+JWJWG0skuoFlWtUj/M7g0H2tLTGQ3uXMnHubX6/dh4tf6SAfVz26MRQ+aN6QdW41wFi7Fv9AS0d+4Lq9k7NkRSKQ1HFUZULPX8+GdWLpLBbzBSkptLi9VHR3q5t6y38kifbpdHiFJubLeJVvaCkzqvKhs7Ho9InKDYmSRrnWUmJlLe10yn1p7cJSv1s8frJz7DibCtj4+svsuTNl1n43hZ2l3sx2oxEpUKp3Ioqn9nz+4BF+dJ962qfnt/aemyb+qvYt10tnxDfQXGq5WO2feh82hLbVy2Byi00VeymxmtC67bqOUb+P/iYeNgHtvXEtW9d2bT4ohp/6kmPV8r4+po6OvTpOXW+CEqX5uXB+PEgOvBAYpouJQXy86FfP61QHkp4RXwFwxGpEFZNIElNiYd8GFOoi+7qDZQueInXHnqQl/75PAveWMve8na8clhEnITBKMJShIO2qN89t2tQ6/HtBy2yj+xkFJHvraigeWspLbJ72GgWp3PAfhIeaaule88mqjrDcj6T9jhwX7g6t3Yu+duzLb7sS3L5sT8sdt592w88l4orFvKxqGRS+6heUWWMu9WsAH2AetQalpOpN0713qNPT08pdlhtBERU9lX+RKPKPUUxS3naX9B0/hc9ItYm5Vrlj0/N2tCLRCRfVJ6r+mxRtkMf1vGZULZb2deY4O+rtAtjba+nc+t6tiyYx/sL57B20Uq2llbSIDY+Ku5Tc6BSPiIRZd9ji0L9G5Htmu1W29Q+cdEXs96xbUo9RiQW7TAtTP5o8Wl7xI5VR8ifqNou92tQfqFnXylHPeeJbZP/ZJvaV0uVnuM1X6IEpvxrMBKq3U17bRWNfpN2HwaVjtp5Zd94PNpx8icW/4FxyR+56n3nje+nfqltyh+oc0uo1lBT6zo6nxvVuVpUBNOmQW5ufGOMmIBV4xeOPhqOOkpZBm3ToULMKEhl+KQ6IOJTYd3zAiv2Gtg49F88sHglL1c8wjenJtBx/1OUiQPyaI9MzFjUUABZLJaYGNQqoGw3Wqz7wvYt6hhx/tFAgFRJwEEXXoQa7WFX1dW8f39DOIBlwFgyT/o2k3MspFrEWBjVOWLhFrMI2p7KLg7LpLbFw1TviwrRRLS2TeK1yj7m2KMqbbtp/3Urw61F9SlQBl4766fc/7PSE60+78BnR6XY/vzpqwxS9cegNWh0Pj37ynVP/sRWe5F4nddrzueir1MtFA1S1VHBiscWUlOfxtCb7uLbv/4zPzrXTEpwFTPmNok4M2CMBAl0e/F5w1pniFE5KiXaQkF8Hi9BJQple6jbI/urse8xXxUOyj5eDwFviEBQ7LtsU50USrwafB45Nqz5PG2uA4kvEg3h9/sI+P2EtcaoHBMNEPV3aecJG2Q/8SuqT9Tk65Zr6sYfDhFV+8pWo0mEZdiHT64jJBfkGHEiBaMmMDAp1ogKB/xyjA+/ug85xKgavnJ8WO5Puw/1ZE3iUmVWxRUKqn3lWlAdMErIS46ID1Tx+0MRHCI6ClKTGJSRqr30pqPTF8Re4uojeuMlrt/PXcj6pma+NXkidq2Cxhz/gahey6icq/m1R9jjLiJ01Fkcl2kQERikbXct7TWdWEcVk+nbwPLX3uKZpxaJGDTgH3IJk84+hwuOsdC+4JfMeqOC9dut2OxKcErlFUMSSB6Ec8plXPHtMaTV7qC9oRXDtClYVt/JmjnrWLJWPQ4OM+bqvzJ+QCJZnm1UFZxAYftbbJz9Ni+9vhvRyQROuIqjzzmWi7MrWPOrv7OovI49UvHdSRlMu/ZuJh2bgWPTu6y6+T4WhwLUBSYzcOI5fOvPE0jd9SpLZi5gzqK9ElGE7PNuYtpJ05hUIKuhj84+1VutjM6uxiYq6hsYlZ7Kj44aHw/tPa59fRZ7xWhde8KxWk95HxanIwrVCFFPFzZUVuP3eJiSm6NN2dTb/HDGTOoDQa45/hht3KWeP58ONW1Wl4iFpbv3kiqOe3phPscNKIqHfnHafX5e2VLKxuZW0pOTGZuXu29uUZ3/jc1ipqqljXtnz+MfZ57CSSUD4iG9w87Gai569C7c1SUcPWkqE08vwS71x9i1l8YOA41dDvLaZ7OpJYXOIORYmtjK0Yy27cAaaGRpWz4jkqporAjQGkwib2Qm3vW1pE7qhzPTSs29CwgfPU6EXgc2v5fAhEsZ5HmP1uYOdndnUGTeQ61zMilGH/melcypzycnzY85YqOxOZPjpnRT02yjpT1ApquJTVszGZzbSnK6jxUVuQzK6qKr1UrQnMbE4xLY/cY6uuW+zP1S8GxpIi1bhOvAkZBaREHla2xoTsUrwjPT0ir3MY3xtlLwNrOiLYehuZ001qVgT8lh4tF2dr62mWCiDaMsvt2t5J9SRFcDdOxtJ60oSPWSLpqSE7FOyGaM3cG5QweT8yXN2avz5fClvsT1CRxa3a1fkLYGCy6LlaJ8AwGfl+72EPb8AnKPG0e6qEjftp201dQTTk3DlZKGsW4L7Xs3UtMlx5buxeMXA5Vsw2lspL5JBKApWX5H8W/bTIeIjdbaWlq376RVJHTXrhmsW7SCzZv92LJzSExxY+6so7tsE7Webip21NtHEFkAANYQSURBVNNe1401NQV3ql3iKKNl81aa5eg9e0UYh1wku8Hh3UNlS5iO+kr8reVUG/NwZReRl9CBsWMrK7Z30162gq3vLmHzsjoCWXKuNLfcp96rpqOjo9MnRMIYfG14MnMgLYPEsJdQwI/fUUxm/4GMLIrSsKWajq4QltREbDYDXRtLaS5dIwKzkuawHWtCgI7GdhrLfdidDqyte0VU7qGqrZWKPV4wOEhwBcBfyfbSKsqWiS8q3UFdewvt7fWUryxl7/I1NNVvo9FnAYlD9c42b90r/q2GqtJNbFtWSl2jl4jZhtnp1J7mRT3NeBp3sbd0NzvW78LftIHyJvFfQfEbLhd2hxUa99LZUE5tezdVG6ro9kXlPhKwWqJ0rt9C8zZ1H1U0h5xYXRb8jS20bd+Gr2Ejm3bWUFbVRndjJe27F1NaXsXWdaVULF1BeWUTXdiIWuVaxU9qQxbiSaqj09scUQLWag8QjoTo7lZDAoyYzCbCXWKEaivpltZl2ZYgWcPP4FezZ/PHme/wu4uzmGRfx55mB/7QhZz4s4e4ZeZ/uf3BG/jGjQ/yf/+ZxR/+9ht+VNyC2eyny2jBbLWohyZYkkpIO+o0iq+6nf+7+x5OnFJEltNP1GLBYmylvLaQ3Mm/4M533+JPb73IdcOzGVm+mXJbEqHzb+Hif73EfS89ym9vu5Ss7ERCu7YRiFoIXncv3/zLg9zyz29w5reM7CntwhNNl5btqRSMuYkf3PU3zj19OP1TQoTCR7hpUI+/1XCJ+KLGvfXZo3adOJK+hgPTXA1BiAcdUqjrPFSv7VDj4Hqk5esHE06t79v04f17jvlwen/EvkdCnqibMJkwB70YQn5Cqk7INlOkC19nLTV1LZTVDCC/eDSTTjuBARNPY7ynDLOnjUBmISOnTaHk6EkUjjmKkqGTGDd2LOOnZJCabBR7nob1mLMYM3kiU6ePp/+4Yrx7t1GxKUjYl0xRSQaOvDGkdXRiaayly53FYIlv2JTpDB5UTElqEJIysEaDOHxBIvbBTDhmALkjx5HUbwxThybIeezis+T6/W2Eq7fgHz6R1MmnM2b8BCZdcjJFhf1INHgJizCvqCumaOAojjr9JIrHn8yE7t0YPJ2EcosZdfyxDJ5wDEP6Z5FrrCdYvZWmfnlEswrJTnWRN8REY7sdf6efRHM33nAq/U8dT8G4Qiw+NW5cl686fceRIWC1VzmjpGbtpMvfxJ69bhGzDq2X1bd1Ebue+wOraoO0hcyYDOoNfdUyjBKVv6oXU6tiBhGEAS9+bTyTGCy//PZ2a78Dkdg4Iu0sEfWyjYG0s1/iJ7//Hb+asIoXj5nM3/72LksrjFjVnF1qTzWQXlvUOdQ5Y4PaVShBP0GvB6/6qpgYIHUNVnciLdvXMOP7E7huYjHn/2YRT7Ydx49PTaPw+Bu45OEbue2PEXZPn8p11z/JUxs6cFiP5AmixWFabVgcDmz7FhtWq3n/i3c6vY/RhMli25/mNquUadVkO8SIv3RpVgI7vknno5D0MZkxiz3cl6f22FRQaniksj1qH6OaVkm9KKoSU6WrzY61Z/+eRcqCxXRAaovdVeM2TRK32teu9tHijsVzWEsXsxlS0nHsrcdS1UBQ7sso9cJJKbvXL2PGM7sId3dLeshdGsSyGwJ4QhaCEbfcu+xrDBENh8TPhIkYwtpwunA45m/US1biXAjJX60PQtIx6nBjcCSRkJ1H7pBhFAwcwdhLTmLk8RNIC4oYlTjUOFgVTwQTYUsBI879JqddcwGjCgPsfuIVVt33N9YufZfN5mKSx5/AqKEDGOQMS+7GzqsGt6pxqt6GvXSI7/FGxcZKmDnsi12TnKPnPkLx+zBp9yHnVL5S/jOIf3OlDSC7aDCFwyZSOPZSpo0YytSLzmbiT67i+Am5MP9Jyua/Q61PfSZbyoheQXX6iJiADQRACjRer7Z6uBF709qAe8rFpId20njvsdxywTn8/MRj+ft/F/F+0tkUJpgYclwm/rIlvHHCdG457UR+M9/P2sTjGJ0SwiTiNRBUb9SHpcKKaPXHDY5U3pDPp71JGVaD6aU1HqaVyjf+yIxfX8s/fv8v5jU10xk2YBEnEPEHCYSTGDY8REvp09x8wsn88pTzebnWS8fISeRJ3GFvgFBIvSkq8UkLPyDH+NOGk14ykGOSW/D45PzvPsy2px9gXZWJmqV/ZM5d3+Nvv76Llxqa6PQbcJpd6s61+z+yUL04YXEWley+97c8ffYZ3HjeN7j5vLP4xenX8eDdcygLWCUP1LyD8UN0egdrIo6WlZS9fAM3n3sON555Cr/4v79y34wyAhaD9lLhV49kuohXa91Cdq6ZxwsruvAE1SwLemH4EAYLNmsHvr3vMOPSC7njrDO54ezTuOk7l/GrF/awrTlKsltslti+urcfonRzKVU+EV21C5j7syu4+2zZ/7xzpO7JcuapXHf7ozyyVkSbFAOzwYotXWxj23KWffN87pJ9rz/rVG763g+56eUKyjsMJDsO3wZ2NGolasxl4phOIq3zefaeR1j86lO89tBStm+LUnLcEIaM76Jy6xrmPfI8a994ka3ZAzEkZZLi94k4VaJR0kd8SiAgwlCtB8X2i1iNeDtg82xWv/cOs15YwqaFtRQMK2bEMW6I1LF25kp2LZrBhop6qjySh6GAJnSjIl2VPwqKfzAEa9izbBnrZs5h755SdnRZ8YsftHjqqNhZRtnSZex5fz3l3RHa+08itXwBnQse5b3Z7/H2zL3U1HcQworRmsDAUW2UbVnNe/95jrWzZrA1dyjGxHSSRWRL1dLOG/aJn7IkQ+F4CmoW4pHrX7VqC2tmbxUh3EzbrtWUzpjJlu172b4rQHunSc1qGU/M+F8dnc+D0qc1NbBhAzSqSUz3E/NI9fVqVC7s2iUVSInBwwxNwIIp92iyCwZSlNgthkNEobSQzZn9SRtzAvluIxlDBpCcn4dLhHpIKqSlcDRpxaPo5zaQMmIYySnJOKM2DO7+FBYmkOSSFqfLTfKIESRbLCRnZ5M8aBDJqiXqbaWzW5IrbTTjTj+daZP7078wA2veULKdLvIG55KSlyaNAtXbaiBpRDGZ0lJNNaRRPCyThBQzIWMCxowRFGWYcSWnkzJsOudcdTqnXXAGY6dN4egCC36xIMFAF96WgBiQIorkXGedOpqxOXaCR+QQAiVQIiJiG6leu5PK9dV4ROgHpfFAy04ayrbzfpkI/FBU64FTPUd2p1NbLBbVOxtPEzXcw2bXttscEm6TdSVytGAjRgmzqONUz9G+HiP5x2jGrHqSVJjdhq1nJogjGnWHUazdu9i4biPzVpTTHZRGVkTKXkMpjVsXsGaPNMB8Ue3lM4NJxItKN0kjq82qPdXQUFPLWeNprqWfVRp1sdQzmB2YTLEnIAetqx5Uk017YqIdZ7fHJ1eX/VQvqznWG6zCtPyw9jyiVj07sUaMilJdk9kez09bLN5YXss+FslrFeZUPYmxWT9iYUc2RnOIrvJdVC1ZTnWrj+6AiFOxGYHuVprX/Yfdu3ZQ63FCOEDH5gXUipNoFWcR6dzNhvWVVNd0iGkNiS1VQ7O8tG7bSPmK1XKMHGL30r5uPbufXUxFs1+LW5lhf1cjTWsf5v1Npexukms4FNo8n4No1Cj3k0DemAKyS1LlxiRdwkECZJCSNYDRk4rInTgQd5ILo1dsk9FB5vghZI4aS0Z2AVl2VS5TSM/LIq9YfSXMgDl3MKlZWWTYJK1UGZS0DRsSpd1YyNCSdAonDCK1oB8uSUejQc06Y5BGQibOAvEpbhO2qCzJaeQML8JhdWIKSTxSjo2uDPKnjqJw6jHklYymMNmKNWzClZlK2vBB2MRH9c9ykeFUdVrtn6LFmSbX2U+uP2dsCQlJTvFpch8mF5kThoqvGkNmVr7ch9hiEfNJch8ZQ4ZgTxvFoDzZJ0EuX+yvQdUp8Y1WyXw1g0LY7CZ11FFkDizBLeVPS0vtXx2dz4kSsEqjbtkCTQd/8Cc2C8HSpbFA9SnZSy6JPT7pBb6sWQgOxGASB2VWTkr2EgenPcbRnLE6To2LVU5WhI4KFoMUFiOg5klVU1upCqgNKzCox2ux32ruPjXNiNyMFp9mkZWYstjEAe9/DBcJ+rRhAupYozJMmLRzqam61PVGlRNQ06tIC1z8tjZfXlTNr6Iewcne2iMacdjq8a06nWbfRLip6U0iBtmmxjPJdnWuqOoF1uKK3fNHcfjOQiBG0eiVZCll7p+rMaYUMu1XR+MKSvHc/SzLtrbzZufp/OiEJDLcETzSQPB6Atp5zSJULTYHZvVIL+zD7xPRH1R9tVIOzHZNbCkBJClLuKtb6kVQGhGS7zaXNhxDPQ5U09+oaXFCci8RKUdGqwOnhPW25jmkZiGQNJAWHY5tj3LXzAjbzJP422+PJsXmJvL+I2x9fxmvGH7OJcdkMTgLuj0+PB6/Vj9M2qNmVzzNpbEmxsbvl/ohqRU1iXC0KdEp6e/vJGyUxqFJ8kfqViTQIc7bJucW4Rnx4PWqx6MRuRSpM071VSqpdxHJH6lXPp9y1BKfNEqMIpAddqm/qjdKTqnm0FT1JeL3EPRLwyYs+SuC1a6GPlhEhESlnqhphURghcSpG1TPYYJNTJyUik/I0CNhFgKLK8DeF59l25w1mG96kAmFieS6LHQ3bqPyiWmsz7qDlAn/x5TkXex5/Caqh36L9NEjKemcxwNvFzB12jBOPjZH8iaI2eVlx4P/ZvuqMvj5n5g6cA+7fz2Dda920v+dPzG+wE6mlIXuuvVUPHUcsyy3kT3u21wwFml8St7Fr6m36OtZCLY3NnPx86/wralTmFBUIOUqqPXtiHmXcqeexEn5Uw02WVduQQleQ1R8jbI1crxB7aMe0UvZNEhBC6vZYqShZrNWULe3nPdm2DnhgsH0K04i4JfyLX5IDQ1QY86Vi4mq4RnqaaDEpc0TKz5Fq7oSqOZ0lSCJW/bRfov/EocWkWPUcASj1EWtMS4XZpCjw0G5KuXfZJOKRF2Ptq/UXxVRRMRy7D4kLtkUuw81uKDnPpQPlB3U4VJHtbi0ULWz/NJUsWrYyj5iY6ySN1tr69hVU8uQpETOGzaEfvosBEcUX8mnZFUPrPqU7OjR8QApdtq/qmSrWqOWwxzVYxBWY0zF+ahF9cT2CD1VmSMiaEPxsIAYDfWoRxEb56MqvqyLZ1SCUtVvVaMjKkz97fmt9gqJKFZz5/l8EpdPe6FKTU6uGTftOIlDiSF1LnFWITX8QDuXikOO13yVOldsuwqJHSNxxef7C4nw0GyMOHJ1TwHZrs4VFIOhneOIJX5z6sUJNX5PzX+rxKQ4jES3k7zsVBH6Tty+DWx75bdcOWEC3x81nH/8awabPFmYVD5sfoRXbr6QK8aN4UdTJ/G9Hz/OC4saMCQaMTsr2fSLK/nnqBFcdupZXPFIKVuaDKQ52/Hteo3nzjiBX0l8373kGn7+4m5aRVypMYNHKpoTlAK1a+1uRgzN4pJLJ+FQw1g6WggVnELu9Ou4eBRkui1YfHtoXnIPPz1uGt+VNPrDb+5hRUuq+E0RontnsPDu7/LDSROksTSW737/bh54sw6/wUv1K2eydM7zrG3I1Jxx46xzWPbec6zY2kn3olv4w0UnaPH96puX8c4OM12GFGzNq9j93E/4xQnTuHLscC4791pu/tdGmqQx42yYx7Zls3h8cSd+c4TWd2/lpe8N58ppx/G9n73CnI2tWFJtUr0a2fufS7j/QsnPMWdx1dFPsGRbK1537JPQRzKRSAau5HoSs+fTUG8kGBThbgxiS86n/3fnc+KJZzAuWxoSYos+ZE60pxtS71Tdiy9aI07VLRW8ZQOto4rpuOGHjEsJSQPTQ7eUl4gtm5xvzuebF3yDEwerr2b1vnj9UlBiT6FEpNh0NRRA+Y6w9jd+T8rWiz/QhpapzhCtUyK+xHbQ6pXaX0P5prDUE2sKOfkJkqaGmI2X42OuQfmdnvhkX3WsLOr8Kjy2i8SpdRTIvurc6nq0Y9R2OU47Rywsoj4yo7ar/1RHjhLJ2vXG91V5qSLddx/xe9TOK2H77uOA9Z641PHqPHG/FhP1SuSLYFbb5O/+RNTR6QWUTtVaYfvZL2A/IvCwpKcySQXSKpkyAFoljKMqrbb9A2EH7/SB1fiK+hv/rRnynvOoiq2FxfaJ76HtE7sGWQ7aHvulobbvW5Xf8fhix6l41eb4uZTBiJ/rgBiOPFQ3h4hVe/nbbH7oem4//3x+e/H5XP/DO3jl1fUkpbmwuavZ9ugOqt9J47ibf8l37vguBbs7qb57IXVm8HdWEUkrJvvs67jk59dxVl4Vyd272FnZQO3bN1HTfwT5P/oT3778XI5v/z11ezezYXMtnr2rCJ9zHSf85m/89BdX8N1pObitpiN/xgcpUX6PH4fDQmqqeqws5U0cUticiD01n6L8FNxpDex9cwfbHoKjrv4p3/rD5YyWhkTtrbOpDYTx+OqIOJNJPPEazvvFrzl/ZJi8zhXsaTVp81c2tUeo6mwWM1NF9ZMFBPdKWXbVs2llMdMuvY6r/vEnLvjWWTjnzqGpuYnWUIc0FL2YJ32XE6/9HZecNoSx/vlUtYXo7O6SxmMXTS2deNc9xcb2LDxTfsV3fnYVFxe/T1vlFpZsqIfWTazynkjuqTfzs7/dxJW/m86QPCk/fnG28Ts/UolIAzthxHn0P+kq8jZdwQvXn8l1Z5zNrVdew+/mGqkPJ5CTqHJe6CneIlpFVWGffS9v3fA9fnne+dz6zYu56YzzeWpFE40TL2FYsuxeUwq2MBkjB+I0RTAo4SMiLmqQBmfKcDLSU0l2yX6He7WR69dsvWan9y89gQdvV/tq/+xLzp7tsRUl7lw43DkMmZCJ3W2OvQuxb//4sR9YtG1aeAxt24fOHVvknw9vix/zoe3qbyz0A2HaAQeEC/Gw2M8D99V2jv3W/Gl8274DdXT6jiO3W0nnsMcY7Mbf1kBzdTVN1VU0tntpbuqmc0cZwa7tbNoTps12NN+75RYu/83tTC6wYt76HtVeA2oGl+yx0znmx7fznRtv4qJxkGetpLK6g6rZOzBPP4dJf7yJy6/9Ad8rqaKjsY6NtWFMdjupWblkFfQnJyOdLPW4Tdp16qH4kY42RVncEcW3YIj6pdHkJxC0YPJXUFbewe7O0Vx43Q388Nd/5ISjSnBvfYeariAdAUgtHstRV/6Gb938O755fAZDLLto9FhIHHgyhmAKXTs3E2zfxpruMzE4c8mJbGXz0g6sahzfsEEk2GyUv/42e8sbaQkZcaTmMPKb13H+Tb/nOxdP5ZiUXbR5InSHrFhsdszRIO1r59OeNI78b/+F7//qF/zg7ESs3kY2b2iV6zdjSs0gMa+QnMIssgoNWNSzmMAR0Fj/H0RDPux5R5Mz+SoGJzUSaSujrrqOxqq9VG+cxeZtZZS3SD1TSbEvOWJlwOBppauhlsYaqXuyNJRJ4yS7mMypx5LvjmrprgSZ+rpgTMLEj1U1JVpPV5sfT4e4lyM/mT8Dqm7ZpNwmklmQgNWmxtnqSk9H53+iGkVhZVsOri+6gNU59FCFNBLCU3wuY697hLsWLODeuQt4dN4jXHLuRMpeX0hHeQ1tU7MJnJRLclMr3c0pJIwPk3VqE50tBoIiUBLtBpKtITpbW7WZGyIGL4aImc7m75DpTtLmLezujpI85Nv4I0n40/JIGnMirn/+Hy//6HxuvvyX3H7/Yio61Py+h+BUUr2MSe5R9Qj51NRucrOxT0R24m2vYuvGerr3NuAfmkDXuQNI7mzD3+7G0t9C3gUNeLoj+LsNOG0G0uxRPO1tdHrCBCS9zRYzrqFH4ewMYViynKadW1lyQT6dw9PILt9G88Z/8dgvLuM3p13AH6+7g1l72qlvVW9rG7QX7zKcBsJeH+0dXrwR9dKYEl3KkKlHm9De5iAnxUJ+ipeO9i7CueOxmpyYfFaMGcdwcvqT7Hz2am46/9v89qI/886qWhoknkNiUoW+xBgl0FKDv8tM6rlv8tMnlvDQipX888XHuWfMChp2bGDWJr+Wxuo/jbAIU4sN71m/4YJ/v8HDC+bz93fnct/i5dxy47c5sVB9HtWAK3sgwbCdur3Vsi7HiZA1GMzSYPAR8a+lbFcT1VWx8Zw6B6J6KNWnWFXPa3yTjo7Ox6M6VtSLDlar2LSDDUpsLRQCvz/2tpeOzldO3LIbLZhsThxuNw6XG6fDgjnZQSQ/C1d+P7Lm1+CYsZu61EQcadW0LDRT9UouKZlRzLaYuNnvJJTjSBYxFSQl936qWxpo7nLhsIeoX3c/9kgVSc4ibFkncsq7C/jTxq384/6f8ZPst6lr9lDXHXvR4UhE9QKpCehLxhayYUsdzz23jnBSEq5MSefGVVTM+jt/fno1m0wu3Ds9pPx3C/XOBMxJjXhL/ex5rIDERCM2t+phike6D9lgMBFOHUV/ZxupLQtYv3UPha4EsjJTiOaMJGfabdzw8nwe3riJx9cs5JGVf+bc4wvIjHr3v6j4Ec5eveiiXpJJy/RR2eRjV60Zd4KTyK7F+IOtBFJStNkOss97iR8/u5nHFzzPw48MpLOrkx07O8UmHqlNEnVfBqyJ5ex+bBZvn/0aFWa7JJTkqdOJMyGJrIISqSNugsGPeLag0lo9NteGLcWHLmlDmvb3zkdGjCbp/Z0473yI9d0uAu5UkjMysEW7aX7xah56+wVmlDdhE8dzJIxM09HR+Yqwi+3q3x+OPhpyc+MbY8RcckkJHHssTJr0IYWro/OlozyeFEPzjllsePAG/vztS/nD97/FTd95mHffbabkhOFYHMMZO91NSup7/OM73+f3F/+A91o9mM89i3xzFGuwm0AwoPUWKWceVfP8erwYk7PJP/dCLG8+xfxLL+G262/n3srTSC4cyVjHdmrfe5DH//0vnvzrX3h99mqW2seT7rKRYhYH/hEi6ohAqU710s7gs5gy1MKAygf52xVXcOe3L+Z3f3ybmbsLOfn0QWSljxCRm8agsRt55P9+xG8v/g4zVmwmdPH55LmsuFSaB3yoaS8V2swc2oTtRsLGHApLQlgMVbz6WCs5SW6ys0twpecyZlIt695+ihf/+ldevu+/smyivFGOdUiaBzz4Q9IYUaJMvSjj98RmFJHfIfkdwEbClIvJ61xMzf3ncvsPr+W2F40EkgZyzFgDofolLLj7P7xy+1289PAMXn3ZQlKKm365Fq2Bc+QSJRxII2N0Ctlj9rDk2h/wj299i99/5yLuuOZ6fv+6G3taPyYNtaPmuw77uwmpl360px+B2AweATWuNSyLehlIvSykeg1jiRYyFFN85kTGnRal4pc/4uHvf5fbvvNN/vSrO/jH9uPoP2QUxw91arN56D2NOjo6nxuz+qhIChQVQVJSfGOMmFrNyYERI2Dw4CNLwH7Rpr96C145dk0Dqd/GT0geQyy813t1YlOYqDfFvx6It4uatN7SzDwzdlM95WvXsXP9OrZs6iYYTmPMuH6Yotnknj2YgrMSaF2zjh1LK2F8PkWXjSRNBJQ1dRgpmblkqvm3JE57/lCSMzJJS0olbdL1FFpEEm2bx/adtbQO+Bn5xcMpdDbibdjO9hVLWT/nHbZWddJcfCYFqQ6SLUe4gJVy5ksey7QpgzltRJiq9e+zY9VytjUmwoAz+f6FIylwS3oeVUzJZdl0lW5kx4I9dOckU3TtBNLNRuzuASRkDyAnQcnNCNasYpLzS0i1ynrITNKgYjInTMGdMJbhRUnSMEjBnpDJoCkGmna9z8Z577F+8Qo2LimjSRoj4cRcnDkjyE2WuA1BjImZJPaX/HUYMbuySUzLpiQ3AfvgMxma6yS3ew3bNpayxzSFvOJhjCsQ4etrpmHjKrYvmsPaFdvZVFHEkKI0ikXAHrkv5sXuK+xNJ/v4kYy8thi2bqZq9Vq2v7+GHZt3sLWrPwUFOYzINxMxmHAWjSItLRW3miLJ2Y8BRamkJlvZ9wb9Bwh3J5Jx0jSGXjON9IpN1K9fQ+nq5ezeXU/LwOs549jjOGmwSxozR2oafxWID9CGasRXdXS+DqgCr0SszRYbSnAAsXlg+4ivYh7Y3kXOpP2vjIZ6BK22fZwBiYfL0rti83+d96M5fOeB7UE1CNQ9H3jTErfEr73tqq3Hwvelt/bYMx6mGhw9+39o/QNx7ztO1mWbmosxtj22f2z6s97lkJoH9iA+mDYfTIMPp1Fseh1B5UVso3bYvnW1j/q7L27ZpPXmaRtls2oYxuPTiOdHbCCuHBXfV/utHRzLw1jk8TDJXxWutqlwdU4tftkmaR3bV9ETd3z1YzgS5oHdh0oXlQbxVY2D0kj4YP04MG0/iY+KW8tbFU/f0efzwIrPufi5V8TvHMW4wjy8Uod0Ph0WERnbxefskWVIUoI+D+wRyJc6D+wncISOF1Dm1Iilq5uQ10unGNnPbEyNFix1y2jaMpu528HXsIRt69azcHl3LHhfyqlzGbDY9rJr/TrmPr9Dm2fvi392U01qrT7tu5WlMzexbU0DFuuRPnPlB1BOVRLaeMBysKAVZP2jw2L5ov1Rv1TYgeE9cavjD9ysCaEDzxcP+Lqg3fD++1fC8oNpoNJyf/pI4L5w9Vv2j69pBx54sLYej3PfXrF99qd5TBzvCz0wPoUWR/yv/ND+aKvy+8Brjm3W9tNE8wFxf72Ip5PKqwPSR5X7A9HysQeVZp86mT4QtxyoJfGnPv7IRyubaomv70ucAxM5vs9B6dZznLafpGu4BX93Cy3qBUdp68T27wnvIf5b296z9klxx9d7iG/X0TkcOCIFrMEotVvEX/W2apoqWzCK8DNYHDjcibjdTu3LSmrd5krArV5WSZTtdjNmZXnVJ0idSTiTUki0BTAGWmjsMhAw55GRk0FeP4ucwYTJmYAjKVmOT8CVZMNkSCElI5PCIaliAMwY1acrtXCJO8mlfQHKqD6NaXXhVOdTYQluXI7YBOHaee2yrq5HFrdLrteqZHcXLfWddLUF5L6+ToYlqk2YHQ6qrzH1LGpMnup960H2iahJxmPhB4WpCci1Xqb4quy3r6fwwLhD6gtNPb1FKj413i9+PjUmMLL/bF8LtN5o9fnQnjQIfyANPpjm8UnYtSB1bGT/UAuV3vvSXFDhku6hoBqOse8g2U9Noh4/n+SxekM7FkfsXPviU716Kh/Vupa3sl+801Lbb1++HXANah+VjwfEve/UXwvkZlUaqLzS0iCeDh8YmxpL13g90NJVfn+adPpg3Ko+fdpjj3AMBrHpptjnrVWZN4jfMarZTMSOa1+DlHRSvsJktmKNqA8ayEFRE1a1n9WO+jJkRMprOGLRvm5latlOy95SttYaCGLDZgKzGgsucRtVfFrc4p3UXzVmOWoGicdqlPyJSCND/JZVfRrbYsek6qWKO2wW32TCbLPJsXKcysOw+Df5LdHo6BzSHIECVlXUEIZAFaVz32Xrii10eKKEm7axa+V8Vq7YyMaqdoKNW9m7djEr58xh3eKlrNvTQltAvKG3gZbNc9m4YA7LF29k155mrdJj70dqRga5OVKrDV20rl3BjjnvsGruItbO20Ndkw13djZ5A5PEkHho37CG3RK+et4CWTZSVefFH+rGV7uBTYtl25x3Wb1kFet3NOMRw2Xw1dO6exVr5s2T+OaxZv1Odjb65X5iBs2kfVNe9wo6Ojo6hzSqB1MJ++Yd1O7dzZ7dNbTUV1Cxt4X21mYCnVVUbtxF9e4G2htq6W4po6ZGzXe9l6b6BvElPgL15bQ31dNcW0lLxTaqmv10Ve2idc82dlR14W+rpKmumqqqOtoa5W95M51tTfg6aqjcUqaF1ZftpLJ0KzVVEs/erTTU1tPYIY255j3U11RTW1lBS/Ueymq66airxSvxNDY20lpeSk1tM01dsVvR0flKUb0UPh+0t8dmyzoA0++F+O9eR7Xon376afr378+xapaDz8GCPeXUebyMzMvVxqX9z/pkNEvLtQtD0yoW/ekv7GxJwDB0EpmbbuNfN/2OZ2dVs9Y+gKPbHuKpP9/Lf//xGHNfncmc4CiKhvajoHk2i+/4Hvf97RnefGMp22qMDD75QoZaF7B1Szul1Q6K83ey+oqf8Ow/HuT5F95l7gtmck+Dts5Otr7TSMm4Vjb/8mae/9O9PP3Cy8x7YSeh4nFkZbfie/e3/O4Xf+Otp55l3ttrWNxUwLipA8lsFUH739u5/Vf/lPieY+5WP3tSB3HSoAB7N0W1XlsljrVvan8K1GMg1cvV4hEx3d1NltPB+Nx+8dDeY9b2nbRJq/2o/oXa+XQ+HepRqxrzWN/RqfVe5ScmMDQzPR7ae8zcuoPucISJRYWxN8x1PhUqf9SY4crWNhxGA/2TkyhKSY6HfnH8oTBbRSzUe3047XZypH7r9efTYzYZ6ZC0W7F7L6cPKmZAako8pHdoFp/z0uatmt/JSU7Ueqw/LQaT+pqZH/+qvzNnwS5W7vSTbN7LsndaMEeqsfi28Oa9y2nwGol6NtJeuYSFu6wY6pdQWdPOxr1WMne/yM62INVV2+naOodlXcNwt24h1NXNnu4sBjGLlaWNbNjTgcu7g0WzW7GZKsXJb+etBzYRSu2kes27bH7rPfaE0onueImylgg7O7PJ3v4wy/b6qa4rI1S7llmbknCXzcffvJONLWFCG59nXX0SLZYiBmV99uF3anx/s/icVlnS7TaGZqRrHyjROXJoampi06ZNJCcna/ouNTU1HtIHeL1QVgbr18em1FIzEsSJ9cBu3iyebibMnavevNI2HbZE5PqNNqIpwyk682omnDadYf1CRIM5HPXTe7nsz7/lxjOGYB15Dd/7xxvc89id/OKyYrCZ8dZtFGfvovPoR/j5ozP4833Xc/n3p2mP09Q3oqNKFLa3wvb1dH/ntxz7z5f540uPcedLlzBleAr2riChbmm2lq6m6+xrGPf3N/jjc4/yxzuH4XR2s2G9B7tzOKf/6XF+8dwz3HDbNXwjXRxYxEdnyjEMufQ+7n3nXe66WX6PdIsR0F8c0NHR0TncUKIvHEik35DhjD7tZAaPns64pN2YvdspI5moWj91CBlWJ83r/KQkifBLzyNU00VwyUJarc3s3FrGnsoUjEMv4aQp2ZQMTMWZnUnKgCJcw85h/PASxmd14+9soq2lnW6Ph5DLjWH4JEpGHsfw/iMYOKCQQSeOY+j0SWRlOPFV17NzdwGFg0Yx4YxTKRl9LGNq12OJlInArWP7mmba+53PuCkjOWqwWeSAPhxE5ytGadIu0VUNDSBl/EBiArZVRFmltN5qalS3qbbpUOGzX40ax2USpZ5KQv8J5BYPIDdVDUxPImfscUw4diJjcrw0b5jP1kVzqPJGsU49mzFuN/289XgjNoKFFzD53PM484ITGDumICZgoxKHmlIr5JP0aiQ08nj6n3sBp1x4NlNO60+/VBt2tU9UEru5jtCgSeSeczanXnwup56Rhc0eoqkhjNmexYCpJzHh7LOZOGU0xQlyfouXtvINlC97h50bNtA9/BgGDhzJOIM2++XnSAMdHR0dnc+NGF31BPHzWV91jEGOt5GQkUVWSTHp/cQP2TwiFDvxWl24CvqTVZiC3ewk7E8lf1Ah2YPHUDR4MIOH5ZI04FiGjRvLiJGZJLgCVO9owdsdwZmWjD0pEX9ZBcGQuLnCgWQPGkphsoUEg2ywOXDm5ZOckUtqUhapaRmk5MuSl4PbbQWvh842N6kZmeQNHEBqTj6pXc2QMpDUUccwfkIROdlG2utbqS9v08brft5hBOop4AdfFtTR+cyoehiSsq0+tPWBDtaYgO2ZY0t9quuQI/ZiwWeuBtEQ0Y7t1FbvZnu1V0RokKCnC4/XR1dHLS3zb+eZW37HPXf8hze3O8hq95NoTkYsDI7WuWxauIDFc1eybZuIejm5JiTVwHeTHRJFkNatpX7lQpa8PZfFr62isrYTn7ajpGVSDrbmUlpWLWXZuwtYtsQj57eSlm4mEvbj6+qgu62N7i4vPjUkwGwgsGsGax+6iwduvIGH5tbRVG+jv9+H3EXsa0Rq+eyp0Odol6Vx6F3b4cX+lOxNPrcP1tHo01Kt58vnpq+tjdJdNvGLamaFz466uqiIvwBdzQ3U79pNk/ih+kAyUUsSSZYQFgkP+Q1Y3DZxF27xxC7lekjsn0nmtIlkJA+mZOhgBuT7MdQuZPGSGmoaxImHg3RVltO4/HW27a6igizcaVmky8FWgpq/sKopH9XLXSH1yVo5TyAkS0DWRVDKPaUkd9HZ1EDtrl001eylwZEB7oH0KxjC4BEidr3L2bx6K+s3d2P6nC8Oq+EwQREdn27qPh2d/4GqkKoufqBB9Hlq55eKulw1CuczVQL1KqbcmqPxMRbMf5y7XlOt1QgWk8QTsWOypJE+2ElanuxWV8GWP9/Bu5u2sck+kcRkA/m7LuIv35zONd+7nQcemq8ZMe2zk2IUou4sGHIq/db/hiXXH8/PzziP33/3n7y9oo76kAmjI5HosLPJ2fFPNt9yND8541J+8tMOuaYMpkxxH/xIRvshdxdOISEnhcyhsc11/32M5S+/wpzmLuTIL+bndNtxaCNlQJXvz+cmPg3xAtB3J/gaELNCvY8h/p/OZ6dvU03NZarmLlVzj38e/aWuzmQ1ULNhNWuffZAVMx9lmXEIgZRhFBrFj0ikoVASOSUJ5A7qYu3rK1j/2tOsXrGc1btbCOx8nnkvvcUbL26gtqKZzIHZJBbk0F1bR+W7b9Jkt9Dh76Zh9Qq2znyTLXsqqfYF8YmD33+9B/gaIoRDDuyuRIZN8bDr/ZXMuf8J1rzzJruHT8YV2UrD7Kd55vGVlK4rx5HqJmNApnadnxXV6+oVwdzY1U2r10dQvYSjo9MHxD5ksHw5lJaCywUXXhjrke0FeuNDBv9ctpKVtfVMHlhCbnKSZlj+58sOmm0L4tm7jv9n7ywA5DiurX2GGXaWGaUVM1uWbBllhjgxhN4LkwMv+cP4XpjtoBNjzAxCy5IsZlxm5tndYYb/3p5ZkWVbsnZlaV2f1DszDdXd9xacqq6u6vZr4dUXYbLOiaAhHQqdBXp4EOw7gM7uEJyuGIl6OaK2UhSU5CFdOwxfxz40tgM+fxzGtCxkTZqFVPUg/VYgGDch1RaHv3k/ursHKZHqoJTbkDMrBxqVDvDKYMvTI9hxGH0d3eh16el6ilA0Nw9pKRHE7HZ4jTnQ6+SQ+73w2P3Q52TQ9yY4u9vQ2adELBxEVJ8FY04uSgsUcPUCag3V1FO1UneGM4FfeAtSDXhPcyvioSCW5ObgljEYKP+HGzajesiJm+bMgEWrlcT+e8n0PmhwPPZRJr+xug6ZGjWuKC7ApcWFya2jx72vrUO7z4+7F86TWpQ4aQjvvDtqshW/JPTakaOYmZaKa8tKMD0rI7n13PGGwtjS0orXGpphMZlw+aSJCIZJ2CS3C94efjTNeUyrfRCP79qL316zApeN4iQTTLvDie+8vhkl2VmYRItFR3nvGeZrMgXl4SE/fG/8A4cjhfDkzMbc9AACCgrHEINeFYHdY0JKihY6uQsB9zB6h1XQytyIqY2IqSzIkHej362VGl6M2hBC+kLYtF7pHYs+exwp1jBCcj1iURk0EQ88XhX0qSpoTFr43AbYUjWAawhBisOy7GzoolSueRUkLNVI09nR75AhHAhQPI8hYCxEunyAfgcx4NXBonYhqsuE2pCCFMOJIvjMMFBZtaupBRVt7VhZVozryycgw0jaQjBuOK8TGbhcife0+CWuJUuAWbOSG0YE7PbtQEUFYDQCd911QQnYzU2tWNPQhL5gCNfPmIYUve4MH0vISawaoZbHII8G4I8p6ZMKCB7nk8dxVZug0XDLKu3KYUX80vzfYdpPoTGCNIW0jd8QD/s9tF4FhZzH7YsiHJZBoTVAreZx/qh2GafMxBumDI6+K/jRUBxyjR4qCkTF2xFE0BOUHuFAReFESaBG6TCFHEqVAlG6N7pYKDU6EsG0PzeTR0P0P4RAIE7XQ/tSLZbHsDwTWESyULF7PHhiz36sKMzHR6ZNHtW3qEd4vrIaG1va6Ro1uGJyOQxqtXhs9C7wW7psny4qJJ8k/3xkSjk+PH0yUvVU2RllHth7ELu6e5Bts2FRaTGJWMUoz5g2zqCEo+AKLaW3tsEhPLf/ID49e4Y0SxrH7dGCx9btooz5Z5u3wUcnvYXOMRK+GI3gbSDfcHu1VqVE88AgjnZ0IkIi7MuL5mFa5uhVLpg+jxf3794vjRIxkQTsrII8ytciUu2PvUOyji/n9MiVVCQE4Nv2AjrSpgPlSzDdGKRSh8oSKgO4DUKpiEqP+GOgcokEr5rKiRi/u0FliCweQSieKDu4NZPHcJXHuCVTQeKYx3KlMiZKeTzvK4tLUwErqNyJhumqKG3LOWwuK5SqRINCKEhh03fah8swLsv4aSRPPsFRTR6jci9OlVu5DEoqL6P8PUZlJZWXYe5yKNn97WF7sF/4Wnm/fip39pCA9Xp9+NbShZhIFUC1VNAKxgvnVcB6vUBTE1BfD8yYAUycmNxA8Y4KsjgOHgQaGgAuQK+7LqHcRoHRELAuqhW+XF2HBw8cxg2zZyKXRBgPoSI6h789nCm5KGNvsQ9gQ2Utvn3p4jGZppThQpj981p9I26YNRPpJpOkv4V/3h72Dw8zU9fbh/3NLfjpimVYQeJyLKijgv6Vmjrs6OrByhlTYeOnLITwz+nhwpj/9FK8ru3pRWtfP354+VIsyuf+RqPPTzduwcG+AUwngTQxMxM6qhQLz5we9k3iCVQcB1rbJd98fNZ0LKUKulWnlfYZLbiFfFtbO16qqoPeoMeishIp3TJS/kbiLxFZTgNvI/EXajiEQX0W4hlFyNWQ+CVGwhhXkD1YRnDFK0Jl/j7yTdfgIKak2vCzKy9L7iQYT5xXAcsvb/FAAxSnQHkkUlOTG0YELDcHjvRTUfFMU6PDaAhYhh/nPFdRjWcra5BptWBaXg7MPB4YMR7zg3OB68BDJI4qu7rRQ3b7n0sW4uoJJchICpexoHbAjieOVGJTcxtyKdMqz8qEQaMan5n1KDDgcuNoZzfcPi9+ROL10qICmMdwnMTDJMQeOXgEh3r7UZCWipL0dBJK761v33iHbdJL6aaquwfxSAT/e9VlmJOTDZ1qdJ5KnUq/x4v/HKrAY4ePYlpuDorS0mDSayVBIDgOdxvgVnHu1nGovQOcWq6iSt+n58+GfhTLrBNhQfbg/sPY0tYBP507y2yW1us1alj1+nf3Ec8Ox+qOBO0F/7LJOcCVYU8wJD3x66eKnzcQxNycTNw6eSLm5+WKyvI45LwKWIbTGmtUrhyeEJ8SAnaMGC0BywO+d1Ohv6+zCw1DDgz4/PBHEsMpiLSR4LgT4zBShp5rMmISiRUufFP1ujHNRLjLQNuwA/u7etBEn3YqZELJgb+FfxJI/qE/bA8T+afQYsa0jDTMzMkaU/HKBEiINQ4O4WBXL5pJnA0H+HEkX4z0X0CMpB+uAFpJoBRbzZiekY4Z2VljJl5H6KK87XB3L6oHBtFLlU8pbxO+OQkupjgP0yoVyKbK+BRKOzOoopxrNiX3GBu4gnGAfLOHyh7O25wkzoxqNdKNhnft6sHDLnLBy4/6z6zz18UJx1OePpgHLLBqNZiTnYmplHbySPAb1GNTuRC8v5x3Afs2XPACli9uJCPnDINb+xrsg3Bzv1HaIjL5k+G+WTYSrDyrU/EJM1aMFSf6h4VSTf8AWqiS4QuHhXdOB5kkXa/HtKwM6S3nseZE/7iCQck/7Q6X9IKf8M9b4Za+LJNBemErfQyfWpyOit4+NFPacZOfhG9OhvM1BfmGZ3SaTOKo2GY9by17/nAE1f39qKGyh8sd7s9pIhE7ZgXnRQbbgX2ho4q5lHYyM6TRGwTjFyFgBQKBQCAQCAQXFReKgB3PXXMEAoFAIBAIBOMQIWAFAoFAIBAIBBcekQjgcAAdHYDbnVyZICFgeaDYvj5gYADS214CgUAgEAgEAsH7CQ+jxfq0qioxlNYJJARsayuwezdw6NDx4bQEAoFAIBAIBIL3C26BHRpK6FSnM7kyQULA+nyJHbiZViAQCAQCgUAguBDgEUdGlhNICFhudWWVG+X5TUUXAoFAIBAIBALBBcJphs1LCFjecMoMBwKBQCAQCAQCwfvOaRpXEwJWIBAIBAKBQCC4kBjpOsCNrKeQWMNdB8LhRDcCgUAgEAgEAoHg/YaFq04HWCzAKdOuJwRsTg4wbRpQXn5alSsQCAQCgUAgEJxXWLTm5QHz5wNZWcmVCY4L2JkzgcmTRT9YgUAgEAgEAsH7j1IJ2GxAcXGiFfYEEgJWqwVMJsBoFAJWIBAIBAKBQHBBI/oLCAQCgUAgEAguKoSAFQgEAoFAIBBcVAgBKxAIBAKBQCC4MOHJtk4z0ZYQsAKBQCAQCASCCw8Wrh4PMDAA+HzJlQkSAtZuB5qagLY2MZWsQCAQCAQCgeD9JxAAWlqAbduArq7kygQJAdvXB9TUAI2NiaZagUAgEAgEAoHg/YRbYL1eoL//bVpgHY6Esu3tFS2wAoFAIBAIBIILA55gS6VKfJ5A4hev5MFiFQrpp0AgEAgEAoFAcKFyspwVCAQCgUAgEAguFLhnAHdvPe0oBCNDFIj+rwKBQCAQCASCCwGeHZa7D/CMsdxT4ARkcQJ79wK1tYDBANxyy6h1JYiSKL7mmmtw+eWX4/vf/35y7XsnHovSEiSdHeYfybWCtyCTQy5XQ67QSN/PF7FoEPFoiCpJkeQawVuRkUuU5But9Hl+iJNvyC+Sb6iiSr8Fp+P8+yYWiSAapDwtzHma8MvbIVPIoVCrodDqkmvOE+QT9k00xOknMQ6l8NLJSJPP0x+ZnModEhoKDQkNMSX9uKampgZPPPEEioqKJH1XWlqa3DIG+P1Ad3dilKyyMqCgILmBopkkYHkDj0RAGQRmzHhLR9n3ymgL2ICrDb7Bo/C7mhALeY+nHEESylwpd1VqLNCnTIIxfTaU2tTktrHH1buL/FOFsH+AfnEFQ/jmOFzssUBSQWPKJ9/Mhc46IbFpjImGPfAN1cBrP4JIYFCqAMrOY8XmooAqxHK5BipjNkwZ86E1l5Boolr/GONsasTgkcNwNzdJQpazY1H4J0kkGUk0am2psE6ejKzFl5CIJYF0ngi7nHA2NsBRV4uAfZCELPkoFiMXCR+NuIdh8ao2m2EqKUXmosVQ6g3JLYLxyHkVsJwn8sI9BFibnqBPEwKWx9niFgBOlEZjctO5M1oCNhpywzNwkArhSlBFHGqNEXLF+Wq9usiIy8juIYQCLkQiMVjzLocuZSLkyrFruQi4WuBo30DRJwKVSgulkipCIoM/LVz4hUN+8k0YCk0aUktuGlPf+IZqSbgeRsTfB43OBAX5JiFeufgRnAj7JhIJwu8ZhIYErDXvMqh0abRl9OMyt+h1rF8LX2cnFOQLLeW7cunJ14WUbuJShUuhNkAV9SAciSBM+cv7cYUREvcBrwchslv+tdchpXwSVTDG7qXjGJ1nsLICjupqhAYHpL52Sq0OKhLPciWdVySfJHHyTQhhv48WytcoDRny8pG5cDHM3FomGJecVwH7DiQE7BgxGgKWH3lyq56jYwPUKiV05mxoDRlUEJ+/WvjFhQyRkBd+Vye8zg7EFRZY86+A3jY5uX10CXm74e7dBb/9IIypZdCbcqHUmEQLxdvA3WCCvkF4hpsR9DthybsK+tTpJBJMyT1GCUrW0bALQ61rEfa0QmdMg8GST74xJh6Pj12yv0iRkW8iVPEbhsteS5WMEDTWSUgtuoGEElXIRhFuaXXU16H91ZfJL0ZYCwpgzMiAXMWVC7oO8g1XMhQqDdQKSkcnJiXuAkKVH3/4zLpQsZc5LKWaZHI4ihgJjNN5Pk4STaVKVGyitJ90nEKDsLsDzu7t6DBdgQxLGvL1YUTPc+8tvpaQxwNXRzsG6upgoMIyc+kyScSOFd7uLrSvfg2RoWGqXBhgTM+A2mKBWq+XKhpnnHrYl3IFHaOBhpKdXE7O5JakSAj+SAxRTodvl1dSZUHBXSfouEiIfEL7xi+0fJWuiStjLF5DHjf8DgccXV2wzZqNvKuvhYq7JQrGHULAniEBdxs8vXsQdNUhu/QKyDVmbr5I5GqC08OZnExBNWMHOqpfgDlnBRWSV1NGOPotffbGF6iQq4c5bQIM1iLKoVWUQXM/S8Fp4fKHBGQ04CAR2wL3cDtSim+BgUTsaBKLBKhisRv+oSPQ6S2w5M6jdCP6Wb4jkjbgP3EMde2D096I3NnfJNGSyRtGjaHqKvRu3QIlpZOsadNgSEuXRMCIZ6QriJOY9jrhDlKFJzrS6hlHjCruWq0ONr1KWpe42rdHJqNjIhSGNwSZTiMJWSUdcPIxLJij8HtJ4JJo0hrUUoujSmOAvX419r/0/3Bw3uO4ZOocXJ7moetJHHU+kcvllK1E4R0YQNPGN2AlgTThrnuSW0eXkJsqfkePonvDemRMLIeNCmeV3iBVPs86/VDlgfueR6hiNOwHwhE6XqkkX5iRrlVCo6C0+nZBkk/CJFypviP5hJ8+kjsvPJKiWhL2dH1Nm99AhO47ff4CZCxYJHUvEIwvLhQBe8HHrMBwPRX2vbBmTKF0Qqn9WCEslrdd+AU37tNHtX5L+hQqwFzwkx1HG24dDyX7uxqsJfRJ0SnGL3Cd5prEklg47kYjUFBFTG8pRJgKNq5ojDb8Qh13u9FQQSlVLKR0w01np1yPWI4v7Bu2EeUzWmMW9OY8+IaqJfExmni7uuBqqEfW1GnQmi0J8SqdmxdAoZIh7O/Ajgc/hY/913UoWXkzptxEy/UrUfr53+NjLzTAwS15knodOe50C2klVQSewQ6s+c1z2FrXiS4NidOT9mFxHIVK1Yj1L2zDs09UwKEksUg2kMubMeiVYW/7N3B5fgZmZQQSAuyk48/PwuKVW6cNaWkwZmYiTjbjVtK4FKdHF39/P1zNTSTgNdDT+VR6PZ0/QlEjRufj9wzOfJGrTYgMV6P6mZux8mM3oOTalZj4ia9g2vNNqHSGyT8kcN9yHN+yDGpND6oP7ccjf9mNbl8IUfKL7C37XgAL24UW9hHbyZSZDXk0BldLc8J/AsEYccELWC7gYxEftPp06VGMSBBnSuIxpEaXSuKFCp6APbl+lCA/RIMuqfKtUOn5T6JAFZwBHIf50aAaSrUecRKb3GI6mkgteP4+KiC1UGottGL0C/rxjJLitFpD4iMwgGjUn1w7OvBb7dzHkoUR9+NkEXAyLARkcPSVY/HlH8X3fvxd/OFb38Tv/9938MdPXY8vLSBxHaP0rSDfqnWUxmmxWOhTBY1aC7XOmvitVUIeIzFuTseCjyzDjLxUpHLXA4oTGrMZGivtZ9RBrVRQnSoH8y6dhuVXFMPIfQS4sUCZhclTF+PjX7wdc/PMMMfCiMuVUOspbBLe0vEmI52T4jKl/ZPvgn7RvkqN4fi+Bj008sReCor3GmPyOnmbXiO1Rr4zJLbJXhqTWRJygcGhU086KoScDvh7e6QWRTm3lnIm917KHb5/+0EcbW7A1wN34iMf/zoe+vGP8cs7r8Wn7C+jobcPjX4N1Cq6d7aDhexgNdH9kX+4ZJaHEfQH4XLEoDKaoE9JgYptqCDfc/6uJL/rT7ChgX5T5UeC4obGQGFZOVxajPSbu4jwbcgonhjJb3yMheKBhXykVkh9sc8FKR7TYkhNJfGvRtjtTm4RCEaRE9Ki4ieE9BIXzzHLL3LxeFvJRwLnCkfoxx9/HMXFxVi2bFly7dnhGThMGf4wzKkTEwJWcGawC8n+0bAfoYCbMjvjqL71TvVuRENOBF1NUMhl0FvyTopYgneB0hgPbeVzdZGQyYHakC21mI8WsbAPjq43YUzJh9qYxU2yyS2Cd4V9QxWKSNiLCIk5ramAhCJVAkYJV1Mj3M2NyJoxUxJI3Hp1HBnFgwjC/gDqd0Qw5eab8KFP3oJLZ87G/AULsGhyPianaSALUQVloBpD9l5UN3Xg9e07sD+QgqivFZHmDXhpey06o2YSm0akKLjfdRhKixEmZRDBvga8tHE7du7dh9oeBxzqDGTo44gF6ewKNYwmNfSRDuzeW4E1uythD3YjZMmFXm+A2teD1qOb8Oa+w9hGS3VrF4a0WbBqlDBQ9nzsTuRqKIJ2ODoO4qXNe7Fj7350DHkRTy2ETR2Bp+MQjh7cjjf2VGD/oSNo9coQNqQiQ/32echIseS12xGjHxoSSvqsrFF/RO3r6oKnrRVagwGmzEwoqYJwso/OEBawrqM40tqLP7Zfij996kZcffMVWFKYjQX+BngzJpFNldAP12PHui3YcfgQdh1pQ0NbAJp0Kyx6H+xdfairaUfY1YIDtL1xgPLy1AJYVEpEB/ajumIzVu2oxqHDR3BgMAi70oISPTnCUU/7H8D67ftwqLIS+3qpeFfqkWclIwZ6cHTbbuzYsQs7q+pp+xBCWj3l4Xpoz1HEMiz8vfYBKneCyKA4K7oQjD/slAYrKipgpUoQ6zubzZbcMgZEIhSfHUAvRWKOSyeMQpIQsJRg0doKOJ0AJdgLScD6BiupMHZSQVwkBOzZwD4k+0eCLoSCXipPUkjAjuZbody3zocAZZRyRKC3FggBezbIFFLfOH6ZS23Mh4aWURWwUR9cPdthMOeROE4XAvZskMmlCgCP5BEDt/gVkYA1JzeeOzwsk5uWtxewcRKwHjTuPApPmg4RUoaavn64qdDw8aPkOInDOFV+Dj6AbRU1+OebdfjjQw/g5QDFIfcOyPf+HZ/7x2bslU9Dfkk+JsW6ser3a2Evzoc11QP3jqdxyy8exXMbNmJvTwiBosVYUdiGLc/VYN9RH0oXpsFYtxG/ePA/+Mmjz2HNli3wZVyO0uJcmB27sO4v/w/fe/pNPLFhCzZX1qPNdinm5ZmQY5IjmuzQyS+kRXsO4ciGB/Fff3mRzrUJVQMhmCauwLSsANpf/xP+/cDD+OFLO/Dam5twwJsCRdYMLM+Rg3tHnC4nGXkx1N3bgyh912ZmjYmADQ4PIzQ8BL3RBB0VzDz+7HvL22RQqvzwDvvhOepCab4KusAw+TCKeOkSTEy1IlvehU6qEPz2h/fjn29sxDNvHsKOIz5kXboIEzKpktLViANbtmP3Ky/iAfLXll4vTOXXYEaGGsHqf+C55/6Jrz+yE2s2b8IrPQq0WifjE2U6oPox/Orhx/DDx1ZjHVVuXmmiOJOZjxWTjFDb9+HR3z+APz31Mh7ZugevbmyHvGQSiiYWIF8RPmcJy25ydXcj4PUic/ESIWDHIedVwHo8FJ+rge3bAZMJoDQ/QiJm8RiwdXVAs+izIhAIBO8v/Ng6CJ3uFTzwpy9g6fJrMOGGG1F61ZW4+rfP4Z8NcShIJRiUMrzqtaFq2s2ofOlBPGL6DzK9MjivfwVHH/wGlsd96K9qxjCJZB76iUdx6WrvRXunFz/+2zPYtWErqv76Y/x+kQ4WlRxhFutaL8KhRjz4bQemlX4Ba3e+gENP/wST/nMIdS/sQ63GCoVqAb7w/X9g1eqnsOEXn8bsI7Xw24fhpXMkXjeTQaVsQWVHGAd6bsfaZ19Fz4H1eOLjNyHztedRR+K8I1yEqbNvx+8eexmV6/+MH0wjcb23Ana6rwgtCan6fpEsA8+1LORuPKoJmDJjPn5+dwDrf/xlXLHkMuR97Esof7oe1a4gELEireAafP/V1di/bRc6Hr0Xz38mArc3DkcwhmirGtra2bjtwSewadsD+PtdK+B/+U3YXc0IT/g8PvKlDejetBZ9ux/AI5fPxo2NXRgg+3nDQeQtuhUf/ukLqHjpRay9JoQl8Qps69ciEpmCO3/xV7y6dQe6Vj2Kqh+lYFpGGG0DCfF5rggFIRh1uBKkULwlgiYELHcd4G4E/LqjELACgUDwPsJDXSkpW56GJcvvwL1f/jy+/5nP4Adf+CK+sGIWlnCDOu0RisZRlp6ByydPxoSyYhTJpiDfPBmlMyZiwqwpKFcoYfUHEGJBKOdhwmIwZ6YhI9eGridIDP3y//DZR1/C9ypJfIbj0JHQVYR8iLp6sGdKAVJnlOPa0hkon7AU8+a3Q2lpQ8uQkcqQSZhSXo75s0owITcdBl8APNJBlMqWRPFCfwNOOFoPYduGJ/GbP/8J3/n1n/C9fz6D+984iiN9QbhDuUhNmUJhlGLq5EJka9VQeP0kXqkIOrmMen+gclAqCc+pPKQwFHpoLHnImzwXN9zzUXz5S1/Bj25dji9gHdZVtmKfxwS9KQbXjvvw17/9El974Dn8fXsrvEGqpNC5YxYdVJPyMbmM7DRpDspT05HmaENv3IhUYwie9u34xm//gK//8lH8a189jqoU4GctsWgM2ZnZmDNtFiZOKMMkcxzGmA9eGbfEpiHW9Bpef/x/8fU//RM/W30EtX0+qFggjCYXgh8F4wcWr6cVsCPqVjT1H4cyc2ncEoZfaNCoAZ0G0CYXnRZQ88B+iV04swJ3cVDSNiWt5Iw4uUX6oaZtamHftyAnG/LUg5JNR2ybXCQ7vk8VKr4uHoDxg+4yGRmAJ6Y45hfyFaeFs7ILxX/VCWGcmH747R/BKfBwTSRgQ3Nx+cr/wo9+8P/w//7nG/jud76Dz920CJfkUV5CySJMgnRyigkL0owI+vxwRWfBaiSxZPUgJFfBTPHXws/jkzlRLBKGMbMARTMvQba3H67eRuyvqMHmLTXoCoYR4hZU7gJA4UbMapDW4ZPQ5XA3ihgUahKpEfIZLNDIw+AZ3jyBxNvx/Nyfk6p0Jj4l94qIBBDwDaKjqxN1Td1wUP6YPncC0qms0UT0dIiOskQvQnTtARLjcVp/QQ4T9V6RKREfrkdnay12Oydg2Uc/gy/+9Cf44ac/hF8UdaG6x4kNjd0Y7K5Aa0cnWjo7UdXSguqONjIh2VtKe2RMnRxy7gIUIRuRulfK6HvIiaaeThxoaUVzRweaaxpQM+xEO1dCkqc3kqvM3P/Z64OHagYxOfk0GoCdztfe0YSWjm40tLfjUFMf3AGf9DKfQHAx8UEvnt+WWMCPaCiSGKMvFkLY6YZ/0AnvkBM+XgaH4XfzsDKJ/dmU8UgQET9t80ekwb6PF82U8btDiLjDUr4uOE48TDZ0DSdtOmLbxBKU7Pg+RVEqfKOhhH/HU5l6dlAMjlEa8PNUtBT3Of5zvHe4z9IuMUR9bgSGHVIYI+nH6ybhEhIp4q0kRKdM5sKwvRvNLW1wktBwtLVhqGsILmcYI9lOKBpFIDJiQxKT5K+I1ASXGCT/mHUlZ0XhD2mgTJuNz/z+z3j2uUfw2sdvwjf7m9BHx/XT/jKdHgpLBmZtaoLraCcO+nowOHwI+9bnwt+VjYIMPjPlZ5QxspiSODUicKul3gBj0QIsu+7reOgvf8P6hx7EG//6NZ79+V24pViPVFkQIRJl3P13vKYvfiEu1rULFbufxa+2t+BQQweCrc1w9zvhMExEqi0VkfrdqN27H54b7sOv//Qstv7q4/j5tXKqu8cRpDDkA35EDvSghdJNr7MN/QEP+tWZKPAcwYtHPKg03oCtDz+ArQ9+Hz9ePg3TvVRu0XHs9xj5aKRPMiNXqhB0DqFhzVNoK/4wbvzRS9j291/gP5/QYFpmFK6ASIuCi4uEOuAMR8pJxmtWchZQIo+FQ6h76h94fech7PdRJtu1Bffd/iksn3At8qbdiOLpNyK35Apc+rXH8McaXcKKeiO8VS9g1T8+iWkPN2FbD2UjOm7Bowxf14L1967FE9/Yg1paF5FaRQTQx9G960n887MrMWnGjcifciOKyLaFU65Hfvk1+OKDe7Fz2IhjTQrnA35EoVQjcPAZ7Fn3JP5RrYInTOs+iFU9nQWwH8Thh7+Nshk3IW/S9cgpuRJzrr0Xf6vXYBh6QPVOeQbZTS2jukAPdv/5s/jYNdcieyKlH0pDRROuRvpnH8RHt7gT/hUtsceRUb4h80Mpew5//d1nsSTZB3biDZT/LP8hbvvBblQp5QjFQ1S/iNAnHxRLTOlJNQt+lM8iMxSM0G+enCCOUCCEuMIIT8cGbPjnFZh9y3VInX8Vbv03iZhFV2GCRgVbwAe3Vw+lZgI+/b8GHKq+D3OnXompt38PRz88C2W3zMEET0AKK8wCVkYLCd9AgM7JLah0Xh7eiSVpJFqCaQUazMt+ETfcdRsKL1uOvBWfx+w7X8Prg364yOcxuj4WW5DF6DrD0vVeEN0HRgkeHk87ZSXKJ5Zj8ea7cPcnrkfG8stQ+NH/h4nPWzG7MA3fXFkCvS6Eb37qFky8ZA7+6/7N2I/bcaDHCxfZWlXogyN/N578+IexdOaH8KnH1kFx8xWwFC7GiuBGOJ69A7nX3oLUnx/A6iMDKJHZ0U7nDtK5ebrqYCxh0Gg4gEAwCLVeh1kzi/DM3/8Ply2biXmfuBfrHFfjgCMD7UNDUlcTgeCCgyrqUhdX/jyBxCgE/BKXy0UFFomxSZOosB6d0no0RiHwDlaQoHTAmFJMies8KBmFkjLWADo3v4ZOYwFUeTko8lbj0Z2AuWwSbrphHubOmoLFiychJ96FePtRKIoWItNiQLT1KCp3bMHrtbVIK5mC0pximOVeKuT7sOc3Teh1qJH36XJkhmNQjHVdgYUY2T8SdCdHIbCOwSgE3uQoBNH3NgqBJoyuHXWoP+CE4fqrsHT+dFw6Zwrmzp2K+bQsWTwHk/KsSOFHmToSsjx8hkaTeITNj9E4c+auL3oVCSUSU1qKv1QQS6IqGqMCREZagPY1GpLH8ULbuf2KKmz8hrlMResMfBwvHL+oIkeFMRfFCnM2UlIzkUNCm+dB51alRBh0HexAnrThvZa4ssQMPTwbl9qQB40xb3RHIYj44OreBoPlPYxCwF1mWIi0vY4n1h3FP4/qcMmyWbh0/gwsvaQYk7LkGHx8C7zp+TDm5yJFxZU07hJANpJ8RDaXBrJkooj6nTj85CG4siai7JpLccXsyVi8aAIyKJ2ZHS5kTZsMm1oBlZ7uX0d+HLExiV/JxuSSGIk6GZ+D8yhpO4XPT7OlFlz6zj7U8rHJc5Mo4keuUmPm2ZIchSBMaScWl5/3UQgk6Lw6iwkpOZMxqXQKFkybinlTKW1MnYHFs0oxa6IFZpURhtRi5KZYkEEmURuMyCzORobVAF1MReZIQX5RGtJTjTBbrMgppfisjkMj00KTOhXTJ0zGJQsX4tKFMzDFqIZRY0Zmfjqys1JgytJBThWYrLRCLJo9H1etXIppuSZYyaS6VBtVZLIoLDXUcS0stlQUldhglMad5bTDWQGPSSunfMEImSEX00nEzZsyHfOmlWPBjExkmozIystARmYKjHEFJUsLcvLTkJ1tkpLv6dx2fBSCXmkYLW1m5piMQuAf6IevqxMq8o3OaoWC49t7atyJQ6bmcXINyKC4bc6Ziinl5EseEo1seuOkVGSm6KHQ2qAnX80qn4Al85dizuxLMCHTiilWOsZIcSA/E4U5ucifSMcuXoLL50+hPEkNq0pG+VM2bAXTMXvGPFw1tQiLp+UgLSOF4oYBRo4bNisyNVG6BwOs2cXISUtFFt2TTJOCkvwCLJw5h9LiVZhYkI+paWoKl+L+e7nVE+DJJdw9PVTuBJElRiEYl5zXUQg43XO5kpEB5OZSOUz5fJLEVLI8hBaLWB4uZObMUROwozGVbH/dk4h4W5FVcjkV8HR9Y41KhajXg4p//hINE65ExoI5WOrdgs+vysN1S8px69Js2okKVcpiXat+gVWvbsRrKx7Gj6/MQWHtRmx+8VG8Hm1FUHsvVlx6De64nnKDeD2eWXEQPcoMLHv9Wkz3R6E611zi3SCn89SHAVcXPK4+KAxFsBVek9x47nAmFfb3Y7h1FcnAINIKLyGVwQXxWdyXwYejDx1C9T4XZv/zHpSD/TsitOgz6qZaFw/6HoCrpRoNfUEM+OIUTSnzpgrChGwV9GE/ujt8kEe70Dvshz1igSazCHNLjLCY4gjbB9G9rxltdG1eujQtFfIZVHAXp2ihV3oRdgxg55FuBLiFKiUDpoJiLMrgMSyH4A1RYaa2IdUoQ6SnCZ3tPah3KhCPRJFZVoaC4jykymin94JciWjIg97mTTBkLIIpcxEUalNy47nDE1d07P8FMvIXwpgxhaLsWVwnVwoiAdif/QN+dMSIyuIbsPkb08nPLP49QOs2PHXd97H7mm9hwT3X4J5y2rexH86wHYM+H4YdVODLcjFxejplbnKE+/vx2te3wvyxSzBv5SJYwRMD+NH5nyewe28XVF//MlZkR6BsakNrXS86eWB98pcpMwfZxUUoprqLLOpEd3sfKpoGKHsif0RSkZGXiUkzrDAoInAebUJ7Wz+6qcISi2bRuTNRVEzigNLaWUMV5bDPDq+zC+GYkoTHcqmCMVq0r1uDLlpm3fMxqhhppVbUt0CVCJXWADkPTH+impPRvuEg5VERRJU6qOi3jCpCwZgcKh33caQKA7ds0vEaLVWSyI6RMFXAdCrEgyESJ0pJzMh4vFUuGDheBPwIReRQkvCXy7i1NiL1l9RqKT1yP2UWbz43hROl9Uq6LhLdlF6krgoUV9RamXTOyEkVBvouV0FJFUSFhluU+T64MkLX4KZPFVUeqZiJBcJUz6B75XPLKb3yuZMhnMqIgO0+fAhhOtg6fQbSZs4iU41uw8ZQVQXse3ZDR5WolMJCqM1mqmy+h3jEsEkUKrIRFbpc4eKilfNJSl9876GYgmykhpIEacIf7F+eKp3syZPnSfamdMfvZPB23hbwIkSVczlV2pVcZnNlOpJ8AZsq7lHOMylucF9ZWTQotcIqqHKpiEcp2BDCcg3V1+k47vPK1xKiMGN0MrrHAN3mMRe+R3g2rq4DB+B2uTDz69+UKmmC8cX7OpUsx/NkXpBQqnQRoJo4Zs+mNaK2dBJsJ7ZXyAcft1JHHIDbSeWvH+YpizDpmpvwdEUzuh0eKGIBqXVi8Vd+heLXnRj69zYc4lyaGN0sdrxAmbCcCrCwE/32Pgx7qRLl6ENUWgYRp0KaSmiE3G3Yet//4Isf+wquv/1eXPeRb+Fbq7pQ6x/CUOtRPPyjF/HUb76Fr372a7jujh/j6l/txF4Su1AF4ajbhsdv+TLuvPUruO62r+CGT/wY315vR4uPMlV/BzreeALX3/FVXPuhr2Hll+7Dh17pwHCEvFX5IvZueBb/rlXCH/ejZcO/8cd778W1t3wJKz90L/7nLxuwqZNqhRw/zjXHv6CgmyGfxOMO7N6TjyunL8A/v1EOhZvivnsQ8FAJZ5uGu1Z/G7pgAO07j6LP14c3f/sA7vvFN/Hpb5Itb/0a2ekp/GtjNwZkGspk4uRnH9zk0+5IL+LkXwS60anKhqxkDlUY4jDp+lH15GP4HdlWsjH56sM/eAL3H4wgzK3cgwfx6r/+hGtvuxdX30K+/NC/8N0/1qNNR9vUrdj/uz/hR+TDa2+hOHD7M7j/tQ4SsxdxwUliI+x3IehyIug8YXF4EaR0QSmDxAgJz/DIY2IeOzZIWuR4F4IgC6QQdyGIIeQLIhzlPpG0zu9IhkWfHh+C/HIQ7R8m4RMkAUnZHWQkNIM+T2If3jdMwojiBleKpbBO6ELAkyRE+KmFdN4R6AdtiwTpeqV7oHAojwy6SEBx5TdE18HiVdqVzk2/+dxvJ14vWsgMcbJ50Ec2YDs4+NMt2Yzfj+NpfHmymeP+IBtRRSMY4j7MPD0rffeSDUe2e8lf5GD2UZTKpKAn6R9vgMIksUo+ZJvGpLjBFZuEU6KhxG+qy9AP2s9D18DhUZkWDNCxFE+CoyBeBYIxJyleGaFW3ytcczWZYElPx9WUKaRSrYAz5niMW4Am4u7vaeFbbMddj/RSpToGPbekcOYhOAE19MZ6dDb+EXfNvRVTym9A0YyVKJp6N/LLH8fftw3Bp7AjaG/Fi6nfwf/87VF0Vb+Cmt2P4/G7S7AwRwZPix3xje3QrPw5fvLiK9jy8N34S9bvUNPWi8oDIRhVxZi760WsP7wa3fv+hHW/vw26nbVwuitR8/IRrPpfD772t39g7c6H8dLnFuBTu5/Bxs4AmgMK6a3cWDgI36aH8euePOy79Vc4tPVRHNn3E9zlUqHja+tQrSSBzW9hjxv4Xvj1kT50xq1UoFmQf6Ks4NovC8PsLJRq1MijwjQa85GdNsEw8y58+v9WYe+63+LhT66FJV6J/Z16KBRh6E2r8ND/fQVLCq4lH9+MovLbsOJjL+CPa6Nw8CP/SiesK+/AR/a+irrDL6N7xw/x/SvL4H7jKIbonG3ba5BaPAO/27QG1YdeQtOhb+Ox3yxAsX0YDQ/+EG3LluLmV99Ay5Gn0PHmXJSEWvH4fUfgUlBhL/r1CQQCwbhDCNj3DBWKsTiikQhaojHpoag0H3icCvSQGqkrFmPeJC9mVf8Fmwdk6AvrYBDWPgV+vGmG3jwVy29cgVtvuwJ33HwVPnTLMtxxWwnKM9VQxkxQ6dIx07APFbvX4K8PvorHn+MZafwYCsuhNuihmlCG6XPnYfncxVh2xTzctbAULQNBNARSoMuwIiu4GhvWvoS/P/Ymnn6jDgcG3XBHXbCTgB62TMSt1y7AtYsvwS03XYX//vBlmJ6qgl4elx7fyalSEuhvQ2ZWERZdfgNmXboQM+ZdgVnFYajCR9E4JEOAB68cNxqJa1kcUbXQRMNQyLnl7XhLJs/CLt2sLApXJEp25PYeNR0yDWVTF2D5FYsx//J5uHGpDVa9AsMuFr9yRMP5mDBzIa6/g/x78xXk45vwqRssmFvQhJcOeDCkKUV2igPynhfwn6dX4V9P78KqA22o9foRoHRmKcuBMeBG39Mv4sknX8M//1OJrYeGEVB50H6oGZs3bcGTq17Fo0+uwqMvvYiH/70Dq1d1o5vEa1QIWIFAIBh3CEl1psgVUHDLk5JfGKJFT997O9FTV4NBqwFhWifj1ikSPDJE4DDMwNLiNHw/+wB2vnIUO1ucsKsVwuAnEUbAn4+M3A/hB3/5Gf523y/w2/t/iT/+9Qf489+vwRUzzVBHUqBNn4S7J7aiv3orHnryVTzzwst4+F81OFzjRtCqhyw3HSmaKNnWA0SV0KWUkahUwKcKIBrtw9D2N7D+lXV47PmtWLWtAV0KOSIyOZQWCrsgH5k67h9KQivNjMKl2cjUyKHhR6TJFnPu91dk1qKYJ3sPB2iNDPKUKDTZQWn+D26MHz9wHNbQZzomptrR5+zA+ja31DecX5CS6SkG+4dgf3U3uujG/VkmqGn/eHw5cm1mpKjsgDMAlX4yNFobCeAQbVOSnxdj5Ufvxf1//jV+f///4Xd//h3u//l0fPKSduytCcOuCCNsr0Hr62vw7Isb8PgLu7G9vh9D3A+THGFdvAg5qWYMrXkNL738Oh75+yo888oBbB0MwRPSor+mBrtXv4anX9yEx9Z2w02VyOICi9R2zN38BQKBQDC+EHrqTKHCOsYd+XnhQTBlXtQe3I2ardvw1XmlKE4xJsZjTDb2xPwOyGYsQ9G1/4OUH9yH1e37sUqvk9qyRHvQCDLIZBFEIx4MO4dJiAwBHl6GAa+Xx4IhW/MICnpk3vxv/OvZNejpeAYH1nwPK5+qwtCuDjS6XYhv2I39zR50RVWIDHXhwO6nUWhTIr17Gxr2bcHuRc/h3yRgW2v+gS1/vxs3KBUwk6iJtXoQ3dKLFn8YfmjhProaW/72CfzzoAsNbk1iUAJCQxWX1fVdeOpIc8L/6MbAUT0ch4pQkBUnXceiL7HvxQ/dSIynMjVh4fIh7G48hG/+7hB6pYFfKeYqHBhq3oeH7voXVLYUzLhyOqy0TRYPIkJphPtJMtzXkl/0S8Bjmgbg91AlDuRfLy2hQYSHglQ5MGEOCc34zr9iZ38mwp/Yiqp9L6D+4K/wwKeWYK7HDzn5Kh7Owcy7P4t/V69B5eHV6Hh5Au5c1I4nN8lhSg/jtm/di3+sfR01h15A3f4X0Vj5XfznD3MxJRyDShpVQiAQCATjiYSA5WYkfkHJ45F+frChApgKzGjAh2A4jLCcJGfED8XTf8QvPnIPJk69GZPm3IaSgmvxrY0KyO75Kz49XYU8fRQB7kDv9yMYI3HEhXfEQoXrTHziF9cgVZ+K7n4foid0QP7AI+OhdqrRdPS3uHPBhzB96i2YTLYtn30LJk6/ETf9bjteaR5GqH4NfnTFf2H57NswefrHsOSW32D9HZORsrAAE60GxBamYfC5r+Lrl89F3t0P4sPBb2NheQ6unmaBc2AYv/jE3Vi28HrM+OiDuOsZJ/JdHXD6MlB8cyGu+kIr/uuKe1CevxDl392Oryq+hesnGjDV6IHH60FQroX+so/j86YaFPz7Trou8n3hf+PvMS/Sfk5hUlzR8awV4wkecotbqBf/N753UwnujT6MS+bdjtKpN6Cs+Bay2VPo/8lfcesdC7AinV8OiSHkDdJnNNlblgRniNIBCdsgi2GEoJS9iH/+5Mu4pOwGTGY/ll+B/N804n/DV+FTU4HyslzsW7cWX1y5ErOX3Imp/283Ht0+jEkxO7oUCjRv/jn+8JXrUTbvTsxceBsmfbgBT23Px0dvyMGCL/wAuVt3Yd0VV2LaorswY8HtKLn7r/jvp5qkPrA8S9QHD4U0rJbGaoHGklysVmioEq2RJzqCnB7aIlNCo1NBpZKPr5mx3i/4RV4FVYhVCqlS/HYmjccpzakoTyTbn1OUpYP58A9irBeMQ1iftrUBu3YB3d3JlQkS48DyxqYmYGgIyM6mmD86Uf+iHAeWkN7xpEzHlF+CzDQbbHRaRSAGY2YqrAU5KM7PRl5WJuatuBrLrrwME00+OooK7WgUamsqbIWlyNLJoOUWK7kG2rIM6Gx5mDUrF4tmpsAYfacCZJRgH5L9L+hxYOlIOQJQGDSALhv5uVkoLMhGIdmXl/K5czGr2IZclQ9dHR7I2Rc5WSgumYClH7sKl01XQN7rwOEqGVUqNNBZbDDmz8SsK27CRyaZoDerEI/p4PeHyV8pyCybjEmTJuOG6WkomFqC/AIjUrPk6OyLIjs1BSVzF2PuZSvxkQnkMwWJMWMOUrLyUZqbhny5D1alAh5DHvKy87H0luW49KrJyJXx8DXJ2zkbKH5dsOPAjmDMhM2iRAFVzro8evJPJvJzcjB5xmxc/d8fwcICDdRyngefh+nRInNqLtJSdNDx+EqUVpXpZcglu2Zpw5Arg4jp02G2ZqOoMBsFuRkomHcJFs6fg6uLKIHp9Aj4SXRR4ZtPvs+cNBOLJxdhxaxMpE/IhMHVBZdXDr8qBwV5acgpXoRll83ETctTYTLnQdXvJfFMPqP0mZedjuySiZg2qQgLS83S4Gxn5SPyzfs3Duy5QuJFzt2Y7Kh7+VWsenk1nty+A5u2bcfajRtQ3Ud2Si9HhiYG0qenmIWHsuIB8Puxb1sPfFEZDOl6KKhCfiFw8Y0DS3DXs5AD0b4jeKVTBU9ciwIT5ZinCU6tHkJLXRcO7xuEOd8CNTmI6hpnQWJ/dSQID8dhstHx3uvnDzEO7PjnvI4DywK2owOoqwOdCEin8ixJYhzY7duBykoqsIzAnXcm3jIeBS7KcWBH4IHUeRB1HpdPpgJYZFEGcTzLp8w0SuJF6gRJkpfMKON+gjx/PveTPFYm0TaFCjI97c8iwsPhJTeNJZR5XfDjwPKuarIrFxAnNfUkDRTxAyGyF48/yoPcHzMc7RsiG6tbUbOxGS/8NYCP/OlqTCjgRETr2f5Bbg0kgSv13aRFOpbC4peOuCAMhOg7fUpz9J+wncMN0n1wXONmkBj5mLUfD9IvhcPXSesjvB9tSw5Tc9bIL+BxYI9B9yqne2YfsdqR4Pslg/i99EGVNrp/qYDiWefYV2Haxi1OKko/4LElaYklBCqk0RpG/EzhxOma2IZhqgzReeTsB04/vE+cB8EkP7B4ogoIVEn7S/GEr4HDpuO97BwK10DnGzl2ZDuPb8ndUM6WC2Ec2PcM99X3U/qsxRMf/x0eP1KHfekp0FH+FPC6MWvFh/GJz30Pt+cEYFLzjPtsq4RP2JcK5RDcrnrc99NuTLp8Gq64dTKM/qiUFGQ8bBb5RJp1i/aXkZ/Z99I2Wi9NXfpehd4ZcDGMA3vcJtxIwYOTqaBwtSHQtgU/7l2IOcX5uGuiGtFkvsH7cNnBNlXr2rFrYyf27wFu+NICZBr5RUrufpOwN1d02MYJ21PeRobn8/DxvB5U6Q45fXC3uRAuTYeR0oTUWMLXJEscy7vJFXx9lG7JZ3FaEZF8xumYhzWkffmX5E/yNW86S8Q4sOOf8zoOLPcOqKoCjhwBFi9OzFWQJFEqcQbABb2IaMcJshCigoUTMA/y7PbQwmNhupMLffcdFzBS5soFER93UoMKZSBc0LppXx7XNLG7gGFbhMkunhPtmrQtLyxcOAeV7HfCev7OIpM2cRCcsYcDHnKXk7aRsOLRuGmbPE6fLEiPHesjn7HooXNKOTOFwWL3xO0cLsPn5GsbKbdCJKZHzs2fftqe9P34he6PK3EBsql03yN2ot+sueJU6CUckLCr1AdcWkG2I3tx+pFsROv9p0k/Hk5j7AfyFacxH9l/ZB/eJs0kQesZDu9YPOFP+u0j53DwPOvWiceObH8v4nUcIPU9Jt8Epn0E93zzAVS/sRZ1q19Dx+Y38dqPv4yP5PqkbgRRyX8sgngZOZjX8SQISqiowiGZl7YnlsT3Ezlxm7TzB52kPSSByEsshIg+C4rJH8b/Xl6EW4uUUj0vYfMTbEdpJujPx5wli/GZry1GjloBZZgEJhk1EZ4U+nGOHZtcqChXqe3o6q3Gw0/WYHgoCA2FMbIfF/RSECceIy28coQT1ku/BIILBI6o3FBycoRNCliB4KKDRVEa8idNx0e/Mw+FNi2UH1DBIhCcjpjaBLMtE7n5ebDk5sGUkwGTxQStLAS1/xCe+dV3ccd1N2DmHR/FtNt/j1+tbUQzeOIJScpIs3d5evdj8/0fwfWfuBlF1/wUH/reLlRw4FYdhiuexxM/uR4LPnwHSr73In67dxAawwe0EYTKVYUmjq7tf8dfv389Ztx+D8qvexC/WdeNQZUbsdaNeODQAA40N6F9x8O4+mP3YM7tN2PyTT/FLd/ZjxqSqnKTHQ1HK/Dqs9UYjGvhrvkzHvztdZh880cx9aZf4TebWtGuS4MiEkDf9q/im9+5EaUrP4VFH/0LHqn3oqulEY1bHsXv3/wzrn7xIB7eVIke+v2zv9yJeb94Gr89yk/jKvDsxz+Km6+7FiXf/Qtu285db2QkdntQue5hfO2WW7D41ltQ/Ktn8f8OOaGRWmuT9ygQXGAIASu4SIkjHtHBYEtD8YIsGHRKyN7L8y6BYNzBikMGXe9e7HrtQXzvf3+J//v1r/HDh17HC0f7EZDLEfcB+ox8FE6fjbnlpZimqceQ2456F49AwQ0dcqhCPeizd2NNpw15BZOwdHYJppakwETb4x07cbitE7uCBSgrKMLEWA262yuxuj0qPdzgd+c+OMghi0eh9DVhT2cAlf58LJg2BQtn5KIgzQBdyIP4cAN2d3vR0d+P4eEuvGFXQ5tZhGk2L4y+QzjYH4cn5sMwba8+1AG/pwk7uuLoiBZh8cxJWDTTAH9HP5ormmi/PuzZG0ZMlos5c6dizuQC5OiVJEI10BhTkWlORykPaRdqR293NbY70mCjiozNfRhtVc+hQpWLlMJpKFZ0IFr3H+wdiMLdfBQDQ53ozpyJqZOnYUlRBkpMVBkZwy4hAsEZw90T+Qm31E3xOAkBy5GUN4jIKriI4H5dUqT2hin+UtwVLQUCAaWDxKM2rb0SFbtexh///RB+//DD+Pmre7GmYQgRhRoReSmWfujD+PqPvon//cJ/4ye361BiC8HuTCYjCkPuH4InqkZfyZ347Ce+gvu+fRO+fEcxsijJufavQk0oA+oP/xtP3/8XrP9YCmYpmvHYAac0zazig9Rsx4qfu214+tCtmwLb4s/gl/d+Hr/55iJcO90KvY8VvQZ6FVUKSOgqUgug/8h3cP9v/4Xnf30VfnR9F5q7gGG3HGqNBjpNBKrhfVjTMxm+oi/iD//zWfzmW7OQ0tONo+v2YUDhRofvWixf/iX88tv/hR99bjEWpSthyytE4fyb8fHZH8cj187CbWVB+HUGpC36NR787K24W9+O5gOHYP3ub/Gbh57Bpk/OxLcVL+G11iCOtPZThSYb8z7+DXz/K1/FH1fOw0fytAhw/1ohCwTvJ9x1gN+TMZkA9cnvQZ0sYE9RtwKBQCC4yOC+3ySonBNuw4e/9ndUbVyPujVr0HffZ/D7KwqgjcagzNagfd3P8X+fWIb8a2/DlJ9swZoaF6w8QYsURgRB02yUpptxj/9e3PWZ65G27JO47MtPYe0wUG/XocCgxfJCGQJeD5A3EzpzLjQDfZAmdDmlr9q4huwdl1GlIHUFbk3dCd32/0bm5dch5/Jv42uPH0JlXJdoE6c//MKURanACpsZKqn/P4nMkEJ6v1EyGf2RkWKUu9xo3/4A/vjLe5B52UrkXHYv/ufpN/FquwkuTRnuvPQonn/q65i45HJMuPFD+On2XtT5tFDFgghEAvCEIvBTRUOvUqDcxi+f9qFzYBI8jjuxIC8AZaQPsExG/uS70GZ3QzH7MmQH3Oj8/DLMufpKZH3uL/j06jYE6Hjpmvg+BYL3A60WKCkBeCSrvJNfpk0I2MmTgWuvBVXpEi90CQSC84QoGgRjQ1ypg86Ugsz0NGSkpSE9xQirUYswCc7q1/6DnsxluPrbD+HlP/wvfn41MDPdg1AkUSRwo0YkEoMpazZW3PMX/Ps3f8PqH92Ib10bx+oqJ2IyLxzhCI7wo3CzBRhqonD74aPzSS8esYgdM8Y6zVD4/Db+aV4aeSeicSUK530Sn/7afXjlz7/G2m+VId/mx5pKtxQMW5atwi9vaTh8/k0rTrIU/6btcb0GadNuwq33/Air/3ofXvrTX/Danz+P33x6KgpjRmQv/QS++93f4tXf/RBPfPt69Hf0oamlR3rjPwY9TBoVtMrEtasUFF7cCr2uCRr9BtQMG6HQZQPBDgy1rkWaQQWlsgxly+/Ct/7yZzz397/h/ks1uCywG9uH5AjEzq5LyDG5O6ZxQPCBgTWp2Qzk5CRGyjqBRG7FY2sVFibU7Vkk2PMDJwIpS0z8FJwdI/7kR1yjzUj+JFzznpFMJ2X0o5/Z8/A6iRMIB509bDMu+MfGN2MR5AgJb8cQCQYR8PvhCwQQoCUUDCNM2YAsHoHa2YZdDQPY1OSkbX7MLC+DTGNCt8srHRsOU54b6sFgVxM2b3Oiu98Jh0+JQMiMdLMcOdPnwoZBdK/7E/78r3/hl6s60RCyYMV0nj5YRmJu7G4w4RlmbM4Rj0YQ8fkR8njAsy/yW/nvDG+PQhloROWRbuw54ILT48WwxwS1SgebkYxOYQaiVCmg8GLRMLxUOZAezZMvYpEQQvSD/0nfIwpEUqZiebkac9MdGHC4MOx0oF8dR8ASgTbUhcPrK9FU0wGHH3B6M2E2qKHTGqGK+aANbsAjFc3Y2uGBCsnzhlXInJiJwolKdDz6MP715z/iJ2sO4zFnPlYUGpHjqEdlcxXWOr3od7ngVqsRJbFAVZNjwvtM4VFh2GYspt/NcgLBu8Lpb2SkLK5UnsDJvy5EpDHs5FSQjLxhLpLEmZGwU2I6T5L/ozwJBIfOYXIBz+PNCr+8N+I8TBXbTjbaTz7I5xSmJMDGovIyzhmxG9twzLJJ6RxnIw3ODK7uA2qYrHoYjWppKt4RWJBxP8uJC+ej8/Bm/O3nX8eXf3M/9gSvxrCiFOGAm8oIDSypJqToPOiv3oQHf/FTfPVH38U9v9uLh3ak4e75ZhQuvg1zUuUor7gfP/zzH/C9/WlwWufiM9M00pDBPKLaWJHIb+gux+hpoTQ2Kgl+79AgYuGwJMbeES6jKK4owu3Y++pj+NXPfoDP/OxXuPvvVHkIpeOOeRbE1SakapUwarVQaozI0svJTpR3KvVQG1KQouFJB5TQaDUwp6VAZpmDlbZKRCvvwz3f/Qk+++Mf4VP3r8bf93fAFWnDngfuwy9//EN8/McP4Gv/bMeUSTmYXFoGrSKOIttWPHi0EZu6ZbCYbUhRU14QIWFbfjUmzroH2Wv+gUf+9FP8dHsIG/O+i2sLtcj17sHG1x7AF3/wI3z2e9/B9+p1OJx9OS5NiUInDbmWvNd3ImmnMFWIeHeVXn9snUAwFiQmMhgjRmMig6HWNQi76mFJK4XGkEmZFqlwUSC/Oyz6qabv7K+iwkQBjXUyTJnzkxtHBxbH3Uf/BnnUgexJt1DpGOKVya2Cd0ShRjToQlvFM7CV3g5r7vLkhtEhEnSgp+LvJGJyYLKV0umoMBG+OTMojwk4SCgMtUJlLoMxfS5UurTkxnOnfd1adK5djRkf/gjURiNlZ6Odn7Gfowj4SIAr5FCTcJLmfzgGib9oCE5vgARWmASrHAatDjGKkwqFDHplDH46NjEseARet5+nhSARo4JKrYXFooaShEks6EPA74UnTN9JiBl0JL403NjAx40+/EifxWTTpo2QWa3IXXElDHn50vrRxNnUiP5dOxHo7kb+3LkwZmUhypNivAuyeBg+rx/+QEiaaCEe18Jo0kpzbMjCIXhiZD9ZTFr4u0GlgCIWRCQaQUiuh5bsHgtHpfk3tAY1KUE3hcX9WRMiMK7QQkc2NqnjCDo98EdoX57QQKaG0UzHU81BFgki6PfALTdIwlOviCEgo23kVwWJW27h9Ts88FGci6i0UGkNSCXxLIuSYPcH4ApGpepPnPILHYltq4qnWjgz2De871BjAxxkO2VqGsruvHvMKhqC94/zOpHBO5CYSnaMYG18rlPJcm4YDg7D72xMTCc7UhBzzU4sp1+4tZU+eaYne8dOqLkQzpgHuZJnRxo9OMMKuprpPMNU2Kmh0lgoRiVfAjnxesRy8kK2ipFvvI42hIIeGNJmQ23IStht1KDCigqloKeTvoahseQn1xOnuyax0EJCiNNOPAr3YAP5px0pRSuh0lPFmbePEtwHNeRwkj5xQ2uxQGsyS3kln2N0FhZ6KuhIBKnVPBQSnfSU7TyzmdlsgdWWAovZDJ1GDb1aTkJHDpJY0BtJpFI8VVJ+a6Z9zBYrrCl6mPRKqrBSeHESRBoDDOZUWKwUDp1Lr+SuAyeeZ/QWBalptpHPbkd/TRW0WdnIWnzJmIgjOYUZDQbhamqgPE1LadNA5tJL10F/Trqu4wvZlCoAevKlyWYjm5hhtWolm8TjbG+yHdlXpVJDpiIRyqKRoxTlySoNiX8SmvQDSvaDQQXuXyDXmEkAU1gpVgqP7G8kMczN2yRY9SkpMNFipfNYzFpoaTX7WU6iVMvHUKVFT9cuo/MaSBjzYK4UItmRron9yccadTBxexDHD4oPBmMyPvC59Gq6Jq4GnXqfb12k2bvIZmw3btTor62hypAKKVOnwZCbJ+0jGF+c16lk34ELvgU2Fg3C038Qzs6NMKcWUc00DUpKlDJZUigJ3kIsFkY44IDP3QOvq58K4RtgypiT3Dq6+Idr4B04iKi/G8bUMmi0VsrIeKgLkWm9lbhUCEdJWPpd3fB7+qWWcWPGAio/js/vPBpwl5uQrx+OtnWkX4dgTiujgtIk+SYxL4/gJCi6StOkhsk3nm74XD0kSMzImvaZUc9rgg4HhiqPon/Hdlizs2HOySH/60g/K+hckg4RnAI/yvcNDWG4uQUREkwZS5YgY/7C5NZRhhzgaW9D26pXIKfzGtPSYUhPl/p0KkhgslATTjpOlGzEU+1GI2EEqXI2UFsH48Ry5Ky4EloSOFKkFowrzmsLLMUtaaZFrzcxlBZVKEdICFjegReOaNxRdpQYDQHLRILDcPXspmUHtDoTDJZ8qknqpG0iHzmOlE3Qn3DQA6+zHUG/E6klt8GQNh0K1XGnjzZ+RwPsjc9JNXG9MR1qErFSiwQh/JOAfSO9phGLkkDqQ8A/DKUmDVlTP0XC5eSx7UYTz8BhuHt3IezphCm1hHxjJt+opGsRJBhJN1F+lOsbgnuoHhrzBEo7N0Otz6Rtoy/4w5QZt7z4AjxtLdDo9bDm5UHJYxxKClb45kTYGgF+saiHKuSDgyi9826kzZo96l0HTiTi98N+YC/shw8jPDwMlVYLtU4PnS1F+j6G7T4XF2SHIPkmHAhIS8DjgcaWiqxLlyF15qzkToLxxnkVsCxcW1qAhgZg+nSgrCy5gbJLScAeOJDYyJ2ur78eozWU1mgJWM7CYhG/9Dg0QGKJP/m34K3IZHHIVWYqgIugSymnzDYdcoUmuXWMiPMbz8PwDtVQZtaCaHBIZPCng7SJXKaEUp8NnXUCLWWQKynNjSHcEhv2D5IAaEbA2UC+cZC7ki+OCU6A0o1CBaUuA3rbVGiMBYlK3xiI1xEiPh9clDG7Guvh6+og34QlQSA4BYqqaosVpuIS2GbOhNpskVpDx5Y4+SOEIAlmbo11tbbA39/PBWZSOAs/SY4he4RJtPJXjc0GU2kZbNNnQJeeMaYVDMH7y3kVsG43nxA4ehRYuDAhYpMkBOz27UBlZaJp9q67kOy9f86MnoBNkCiM7ZJY4heUBKeDCmKlFkptKonX1OS68wO/OBQJDCEa8UkZm+A0kCBSqi3gl4JGu0/yOxENe6QuBVLFTxrRQwjYk+E+qAoo1CaoDdnkptF7EvVOcF/LwNAggsOUp/GscoLTotTpoElNg/Z96GvHfZWDjmFJqPGj8gQi/STgxqUIpR0ZVcz1UuurNvX8ljuC8895FbAuF1BdDRw+DCxeDFAldoSEgN21K7EDC9gPfeiCFbACgUAgEAgEgveP90XAcgvsokXAjBnJDRBvcwgEAoFAIBAILi6EgBUIBAKBQCAQXJhwl0TuvnNK18SEgOW+V8EgpBGUBQKBQCAQCASC9xvu0mqxAHl5gNGYXJkgIWBTUoCCAiA3F9IwLgKBQCAQCAQCwfsJD+2akQFMmQKc8oJgQsBOmwbccANwxRWjNoSWQCAQCAQCgUDwnmEBm5YG8ItiPDHGCYg+sAKBQCAQCASCiwohYAUCgUAgEAgEFxVCwAoEAoFAIBAILiqEgBUIBAKBQCAQXFQIASsQCAQCgUAguPAIhwG7HWhsBByO5MoECQE7OAi0tAAdHW8ZKFYgEAgEAoFAIDjvsIDt60tMJ8ta9QQSApaF68GDQGUlEItJqwQCgUAgEAgEgvcNnmjL5QI6OwG3O7kyQULA+v2JplneSbTACgQCgUAgEAguBHiCLZ6RS35yr9fELxatvIjWV4FAIBAIBALBBU5CwLK6HVkEAoFAIBAIBIILBW5gPaWHwMktsKdsFAgEAoFAIBAI3he4YZW7DrxjF4LTqFuBQCAQCAQCgeB9gUWrXg+kpgJabXJlAlmckEYhGBgAVCpg6tS3qNz3SjQaxTXXXIPLL78c3//+95Nrz41wYAhBdxuiYW9yjej2cJxEBUSh1ENjzINKnyH9Pp8EPZ0IeXsQiwaTa4R/jhOXrKFQW6Ex5UOpsSRWnyf8ziaE/XbEYyH6NTppfPwQo4q+UvKJzjoBMjnlheeRsH8AAUo7sYgv2ZAg0s1xEvbgfE1tzIZan5VYnVw/1oTdbnh7uuHv66VfMsgUlHZEWw+ZQkZRNY7g0KCkGXSZmbCUToA2JSW5g2C8UlNTgyeeeAJFRUWSvistLU1uGQNIR0oDDXhJ85lMCTGbJCFgQ1Sg8VAF3FSr0yU3nTujJmDjMURCLvgd9Qj7ehELu2hVOLlRcCoyuRJypQlKXRZ0KROpULaSa8dOsMRjEYT8/fAP1yEaJIEU9dM6inSCtyAVt3K1JGJVxlzorZPIVyfXKkcTTidBqlAEHI3km0HyjY8KHfaNEEgnQ5ULSiMyuYbck0IVjEJozUXkm9HLD0+HJFxdLVTp60I84iHfUD4sxNFbSKQbFWRKIwnYbGitZVBpU6VtY0E8FiPh6oK3q0taAv19CAwO0Dl1lHY1knD7oMNyge3A4p7NoUlNg6GgAObiEhjzCyh/Myb3FIw3zquAfQcSAnaMGC0BGwk64Ok/gOH2tVCr9TBYCqFUG5JbRUZyHMpR6H8k5IPP1YmgbwiWgmtgylgAlW7sMvugtxuu7m3w9O2B1pAKvTkPCoUmuVX4J0FCMMZlVF/0O+F3d0vpI63sDujGUMRyq6uz60347Adhsk2AhuKBXKnmEjq5h0CCxKtUEQu44B6so8pfNqyUdgyp06QK4VjA5xtuX0e+OUQZcQSGlEIoSDDLpLgi0s1xZGSNOCJhP/yuHkQiIZiyFiOl8Bpp21gQ8flgP3QA9v37EHY6SDQbSLiqoLNYodQIActIsZTsEHA5EQ1HaAkjQKJfk5aOzCWXIG323MSOgnGHELBngat3N+wNzyA9fyGJoxzIFWPXYjVe4Ef4AU8f+tt3UEZ/I6z5K5JbRpdwwAFXzw54+3Ygs+hSqHX8+IiztrEpWMYFZJowCSWfsx1OeyPSJtwJQ9qM5MbRg+NAb9W/EQ/2Iy1/MVRaM/gxueDtiSOGaMgLR18FvJ5B5M68lyp/6cmtowd3FXD17EJguBJanRmWjCnJLYxIO28HPz1wDdQi4HdDZSyErej6MalgeNrb0fLCs1BEokihQtpaXIw4lWeyUepeN55gCSGTyRIC1jGMnqoq6PLykb1sOQw5uRSdRXwebwgBe4YEXK3w9u9F2E0FfcESKLUkkKRLFjXgt4cyDM5QQh7Y27ZBoc+DIWOh1LdvtHH17IR/6CjUSjmsWbMgU1HlQnQfeGe4O0c8hpBvEP1tW8k3i2HKpritHr0+sSxevfYjVLHYBY1Gi5Tc+bSWC1+Rbt6ZRNrxDtbDNdgIffpCGNJnQ6kZ3X594cAgeo7+DaaUXJhTJ0ChJd+LdPMuHM/XhnsOw+d1UgXjK1CoTcnto0PI6cTw0SPo2bIZGRMnkoAthpL73cViouX1dJBPRp4aRIJBdB48gDAJf+vUqSRiLxOifxxyoQjYCz5mBUnAct89I2fySspEOAPhPnz8CJQXThxKBSWi5G/p0Sjto6B1fHfSwonrhO3veaFwuTapphr/sYXOo0wk3tMf834sCfvwY3y2WyziRsDZRNc4+nD/vVjYAVNaeSKjinIfvtNd0ygvcvYvF2in2fZeFobdKD8Pfoxxf3M5VBozdKYcKpAdCHq6EtcwSsSjIfiGaqDWmqC3FEjnOyndvO1C98+QeUclzXAYsvdoU/YHX8exde92bcnt7MP3fO0JEakxpJPd8qV+99yFabThFthwYAAanZUqmKmUbsKnuRaxnLyQbyjtKHQ2itdm+h6UfJPo0z168EtJ3o4OKFQqqrxkQG00Uh4XpvpFlC6DRKxYTl7ILjHK9/m7Qq2GOTOLkmAM3s4O8lkyTQoE7xWOQxTHQGnw1Mm2WN4lVvIOvFxg8MtbsaifMiwrFWhcop1wA/QzFqCCwO1BiPP/YytjiPk9CAbCCNESCwYQpls756REYikeCVIG54B30AE3LZ4hN3weykijtC252wVBMuNQsd1iYcrondLv0SYSdEliSUkFsSSSzpMV4kHyeSAo+X1UIBvxI7BQ8Dz5kQtkOpOaRCwXxNFR9k+cwo8EBqkSo4JSbUye70ygtENiKuTjAim56lygMOKR92LTuCQaIj5Kv8k1HBjHtQCti0ZPFyLtSdtDwei5ZWV043Kq/LHdoiSQYpTmRxe6t4ifwjdRmiE1Llpezw5Kq9xXWK1NoTg+ROYbXf+EPR7pUbgq+UIzC1fBu8Ot0yxiDenpVDnXIMRT0wsE5wqnP45L3d0Apc0TSQhYHkKrvh5obuZYKK26YGDNyn+kzxGSPzRBtG1ehbX/fAzPNSswFKLCQKNG1G1H/4YH8K83m/Dalhr073wDb/ZHYY8ok612yeVEpHXJ7wx/l/YZWUmm0vkw1LIbT3/xR/j8p76L2//rh/jEvffjBw/vxd5uHwKKkb5YHBYvyZ/HSK4/E6Tjz3Dfd+BYEOce1OmRTkALR5vzEXUUasTDITi2PYjnNh3A8w3kF47FJ97fqXaTbJn8fgxeN7JQAL4mNNTX4oXdVPEJ040o3nLA2MCnGas0x2GPLGcE2UE9hL7+Jjz9fCsGh0L0m417GqRw6c87ha9QIOoPwd89CA9lQmHpSQhxqj+kME4JRONHe1UzdqyqwgBVDiMqNSmLATg7DuHPzzejpsNP+0hNsQm4H2TEgVD/Yby4w47a7gjV3t7m2s8QviTJM6dc2jlzPtLJOIdNyC9Esm9G2z3seAWVI/oUG+Q8tOSFViZe4PDLblyBDvt4xBNhO8E5EggktOmWLUBnZ3JlgkQO39vLnRqAxkaqbo5Gs8to8g7ZE2VgPr8dzR0t2HakHz4fKXV1FP6AHYf3VaGpZRhBXRbSyiZjgiUOdTyIcCCMcChCmV8UMS6hVFQI6qigJVEUiioRl2uSjyjpk08tiyAU47dg+YcPVGyiSz8dV157NT73X7fg4zfOxs0ZzThQ34ed7WQ7yvigCCNGIigep4C0tHArC3+q4nTuMF0j7aOkjJGFk+QB6UT0nxYu5DVUGFMGEA9HEeG30/nRPGfWTJy2K+k3j0XIcFeJUwv/03Im+1zo8L0HEMEA9lb5UbelFUNVLfCSPeJsYxY0GhnCQRJePGsHD3rMdg6FEA6zndgHZDcl+5jiCouqCK3TcsXDDY/bha6hGEgvnTdzjW32frY3QfvLQwgEPZRPeBGKkCGkeDYSDsdDshdX1KiQ4u4iPOpTRKajdbSPguM025J3pe8Kqmj09GDP1kb0uSm9sT+42w35IyLjdELfJVHLaY2NToUepTUJeQxelw/2XhfiFMeVfD4FnS/kQFWXB04fWY6vTUoGdAynJR7fNkgC3BOBx5fsysLnPJfKyDkc+o6Icv0cGUMDStFJDjnFO345Sbjq7GCbsdG4NVYgOGc4HgWDkFpfecjXE5Cyf2kDt8IODVGsu4iSK11rTJ+KiMKMeFsDXGG6ybiDan59aA6lQh5Vw8iPUKkQ08iCcNupcOvtQXtXO/a8UYvWviEMDA6iY08tmroG0NrQgJbmdnQ443DW7Ud9xWHsa+xDhz1CQofPF0FUrUesdAGuv+k63P6RW3HzLfOwPKUT3QMetPQ6yYZtVBfoQUtbK5pau9HY5KGE7MVgQzsajzShuasHNQea0FVZj14q3NsDMsTkEQx1D6G7sQtBXzeO7KzG0SMtdHwnavfXoscRQEBGBXicxG+gG7VNw+joowuK0fV01qHd7kZPgAVawiwnMZ5yXxZPwWHEnC2oUs6GKRxGtqseDX45CaIgnC2daDzQgObuXtQcbkFbRT162lvQ3DuIzoYK1DTR9r4g4s42tDV1obaxA12d5K9aJ6LuENUTKD5xBeEDDZc8ZIdYHPJgPxyURhp7Eo9QY72dGBrsQtPgAGrWHEJVZQdqGlrRUlWNVlcYLdW96GkegJ81bGQAfe1d2HO4DQePtqDT7UdfWxf6qxrR2GVHYwXFWxKngyRSHZU7caSqBodah9HnSBZ6JEh5woWgbxj2Pjt6euzw9g2id8gFJ11boK8LYfJzIv2EYW8bwEDbIAKURh2trehspXTc0IHavXXoc1E4UveWC4gPejS70KE0ILUeXkzl4QXCMYudUcOKQHAGSO86cYPHyfl44tfIRm7Nu6iIIqoqRoq2GEvkDeiPBzFk74dsuA/y6QthtGVA3laDju0bsKnTR8KGCsOOBlQd2Yf//G0XDjd3obm5CVsffAP76ttxZMtqbH9jE15piaJizUN4afUreHxvB5o7AyRgKVmSnWQkGmWeQRLCffDZ29Hb2I79zX6kWMzIk3Wj98A6/G1tHXYfPYCt2w/g0RdJWHtbsW3NXqx68QCq29rx5gs7sWfVWuw/cgQ7h+QIK/xoOtSEAxsPwD5wEP/6x3o8vfowDlbVYu/jL2BLox2tEW6lIoEeqMWqN+qx46iLRIIXA9tfx24S2bV+bv1KmmW8wvGTKhzh2nr4pizCtIVmlKT2YV8bxYNgFw5t3oeXntyD6o4ObH11L3a8sAq7tr2OVyvbqFKwBq/vPoIXKp3w16zHcxuP4KWdFaiu3I0HnqqmY7yQqRVCVySan6SyR+OqxuGqJqw5GqBCSQZ/5R40NOzFxoYaPP/9p/HqxlrsPnwAR9a/gGfrXHjztX04uuMoGrjlc2A/th2ow/rKQbgjbjip4nHkjW14/dnX8SaltX2vvoJNBxqxubEXVS/fh0fWb8drR/rRMxBOaAa6BkWc+7d3oa66ERVU4Ttc1YKa1iF4aZuv/iAaDx/GLoeCBKwPdVQJPbCzGfy6Vc++/aiktLN9XyU2PfgSNrc40RXlzE+6QYFAIBCMAxJZ+kVc04xGFbAY5Jg3KYBWKswOH4zD2xFG/nQVdGY5Yiw8pUfHZhTPnopCgwHmll5M/sr1mDRlBhZMKsXKz89HsY6KaOcQXG4XPAEFCdYiTJ+1FDdfPx+XTNFBr6ESPS6DjGcsG+5BS2sdNj35OJ57ZA3Wl34WNy2diPlxEpIHm5GVr4balg+91w9r8xvYe3gvGgonIOWK67By4Rzc/cXrcOnMAmTyI1i+Cb5E6bELXYNcgfSll2LBistx+7JJuO1aE5r7g6ht9QE8eYN1DuZEBpERq0W1zI9tbfkoNeoxJ4NEQ7LxatyiksM14CWR1AylqxI+FX0fBrZsbUe4ch+COZlQXXUTrpo3C3d/diVuvLoYWcEB7NnWgzbrCixdsQwfmxpH/Z4GqDUhpORlUQQyI7tjGxoH+1EdUklPm+n/BwtuneTH/9LNJ/KBERtwtJQnW1KkmaqiUcT1RsSXX4NrL1+AT14/A/MvLUPvkUFMzHQiuxDYU6tA154+2PKsmLx8KkpTMzFD3oweSouV0UzkKGPIKVGgvqcfm7bZIVeUY/kVl+OGKydhVrEq0XDDL2LK9FAZs1E0oQjl5cWYOqEAE3JtsMplJG45OVJ6PPFC6RgZVcQzll+GRZddhg+vmIgPXWdAbVcAjZ2hc+tKIBAIBILzD+ftyfz9VJ2aELBSX0Eljk0nexERi8apkNMgdVoWHC2tqKhwoN2dgqlWGUyqOKJcFMuVkKmMUHZXwk6isqv8SqxcWoIpqcMY7O3F7jY9LDmlWDC3CFPKLGQnGWJxG1JS0pGTbYLeoJDKeFqJOPfbM6UhMzMX0xZORfnUQkS3NiAUDMBH54n5VCiaUoSyiRMxc85kLFxchOyoEzDQ+bPzoU1LgSVNAZUygig5RKPRQKNTQKuUcRdZggrnlAykZGZDkWmGNTOOILnFyy/acv9CZQpmFXqgDdZh2+EOVJkmUdAWWJTj/U1ZckCkA10uD7a7JmFuthnTZkxGVmoW8msOoHOwB716A1Q5+TCmpsJkA4yZJcibdjnuWTkJC0uiGOjpxZu77PDa48gqyMaEaRMxqbwcSy6bhNIsAwxxEmfJs31g4OHI/A6EWg+hvj+GUNwAnVYljeMYp/gepfwgSnmDjOKpkiKoTEYpitKAzJaGjIxUyHNSkJ5uht8ng3liBtQpcTTvrsbeajVsOhOm5xugoYpXqjqAuNEKRVYpZpEQnTp3Hi6dXoj52VQpk6UhncLKSifBqktkSVyri1N8V2hMSKU0k5FOwjXNglSrDkq6Jp7FSkZim9OPUkvph8SplH5omzwlEynpWZR+jMjIjsEfBnwhIV4FFxbxuJzitxYaixkac3Ix6KChijrHVu7CIJOrpAlINKYT9jGb6Bg9pSsF1cloTwWVIUZad2w7LRYLlSsaqKUh5RLnUqqU0GiV4kGE4OKCdSm/yMWjgvD7QyeQiMsU2UGFPnjuYla5Fw1UyNHNxVR6IHcizO3bMTTYiRZTCQriMajpXsJ8OzzMircTuzZswRtHO9FmyYGyqxWBwVYcrevAmxu74Y7JoTbroKBE7uehtyJUSFIYUR6zk4fskfKBGGJU4EeN6cjNLULRwhW47OpFWDi4D7sOkXj2aJCRn43QUBQxvwtRM9mzeDpKc/OR6+1HqKUS3Q2tOLinGR0eHzwxPzqqGtBAS323A73hhDvCHdx/rwG9DT1oaIgj1aRGlpWEBl8H3Y9thhUyjxet61qgmJRLooHOw+OEjVu4EkK26a3DoNuFzsJLMbOoEOWTpmNmcRau0DXicMiKvgE31G2V6GxuxeG9TajpDiJqzUBhgRWpgWrUVFRjU10UaQW5UIZJpA17AE0UocIpyLGakSUPkxkpTiXP+oGAn05EvAgP1GLbrjps3VaP5tZeeM0GxEwmKHxO+Ftr0NhANm4aRo8zBnk0DFlnM+qaWtBd2YXmRhdSqUKhLZsMnSoKc+tmHEGeNFd9MSgdeHtQNUyVCyps8/V+uMmfHqcOJWmpmD3BRpVQOaJRrtDxi3XHrR+jApwr3CpKk2p+G1xNhTDV4dhHKh0J66Ab7ZUNaKqmNNTnQn+Y4gmF42tpQXtTAwaa+lHbAGRa1Ui30H2eUnu/4ODKBN8g3a+08EtqLFAuNt7TdfP+tFyEt3v2JO5VrQ/D3VGHirXrsW7DG1izfh1W7a3C1l5KX7SLWqlCxNeL3saN2Lj5Dax+fQPWbuBlE1atPYBDbU64KL7HnK3YsWML1rz+Om17Q1pWrV2H3XVt6I5qpfcklUofBvvtaG7gfuKUFC7GeCX4YMJ5otUKlJUlPk8goZhSUhIbeTaFi2rMO5mU58tVJvpTjFmxg8jJHIJ3QjnpHQUVmJSXUsGnQBCa3q14fJ8br+/ph+rQajz7AmUW1WHYwyZkR9rR1XAAq7c1YfPBYco0AhSunMJI1ISPQ+ejhK/kl31iYbIViV6TFdd8LhcVlb1oGpQhb34R6l/ej32U0azbdQhrKkgglSzBFHczlNufwbMbduDfa/rRq7JAoQ1iz9Mv48VH1uLVyh5UyHTSANCKit04tGk1/rmhAv/ckYryHB1mFdCVcHcILoTLp0Ppz0XqLhcWzVQhJZXcOM71K+fo0WbyXSiIsmVl0Fmo0gIDsnIMWHi5AVWyOZA39yJt71N4+Y2t+Pd6Ow5VVqClai1+9chhbNjZS/FEiVlLClB+9VTYD3dg34sbsHXfTrywcxi9w4CetqsUiTllPjBwfKKardpmRfOWjXjhz0/j1bVHIJuaC1lxGdLc/ZBvfwmPvPQqHt3Yj+puNfRxP+R1e7Bp01Y88OwRbHpzEAtnUSUhazIyqYK1zLgP3lkTEErNhTU0DJ2/Ci83Z0LnHkaZdxee230Uq55+E3uoMtkt11AaVUjpamSgjRE4/Sl4xA1JyEqlLq+FmnyUXpiOcMCJnU++iBcfXY/X6vpRozBASftpKnbi0LbX8a+NjXhoezpm5WsxNYeOvdDTCIuRUAixYHJJtoJfbMT5utlfZwXvzz5O/Br/xCFX9qH2tf/gT1/+Cm74whdx/ZfuxY3/91d8Yks7HEGqKGpNCPTsxI4nv4Bbv/JF3PDFL+G6L/DyFdz45T/h92+0oi3gQbj2JXzy29/E9V/8Mm37orTcSGF+46HX8Ea3RqoTKrXdOLz7IJ6hvJCHpYtRGkoU/gLBBY6J9N3MmcAllwDZ2cmVCRJTybJo5WZaznS4iZZbu0aB0ZhKdrDlNWkaWVv2NKg0VqmPqHSdjCwGnysgTdBgsOkRsbfBKzcibkhDmtyFoQDVPum+DHIfvJRg7UMRabQek15BAjQOtVEPGaXuiCcApVGJSMCPcJzUvj4FpoALcqMWCtpHKxUiVADKeJD0CIYdgC1FQ9dD+/IMOmEXOhwq6ZFOmj6Knv4w1JoIojIVlZk6ZKUrER52wucPIazSIBBUIsVEGZgsgoHhCLTKKAIkxrQyJ2zhCty/MQfFJRm4bKYePg/VLzJM0POjH6lxnK7D1IO9r7Zgx5Yw7v7eEqQb1JC/pQWW9iMxHA46MdxXBZkmC+kTPpzcNnp0V/wDCA0gZ9JNgDQg+xiVQCRw4p5h+OkUPq0NNjXbj0VJAHHyVU/EBCX5T0O/AxSHA0EVjGryg5Js7NPAqAhAptaRHYxI0/hht3Nra0RqyfOF9Eg3UcAyOdwhDdLMJKg4CYzRrUjQuXhQfvdwkzQhg9oyCebsxcmN5w5PXNFX8xCM5jQYU4pIJBqOp5uTIBuCh6fyUbyltBQKUMWK4pM5HRmmGCION1zDlC50lD58cphS3Rj22PHk/W5ccXMZJpabESWn6NNtMKVY4dm7E/Xr16Pxjs9hYV4KCoPDcPKkH/o0GGJ+qGIhuFi0einNmcxQatRQup0Uyc2U9aigGrlGiuwBdxABCtuQaqRKIwlcaealADpdKmTq+clIGL2OMHSqOPwx7oqjIj/GYO/xI84z5FGFJOqXwZZlgk5DPj1TMUi+iUUoHnn7MNRXC1vxLZQlTEpuHAXoHv3OBvTXPor0/AXQp5VT3B6At2INHlhTi211XuiNqciZPg8rr52LRZPSoQ8HEsdynGdO68tTOHXf5M/EF1p3YhDSviesGPl6uvNJq07cP7kPVURCdgeaVm9B8JI5yCgrQA4PGzgS9om78/fkYVLFJOZEMBCB3Z+KDEscPOxvosJywnEjKFTw2OvgdnTCnLNCmiJbzrM0jhJDVRWw79lNcUaLlMJCqM1mabap0UFOFekgYvFOrP3SC2jWpcP4oSWYoqO8Sq1HX8OLqG7ahrrJf8WXl5SjrHs1dmx4ErvLP40pNjNKKE8LkV1iMcqz8vKRr+pBtGEtPn6oBDNz0nBLsQY+qkCo9W049FgzOptsWHTfPVie24o9zzdi9z4l7vzepcii9KwKk5BNXtVowrNydR04ALfLhZlf/yb5hspJwbiCp5J98sknUUjp4/2cSlbxE0IqrTmS8TKSYY0Sjz32mDRf7rJly5Jrzg6eyjEWGoLOlAGFUkuXd6K4lkNl0EJr0kBOQlRpzaGM3wA99wdVGKAjocrbFHoztFoDbBlWWiwwmIwwWqlQowJTR8cb0szQaXUwWEm4pphg0gIaKxWoKhWUPCjoMZOoKO8kMZSiTvQ9krZRQak2w0KC1qBXQ6bUwZxhhMFohtGkh9lEBWdUToW1BTqbFUYSxNZULTRavTTNZwpdDxf8KalmEtYRKHxDaIkWY2JxNkrLLBQu7UenkobJlLHIcqFzdyM6nCTQZpRjVp4u8W7KqZl8spTgWWoC3gG6Lrqm1KmJTaOIu38/2cEnTSV7RoXqOSDTmcjfCf8mWuvoj1xF660w6RTkPyO0KSlkYwOsNi3FBRM0egvZlnxsSYHBoAO5iI6hT5sBJioQ9HoTLFYSTiodFZpq2oeFEoc9xnD8iUdJvA4jSgWOQpsGjSk/ufHcYb977YeoIkXxh+wjV5zcd+hkFJCp9DBRXLRmpsNMcd/EFYSYkuKtCYasVJipELdmpkBnpnTmD6LVnoYFc3ORWUICmeyukccRbKlEU/sQ2nQUL2dkI1sjg5Lsqk1Lg5n8o6N0x08sTJTmjOkp0FMhqlXJoE6xSHFccWL8iVGa0WugtVD8pnQmxWaqECqokLdS+lNpyF8GTj+UpqT0Q/40UFqX031k0zkofZsorVnS6f7pWNnZtGSSb7iPbSTshd9rh47Eq0qXltw4OkSCQ+SfIxQvc+k+0hH3u+A5ugtHQlYgewIWlGWgrIAq3S1+DA3EkUN5gUpLVqAKOekDyLUashHHfwqMnxHz7UmjyNAKzs9p3zhVtqUX3bhRguM0xwE2JAn/qExPu9FBnHnwC3zc8stD9dF3GScAKb7QJ+3LdWMFj5U80rDBYylLY2nTvhx2PECCir7LFRSTaD0JUW1WGiwW8jdfE1XQYtK4wMpE2OwRvlQiHFFS/kzb7LXoaevCDmc+CtLU0GpoP7pXaTuPoc2n5qZEvn46T8g3SGnHRWmmWOqqwn1FRwv/QD98XZ1U/1GSOLZCoSFbj1bexv26I1Rh6z+M/+wje82Yj1tuX4IZ+dnILShCuVlG4lKFaOocTKJyRGVvh71vGKnXfBrXzpmOovIiFBQXoTDfijTKzNSePgQd7diiuQSXz5yGy2YXoiAnB7klRbD11GGwvwH7qJI0I8MLT4sTnd1yTFtaAKNSDgXFn1G6q5Pgrnfunh6EgkFkLV5CvknGG8G4YWBgAEePHoXNZkNxcTFS+Cn++8BFHrMo+VHhj1CydhzySRmx9KiQ+67yQOy8LUzrImHKmYKAjxYe6J4XrlXzAK9++s6fPFhugL9TuCPbOcM8BoXHrYxBWrjwkMQ+fUY5PDqec3ouXfitEb4Obn0IcYZN+/A1UEYuraMMXmo2jtA6viZe7w/QbyokjLmYkqOmzCl5XRzWSOHLqk0WQH97CDqNCTPmZVOBTddwNoXzxYzU2k0LmfkYlFmSGqCF/cK2PcHG7AMeG5i/s295PXfD4Lgh7cvbaWF/st+k+PABseVJJG3C8c3nT9iQ7cTxne3to7jJ9uNtfhK16lTMnEwVQKroSfGW7RiTwW/vhU8Rh2zGTBSpSJyyb9iu3AGf04aUHigcKc3xJ9udzsNp7dQ4zHFd8intm0QmpT/6zf7iJ0bsu2Pph76TqOJpRqU0ztfE5zsx/Vyw0PXFSXCGDJiy7Gp89N5P4zNfuQ0fuqEU1p5m1O08hLZQAH3Nveju6ENH7wA6Gnrg9fSjd8iDTjvnMRSEvRuO4QF0Ob3or+9GF+3X3tGP7tY++GMe9NR3oqOiA73dA2irb0DXIIkaTwDh/na0dtnRRgKyqbEDFbUD8A12YaC3D83tA+jv60VD6zCGh4cRcPWj4UgXurp60drSipqKRnS229HZ1Ejn6kFvQAVTfi7STDrIHQ44mtrR3TeE9pYudPcMwRmMw9tWh57WdrTQvfR2tqGx2wtXSxvsDXXY3UbX5B6Al87Z3NSL3t5uuqYhDA6ST6Wa+kUOibm4z0eVvXr4rluCzEunoig4iKDbjeBgH0Ip81Cy9Nv49CwbSk0yhBGkLKwDB3duxKvr12LnmrXYtmETDtcNYMBN6YDzf4o/0aAPXq8bcLsoLA9CdgMKZ2dg+g0m1JJ9vf4InXoc2E9wQRCLxSgLjkBJlTzu6vV+kWiBHSO4d8JIC+zy5cuTa8+Od26BHU9QISa1aNiQlaqF1UD3eWq5G+d1BmSXF6CgKA02eeRkfX0SiYxtPLXAjisuqBbYsyDOrdUG5ObqodMp6EQj6+PQZuYjtyAf5TZZorHuYo0O570FNg3xAJ2rqRrtVIGVmywokpPwVmRC3XkQSlU7OlJSsfOBPegeHkKfYxCHX92LeL4T25vjqG7SYcFEDYY2r0LVcB/2uGPY969dGFYF0FLTitpdlYjPUWHbn9dh97ZWtOllGHjjcRxRFMFJYt946Hn8p8sAZ+MhHN19FH/b7sNcwyFsanBgXb0HKYFmPL3GCVW8B0pvE+77Qw0CVg/qD2zHmy9uxcGwDdG6tagmkbl1MA+adS9hqMyE5q5OVP1nHaq0BnTu2oX2XidarPkIvfobvFA1iL19Hpj69+EPh4xQD7bBGvFgpysH89W7sPlIJ1467ERavA7/eWUQ7pgO06fbIOdGiYu4BVamVCPi7sVgw0Z0GeahID0b5cZI4t3FZJ7AaTdKK2RKPSLD+1B36El87++r8eSLL+Ghl1/F4+veQKVtKSbm56BUS+LX3oy17mKUpVkwPVWRnElQBlWgD8PeGLaGynBlcQD+dhfaO2WYKlpgBedId3c39u3bJ7W+lpSUwMT9VN8HxjxmsYiVxjgVnCGyhL3e1mS0QaGAbDy0RgguUiiOcvw7NQrKOF7SIqLm6CBTkniNQe7tgauxAocMBgyoLUiVeZCZ0o717ZmwV7lQ0HMALRondvemQ9XhxmR/LQ6S4PVAjyytA3ptG17Z50ajvBRFs+ZJY1ZfszgfZlMYtZ0RVHQU4tJ55bjqtvlYOLcUcyKAtvwyLJtVihuz/Ag4h9A76ILD40NYrwOmzcLs2YuxrLQcC0pysOCaabjk6pkozkpFrN+DGIlMuaMJHYN27AqkwxyLISsrgn6qrK3a2A6XMwXTpk3FiuvnYtYlk1HmjyJToUJaaTayirPQfZDuz2LFdXcvxZx5l+HW3C6Yoy3YN6S4aOtEI7C4U6rUsKXkoD0sxwA/JRgphXlYLZWHPvrR2S6HzxtHJGKGwTwXX/7hn/DwXx/Exgf+htX3/xG/vbIAM6ykVKUnJW9FJlMhFnLC5+uSpoRm/S2SpWC0CIfDcLlcMFCexEMZjhk8KhY/bXubPujHBSw/InQ4AKczccAowTcoOBsop+Hc5m1zatrATv2gdBsQXIBwHDxNHOUuAxw3RdR8j8igUCqhUlOBoFEBaj8VEnp4+knwyAYRyS2CrbAE0yYUY+b8mSjJKsHcbKBY24RDhytQoSmCXG9FPtyIFE1ETkEhZkyZiBmzpqDErIIuLQ2WnGzkZKUgNTtF6gLi9sbgdJtQUpBOIjMXhflpyArF4W7shI8+DcVFKJ4yAdNSVEiVRxGna7MW5CA7Mws51nRkp6Yiu4CXTFgNeqjCEcipEqMIueCnCo0vrQyTCnMwfdY0zJhaglmpaqgU6UhPz0BxYQbSslORJpfDqJBDZzHAmGZBdCgGs05P2wthzSvFRL2PpLgLQ1HZxR+1oiTudVToF0+E9vXd6NtRgw6NDRqjERpbGpSOKjTs+gd+cKAVFc4gNPRPpcrFjAXLcO2KK7Diyitx1fJLsSDfhDTuBi2VAxRv1Dro9UbpjW2N0QB1qgvth3txdI0LE7L1MOi4ZVYkTMHoEAgEMDQ0BIvFQvFu9F6gfAusRXt6gP37gbY2wO9PbkhwXMCycG1sBJqa3rLTe4VbEjMyMqRWWL5ZgUAgEJwOEhfxMNzDw+jr7sVwZyf6G0nMDFsRMM9AeV4KSkmw2DQyyA0kdAxTsaTYhqVLzUjJiKDmqQr402xQTimmAsWMIkVcenEO+lwYLZOwYpIGpA0R5OfL3Ac5FKYPBYw6yqNNHnS0dKOnvxWt3UPo8sUwuHszDtZ34ijSYE1LRyGd2wA6hq6TX9iLRsMURCzRrTkUQTgYQoTCluo1UZ7i2wKzyYxCOqfKqEVcloaS9FxcOycDWqUaYd4XdAwfSwfFZHKE/EE4u/sht6ng9gXR2tSOoY5m1Lt0CMnMyOTZEpPWumjhLgIaPWLZ5Vgw2A7Vod14fedh7D90GEcPH8HmnXvxyq692OoZwHA8AqWMbBMLwOtxweFygWo0if6yoaj0iofUrzUWgaOrHlVVh1Bz8DAOcFiH9mDLoSB6+kpxZYkRNr08YXOytSRjRXOs4BxgAWu322G1WqHjCQbGCm5Y7egA9u07AwHb0ADU1QFeb3LluZObmyt9dlKGzEJWIBAIBCfC3YbiUCjcqNu7B6uefhYPPfI4fvjVp7FHQwL1Y7egvHgulrRsxMCe9Xh8/QE89fQ+tAy5ESnNJcFXhujLUUyyRJA5byK0WaWYV/0iqvZsxSOv7sNLrx5BX4QED4kd2bE8OE4C1ojcPAPmzhnG84+8jD///Dk8sf4o9qi10OSYqfBwo3n3Iezi8ZLrOlHrC8NFYXAj+7Gm0BPydJZGkjyKkzS1TEGxSYt57k14ee8BPPGfN7Dp9aOoj5J4pV3kdNzxIOIkyvXwDLtQ/eoG+Kamoa3PjTd++wxefv4RPOHJh8s6CXP179Tn/2KBRGRYDURLcNvDd2FxaSt2fPI2LLnzLsy89UaseKgVD+b9CXvvmInr83Vw8kvIJ9jqLSjUiIZDOPzkT/CDb34M0z70YSy466OYecMDeF5TisV//wxWWOMwgisK7COB4NwJhUJwOBzS6DRjis+XWHi22MxMfqSf3JAgMQ4s09IC7N2bELLXXAMUFkqrzwUO+qGHHpI6/M6YMQM33XST1Cp7NrzjOLDnBIXD77VwWNJ0Xe8CD0xItWepL8ZFkQuQnakgueDGgeXNPB0vDwMk9eMl23OJyG+781vpZ2rbs/UH76Min/OwPuxvBZ+XVkpvT9DmuBwyJV0PXZo0csWZXsd75UIaB5Ztwo+sOW1KNo0k3vQ/HfwSJS9sv2hM6jXAXjzvHHuZky5gtH1FYZ/XcWBJgCLkQWSwC21uGXx0S3pZmARdBNqcHGRkW5Ei88PR0g2PXImgTIW4NwprYQasVhmig250H3HDOCMTlnQtlG43htt64dPpEQzJpCEGbcVGuAYAnVKD9HSK5O4+9CtS4OkaRKy+Gs1lk1Gsb0VDpQNP78zHTz9uhinVCIdPBmPUi0GPEpZUJQwWDRwuA3LT1JC5nfB4/JDl0nljTri9cgx6VUgJDEGWkwZ5LIRYfx/sahPg8kOt1UOTkQZ1fy9gs0CTooU25EV7lww2XQhyWRANvXHkFmjJHDF4hvzQGYNwxtOQlmJEdgrFUU6zF/U4sAynmMRMXMNNrWitaUebUkFZWQQxay5S8sqwIlMJBZV1bqcdXscggqlFsFAaNci45ToJxVN5NICwpw+767ow5A0mxsamJRI2I7+sEGWlmUiJBmlXPwb6/HBT/MosskItp/xuVMrRtyLGgR3/PP/88/j973+P5557Dnl5ecm1YwDr0qNHedyuhC7lBtETXgo8LmC5n8GRI0BrK8AjBpSXn7Tje4GD3rJlC7Zt2yY1M3/jG9846yEXRl/AcuZBmZHcjdaWKKV1LQqLqXCXnn0l9pAYEdrS7jEEe9rhUJkQt6QhS82ldnI7H3Tq5UhC4ISVx/ZlTnee04RxzvA1XGgClq5JGUfYOYCeigpU9IUwFFFDTzbNLynF1EIDDFqKH1KFgvbloZSYE4Pk+EMZZLC7DcNaG+RmGzLUdN63O+2IfUmkeTv74LbbIS+xYtBppAJBhxwuzPmyFR4MDQTR16/EhDITlGo6D8eJU33JjIbPqPB5/wUs+yOKoH0AbVUNaPdH4FdmITMnDzOnmniW3eM2kKDPiIuEnRdNDjMKMrQw6ZN2OpVjx5xiJ2k1/Rm5lrez70npZ+RPch1/xPhNbdLZ0EoTGSROl9znpOBonbT6pJXvzPkWsCkldD9UgSNxCQVdp3S99IcrVDxUmFShIjtrudIm3TztR9sCdAz7SEVxWEfbpeEAaftIhYQrhhwWLwHakV/Up+PjtI+MR6VQRRHv6kJ7TRs60tJgig/B5ZChxVeM25dlkljltMZpkT5Zg3DY/Nyax9mWzkMredpYHgZNxt95HS08niz3LWCn8BTAnC/wfiMVVR47liurPEwaj6PNw7FFaTtfKF9jiMLgnzwLW5TW8fjX0rBpHDatv+gFbAKuNCupIq8c8Svbi4cKDAUQCnF3DJ6tS0VmVkEeDpDp48fFa5I4i1iyh1pHYXDeKMUPgm0WpDRCcYTbrflcKrWCwqL8l9L5qeGMJkLAjm96e3uxevVqbNy4EX/4wx+QlZWV3DIGsHjlhfOO668HUlOTGxJwNpGAO+LyYLScCLivzSh0I+DW1nISwvxZV1cnfb7/JDNERS/2HujE/oPD0irJFHx9/J0/yWCJaRzZRHH4qvajrqkN1X7KYSnTYHEYl/bh/WlJ/JE+eH0iHFq4wKDfPG6aFJ6Uv9CG5O5SGNKMM8kV4x1VDL6hThx87nk89+wqPPrSm3jh9f3YeagRFb0eOKgslOxPWaxkW7bXSLzhD4qfUSoc3RV7Ud3agzo/Z46nsd3IMSM+okLd3zOEvqNV6HfU4M1qOyrauOClbexP9RDaOzqwYVOvVHhI4oH+J3zJ35PhJddJ5cTIuosVvm+fHf1NFdiyaSfWv7EF6zbsxZv7WlHljCLA8ZJvUbIh2YErj5FBePrrsO6QG320T6IVnTnBFmwX6ZhkfJc2JbfzKl4/MiYl7yfZkZbkh3Qu6XdyBadBdiIfy0KO86jBbgz39qDNK0NUSj+EdE765OOO+SZ57cyxdRcgHKF4ti1pTFsex5a+e/yJlnC2IUsOXsd9wngMYx/FXbajNF4u/XbTen4jnW+RBSOPz8vCksfDZWHLLevSmNg8KQTtF+VwSMjaDMidpIP9cCV2bB7AoM+EK6/IIK1MglEaM5vC5nN6aeFxlXkcXhaY9F8SlXwOJk7fpXF7+TppX7Y5iz6+ZhazfE8cFruCr4m3Se7gffi6aBuLdb4vvh8+Rjo/24S+j9zbOIIndYgG/Qg6nQhy31b+9PjIpBRnpe3kKRKDEdonRL5OxuKTkFGEj0eCiX6xI+FIYXmlmc1GOl3wuSJk4+AYi1fB+Ke5uRmDg4OYNm3a2I5AwLAO5X6v3HWAuxGcApUESfhCRsby4tEIKEGMBtnZ2VTeyNHY2CglyAuHiNSpPcSZo88Pb1hO5QFdHxeOVFDHqADw8VSWlMlzIa2gjCQcThbqXJBTJs1TXfoDie1SSwVl2lHK4D1eynC4QKJCOk6Zsdfrkx61eSlDDnBmLeVOXKaE4KZ9PREqhHkF/R/3UEEXllngT1+Jr/7k+3j2iZ/jwe+sxMdSd+HlbQ14/jAVWjzTT9SPABVmQS4sJTFJ66iwjpMPPN4olZ2UGVOmHojKEQ8mDceZueQD+s4+4sI2QPb10goqENNmlmPm9ZdhmiwEDRWWfi58fQGKCYmwY1EKkwSD9KoI6eJ4LCT5Mhzj8Ck8/qDr91F8CdB1xDmuXMwolXAd2IuO1l7E7/wWvvWTn+CvXyjBytw6PLzBQQKV9uH5iwPeRJzmY+QUfyneBsMyshX5ho3NdqG0HSObxLhLhozTj5/ST0jSMlL64JY7WsIkgjxkvyjZLkYCKEhpwhfl4ZHIlmRi8KNzSi/BZDgceDRMn8nWJF+EKpBUGXFVVqH2YBUOuyhMPpB8Fac06+Hn7yyOuRWSE1rEBx+FFyDBFOcWPcFxWNTKDFCmTsH1t6/Epz99Fa5fXoYsShEnzYomEAgESerr66WZuGbNmjX2ApYrutyCz31tT1PeHp/IgHdigcmjBXBLbFraWzrMvld43lx+iWv27NnSW2tn041g9CcyoHvkQlk5jLon9qOpqhtdNiW6t61BU8SGYa71738Or3WpMGhvR29XJ9bVqJHtbEQgIw8eEkaWA09hbXscHfZeOHtbsKpai/TeXThSXYcnDg9D7W/C6ztc6B8IIC/Vj+rGAbjpPvYdaMWLr7swcboPh7c0Yve2doTUXjS+cRBdMQWiWemwUU15dGBVwaLsQprIgK5JGYF3yIPGCheKF5YhLysVKk0UerMPR96Mw+zuRZa1FU++6YDX0YKW9kHsrpVhcpEfFZurcWBfPQbDPdj+bAU8WQaE9CrUbx1CQaEFam8N+tpbsHY4H5ntG3GkthWv1w8DPXuxvsuMrpoBaDurMJgZx5bVTejvHEBE7sOhV/bAnxJDV1CH4dY4Fi2QoXZzFfbtacGgjM67vgp+jQuDJIZ2ruugykYPDr7RgMP7h2CemwMDCSaelfOs4LRGAuJ9nchAroTG24Cmtk68sCcOm02L7JwsZBWUYkK6AflD27HtSBterQ/AEGjHxl1O+FxDsKZEcagnC9bGIyRa3XAUZCIl3oqN2x2o31cJbd8WvNKphtPejPauPrxRK0dB32asr+zG67X90PYexrMv1qKyZwi9PCXha0cQLlWhrbaTbF2NQXUQlZtr4QgPwadxYPNv16LaGURzRwM6Du1Eo6kQvorD6OoPosVYiLmy/di4twtbKHx4m/DcpiB0oW7IKZ68vN+DON3j1l092FcdRvmUFKhZ4L6Tv7jl63xOZKCj/JbF5PsC5aeUpynUPE22knT/2PWNHDXoei/aqWQ/AIiJDMY3TzzxhPRe0+c+9zlpAoMxbZg0GoF8Khd54e+nxKWTf1FixZQpiRe4eOdRgmfiKi0txa5du6TpCC8U4lSAK7U6GPVqWOUDaGjpQ2Wrj2oVcsogqWDua0RNQy3WHh2GKxCDkoUKLSqVAuGAF86BFjQ21dD2IfQ01WN4sB89MR30BgUcrX3oaRtGSKuB2Ua/mzrR1dgDv1FLIk4LDT86C5HI7e9F7c4jqG4aQDdPJTvuSUR2bnPm1rhAKEC/KBpm5yLTF4W8phb1h/dJ4qbb4UZnQyuqt+5FU2sFDlKFoDVsgFmvgUHD8+j74HTbUVU7LD2dRGAA3sF2VAwGUHuwCwP9PsQtJNwNeujJD4E+O7prm9BLhVFAqaKCj9crYPQ0obJjGFV2OVR0XUp7HQ7WdWBHkwND9kEMNh3AgeYWvFnRjsqNe3G4vgddAZk0HA7P4T+GyXdsiUYorZejaOpMzDf5Eexpwv79ddhf2Uf2kUOuVZMwjyDs7MdAVzN27G1FVYsTYW7JpJvWBzvQa+/H7vYQyLBoG/ahM6KHRiVDUEo/Daisb8C6I4NwtNSi3+nGIAlpvc6HxlonHE4ZjNx1r7se3e1V2FHXhjfrhjFgd2C45QgqG6qxsdGOoxUk9sIqmFR+qJzNONJPBWRcA5NZS2I0jv7DtehzeRGyWaCneBFsrkQ33UtFO/lwYwUqG4fhDJNvKQ5wu6zgREiYcb8LfvzPi/T44oMORW4qKKWCeSwL53HKMYsJzT/u4OGznE4ntFotUlJSxla8MjZbQrxyg6r0VO1kThaw3Ao7YULiTa9RHJyW+8FOIWHML3NdEOPBcm06FkOofDqKLl2KG5aWY+nN86FDBEMDcdimX42lJTYUp6ogVysgjwQTfY1iYWmgcMvUq7CoNBPlaSqqnSsho+3RmBoFJSVYcdVizJ8/H5fk61FgVSBuzUJ5oQFwmZGTVYz//tIcZGuzMWNWCeYvL4CZRIJWJ090gePHrRwfRjNOXMj5L0V+qXbON08JI0RqcGDQh+HGQZRNsiI1rwzZFA/LonVora9CX14BbMuuxtxZ83D7dfkoIhtHo3JoyQdSxUyuAulSaBVu1HelIytjIj60cgGmL78Rdy3Kw8ICNWJUaeHHo9aZczBt2TIsWViOlTfa4CMt19AZgTwWgay9Hv1mHVyFJcilityMKXJ4SNp29gI5Khc8QT3yF03C4usnIjUchyI5ksGFxwnXddpLjCIiK0TBtKX4+pcWY2m+HP6KzVjz4ov4w8ZBtGsmY+HUMtxQTpU8nRo6RRQKGVU8KCx2WdGcFKhtKlTtJIF7oAu2PANyl8+DbfIKXFpoRoFNDRmJWVkkjJhMR/lAGS5bMRczls3CtJmzsGzGLFyxaCKuWmKEqrsFncEI7GVlyDSYMWMS+VQdRnW3FqppS7B08UxcvmwilswtoZMbYKTKdmFpGqUpI7orI5g0MQ/X37wcM+csxYcLu6AxhNAcMSLdR5WbWBaltwm49tIsfoeQ0v5pjXF+uQAuQXB6uBsSd2+J8eNLiugXchZ6ISK9F05Gk/GTDsG4gWff2r17N4xUJrKeuxA4WcCOEYWFhZg5cyZ27NghqfezghODlNuPQWIIhaUXgqSwSYQojWr0d3bjzYfWogU25C1ZgmXzp2My7aGhS5CrY3D2dODNf69GvVeHtAWLseyS2ZimkMMQ01IwJGhlEUgDeXPGp1Ii7POg5uE1GCyigvnmq1EOHwmk9XhhZyNeac/E1Bnzcd1SG0pyFYiwEBq53VFnTAIlkuFKrRWJr+/MyP4Kqi/xwo+2Y0BvJ1pzjHDkZpNIJNuXlaJ8YjHmXjYfi++4EgvS1LBSRSHCby/TeYKk9qNUoeAX4GIxJVSsXBXkQ6qESEjxhsQTt3TLHOjo4C4dIcgVvC7xjkg4krzgSICOl5H45ceQccTlMRismSggn02fOhGT59+I60hw3b1yDq793n/jU9dNRUH9Dhx8+lm8PiiDK5ZokXwvJK6GGW3/UHhSkBz+21ycOo7GdTux7dktaDBYkT5jMa77+j342CcuR9beRnQ+/QTePNKIo2nTMfXSS3BFgRUT1RS3WQCSfSOFM5Gq0yK9ag9eO2hEdqoCua4qbHx4A9rUWShaegkunTMZk2lfVVxPBZoikT4iUfJ4DBF+bB6hT9YJJIx1ZhtyCiZg2uRSTJ53Ha5dOBe3TaNj9FQRZH/yviQu+CUkbjTkVexPLalSbkymaibdlAxBD1VOYxaUzF2Ez37vY7jzigz4t+/Cqr+vQzXF0wC/Ef9uSCajP1I8kgw5ioyE9zZ+EZwBIylntH1D+YLXC19fH/wO7t5DEUu0wp4VURI63NVPqdONfQud4LzBY79u2LABNpsNixYtSq59fzkvApbhm+aW2NraWvRR5nCm8HAvMplSGtZm1DIrTlM83EvjUdRv3Yin1u/FMw/XUOGowvTJOsDZiJq2NuzZXokDO6vR4vDAEQwgECM5FAlD6WlGUwdt312F/Vsq0DTowlAgCD+/pCIVePQZkSPSXYPu3S/gFzv6sONANeo2v4nVL+9GvTuIzu7EG/GNVXux6WgbjrT74PAlhdBopHkKg4p5sluQvsvp/2n6QI4CcgpX6pfM/pHu/V0g4SqLeBHsPoA31m3G0489jSf/+Tx+/MgQbEUZuOGOSciemImql49g/+ZN2HSkBhtadFCVzkWpvRaBDY/j1fVb8cTGHtT0WmAhW2f1r8XTr72GR5/ehld2dCMYM2Pu7BDsA7V46MHXsf6Jl/FGmwMtQQWnQhJOEfgP7Mbh11fh5Y378e/XlDDrVJiRF4EnpEC0ZDYmeNthOLwerx+ow8urGtE1ZIfX1YrdT6zDlkP12F7nQ3OvnETXaZ9snDHRaIiMqCQhNsqd4dnnSg0Jvaj0suBp41RUicJyHdSyHjz5syfx8LMb8eRjO7BpRwcsCwthNYUw1NeLI0eaUPHmHhyuaUejyyPNEOQPkUiUZ6NA58cU02Gs0RYjrElDMdyIO5tQ3dqG3VuP4tDuOrQ4vXAGQ9IsUBGKIyR9EQhGKI1QfKHriwYp7eTOQHbUh9wjq7HlcDVeXF2PqgY75EbQvsmXw2jfGL98RxUPlc6HnpZWbFpdC/W8dLTWdGLd/c9g7Zrn8bS7BHJyTEZPFV57agv2HTqK/XYvGsMGWOm2z6S3JNstRnZjv3D+M6okfRMNe/lEUpoQnAWc31DlJxph/3DDwejaj6fCldES45ERKL4KEXaGJO0U8ngQoTQt52HWBOMGL1XseFjUtLS0C0bAHn+Ja4zhFhReDh48CJVKhUmTzmxcxWjIRQXcEGIhJ7TGTCnjPyOh9LZwIqPjZTH4252Iq+WIZ1gQHgLKpk/A1FILUuR+BFOyoCFRKosooMnMxYxCDQw5eTAaTchXcX+7TKjCUShIHyrS8zC9UAtLThZ0KWnI0UQR8AAmbRBarR9VsQKUpuqRrYoiRMVnSnE2NHEDMtQxpFgicPhVMOZNQFFeBvL10cRlniskimQk7jxDjYjFldCYSkb1JaERgt4uEsluKbNSafhNQcq03tY/ZHs5XRV3F3AOIaAzSt0vwoEo+uSFuOKSUiycYqH4oURncwhmUxAxtQ4xVSamz8yHcXgQcr8LHmmAdrLnpCkoSzcgJ9iFPo0OvpAMOmsuisunY0mBRxrdobs/AqssCAXZN8OkAU8wpC/Khrw3AD2PypFigseXjjlzs1CUaoQaBkyYUwg9XZ8q4offaEHIEUF6aQoMyihclT3Sy3ZyQzqy8vMxbUaGJIrO7iUusgPZi4Wlo78CSi3Hm3Io1aM4qwkV8OHAEKUdshkVLGpDJq9MLkl4bMhUOaioRkv1EBQmFQIuiqHaFEy5fBbKrWHEdRa6XA1sYQ/8SguyytKRU5AORcyG0iwTLGoXtJogunMWYH5BCvJUfsRkEQRtWdDy8CcxNfRZOZhJ6UeblQezxYgMZQQulw75+Rak80D8wTCipSRg6Zpz+OUmawoCzigsmWak56dD6dNiQpkFJh0/1pXDayjEBIuHviuo4mjB4kszEHDIEBpwUoUiDG/6bMydYEFm1I2aaics2Xoo0nKRU1KEeSUmaf6SE81wMuwbNcL+QficnVBoMylOldEqU3L76MAv2bn79kBrSIVGyzYWhf27Q75Jilefsx1BnwPmnKVQcr7D20aJiM9HaX4YYYcDxsxMyjdH1/fjEspj+OVs7hLmbG+Hz+GE2pYK27Tp0jrBxY2HKiUHDhzAzp07sXLlSqkxcszgrjs8ZB/Hm3epPB6fyOBUYrHEMhLIuwT0bvA4qDwA7mc+8xnMnTsXP/vZz5Jb3plIYBju3j3w9O9EZvFyqKU3dum6zinD4mNpUVPNnb/yiwt8n1KfJ/rNTWp878fum77z8Fm8jnfgmuXINZy0nbbxY1H+zkM/cQM3f+cGghEz8ycfymmaj+Xv0iDfdNzI+UcFGSIhD3qbN0FnmyVl9KP9JjXjc9TDN3AAUX8PUnPnUWFiPH6vbwcXQjz4+jEb8ko6hp8lS7ah7Ww//i4ZhLfRomR/0XoOXxqaKWkv7rsttWSxvWkFDwbORuc+WFLYHNbIo0Dah1vzeKguPph9xvtx+PybfcWdPI+di8I9tp3gF5hG4gbvz10a3gsUbtA3iK6GtbAV3wZr3vLkhtGB36IPujsw3LqKzBNHesES6XIT130CbLNj9qYdRuzLcZFbtqTd+UDejz7ZJ2w/aSYuXk/7SE3QZF9pSC3a76T0Q5v4+JH0w2FL6YNWS+mFg6D9pTRI6/laRmwutbrSwvvydz6Ow+dzSdfGv2k9u4BX8zE85BmP8yy5hb5L/qJ9eD8+Nw/n9U7wPnIFXAPV0igKtv/f3pn9WFWsffiVhoZuupk6zIMyK+P5BIkoB8OFRk9wTIyJF3plTPz+B3Nu1CtvNCYmJmiUROKnMVEv1BwxEWdQpmYSlHlqGruh6QG60W89Vas4i+q1G2j27t4Nvyep7L3X2rWq6q3pt2rVqpr+aLpQfnH3++4632yN+/4vKcYXbPjISVY9Ylp6RvQEb7ifb22ws42/JVXvFpu06H+TIlG8FQig81yL/Vm/3Y795z82bs4cGzVtqlUM4UkTZStxohtBRjB97mAiclgmr+7OO2388nuT/KFyioEM4nXt2rVuOujq1att1qxZ6ZkSwD4EPKUfmdzYs7AAG58UoPAI7LFjZnv2JC1t0lmwgKybH9h7qPxM/t2xY4e1JXe41dXVNnXqVN8o9AAdB4+oO9tOWGvTPjdqxUjfLUOSDiXpaFyHd80u9ed619S5zpHv6fHsd+fC8cjfJZc5z/Xd/xLnrpM4ru9If4fjfLpzfMfv9TjSVeGmW5xr+t2aT2y1QZWjrWb8Mhs24vq3Bs6DJWzoVM411tuFtlOJhhjkRKwbKc/Nn2CbNM040u/av/Q/wTaX7M+x7HGI/5M4d430+2X/x6XXcJ/psWD3rP27hZU9n7pw3B1L/tstjXnO5w3Cq+v8WTfy2nSy3oaPXWI14/6nuKOvCW4O2rBRdvHCmUTIHrG2MweSMIY753Z8Ih3EK5tWlw/p90v2gsx59zP5dP4i/+G3+86x9Ltz4XjyGcK9ZGtc8JM6wgrhOL/Z/2V+h/9znE0Owm93Pj1+2bHEXZYvwaGS/7bOjjPWdPwXa2tpsKEjZtqICffYoCHFe6E1wNSooTVT7eyJJKym35KiMcSGVNb2UG9uZuftQbvW1rzfTh36LrHTKKub/nDS/oxJ87h4VFSyO1aVW06r5chhO5f0hRcvnLfKquokKklcwN2IyeGYasHmCWcOH7YTifBvPd1oo+YvsIn/vC+pO8W9uRD9w/r1693yWS+++GJpxSscPWr2449+V1iWdEXEFqDwCOyuXchuv4zBsmV+GYMigJJft26d28lhzZo17hhR6EnI8rjt/NkD1nZ6u3V1JMr8r/bE0xVGUm5akuxkdGrQMKsYOtaq6xYm4nV60UeQsjCXr71pV7pm7+kkf65yPuzNCvlTUW0VwyZa7fglVlk9MdFVCKji09VxOsmbPUne7LG/u5I7278vpHWnuJ3+wId6g00GJ9lTY5W1t1n1mPlWWTPZny4Rrad3WEfzLutqT9q1i0m75h87iDySm49bBlXZLUPrrHr0/CR/5iW/U0FZZBhJPJeI1+adO6z18CG72NrqXjr9q5OXdJM8UvW5RMWwYcnNRZd74W3Q8OE2YvYcG5MI2OqJk9J/iIHMTz/9ZJ9++qk1Njbaq6++asOLtD9ALkw7q68327TJr4Z1113shpWe7E5hAcvo63ffJe1pUllXrTKbOTM9cf288cYb9uGHH9prr73mlmOoCHe1V+BC6zHf4Lcc8C9AiO4k2VkxpNqG1k6z4WMWlGTe6+VQfHxr3ta0N3E7XD7xAozoDk+yK4aOdPMqhyc3F4OHFr67LBbsKNbevC+pO9uts73R502RR60GPNxEJ2KI/KgefUfi5lpFkUfFC8FNRsvJjXa+JRFKXe1JjdLNXwylddBg2rWpVjtuqQ2pGutPlJiOpNNuObDfWo8esQtnz7j5sX8xdUn1J4Elxm6xwYmgYWS6oqrKaqZNszELF9vgnG0/xcCDlQdeeukla2hosGeeecaWLk3qXilH1Rl13bbN7NQps3vvZROB3C1kA4UFLHMQtmzxF1y82Gz+/P9uNXudbEmu+8knnzhFz24O87m2EEIIIYTod86fP28///yzG3CcM2fOVb+3dF1s2GC2c6ef//qvf/ktZHtgUPrZnbo6S2Lt5h7ZwYN+XkKRYA/dRx991AlZducqi80NhBBCCCFuYsKYJgL25ZdfttmzZ9tTTz3ljpUMnvSjA0+f9ppz/HgztnC+AoUFLG92M+8VIctFjxwx92ZykWAi8OOPP25fffWVffTRR+lRIYQQQgjRH/A+EitGffDBB1ZVVWX33HNP3zwlZ1oO82snTfJTVtGgV6CwgAXmHkybZjZhgiUpKaqAZRUC5lQMTiL57bff2vbt29MzQgghhBCir2He69dff+123XriiSfc1vglB/GaaEI355U9AhCxV/FuVOE5sMCwLlu/cnEE7FUM6V4rbC/LC13szvXmm2/aiCvMeRBCCCGEEMXn448/duK1srLSXnnlFTcKW670PALLXAQm0+JKIF6B4ekHH3zQLc2Asfbv35+eEUIIIYQQpebixYu2YcMGe//99622ttat+VrO4hV6FrCAiC3hkiHMt1i+fLl7qevIkSNuPuxvv/2WnhVCCCGEEKWCaQNsE/vWW2+53bbQY2PYA6DMubKALTHMYGDaAKOwK1eudDt1IWKZRCyEEEIIIUoD4pXVoNisoLm52Z588kn3ZLxPCNuL95Ke58D2A++995598cUXNnr0aLeArubECiGEEEIUH/QW28QiXl9//XWbNm2aezJeUpCdXV1mra1+tYGamvTEtXHtAjZR68Y8VZQz68Re5S5aV8u5c+fcPIzPPvssSVurPfvss7aKncCEEEIIIcR1w8jrO++845Yyvf322+3pp592a74OYtpoqUG87ttntnu3GVMVli71CwVco3Cu+HdC+v3KhFUJ2Cnh2DGzykqz0aOLOkeWN98mTZpkQ4cOdS901dfXu+kEY8eOtZG8TCaEEEIIIXoFy5YyVXPbtm02d+5ce+SRR2zBggWlH3kNNDWZbd5sibgzGzXKbMaMXg2GXrvUZi3Yzk6zhgYvZM+eTU8UBwaEWZHgoYcesueee87tBsGCup9//rnt3bvX/RZCCCGEEFcPu56yPey6devcUlkzZ860F154we2O2me0tJgdOGB2/LjfLOvWW82GDElPXhu9mwNbX4+EN2trM1u0yBIJf8U9a3vL2UQgY+g1a9a4+bAMcyNu2QBBCCGEEEL0DOJ17dq19vbbb7udtZ5//nm7++67E+3YO/HYa9CPP/zgn9yvWGE2e3avp6L2TsB2dJjt2mW2caNfH3bJEr97QolEJSJ2586d7k25H3/8MUlrhVvm4bHHHnNTDYQQQgghxOWwLCmbE2zevNnGjRvnli1dvHix3XbbbW5H1D6FkdctW/zUgQULzBYu9PsM9JLer0LQ3Gz2669+GgH75CJiS7xiwJ49e+zLL7+03bt3W01NjZsXO2PGDDeHY9asWRKzQgghhLipYUUBdBKaifX1jx496vTRihUrbPXq1f2nlZK42N69/un9smVmdXV+r4Fe0nsBizdE7DffWKIkze64w7/Q1QeQOe+++67bgpYdI1g/lnXLWP6BaQa8CDZs2DA3UiuEEEIIcaPS2dlpHR0dl9zWrVtt/fr1br4r81x5Wv3AAw+494v6ndOn/btT06enB3pP7wUssCpBe7ufgIvrozfYiDJLQPDG3MaNG92SWyy9hWBdtGiR3XfffbZ06VI3RC6EEEIIcSPyV6LDWK2JnbSYYrlp06ZEG063+++/3y1Bys5aCFeWx+qzVQZ6AsmJK8JyXdcnYMuAtrY2O3jwoBsiP3nypDU0NLjPxsZGt47sqFGjXGZOmTLFxo8fb3V1dW45LqYgMIyuUVohhBBClBOITeQZo6vt7e1ujfympianbY4fP26HDh1y0wMYceXJM/Nb0TgTJkxwbvLkyU733MgaZ8AL2CxkNHM+WOOMT8QsIFaZrFxVVeWmF+BYxYCMLYs7EiGEEEKIDMgzXFdXl3M8eWYp0SBo+UTH8LR53rx5bnWBsnnyzJKrJRbPpRGwRBwHfTi1IA8yeNeuXW6UlrsVRmdZTqKlpcWdo1AIIYQQQpQTDLAx4MYAHE+OeYI8ceJEN7LK3FZeYi/LEVbW629s9LtrsU1skoZSUBoBm4hFt1wCb7otXuwT0Y8gUi8mghrHfBEcyQ5OCCGEEKKcCE+I+cQxjxXBymd4ilx28G7UoUNm33/v57mySQLLrJaA0gjYrVu9I/JEnI0OamvTk0IIIYQQ4oYCOckyWWx0xU5brDTAIOaUKekfisv1vwaWBwvTskUYa33t3s1KumatrelJIYQQQghxQ4BwbW83++MPv9MW4nXiRD94iRYsEaV7iYu1vr77zuzkSTN2e5g1y292oC1ghRBCCCFuDDo7vWhl2gDab/x4r/emTi2p5ivNCCywqcHKlX6f2wsX2EbLDyszKiuEEEIIIQY+zHtF53V0mM2ZY7ZqVcnFK5R+Ga0//zTbt8/vvMDetwwnaxRWCCGEEGLgw6pTTBM9etQPXk6YkJ4oLaUXsNDSYnbunJ8TIYQQQgghxHXQNwK2J0Lw/bhWrBBCCCGE6AH0Gg69Vgaarf8FLFMMYMQITS0QQgghhChHWN+VJ+roNea49jP9K2CZ9Pvrr/6tNebG3nqrf3tNo7FCCCGEEP0PopXNqfbv93Nd2a727rv7XauVbhWCq4E313hr7dgxs23bzHbs8EbCQNriVQghhBCi72Fsk3eXWB4LbbZli98elg2q2GW1nx/eQ/9PIWhqMtu1y2znTv8mG9vOTptmNm+eH5XFWEIIIYQQom/gCTkDi2xExVRP1vOfMcPsjjv8k/IyoP8FbBiFRdmzBRlD1MDGB8uXe6UvhBBCCCH6hvPn/RRPNBnilUFFVpIaPrxsBhb7X8BmYdcu1hFjCgGThDHYkCHpSSGEEEIIUXKYxsn0TvQYopW1XSsr05PlQXkJWCA6KH+mE6D640nCbFmGYcM8DCGEEEIIcfWgpYLWQksNG5aeyIAeK+OX6stPwF4JlnFgpJY7AubK1tSkJ4QQQgghRI+wpf+JE2aHD5s1N/spm/PnpycHDgNPwP70k59YHO4Y6ur8hGJe+Bo1yh/XMlxCCCGEEB6WwjpyxOzUKf/yPNv78/4R0wIWLzb7xz/SPw4cBp6AZULxH3/4zGD9WF4CY6rBmDFmd95pNm6cBKwQQgghRKChweybb/yIK1Mwa2v9wN/IkWaTJg3INfgHnoAFlncIL3zxSYbAqlV+d4g4ExC5rGfG8YoK74BPMpLjEr1CCCGEKHeYt4pDvqFvcPzmE2EaNE4WBvy++srveMqTa0Qrm0eV2YtZ18LAFLBAtEPmIU7JnMmT8yciM1r75ZdepIY7DvyNHu0dI7ha7UAIIYQQ5Q4Dd2gepgC0t/tPfvP94Yf9E+kYXn5HK6F3ELE3wMDdwBWwMYzKIkLzMoTM5s7jzBl/Z8I8WZLNf+fO9Vui5VFf7xfxzd6hBH8LFvg7mPjuhYLEHF0KEwUmxIe7I4Qzdzy8fBbfIfF/diFj2QrAXwgLYc7WbYjtLIhw0sQuGayjS6EE/GELxPqiRfl3WIT3/ff+e4gj8GYiCxXffnt6IGLjRj+PJiv4iQdhENbYsd1vBphrs327jyt2yNqEO0FsMmXK5fEAJpkfPOjzL6w7R1ikExvij7vNLFyTRZcJjxuXYGdsQhxZx27hwu5hARPaf/nlv3YMkI9MTyHMGK67YYO3ZzbdxIMXDLEJjUmc3+QXm3cQR9IU4sN3psGQNuIag+0pJ4QXrokfyjR+cGwGkoX48/gIm1A+szbhho+nFoXym/JP+cqmDX841mkmv2N4s5VHVbwokE038SC/qTvUhXgtQdLGWtAs2xIgHAijBZTpLNiZFzspJ6F+h+PYP9gkLpO0F+wwQx3nv9m4YD8W7J4+PT0QwY40TGPK1qtQLleuzH+xlDpAOYnDwibkM3WOshyXy99/9/mNLcM5bMI1qDOkjbn/WUgb9sBhy6xN+C9+KMux/Skb2HL3bh8WjrD4JE1z5vh8yOOHH3x9zdqZtOHvvvu62x+o17zTEMIK4I/2bvZs/7JuDBvfUFaIb/CH/cmP0C7E/rAf9iB9lM+QdvxRJgmPdjYGf+QB+Z2tN/gPSz3iPwZbUwcok9n2hPaVOrNiRXoggrzevLm7vbge9ieecf0mDfQ52JO8z9qE/4Y6QBuRhTKJTWj3uH7WH0sm4SdesJ60I4L27PF5kO1zsA/lizYvrw5gS2yC/bPtAjYh35YsSQ9E0E4SXtwGEV/sT77FaSOM0A9z/ZA20km+hToQt/X0HaEfDmGET8o+9o/FIfbClrSTzC/N2oQ4Uz6wSRxHYC7qt9/6/2brI3FGm5C+PGhLaJuxI/UF/4Dd//lP36ZkbRwIablBqPh3Qvp9YENm5WUMhQtH4UEAUnjptLkLIeM5RkeQBwWEikPFQ2jgaJCowFRw/MYVgIpDA0tjTuHkv/hjmgOFh46bAh0XLs7TkNCghLCoFHwSV/zEjQLp4vp0OGH93BBH7sSIGxU1jiMQHmKUMEIccVRgGti8xhwQQcxDjm1CZ0IFJ31x2kIcaWD5b/AX5uJgR9IX5x8iLzSwIY7El7CxBX7yGnPCoDEhvKxNiCN5T8OVV1bIM8RJ1h448hGRlyfWyNNNm3yDl7UJaaN8YUfiGosF7EzZosHL2oTvNHo0kvENC2GRptDAhnjih46Lso3Ai29YiAfhIdb4zNoSfwinQvlNXmPLOL/5nDnThxlD44swIW3B/riQ34RFmY5tQtoQsPgLZT98ks/YJA6P/EaIYhPyL5vfpJsOFZvEdYA4IupJG//N2iS0C4V2m6F+79vX3Sb85kYg7ykQ1//5Z2+DbPmibPF/OhzSGJdLyj7iibqQDYtrhDoQizXSRntA3uEvhEfYEGwS25+2i3JFXQ1hYQ/8YxNurPJGdoB6Q13NqwN0wnltEOKCG8asPYI/8hn759kSQUlYlOXgh3jS5lGWsUnsj7qP4MKW2TqALYkbNsFfDNckLPqCULYIi++UPfItvokGztG+UjazNiG/aR+5YcmDOCK8sn4ID0f88uo3YQVBGact2y7Eopj/Ub6oO9lySVihv8QuMcSNPKB8xTah/NKfxu0ykAfUAfI9+MMRZ8oy7Uke1DXqXNYmoQ5QRiiTcdqoA/ihPMf9MPain8ImPfXDpAk/4ZM2i7Di/KZd5jxlhDwIaSOO2X44jiPwn0L9MPlNv5MHbSX1lXTQL2EH2lXCIY7kX1y/Ia/fG8DcOCOwVwvJpaDQsFJYQ+eRBwWSSpotePinEHA3TKGJCyWFig6AaxNGKDDc+QWhgNDLqzgUfgom4C+EhVjGH4U1CxWRtBBPCnzoJPDHdwoyHWpexaFSs8sGZAs1FZ8lNQo1Jlu3dh9pIR78plEmzLizIo40sFTM7J0+32kkSRtpzMYD6HyxCZ+hMhIW18eG+Is7b65JY0DjRUMS7IxNaPip7NzZxmEBnQ0CHT/Z8+RjGHGP4bo0QORfNt3Eg7hh/zxRT37RMBNH0hTC4zsNK2nLE8zYHpuEjhDwQ4MVylbceRN/wqNc0qEFWxJ3/FH+C+U35Z/yFdcBHKPS5HcMYdBR0Xhn0008yG/qDnUhbmBJG50pHRXXxyZ8QmigY1GPnck3BBv5HsIL9g82ietAELCUS+yXtQmdLx1Hoc6DESE6ubgOkP933dW9TAJ1gHJCvLLpxiakDfvjLy6XjBgSVna0kThyDfKN9MUdahCwOPIghEfYiBkEBn5j+wcBizghrGB/Pum8GZEmrnnQlnDjkbUJ4eFv2bLu9gfqNcI3hBXAH3HMG20E6g1lhfgGf9ifMEJ+E24W7Bdskq0D+KNMEV5e2vCHmCEfQtkK9kd0MUqcJ/JIA3WANi/bLpDf1JmlS9MDEdRtylfWD+HhsD/xpM5mIQ3UbexJ3mdtQluATXCx8KVMYg/qD/HN+qPtIaxY1BMP6ic3AvgL8eQ49qF80b7m1QFsyY0t9s+2C8SZPOPJWB7c1BJetgwRHoR+OE4bYWAT2klsHtJGOsk30kaY2XgA7Tg2oR8mDPyFz9AGxfnN+dAPI86zNuE75Yt+II4jIGAZAOG/2fqITXgKRPnKg3RhT/KX/iWuyzcJN5+AhZDk8Fko8ynsVOZQ+LPgpyd/hcxayB//J6w8f4SPn7x4BH958eR3XEED+COeMRzHT09pK2QT/PUUx0Jpw12rTYI9CoUX8iA+z+9CNiEs/MV+uE5PNqGBjMMKv3uySZ79gf8Xyu9gD1zM1dgkD/wVSlshm0ChtEEhm4Sw8vwRFi4P/t8bf1dKW2/8YQ/85cXlWvN7INmkp/zOs0nI/6wYy1IKmwQ/sT+uicvzF/6fZ5PgJ04bBD/x8UBPdQBb5kE4heob/vLiCPjh2nkU8hfSluevp7QFf9dqE/z1lN83sk0KpQ1/hWyCn0Jp4zyOa+fF5ybh5hSwQgghhBBiwFJA3gshhBBCCFGeSMAKIYQQQogBhQSsEEIIIYQYUEjACiGEEEKIAYUErBBCCCGEGECY/T+claUhdu6UCgAAAABJRU5ErkJggg==;" vertex="1" parent="1">
          <mxGeometry x="1160" y="80" width="1281.71" height="870" as="geometry" />
        </mxCell>
        <mxCell id="u7efa2sKCdxbeHwGryJF-6" style="edgeStyle=orthogonalEdgeStyle;rounded=0;orthogonalLoop=1;jettySize=auto;html=1;exitX=1;exitY=0.25;exitDx=0;exitDy=0;entryX=0;entryY=0.5;entryDx=0;entryDy=0;entryPerimeter=0;strokeWidth=2;" edge="1" parent="1" source="u7efa2sKCdxbeHwGryJF-2" target="YntPkXyulkXuXodMfOfy-48">
          <mxGeometry relative="1" as="geometry" />
        </mxCell>
        <mxCell id="u7efa2sKCdxbeHwGryJF-7" style="edgeStyle=orthogonalEdgeStyle;rounded=0;orthogonalLoop=1;jettySize=auto;html=1;entryX=0;entryY=0.5;entryDx=0;entryDy=0;entryPerimeter=0;jumpSize=8;strokeWidth=2;" edge="1" parent="1" source="u7efa2sKCdxbeHwGryJF-2" target="RchtXjUBD6mUK6er0duv-54">
          <mxGeometry relative="1" as="geometry" />
        </mxCell>
        <mxCell id="u7efa2sKCdxbeHwGryJF-12" style="edgeStyle=orthogonalEdgeStyle;rounded=0;orthogonalLoop=1;jettySize=auto;html=1;exitX=1;exitY=0.75;exitDx=0;exitDy=0;entryX=0;entryY=0.5;entryDx=0;entryDy=0;entryPerimeter=0;strokeWidth=2;" edge="1" parent="1" source="u7efa2sKCdxbeHwGryJF-2" target="u7efa2sKCdxbeHwGryJF-9">
          <mxGeometry relative="1" as="geometry" />
        </mxCell>
        <mxCell id="u7efa2sKCdxbeHwGryJF-24" style="edgeStyle=orthogonalEdgeStyle;rounded=0;orthogonalLoop=1;jettySize=auto;html=1;strokeWidth=2;" edge="1" parent="1" source="u7efa2sKCdxbeHwGryJF-21" target="u7efa2sKCdxbeHwGryJF-23">
          <mxGeometry relative="1" as="geometry" />
        </mxCell>
        <mxCell id="u7efa2sKCdxbeHwGryJF-21" value="" style="shape=image;verticalLabelPosition=bottom;labelBackgroundColor=default;verticalAlign=top;aspect=fixed;imageAspect=0;image=data:image/png,iVBORw0KGgoAAAANSUhEUgAAAJsAAAAuCAYAAAA/ZmtKAAAAAXNSR0IArs4c6QAAAARnQU1BAACxjwv8YQUAAAAJcEhZcwAADsQAAA7EAZUrDhsAAAquSURBVHhe7Zt5UFXnGcZfuWyX5V6QC5RNQGmlKhE1MYLV1kJM3cY1qVk1Y5qO1bRT80/zT5tMJ00mTZo2k0wGJ4s145LGVh2rmZggVasyqHG3GpVNBFlkxwv3crHf851zLnc7cK7AydX5fjNnzvadw5Hz8LzLdxx1h0ECgQ4EyWuBYMQRYhPohhCbQDeE2AS6IcQm0A0hNoFuCLEJdEOITaAbQmwC3RBiE+iGEJtAN8Tc6DBxtsZKfQ7pVzkp1UjBhlF8W9DPfe1sHd191Hbb4Vx6ZTFoAWO1XguhgcpbdgpiIjtVLe3fbzQ03aKqmht8rez7gyZnu9Fqpz/vayBjqH/atNr6aNk0M80eH8X3t5e2UGn5bZoxNoJWzojlxwBe5h923fR5/7CQURQfHUw5KeGUnxWpyTGKL3TQnjPtdLHZTvVdfWRlQrGEBVFStIFyEkNpwQMmeigzQh7tTmVjD20ra6UTN3qorsNBTT19bteuzo+ljPgwebTE8Yrb/DmPVVgpMdJAYxNCaUJSuNuz7v/PIXlLGzEmM02fOlneI9rz5dcUFhYq73kTEhxCsTFmyhiTyq41yUclWtvb6fCxMn79j/NnUFio+n0ULl25SlfKKyktJZlyJ03gx3psNmpr76DmlhYyGo3U0trmPKcFTWLDC8h8t5rGhgcRfn/4I1d+j0a2ERk8ir8UoJzDupw5y7YFFqewXtl9kz4930XPTIqkVxZ/jx8DjR29NOPdKkpk98d9XE3E5X1RhslAby5KoNx0daG8tLOeTjfanc8AfG0/nxtFLy9IlA7KvL63nraz5wP4N7nS1XuH5qSFUavtDuWNi6A1THSKmCC2+CgDtbNn77FLP8hTzB9t+Yyvex0Ovh4My+hYWr5wnrxHVLR5K/t5hkGvx5icH2a7CRWUfXOGTp2/QJlMjHN/Mls+6hs4Fhc3E+Vjixc4xQmxWbu7yWazc8GNjo2lBEscP6cFTWKD83xxtl3ec+f1gy18vXpKNCWZgvm2KxNSw+kBlsMAiG3rhS56brL7i1bEFsVe8K/yYyhrdAh1yOLtYy/5bF037bx0m+93sv1D68ZQSkwI31dAKHtmSx3fhlB+PTOGZmVHOcchDF5k99nLHO/D0520cUkCFUyMdp5bt62WSqq7uYv5wsju+fhUE1XW99C3zDE7mGvvW5vuFNyhy51kYn8sdvbY2czVotm2KxBbVGQELZn/qCZn8QRi8xSgK3Cvm/UNdOL0OeqyWunhqblergMB1bIxvs4pQFCf797L77GUPas/YhqMIRcI4167xt1ix7PJTlGpMZjYgC8hAbjWmq111MTcciVzRtfrkZstKarm57Jig2nTs6leL9sVpAWmcINzDBztkzOdqkKDq/1lYTz96etb9IuHzc4/MDjdX59M4duDMdJiU1BzJaAICetFjxb6FBLCfUV1zYCCvFvU34gG/Em4tWKHNfgAeVJhliRm5FOubD7aTNe7HNzRPn46ZUChAYhZGQNHhNOpCQ1h/dVH4ngOuCwnikqu3uY/B8u+ym7uaIEEBARRw5k8gfDmzpFCaMl/j3LRuXL6/EUuNITa4RYaGJLY9MZkNPBkP9qjkPhbaRvPHRE6zREG+ag2tpW28vDti3rmlC/NiuWhvKzORtNZHoZQqwCBbjneJu8FFsjdfAExTpucw8JuBx08WioflRzx5JlzFMkSfxQRI8E9Iza46AHmKjDTn2VHykfZX2OVdAwoOZg//OOy5FSewNFeKxhNeZlGWr6nkbayNOGNr5q8HPBcPavQWE4bKEA0EFJaSpJquIZrwb3gYnAzAKcDcL67CfNaCCixIfdDRYccTFnwIiGo5z+9wavMWSlhbm0T9LZwHXK1WD9dDXmgL5CjfbA4gWawqnPp32t5RX2twUbnmuzyiH7gflXN7uHouwAhET2w/SWHuDtNZznXQMC9MO78/y7zHA8CheMNZ0HgyZAKBLjN+DfKh61AQOsjKszdZVDpIx+DoyBMugoNvH+giYfROWPCqYjla/6AlsVT2+qcbgWRWdgzvLM8keKigml+0XVeBPxxWRIvQKzsvCdwwC1PJKn27RRQIMAxjMZw+Yg6acnJXq0LFAgQh9r1Vms3F1yM2UQL5xZocielmABwwsFaIkMl4MIomrCV7Q7nAqEBCOHjE2206xv3HMnmQwB3AxxqaXYEFf8mg0xMfI99VMOF99bPk+m94kZe6Q4HEMVAS2tbO1m71WcgfF2DRUn2cT3cDa2QwUDPTKGjU+ovjiQB5Wy4D1wiOba/9YHqtLHTQXvPtvNeG/psG/LMtO6nFn4esxK/P9BMOZYQ+mxNmrPvpQVUopOLamjVOCNtKIzjz4/Zhxd2NXCX/XJdOp1iIfy5HfV83xcQafELqV6zCp4orY/lixb69YwKcLbkxATeslADgquoqqYjZSf5vlp7A0CM/9zzBX+mBIuFvi2voOyssSNWHICAcjYk+ujEozWhLHiJCFGYcUALApXjxuPtvFcGFGFebemlFj8T9UxLGB18Ook2rU7lQntnfyMXWgZ7hs/XpPIxv/t3o6rQAMbGRXv3BdVwOLzzPq3Y7ANfi9CZ/f0spyAPl5bxtS+KDx1hZuGgOT/KZ0se7+FdulrOp6lGioALowNRMCGahza0P67VS8n9lPQIZzV65Ip/oQC9NszbolBYvamG3mMihng2r0rhQn9xey0P32rgXE58f88uUICbIXdram7x6qUBtDxwbsqkiU7nK5g9k7dLMAOhJQTfDfeU2BQUcQG86MfHS8n5myXNvIL1BxQJBRtr6GhtD40zG2jXL6UZDMwqnKq3+WyLKED0T+W5FyyBDpwLDoaQ7FqEYPJ+5vRpvBkM1xsJ7imxfcXyNiTqCKXjEvtzpPWFUv4Gp4EbDTazgRwRC0CIzmXu9OTESNq/PoOLt+hwM5++Gkho+FnzM8IHrUK/C9ACQaGA6tW1KoVjHTxWxo8rMwmuIAQjb4PruTZ8h4uAEhtEhH4WwhqSd2VB0v7yjjp6lTkX3GQ+S+jhPgrYxtwlzsGN5n9QxaeRPF0OeR4KisUbr7uFXExxKV+h/Kusld4+3KI6fQUgtMRIqVINJBAy4Vz4nAj52IO5OfIZCTgWQuWsvOmqrREUCEr+BtEOJ8NSjYKdq4anz+b5iZECCjgcL0wPp/efSPZZ0UGUa3c3yHtEaZEGijEG8emt2s5e6uy547z/+odM9Nu58fJICVxfuP0m5cV4f72igOoTz/DWiiS/cjWlzxYSon5vVyKY+7hWnq59tt5eyZUVgoOD+TG7vdc5J+o5kQ6ngoCQp3n28DxRKlWwfNE8r+/j7pYhOxvcSG1u0RdqjoF74DMeCARJurIgj8KswdoHTVzQaNyqtQ4wXXVyQyYfi/sg5KLrf/hGD+/ZAbRI3p5noRcLpNDrCq7fuTSBfygJ4GAQJ9bgB3Eh9MmKRP4M/hYFipNAEFoWz8pTmetET81zLI4Bsymai2z1yhVuQoPbXa2o4o41mNCAkr8BuORwMeRPjAIZhONWuR2Cz7WTzCH8q18twG3r2uz8/xX4e63AN/e12ASBxZDDqECgFSE2gW4IsQl0Q4hNoBtCbALdEGIT6IYQm0A3hNgEuiHEJtANITaBbgixCXRDiE2gE0T/B6qEZHSj99OiAAAAAElFTkSuQmCC;" vertex="1" parent="1">
          <mxGeometry x="1570" y="970" width="572.83" height="170" as="geometry" />
        </mxCell>
      </root>
    </mxGraphModel>
  </diagram>
</mxfile>
